<svg width="256" height="56" viewBox="0 0 256 56" fill="none" xmlns="http://www.w3.org/2000/svg">
<path fill-rule="evenodd" clip-rule="evenodd" d="M9.26432 49.0365C11.7498 45.4202 17.0428 37.1081 19.3098 32.9586C20.5958 30.6054 25.9201 21.2339 29.9709 16.4726C32.7885 13.1612 34.3584 12.5408 37.7071 15.6772C39.5785 17.4302 41.5017 19.8963 43.2377 22.5585C45.4186 25.9025 47.3046 29.5566 48.4195 32.4909C46.4333 33.1875 40.0425 33.9697 37.7181 34.4218C34.0942 35.1264 15.3994 37.8077 16.2415 43.1875C16.9452 47.6827 20.7287 45.0311 22.7712 44.1375C25.3387 43.0151 29.2899 41.3851 33.9744 40.1019C39.9142 38.4745 47.4601 36.7679 51.1229 36.7034C55.3765 41.0394 58.3527 49.8953 62.8057 46.6182C66.322 44.0312 48.9777 19.7526 40.3888 10.9038C35.1773 5.53461 33.5425 6.82487 28.9592 11.8196C21.9724 19.4331 10.9107 34.7363 8.81233 37.7235C7.32649 39.8398 1.36604 48.6373 0.354845 51.7314C-0.496792 54.3371 0.270789 55.9529 1.73951 55.9993C4.155 56.0759 7.84945 51.0938 9.26381 49.0365H9.26432Z" fill="#D4AD8F"/>
<path fill-rule="evenodd" clip-rule="evenodd" d="M205.01 34.2105C208.174 35.1746 209.595 44.5073 213.239 41.9102C216.882 39.3125 208.687 30.0408 204.6 29.872C200.417 29.6986 196.723 33.8133 194.56 35.6937C190.722 39.0282 185.047 45.2996 179.297 44.7613C173.457 44.215 180.477 31.9923 186.821 28.3993C189.891 26.6604 193.76 26.9941 195.856 28.7374C200.487 32.5901 201.783 26.2542 195.822 23.71C185.825 19.4431 176.299 30.8654 173.332 39.3932C172.122 42.8688 172.572 45.1706 174.114 46.8076C183.714 56.9946 199.686 32.587 205.011 34.2105H205.01Z" fill="#D4AD8F"/>
<path fill-rule="evenodd" clip-rule="evenodd" d="M110.05 44.7911C113.642 42.3895 119.055 35.6776 121.798 32.703C122.832 31.5811 128.212 25.8797 130.05 27.3025C132.42 29.1391 132.485 36.0128 135.8 38.1357C136.537 38.6009 137.166 38.5711 137.798 38.2733C140.123 36.9553 142.931 32.3295 145.286 32.5145C148.311 32.7514 151.768 42.7332 156.641 44.2987C159.128 45.0975 161.034 43.9569 162.924 42.3482C163.958 41.4677 168.048 37.7123 166.001 36.549C165.101 36.0385 164.538 37.0274 163.68 38.2072C162.358 40.0262 160.522 42.4308 157.122 41.5085C152.658 40.2979 150.492 29.1074 146.619 27.0334C145.969 26.6851 145.233 26.479 144.399 26.8202C141.487 28.0112 137.279 37.2587 135.403 33.6102C133.985 30.8538 133.517 23.4776 130.843 22.2912C126.326 20.2863 123.235 29.2359 113.088 34.8329C110.686 36.1579 107.15 38.4517 106.505 41.3593C106.165 42.8885 106.355 44.1243 107.122 44.8173C108.155 45.7507 109.054 45.4559 110.05 44.7901L110.05 44.7911Z" fill="#D4AD8F"/>
<path fill-rule="evenodd" clip-rule="evenodd" d="M229.972 25.0937C229.583 36.0931 236.665 50.8278 249.354 50.2229C251.557 50.1181 253.103 49.7169 253.895 48.9816C254.687 48.2467 254.727 46.5079 253.033 46.6813C246.915 47.3078 243.939 46.2877 241.29 44.6048C235.627 41.0067 232.861 31.4794 232.837 25.1647C239.152 25.0534 245.453 25.7101 251.932 26.0024C253.616 26.078 255.335 25.825 255.092 24.3513C254.856 22.9154 251.933 22.9587 249.83 23.0026C243.316 23.1381 235.168 22.6397 232.704 22.372C232.251 17.4761 237.167 1.68055 233.801 0.0420241C228.127 -1.05873 229.835 19.8082 229.634 22.3257C226.889 22.239 222.515 21.4532 219.487 21.9653C215.043 22.7163 214.012 27.4998 218.709 27.339C222.333 27.215 224.509 25.1027 229.972 25.0942V25.0937Z" fill="#D4AD8F"/>
<path fill-rule="evenodd" clip-rule="evenodd" d="M73.9576 41.7387C73.0637 39.3386 74.1851 37.2057 74.1137 35.2355C73.9848 31.6495 70.4439 30.336 67.9725 32.5753C66.4233 33.9795 66.751 35.9129 67.1184 38.2197C70.0926 50.0856 75.3207 49.4304 79.8169 44.5279C81.8463 42.3148 82.5152 38.9037 84.0539 36.3116C87.3029 30.4641 92.2813 28.7671 95.2107 29.0029C98.0671 29.2328 98.6092 29.9727 100.366 30.838C101.763 31.5255 102.644 31.339 103.913 30.1995C106.743 27.6572 103.628 26.8881 101.315 26.3514C99.2489 25.8715 97.0157 25.6699 95.328 25.5908C84.4022 25.9819 81.576 29.7217 78.618 36.7243C77.943 38.3236 77.5715 40.2766 76.6862 42.0512C76.1099 43.2059 74.6497 43.7981 73.9571 41.7382L73.9576 41.7387Z" fill="#D4AD8F"/>
</svg>
