<svg width="40" height="56" viewBox="0 0 40 56" fill="none" xmlns="http://www.w3.org/2000/svg">
<g clip-path="url(#clip0_147_1219)">
<path d="M681.497 -56.8486H-641.8V112.848H681.497V-56.8486Z" fill="#01669F" stroke="#373435" stroke-width="0.00786999" stroke-miterlimit="22.9256"/>
<path d="M-357.102 4.42783H-317.053C-315.29 4.42783 -313.614 4.6034 -312.044 4.93697C-310.435 5.27782 -308.935 5.79041 -307.56 6.45099C-306.141 7.13379 -304.846 7.97157 -303.704 8.94354C-302.571 9.91212 -301.577 11.0199 -300.763 12.2428C-300.591 12.501 -300.348 12.783 -300.147 13.0289L-300.184 13.141C-299.522 14.2419 -298.978 15.4305 -298.566 16.6775C-298.126 18.0194 -297.835 19.4489 -297.712 20.9316C-297.552 22.4972 -297.564 24.1364 -297.759 25.8241C-297.95 27.4739 -298.323 29.1819 -298.878 30.9278C-299.223 32.0065 -299.639 33.0764 -300.105 34.1188C-300.575 35.1735 -301.094 36.2006 -301.641 37.1894L-301.651 37.2051C-302.098 37.9759 -302.584 38.7517 -303.098 39.5186L-304.257 41.1635C-303.852 41.5778 -303.49 41.9978 -303.105 42.4346C-302.824 42.7701 -302.559 43.1106 -302.334 43.4411C-300.658 45.8923 -299.616 48.8217 -299.308 52.0625C-299.013 55.166 -299.388 58.5651 -300.52 62.1088L-306.181 79.8512H-327.577L-321.758 61.6184C-321.655 61.2917 -321.587 60.9734 -321.556 60.6739C-321.523 60.361 -321.527 60.0546 -321.558 59.7742L-321.561 59.7501C-321.586 59.4663 -321.642 59.1946 -321.727 58.9453C-321.808 58.7096 -321.924 58.4858 -322.07 58.2881L-322.094 58.2556C-322.368 57.8444 -322.757 57.507 -323.232 57.2747C-323.7 57.0445 -324.266 56.9171 -324.909 56.9171H-390.908L-398.231 79.8512H-419.683C-413.95 61.8058 -408.169 43.7746 -402.41 25.7346H-414.874L-408.077 4.42773H-357.102L-357.102 4.42783ZM-211.696 4.43817H-170.24C-178.265 29.5741 -186.306 54.7066 -194.299 79.8513H-215.753L-208.435 56.9069L-270.717 56.9172L-278.037 79.8513H-299.49C-294.238 63.3284 -289.021 46.7592 -283.67 30.2711C-283.126 28.573 -282.419 26.901 -281.569 25.2806C-280.702 23.6308 -279.686 22.0329 -278.544 20.5105C-277.473 19.0618 -276.288 17.6702 -275.031 16.3681C-273.791 15.0847 -272.468 13.8736 -271.1 12.7643L-271.076 12.6901L-270.186 12.0539C-268.637 10.8669 -266.99 9.79162 -265.284 8.85063C-263.563 7.89925 -261.778 7.08068 -259.972 6.41814C-258.215 5.77509 -256.421 5.27591 -254.616 4.94042C-252.844 4.61222 -251.071 4.43817 -249.322 4.43817H-211.696H-211.696ZM-156.939 50.9444L-159.373 58.5739H-157.662H-157.514H-155.33H-155.299H-155.268C-154.619 58.5652 -153.947 58.4293 -153.295 58.1834C-152.581 57.9202 -151.881 57.5227 -151.248 57.0323L-151.113 56.9359C-150.225 56.2653 -149.233 55.19 -148.436 54.3986C-145.546 51.5258 -142.655 48.6495 -139.497 45.5446L-115.683 21.8623C-109.929 16.1408 -104.162 10.4056 -98.3597 4.67721L-98.1165 4.43813H-95.3398H-94.6898H-90.514H-90.19H-89.9276H-69.5039L-75.3231 10.2063C-84.314 19.1153 -93.303 28.0244 -102.242 36.9262L-133.361 67.8628L-133.754 68.2293L-134.182 68.6627C-134.789 69.2614 -135.539 69.9633 -136.289 70.6205C-136.955 71.2034 -137.645 71.7765 -138.266 72.2428C-139.87 73.4451 -141.548 74.5307 -143.262 75.4698C-144.98 76.4108 -146.753 77.2225 -148.55 77.8816C-150.294 78.5197 -152.082 79.017 -153.88 79.3505C-155.649 79.6791 -157.413 79.8513 -159.143 79.8513H-187.557C-179.567 54.7085 -171.558 29.5604 -163.498 4.43817H-142.103L-156.939 50.9444ZM-13.5253 4.43817H28.0466C24.3797 15.9809 20.7064 27.5253 17.0188 39.0612C15.4218 44.0585 13.7179 49.023 12.1208 54.0203C11.5758 55.7252 10.8736 57.387 10.0425 58.9901C9.18536 60.6415 8.17822 62.25 7.05872 63.7843C0.420288 73.0495 -9.42929 79.4194 -22.1661 79.8513H-101.25C-96.0022 63.3406 -90.5312 46.8315 -85.4384 30.2779C-84.895 28.5818 -84.1966 26.9216 -83.367 25.3219C-82.5079 23.6686 -81.4993 22.0601 -80.3748 20.5173C-74.6917 12.8331 -65.8907 6.70884 -56.3843 4.94042C-54.6128 4.61222 -52.8417 4.43817 -51.0929 4.43817H-13.5253ZM-18.0839 58.5686C-13.6462 58.4963 -9.88458 55.589 -8.59131 51.574L-0.253906 25.7347H-57.3604C-58.0519 25.7347 -58.7572 25.8739 -59.4368 26.1218C-60.1594 26.385 -60.8596 26.7721 -61.4894 27.2483L-61.9515 27.6182C-62.1927 27.816 -62.4156 28.0294 -62.6139 28.241C-62.8275 28.4732 -63.0242 28.7141 -63.2037 28.9548C-63.4365 29.2662 -63.6501 29.6001 -63.8296 29.9405C-63.9918 30.245 -64.1349 30.579 -64.2434 30.9278C-64.9181 32.5245 -65.5336 34.9532 -66.0855 36.6837L-73.0652 58.5739L-18.0838 58.5685L-18.0839 58.5686ZM-221.645 35.6192H-201.642L-198.487 25.7346H-255.595C-256.285 25.7346 -256.99 25.8738 -257.67 26.1217C-258.393 26.3849 -259.093 26.772 -259.724 27.2483L-260.184 27.6182C-260.426 27.816 -260.649 28.0294 -260.847 28.2409L-261.439 28.9582C-261.659 29.2523 -261.852 29.5691 -262.009 29.8908C-262.168 30.2174 -262.306 30.5667 -262.422 30.9278C-262.963 32.2131 -263.475 34.2241 -263.922 35.6192H-221.645H-221.645ZM-367.054 35.6192H-326.773C-326.503 35.6172 -326.204 35.5813 -325.903 35.5159C-325.573 35.4489 -325.231 35.3422 -324.895 35.2149C-324.541 35.0875 -324.193 34.9257 -323.852 34.7367C-323.503 34.5473 -323.169 34.3289 -322.864 34.0967C-322.225 33.6082 -321.651 33.0283 -321.189 32.3937C-320.746 31.7882 -320.394 31.1241 -320.175 30.4378C-320.066 30.0763 -319.976 29.7325 -319.933 29.4211C-319.89 29.1131 -319.88 28.8224 -319.907 28.5543C-319.931 28.329 -319.971 28.1121 -320.028 27.9158C-320.08 27.7353 -320.156 27.5547 -320.254 27.3826L-320.466 27.0387C-320.744 26.6412 -321.13 26.3161 -321.601 26.0889C-322.075 25.8636 -322.658 25.7347 -323.328 25.7347H-380.956L-384.111 35.6192H-367.054V35.6192Z" fill="#FFF212"/>
</g>
<defs>
<clipPath id="clip0_147_1219">
<rect width="39.699" height="56" fill="white"/>
</clipPath>
</defs>
</svg>
