<svg width="189" height="171" fill="none" xmlns="http://www.w3.org/2000/svg"><g clip-path="url(#a)"><g clip-path="url(#b)"><path d="M17.98 25.2c-.66 0-1.23-.09-1.7-.28-.47-.2-.83-.45-1.08-.77a1.84 1.84 0 0 1-.37-1.04c0-.06.02-.1.06-.15.05-.05.1-.07.17-.07h1.31c.09 0 .15.01.2.05.06.03.11.07.17.13.1.19.24.34.44.45.2.12.47.18.8.18.4 0 .7-.06.91-.19.21-.12.32-.3.32-.5a.48.48 0 0 0-.17-.38c-.1-.1-.27-.19-.5-.27-.23-.07-.57-.16-1.03-.26a4.49 4.49 0 0 1-1.88-.76 1.78 1.78 0 0 1-.62-1.45c0-.43.12-.8.36-1.14.24-.34.58-.6 1.01-.79.44-.19.96-.28 1.54-.28.6 0 1.13.1 1.58.31.45.21.78.48 1.02.8.23.31.36.62.37.93 0 .06-.02.11-.06.16a.21.21 0 0 1-.16.06H19.3a.47.47 0 0 1-.2-.04.42.42 0 0 1-.14-.14c-.05-.16-.16-.3-.35-.4-.18-.12-.4-.17-.68-.17-.31 0-.55.05-.72.16a.55.55 0 0 0-.25.5c0 .14.04.26.14.36.1.1.25.19.46.27.21.08.52.16.92.24a6.4 6.4 0 0 1 1.54.45c.4.18.68.4.86.7.18.27.27.62.27 1.05 0 .47-.13.87-.4 1.22-.27.34-.64.6-1.12.8-.48.18-1.02.27-1.64.27Zm6.27 0c-.62 0-1.11-.2-1.49-.6-.38-.43-.56-1-.56-1.76v-2.91c0-.08.02-.14.07-.2a.25.25 0 0 1 .19-.06h1.3c.08 0 .14.02.2.07.05.05.08.11.08.19v2.85c0 .69.3 1.03.9 1.03.3 0 .53-.1.7-.27.16-.19.25-.44.25-.76v-2.85c0-.08.02-.14.07-.2a.28.28 0 0 1 .19-.06h1.3c.08 0 .14.02.2.07.04.05.07.11.07.19v4.91c0 .07-.03.13-.08.19a.25.25 0 0 1-.18.07h-1.22a.28.28 0 0 1-.19-.07.28.28 0 0 1-.07-.19v-.4c-.36.51-.94.77-1.73.77Zm5.13-.1a.25.25 0 0 1-.19-.07.25.25 0 0 1-.07-.19v-4.91c0-.08.03-.14.07-.2a.25.25 0 0 1 .2-.06h1.13c.08 0 .14.02.19.07.05.05.07.11.07.19v.35c.16-.2.38-.38.64-.5.27-.15.58-.22.91-.22.77 0 1.3.3 1.59.9.17-.26.4-.48.7-.65.3-.16.62-.25.96-.25.57 0 1.04.2 1.4.59.36.38.54.96.54 1.72v2.97c0 .07-.03.13-.08.19a.25.25 0 0 1-.18.07h-1.22a.3.3 0 0 1-.2-.07.25.25 0 0 1-.07-.19v-2.9c0-.34-.07-.6-.22-.75a.74.74 0 0 0-.57-.23c-.23 0-.41.08-.56.24-.14.16-.22.4-.22.75v2.9c0 .06-.02.12-.07.18a.25.25 0 0 1-.19.07h-1.21a.25.25 0 0 1-.19-.07.25.25 0 0 1-.07-.19v-2.9c0-.34-.08-.58-.23-.74a.73.73 0 0 0-.57-.24.75.75 0 0 0-.56.24c-.15.16-.22.4-.22.74v2.9c0 .07-.03.13-.07.19a.25.25 0 0 1-.2.07h-1.24Zm9.75 0a.25.25 0 0 1-.18-.07.25.25 0 0 1-.08-.19v-4.91c0-.08.03-.14.08-.2a.25.25 0 0 1 .18-.06h1.14c.08 0 .14.02.2.07.04.05.07.11.07.19v.35a1.96 1.96 0 0 1 1.55-.72c.76 0 1.29.3 1.58.9.17-.26.4-.48.7-.65.3-.16.62-.25.97-.25.57 0 1.03.2 1.39.59.36.38.54.96.54 1.72v2.97c0 .07-.02.13-.07.19a.25.25 0 0 1-.2.07h-1.2a.3.3 0 0 1-.2-.07.25.25 0 0 1-.08-.19v-2.9c0-.34-.07-.6-.22-.75a.74.74 0 0 0-.57-.23c-.22 0-.4.08-.56.24-.14.16-.21.4-.21.75v2.9c0 .06-.03.12-.08.18a.25.25 0 0 1-.19.07h-1.2a.25.25 0 0 1-.2-.07.25.25 0 0 1-.07-.19v-2.9c0-.34-.08-.58-.23-.74a.73.73 0 0 0-.57-.24.75.75 0 0 0-.56.24c-.15.16-.22.4-.22.74v2.9c0 .07-.02.13-.07.19a.25.25 0 0 1-.2.07h-1.24Zm11.13.1c-.37 0-.71-.06-1.02-.2-.3-.15-.53-.34-.7-.59a1.46 1.46 0 0 1-.26-.82c0-.48.2-.87.59-1.16.4-.3.94-.5 1.63-.61l1.3-.2v-.14c0-.27-.05-.46-.16-.59-.11-.13-.3-.19-.57-.19-.16 0-.29.03-.4.09-.1.05-.2.13-.32.23l-.22.16c-.02.06-.06.09-.11.09h-1.14a.26.26 0 0 1-.18-.07.21.21 0 0 1-.05-.16c0-.2.1-.4.27-.63.18-.23.45-.43.81-.6.37-.16.83-.25 1.36-.25.86 0 1.5.2 1.9.58.42.37.62.88.62 1.52v3.18c0 .07-.02.13-.07.19a.25.25 0 0 1-.19.07h-1.21a.28.28 0 0 1-.19-.07.28.28 0 0 1-.07-.19v-.36c-.16.21-.37.39-.65.53-.27.13-.6.2-.97.2Zm.49-1.18a1 1 0 0 0 .77-.32c.2-.2.3-.51.3-.92v-.14l-.88.15c-.63.11-.94.33-.94.66 0 .18.07.32.22.42.14.1.32.15.53.15Zm4.48 1.08a.25.25 0 0 1-.19-.07.25.25 0 0 1-.07-.19v-4.91c0-.08.02-.14.07-.2a.25.25 0 0 1 .19-.06h1.2c.08 0 .14.02.19.08.06.05.08.1.08.18v.42c.39-.46.9-.68 1.55-.68h.46c.08 0 .14.02.19.07.05.05.07.11.07.19V21c0 .07-.02.14-.07.2a.25.25 0 0 1-.19.07H57.7a.9.9 0 0 0-.67.24c-.16.15-.23.37-.23.66v2.67c0 .08-.03.14-.09.19a.25.25 0 0 1-.18.07h-1.3Zm5.67 1.99a.21.21 0 0 1-.21-.22c0-.05 0-.1.03-.14l.81-1.96-2-4.75a.4.4 0 0 1-.04-.12.31.31 0 0 1 .09-.16.2.2 0 0 1 .15-.07h1.2c.14 0 .24.07.3.22l1.2 3.04 1.21-3.04c.07-.15.18-.22.32-.22h1.17a.2.2 0 0 1 .16.07c.04.04.07.09.07.15a.5.5 0 0 1-.03.13l-2.96 6.85c-.06.15-.16.22-.32.22H60.9Z" fill="#344563"/><path d="M15.42 39.37a.2.2 0 0 1-.14-.05.2.2 0 0 1-.05-.14v-5.3c0-.07.02-.11.05-.15a.19.19 0 0 1 .14-.05h.4c.1 0 .16.04.22.13l1.71 3.28 1.73-3.28a.2.2 0 0 1 .07-.1.23.23 0 0 1 .14-.03h.4c.06 0 .1.02.13.05.04.04.06.08.06.14v5.31c0 .06-.02.1-.06.14a.2.2 0 0 1-.13.05h-.4a.2.2 0 0 1-.14-.05.2.2 0 0 1-.05-.14v-4l-1.36 2.65c-.05.12-.14.17-.26.17h-.25c-.12 0-.2-.05-.26-.17L16 35.18v4c0 .06-.02.1-.05.14a.18.18 0 0 1-.13.05h-.4Zm7.34.08a1.7 1.7 0 0 1-.74-.16c-.23-.11-.4-.26-.54-.44-.13-.2-.2-.4-.2-.63 0-.36.15-.65.44-.88.3-.23.7-.38 1.2-.45l1.22-.17v-.24c0-.55-.32-.83-.96-.83a1.02 1.02 0 0 0-.92.5.22.22 0 0 1-.07.11c-.02.02-.05.04-.1.04h-.35a.2.2 0 0 1-.13-.05.2.2 0 0 1-.04-.13c0-.13.06-.28.17-.44.12-.17.3-.31.55-.43.24-.13.54-.2.9-.2.61 0 1.05.15 1.31.44.27.28.4.63.4 1.06v2.63c0 .06-.02.1-.06.14a.18.18 0 0 1-.13.05h-.37a.2.2 0 0 1-.14-.05.2.2 0 0 1-.05-.14v-.35c-.12.18-.3.32-.52.44-.23.12-.52.18-.87.18Zm.17-.61c.35 0 .64-.11.86-.34.23-.23.35-.57.35-1v-.23l-.95.14c-.38.05-.67.15-.87.28-.2.12-.3.28-.3.48 0 .21.1.38.28.5.18.11.39.17.63.17Zm3.33.53a.2.2 0 0 1-.14-.05.2.2 0 0 1-.05-.14v-3.84c0-.06.02-.1.05-.14a.19.19 0 0 1 .14-.06h.37c.05 0 .1.02.14.06.04.03.06.08.06.14v.35c.22-.37.6-.55 1.13-.55h.32c.06 0 .1.02.13.06.04.03.06.07.06.13v.33c0 .05-.02.1-.06.13a.18.18 0 0 1-.13.05h-.49c-.29 0-.52.09-.69.26a.93.93 0 0 0-.25.7v2.38c0 .06-.02.1-.06.14a.2.2 0 0 1-.13.05h-.4Zm4.69 0a.2.2 0 0 1-.14-.05.2.2 0 0 1-.05-.14v-.26c0-.12.07-.24.2-.36l1.73-1.72c.41-.35.7-.63.86-.85.16-.22.23-.45.23-.7a1 1 0 0 0-.26-.74c-.18-.17-.43-.26-.77-.26-.31 0-.57.1-.76.28-.18.19-.3.43-.34.74a.22.22 0 0 1-.09.15.22.22 0 0 1-.13.04h-.42a.18.18 0 0 1-.12-.04.16.16 0 0 1-.05-.12c.01-.29.09-.57.24-.83.14-.28.36-.5.64-.66.29-.18.63-.26 1.03-.26.61 0 1.07.16 1.38.48.32.31.48.71.48 1.2 0 .34-.1.65-.26.93-.17.27-.44.56-.8.88L32 38.66h2.54c.06 0 .1.02.14.06.04.03.06.07.06.13v.33c0 .06-.02.1-.06.14a.2.2 0 0 1-.14.05h-3.58Zm6.69.08c-.44 0-.81-.09-1.13-.26a1.86 1.86 0 0 1-.99-1.7c0-.28.06-.55.17-.8.12-.26.26-.5.4-.7l1.55-2.15.05-.06a.2.2 0 0 1 .09-.07.26.26 0 0 1 .13-.03h.43c.05 0 .08.02.11.05.03.04.05.08.05.13 0 .03-.01.07-.03.1l-1.19 1.66a2.08 2.08 0 0 1 1.5.21 1.9 1.9 0 0 1 .95 1.66c0 .35-.09.67-.25.98-.17.3-.4.53-.73.71-.31.18-.68.27-1.11.27Zm-.01-.7c.23 0 .45-.04.64-.14.2-.1.36-.24.47-.43.12-.2.18-.42.18-.69 0-.26-.06-.48-.18-.67a1.1 1.1 0 0 0-.47-.44c-.2-.1-.4-.14-.64-.14-.23 0-.44.05-.64.14-.2.1-.35.25-.47.44s-.18.41-.18.67c0 .27.06.5.18.7.12.18.27.33.47.42.2.1.4.15.64.15Zm5.15-1.48a.2.2 0 0 1-.14-.05.2.2 0 0 1-.05-.14v-.3c0-.06.01-.1.05-.14a.19.19 0 0 1 .14-.05h2.44c.05 0 .1.02.13.05.03.04.05.08.05.13v.31c0 .06-.02.1-.05.14a.18.18 0 0 1-.13.05h-2.44Zm5.3 2.1a.16.16 0 0 1-.12-.05.16.16 0 0 1-.05-.11v-.1l2.02-5.25c.05-.12.13-.18.26-.18h.56c.13 0 .21.06.26.18l2 5.26.02.09c0 .04-.01.08-.05.11a.16.16 0 0 1-.11.05h-.42a.21.21 0 0 1-.13-.04.26.26 0 0 1-.07-.1l-.45-1.15h-2.66l-.45 1.15a.23.23 0 0 1-.07.1.2.2 0 0 1-.13.04h-.42Zm3.49-2-1.1-2.88-1.1 2.89h2.2Zm2.42 3.54a.19.19 0 0 1-.14-.05.18.18 0 0 1-.05-.13v-5.4c0-.06.02-.1.05-.13a.19.19 0 0 1 .14-.06h.37c.06 0 .1.02.13.06.04.03.06.07.06.13v.36c.3-.42.75-.63 1.34-.63.56 0 1 .18 1.27.54.29.35.44.81.47 1.38a3.39 3.39 0 0 1 0 .55 2.31 2.31 0 0 1-.47 1.38c-.28.36-.71.54-1.27.54-.57 0-1-.2-1.32-.61v1.89c0 .05-.02.1-.05.13a.16.16 0 0 1-.13.05h-.4Zm1.72-2.12c.39 0 .67-.12.84-.36.18-.23.28-.55.3-.94v-.24c0-1.02-.38-1.53-1.14-1.53-.37 0-.65.12-.84.37-.19.25-.29.54-.3.88l-.01.3v.33c.02.32.12.6.32.83.2.24.47.36.83.36Zm3.12.58a.2.2 0 0 1-.14-.05.2.2 0 0 1-.05-.14v-3.84c0-.06.02-.1.05-.14a.19.19 0 0 1 .14-.06h.37c.06 0 .1.02.14.06.04.03.06.08.06.14v.35c.22-.37.6-.55 1.14-.55h.31c.06 0 .1.02.13.06.04.03.06.07.06.13v.33c0 .05-.02.1-.06.13a.18.18 0 0 1-.13.05h-.49c-.29 0-.52.09-.69.26a.93.93 0 0 0-.25.7v2.38c0 .06-.02.1-.06.14a.2.2 0 0 1-.13.05h-.4Zm6.68.08c-.7 0-1.21-.2-1.54-.61-.32-.4-.5-.94-.52-1.6a21.54 21.54 0 0 1 0-1.44c.02-.65.2-1.18.52-1.59.33-.4.84-.62 1.54-.62.7 0 1.21.21 1.54.62.33.41.5.94.52 1.59a21.57 21.57 0 0 1 0 1.44c-.02.66-.2 1.2-.52 1.6-.32.4-.84.61-1.54.61Zm0-.7c.4 0 .71-.13.92-.4.2-.28.32-.66.33-1.15a22.2 22.2 0 0 0 0-1.35 1.96 1.96 0 0 0-.32-1.15c-.21-.28-.52-.41-.93-.41-.4 0-.72.13-.93.41-.2.28-.31.66-.32 1.15l-.01.66v.69c.02.5.13.87.33 1.14.21.28.52.41.93.41Zm4.83.62a.2.2 0 0 1-.14-.05.2.2 0 0 1-.05-.14v-4.55l-1.35 1.04a.18.18 0 0 1-.12.05c-.05 0-.1-.03-.14-.08l-.21-.27a.2.2 0 0 1-.04-.12c0-.06.03-.11.08-.15l1.77-1.37a.39.39 0 0 1 .21-.05h.42c.05 0 .1.02.13.05.04.04.06.08.06.13v5.32c0 .06-.02.1-.06.14a.18.18 0 0 1-.13.05h-.43Z" fill="#5E6C84"/></g><g clip-path="url(#c)"><g opacity=".9" filter="url(#d)"><rect x="127.8" y="15.68" width="46.47" height="17.43" rx="3.49" fill="#FEFFFF"/><rect x="127.8" y="15.68" width="46.47" height="17.43" rx="3.49" stroke="#E9EDF0" stroke-width=".58"/></g><path fill-rule="evenodd" clip-rule="evenodd" d="M164.45 24.02a.48.48 0 0 1 .37-.78h2.64c.4 0 .63.47.37.78l-1.31 1.65a.48.48 0 0 1-.76 0l-1.31-1.65Z" fill="#344563"/><path d="M133.94 27.75a.15.15 0 0 1-.12-.05.15.15 0 0 1-.05-.11l.01-.1 2.02-5.25c.04-.12.13-.18.26-.18h.55c.13 0 .22.06.26.18l2 5.26.03.09c0 .04-.02.08-.05.11a.16.16 0 0 1-.12.05h-.41a.21.21 0 0 1-.14-.04.25.25 0 0 1-.06-.1l-.45-1.15H135l-.45 1.15a.23.23 0 0 1-.07.1.2.2 0 0 1-.13.04h-.41Zm3.5-2-1.1-2.88-1.1 2.89h2.2Zm2.41 2a.2.2 0 0 1-.13-.05.2.2 0 0 1-.05-.14v-5.4c0-.05.01-.1.05-.13a.19.19 0 0 1 .13-.05h.39c.05 0 .1.02.13.05.03.04.05.08.05.13v5.4c0 .06-.01.1-.05.14a.18.18 0 0 1-.13.05h-.39Zm1.98 0a.2.2 0 0 1-.14-.05.2.2 0 0 1-.04-.14v-5.4c0-.05.01-.1.04-.13a.19.19 0 0 1 .14-.05h.38c.06 0 .1.02.13.05.04.04.06.08.06.13v5.4c0 .06-.02.1-.06.14a.18.18 0 0 1-.13.05h-.38Z" fill="#344563"/></g><g clip-path="url(#e)"><g clip-path="url(#f)"><path d="M45.6 56.93v88.3M76.39 56.93v88.3M106.02 56.93v88.3M135.64 56.93v88.3M167.01 56.93v88.3" stroke="#E8EAED" stroke-width=".58" stroke-dasharray="2.32 2.32"/><path opacity=".75" d="M42.5 157.04a.16.16 0 0 1-.11-.05.16.16 0 0 1-.05-.12v-.36c0-.12.06-.23.17-.32l1.1-1.1c.48-.38.81-.67 1-.88.2-.21.29-.42.29-.62a.71.71 0 0 0-.18-.52c-.12-.13-.3-.19-.53-.19a.73.73 0 0 0-.55.21.92.92 0 0 0-.26.53.21.21 0 0 1-.07.13.23.23 0 0 1-.13.03h-.62a.14.14 0 0 1-.1-.04.13.13 0 0 1-.04-.1 1.6 1.6 0 0 1 .82-1.34c.27-.15.58-.23.94-.23.37 0 .68.07.94.2.26.12.46.3.59.52.13.22.2.48.2.76 0 .31-.1.6-.27.84a4 4 0 0 1-.8.81l-.99 1h1.99c.05 0 .09.02.12.06.03.02.05.06.05.11v.5c0 .05-.02.09-.05.12a.15.15 0 0 1-.12.05H42.5Zm6.13.07c-.62 0-1.08-.18-1.39-.52-.3-.34-.47-.8-.5-1.35a20.16 20.16 0 0 1 0-1.3c.03-.55.2-1 .5-1.34.32-.34.78-.51 1.39-.51.61 0 1.07.17 1.38.51.32.35.48.8.5 1.34a10.5 10.5 0 0 1 0 1.3c-.02.56-.19 1-.5 1.35-.3.34-.76.52-1.38.52Zm0-.8c.29 0 .5-.1.65-.3.15-.19.22-.46.23-.8a19.23 19.23 0 0 0 0-1.23c0-.34-.08-.61-.23-.8-.14-.2-.36-.3-.65-.3-.3 0-.5.1-.66.3-.14.19-.22.46-.23.8a18.33 18.33 0 0 0 0 1.22c.01.35.09.62.23.82.15.19.37.28.66.28ZM74.29 157.04a.16.16 0 0 1-.12-.05.16.16 0 0 1-.05-.12v-.9h-2.2a.16.16 0 0 1-.13-.04.16.16 0 0 1-.04-.12v-.47c0-.08.02-.15.07-.21l2.06-2.85a.2.2 0 0 1 .1-.09c.05-.02.1-.03.16-.03h.76c.05 0 .09.01.11.05.04.02.05.06.05.11v2.83h.62c.05 0 .1.02.13.05.03.03.05.07.05.12v.49c0 .05-.02.09-.05.12a.16.16 0 0 1-.12.05h-.63v.89c0 .05-.01.09-.05.12a.15.15 0 0 1-.11.05h-.61Zm-.15-1.86v-2.01l-1.43 2.01h1.43Zm4.23 1.93c-.62 0-1.08-.18-1.39-.52-.3-.34-.46-.8-.5-1.35a20.07 20.07 0 0 1 0-1.3c.03-.55.2-1 .51-1.34.31-.34.77-.51 1.38-.51.61 0 1.08.17 1.39.51.3.35.47.8.5 1.34a10.5 10.5 0 0 1 0 1.3c-.03.56-.2 1-.5 1.35-.3.34-.77.52-1.39.52Zm0-.8c.3 0 .51-.1.66-.3.14-.19.22-.46.23-.8a19.23 19.23 0 0 0 0-1.23c-.01-.34-.1-.61-.23-.8-.15-.2-.37-.3-.66-.3-.29 0-.5.1-.66.3-.14.19-.22.46-.23.8a18.33 18.33 0 0 0 0 1.22c.01.35.09.62.23.82.15.19.37.28.66.28ZM103.47 157.1c-.39 0-.73-.07-1.02-.22-.3-.14-.52-.35-.68-.6a1.66 1.66 0 0 1-.23-.88c0-.41.17-.87.53-1.35l1.28-1.75a.39.39 0 0 1 .09-.1.24.24 0 0 1 .14-.04h.65c.05 0 .08.01.1.05.03.02.05.06.05.1l-.03.1-.98 1.34.3-.03a1.83 1.83 0 0 1 1.48.83c.16.25.24.53.24.83a1.66 1.66 0 0 1-.9 1.5c-.3.15-.63.23-1.02.23Zm0-.8c.26 0 .48-.07.67-.23a.86.86 0 0 0 .27-.68c0-.28-.1-.5-.27-.66a.97.97 0 0 0-.67-.24.97.97 0 0 0-.67.24.83.83 0 0 0-.27.66c0 .29.09.52.27.68.18.16.4.24.67.24Zm4.44.8c-.62 0-1.08-.17-1.4-.51-.3-.34-.46-.8-.49-1.35a22.1 22.1 0 0 1 0-1.3c.03-.55.2-1 .5-1.34.32-.34.78-.51 1.39-.51.61 0 1.07.17 1.38.51.31.35.48.8.5 1.34a10.97 10.97 0 0 1 0 1.3c-.03.56-.19 1-.5 1.35-.3.34-.76.52-1.38.52Zm0-.8c.29 0 .5-.1.65-.28.15-.2.22-.47.23-.82a20.26 20.26 0 0 0 0-1.22 1.4 1.4 0 0 0-.23-.8c-.14-.2-.36-.3-.65-.3-.3 0-.51.1-.66.3-.14.19-.22.46-.23.8a17.51 17.51 0 0 0 0 1.22c.01.35.09.62.23.82.15.19.37.28.66.28ZM133.06 157.1c-.4 0-.75-.06-1.05-.18-.28-.13-.5-.31-.66-.54a1.37 1.37 0 0 1-.23-.78 1.27 1.27 0 0 1 .72-1.16c-.17-.1-.3-.24-.4-.4-.1-.18-.14-.38-.14-.6 0-.4.15-.73.46-.98.3-.25.74-.37 1.3-.37a2 2 0 0 1 1.29.37c.3.24.46.57.46.98 0 .22-.05.41-.14.59-.09.16-.22.3-.39.41.22.11.4.27.52.47.13.2.2.43.2.7a1.37 1.37 0 0 1-.9 1.3c-.3.13-.64.2-1.04.2Zm0-2.96a1 1 0 0 0 .6-.18.56.56 0 0 0 .24-.48c0-.2-.08-.37-.23-.49a.97.97 0 0 0-.6-.18.98.98 0 0 0-.62.18.58.58 0 0 0-.23.5c0 .2.08.35.23.47.16.12.36.18.61.18Zm0 2.24c.28 0 .5-.07.7-.2a.68.68 0 0 0 .27-.57c0-.24-.1-.42-.28-.56a1.1 1.1 0 0 0-.69-.22c-.28 0-.51.07-.7.21a.67.67 0 0 0-.27.57c0 .23.1.42.27.56.19.14.42.21.7.21Zm4.57.73c-.61 0-1.07-.18-1.38-.52-.3-.34-.47-.8-.5-1.35a22.1 22.1 0 0 1 0-1.3c.03-.55.2-1 .5-1.34.32-.34.78-.51 1.38-.51.62 0 1.08.17 1.4.51.3.35.47.8.49 1.34a10.74 10.74 0 0 1 0 1.3c-.03.56-.2 1-.5 1.35-.3.34-.76.52-1.39.52Zm0-.8c.3 0 .52-.1.66-.3.15-.19.22-.46.23-.8a20.26 20.26 0 0 0 0-1.23 1.4 1.4 0 0 0-.23-.8c-.14-.2-.36-.3-.66-.3-.28 0-.5.1-.65.3-.14.19-.22.46-.23.8a17.51 17.51 0 0 0 0 1.22c0 .35.09.62.23.82.15.19.37.28.66.28ZM162.46 157.04a.16.16 0 0 1-.12-.05.16.16 0 0 1-.05-.12v-3.61l-1.06.81a.15.15 0 0 1-.1.04.17.17 0 0 1-.14-.08l-.29-.37a.2.2 0 0 1-.03-.1c0-.06.02-.11.07-.15l1.56-1.2c.05-.04.1-.05.18-.05h.61c.05 0 .1.01.12.05.03.02.05.06.05.11v4.55c0 .05-.02.09-.05.12a.15.15 0 0 1-.12.05h-.63Zm3.58.07c-.62 0-1.08-.18-1.39-.52-.3-.34-.46-.8-.5-1.35a22.1 22.1 0 0 1 0-1.3c.03-.55.2-1 .51-1.34.31-.34.77-.51 1.38-.51.61 0 1.08.17 1.39.51.3.35.47.8.5 1.34a10.74 10.74 0 0 1 0 1.3c-.03.56-.2 1-.5 1.35-.3.34-.77.52-1.39.52Zm0-.8c.3 0 .51-.1.66-.3.14-.19.22-.46.23-.8a20.26 20.26 0 0 0 0-1.23 1.4 1.4 0 0 0-.23-.8c-.15-.2-.37-.3-.66-.3-.29 0-.5.1-.66.3-.14.19-.22.46-.22.8a17.51 17.51 0 0 0 0 1.22c0 .35.08.62.22.82.15.19.37.28.66.28Zm4.58.8c-.62 0-1.08-.18-1.38-.52-.3-.34-.47-.8-.5-1.35a18.91 18.91 0 0 1 0-1.3c.02-.55.19-1 .5-1.34.31-.34.77-.51 1.38-.51.62 0 1.08.17 1.39.51.31.35.48.8.5 1.34a10.74 10.74 0 0 1 0 1.3c-.03.56-.2 1-.5 1.35-.3.34-.76.52-1.39.52Zm0-.8c.3 0 .51-.1.66-.3.14-.19.22-.46.23-.8a17.38 17.38 0 0 0 0-1.23c-.01-.34-.09-.61-.23-.8-.15-.2-.37-.3-.66-.3-.29 0-.5.1-.65.3-.15.19-.22.46-.23.8a17.51 17.51 0 0 0 0 1.22c0 .35.08.62.23.82.15.19.36.28.65.28Z" fill="#5E6C84"/></g><g clip-path="url(#g)" fill="#5E6C84"><path opacity=".75" d="M16.45 62.35a.16.16 0 0 1-.11-.05.16.16 0 0 1-.05-.12v-3.61l-1.06.82a.15.15 0 0 1-.1.03.17.17 0 0 1-.14-.08l-.3-.37a.2.2 0 0 1-.03-.1c0-.06.03-.11.08-.15l1.56-1.2c.04-.04.1-.05.18-.05h.6c.06 0 .1.01.13.05.03.03.05.06.05.12v4.54c0 .05-.02.09-.05.12a.15.15 0 0 1-.12.05h-.64Zm3.47.07c-.41 0-.76-.07-1.05-.2a1.6 1.6 0 0 1-.64-.49c-.14-.2-.21-.4-.22-.6 0-.05.01-.08.04-.1a.17.17 0 0 1 .11-.05h.63c.1 0 .17.05.2.14.1.34.41.5.94.5.28 0 .5-.06.66-.2a.7.7 0 0 0 .25-.56c0-.47-.3-.7-.87-.7h-.72a.17.17 0 0 1-.13-.05.16.16 0 0 1-.05-.12v-.3a.3.3 0 0 1 .1-.2l1.25-1.22h-2a.16.16 0 0 1-.11-.05.16.16 0 0 1-.05-.12v-.46c0-.05.01-.09.04-.12a.17.17 0 0 1 .13-.05h2.99c.05 0 .09.01.12.05.03.03.05.07.05.12v.42c0 .07-.03.14-.09.2l-1.2 1.24h.08c.44.04.8.18 1.06.4.26.24.4.57.4 1 0 .31-.09.58-.26.8-.16.23-.39.41-.68.54-.29.12-.61.18-.98.18Zm2.83-1.77a.16.16 0 0 1-.12-.04.16.16 0 0 1-.05-.12v-.46c0-.05.02-.1.05-.12a.16.16 0 0 1 .12-.05h2.14c.05 0 .09.02.12.05.03.03.04.07.04.12v.46c0 .04-.01.08-.04.12a.15.15 0 0 1-.12.04h-2.14Zm4.45 1.7a.16.16 0 0 1-.11-.05.16.16 0 0 1-.05-.12v-3.61l-1.06.82a.15.15 0 0 1-.1.03.17.17 0 0 1-.14-.08l-.3-.37a.2.2 0 0 1-.03-.1c0-.06.03-.11.08-.15l1.56-1.2c.04-.04.1-.05.17-.05h.62c.05 0 .09.01.12.05.03.03.05.06.05.12v4.54c0 .05-.02.09-.05.12a.15.15 0 0 1-.12.05h-.64Zm2.31 0a.14.14 0 0 1-.1-.04.17.17 0 0 1-.05-.12l.02-.06 1.68-3.83h-2.2a.16.16 0 0 1-.11-.05.16.16 0 0 1-.05-.12v-.49c0-.05.02-.09.04-.12a.17.17 0 0 1 .13-.05h3.06c.05 0 .09.01.12.05.03.03.05.07.05.12v.44c0 .09-.02.19-.07.3l-1.66 3.8c-.05.11-.13.17-.23.17h-.63ZM16.45 81.52a.16.16 0 0 1-.11-.05.16.16 0 0 1-.05-.12v-3.61l-1.06.82a.15.15 0 0 1-.1.03.17.17 0 0 1-.14-.08l-.3-.37a.2.2 0 0 1-.03-.1c0-.06.03-.11.08-.15l1.56-1.2c.04-.04.1-.05.18-.05h.6c.06 0 .1.01.13.05.03.03.05.06.05.12v4.54c0 .05-.02.09-.05.12a.15.15 0 0 1-.12.05h-.64Zm3.59.07c-.4 0-.76-.06-1.05-.19-.29-.13-.5-.3-.66-.54a1.36 1.36 0 0 1-.23-.78c0-.26.06-.49.2-.69.12-.2.3-.36.52-.47-.18-.1-.31-.24-.4-.4-.1-.18-.15-.37-.15-.6 0-.4.16-.73.46-.97.31-.26.75-.38 1.3-.38.56 0 .99.12 1.3.37.3.24.46.57.46.98 0 .22-.05.41-.14.59-.1.16-.22.3-.4.41.23.11.4.27.53.47.13.2.2.43.2.7a1.37 1.37 0 0 1-.9 1.31c-.3.13-.64.19-1.04.19Zm0-2.96a1 1 0 0 0 .6-.2.56.56 0 0 0 .24-.47c0-.2-.08-.36-.24-.49a.97.97 0 0 0-.6-.18.97.97 0 0 0-.61.18.58.58 0 0 0-.24.5c0 .2.08.35.24.47.16.12.36.19.6.19Zm0 2.23c.27 0 .5-.07.69-.2a.68.68 0 0 0 .28-.57c0-.23-.1-.42-.28-.56a1.1 1.1 0 0 0-.7-.21c-.27 0-.5.07-.69.2a.67.67 0 0 0-.27.57c0 .24.09.42.27.56.19.14.42.21.7.21Zm2.9-1.04a.16.16 0 0 1-.13-.04.16.16 0 0 1-.05-.12v-.46c0-.05.02-.1.05-.12a.16.16 0 0 1 .12-.05h2.14c.05 0 .1.02.12.05.03.03.05.07.05.12v.46c0 .04-.02.08-.05.12a.15.15 0 0 1-.12.04h-2.14Zm2.99 1.7a.16.16 0 0 1-.12-.05.16.16 0 0 1-.05-.12V81c0-.13.06-.24.18-.33l1.1-1.1c.48-.37.81-.67 1-.88.19-.2.28-.42.28-.62a.71.71 0 0 0-.18-.52c-.12-.12-.3-.19-.53-.19a.73.73 0 0 0-.55.21.92.92 0 0 0-.25.53.22.22 0 0 1-.08.13.23.23 0 0 1-.12.03h-.62a.14.14 0 0 1-.1-.04.13.13 0 0 1-.05-.1 1.6 1.6 0 0 1 .83-1.34c.26-.15.58-.23.93-.23.38 0 .69.07.94.2.26.13.46.3.59.52.13.23.2.48.2.76 0 .31-.1.6-.27.85a4 4 0 0 1-.8.8l-.98 1h1.98c.05 0 .1.02.12.06.03.03.05.06.05.12v.5c0 .04-.02.08-.05.1a.15.15 0 0 1-.12.06h-3.33Zm6.54 0a.16.16 0 0 1-.12-.05.16.16 0 0 1-.05-.12v-.9h-2.2a.16.16 0 0 1-.12-.04.16.16 0 0 1-.05-.12v-.47c0-.08.02-.15.07-.21l2.06-2.85a.21.21 0 0 1 .1-.09c.05-.02.1-.03.16-.03h.76c.05 0 .09.01.12.05.03.03.05.06.05.12v2.83h.62c.05 0 .09.01.12.04s.05.07.05.12v.5c0 .04-.02.08-.05.11a.16.16 0 0 1-.12.05h-.62v.9c0 .04-.02.08-.05.1a.15.15 0 0 1-.12.06h-.6Zm-.14-1.86v-2.01l-1.43 2.01h1.43ZM15 100.69a.16.16 0 0 1-.11-.05.16.16 0 0 1-.05-.12v-.35c0-.13.06-.24.17-.33l1.1-1.1c.48-.37.81-.67 1-.88.19-.2.29-.42.29-.62a.71.71 0 0 0-.19-.52c-.11-.12-.29-.19-.53-.19a.73.73 0 0 0-.55.21.92.92 0 0 0-.25.53.22.22 0 0 1-.07.13.23.23 0 0 1-.13.03h-.62a.14.14 0 0 1-.1-.04.13.13 0 0 1-.05-.1 1.6 1.6 0 0 1 .83-1.34c.27-.15.58-.23.94-.23.37 0 .68.07.94.2.26.13.45.3.58.52.13.23.2.48.2.76 0 .31-.09.6-.27.85a4 4 0 0 1-.79.8l-.99 1h1.99c.05 0 .09.02.11.06.04.03.05.06.05.12v.5c0 .04-.01.08-.05.1-.02.04-.06.06-.11.06H15Zm5.97.08c-.38 0-.72-.07-1-.2-.27-.13-.48-.3-.63-.52a1.3 1.3 0 0 1-.23-.69v-.01c0-.04.02-.07.04-.1a.16.16 0 0 1 .1-.03h.66c.1 0 .17.05.2.14.07.2.18.36.33.46.15.1.33.14.53.14.26 0 .48-.08.65-.23a.84.84 0 0 0 .27-.67.79.79 0 0 0-.27-.61.92.92 0 0 0-.65-.24.89.89 0 0 0-.6.21l-.13.1a.23.23 0 0 1-.1.01h-.65a.17.17 0 0 1-.1-.04.17.17 0 0 1-.05-.1l.25-2.4c0-.05.02-.1.05-.13a.19.19 0 0 1 .14-.05h2.62c.05 0 .09.01.12.05.03.03.05.07.05.12v.46c0 .05-.02.09-.05.12a.16.16 0 0 1-.12.05H20.4l-.11 1.14c.22-.16.53-.24.9-.24.31 0 .59.06.85.2a1.48 1.48 0 0 1 .85 1.37c0 .34-.08.64-.24.9-.16.25-.38.44-.67.58-.28.14-.62.2-1 .2Zm2.8-1.78a.16.16 0 0 1-.12-.04.16.16 0 0 1-.05-.12v-.46c0-.05.02-.1.05-.12a.16.16 0 0 1 .12-.05h2.14c.05 0 .09.02.12.05.03.03.05.07.05.12v.46c0 .04-.02.08-.05.12a.15.15 0 0 1-.12.04h-2.14Zm4.81 1.77c-.4 0-.75-.07-1.04-.2-.28-.13-.5-.29-.64-.48-.14-.2-.22-.41-.23-.62 0-.04.02-.07.05-.1a.17.17 0 0 1 .1-.04h.63c.1 0 .17.05.2.14.1.34.42.5.94.5.28 0 .5-.06.67-.2a.7.7 0 0 0 .24-.56c0-.47-.29-.7-.87-.7h-.71a.17.17 0 0 1-.13-.05.16.16 0 0 1-.05-.12v-.3a.3.3 0 0 1 .1-.2l1.25-1.22h-2a.16.16 0 0 1-.12-.05.16.16 0 0 1-.04-.12v-.46c0-.05 0-.09.04-.12a.17.17 0 0 1 .12-.05h3c.04 0 .09.01.12.05.03.03.05.07.05.12v.42c0 .07-.03.14-.1.2l-1.2 1.24h.08c.45.04.8.18 1.06.4.27.24.4.57.4 1 0 .31-.08.58-.25.8-.16.23-.39.41-.68.54-.3.12-.62.18-.99.18Zm4.98-.07a.16.16 0 0 1-.12-.05.16.16 0 0 1-.05-.12v-.9h-2.2a.16.16 0 0 1-.13-.04.16.16 0 0 1-.04-.12V99c0-.08.02-.15.07-.21l2.06-2.85a.21.21 0 0 1 .1-.09c.05-.02.1-.03.16-.03h.76c.05 0 .09.01.12.05.03.03.04.06.04.12v2.83h.62c.06 0 .1.01.13.04s.05.07.05.12v.5c0 .04-.02.08-.05.11a.16.16 0 0 1-.12.05h-.63v.9c0 .04-.01.08-.04.1-.03.04-.07.06-.12.06h-.6Zm-.15-1.86v-2.01L32 98.83h1.42ZM16.7 119.93c-.42 0-.77-.07-1.05-.2a1.6 1.6 0 0 1-.65-.48c-.13-.2-.2-.4-.22-.62 0-.04.02-.07.04-.1a.17.17 0 0 1 .11-.04h.63c.1 0 .17.05.2.14.1.34.42.5.94.5.28 0 .5-.06.67-.2a.7.7 0 0 0 .24-.56c0-.47-.29-.7-.87-.7h-.72a.17.17 0 0 1-.12-.05.16.16 0 0 1-.05-.12v-.3a.3.3 0 0 1 .1-.2l1.24-1.22H15.2a.16.16 0 0 1-.12-.05.16.16 0 0 1-.05-.12v-.46c0-.05.02-.09.04-.12a.17.17 0 0 1 .13-.05h2.99a.17.17 0 0 1 .17.17v.42c0 .07-.03.14-.09.2l-1.2 1.24h.08c.45.04.8.18 1.06.4.27.24.4.57.4 1 0 .31-.09.58-.25.8-.17.23-.4.41-.69.54-.28.12-.61.18-.98.18Zm4.35 0c-.39 0-.72-.06-1-.19-.27-.13-.49-.3-.63-.52a1.3 1.3 0 0 1-.23-.69v-.01c0-.04.01-.07.04-.1a.16.16 0 0 1 .1-.03h.65c.1 0 .18.05.21.14.06.2.17.36.32.46.15.1.33.14.54.14.26 0 .47-.08.65-.23a.84.84 0 0 0 .26-.67.78.78 0 0 0-.26-.6.92.92 0 0 0-.65-.25.9.9 0 0 0-.34.06c-.1.04-.18.09-.26.15l-.13.1a.23.23 0 0 1-.1.01h-.65a.17.17 0 0 1-.11-.04.17.17 0 0 1-.04-.1l.24-2.4c0-.05.02-.1.06-.13a.19.19 0 0 1 .14-.05h2.62c.04 0 .08.02.11.05.04.03.05.07.05.12v.46c0 .05-.01.09-.05.12a.16.16 0 0 1-.11.05h-2.02l-.11 1.14c.23-.16.53-.24.91-.24.3 0 .58.06.84.2a1.48 1.48 0 0 1 .85 1.38c0 .33-.08.63-.24.89-.15.25-.38.44-.67.58-.28.14-.61.2-1 .2Zm2.8-1.77a.16.16 0 0 1-.12-.04.16.16 0 0 1-.05-.12v-.46c0-.05.01-.1.05-.12a.16.16 0 0 1 .11-.05h2.14c.05 0 .1.02.12.05.03.03.05.07.05.12v.46c0 .04-.02.08-.05.12a.15.15 0 0 1-.12.04h-2.14Zm5.5 1.7a.16.16 0 0 1-.12-.05.16.16 0 0 1-.05-.12v-.9h-2.21a.16.16 0 0 1-.12-.04.16.16 0 0 1-.05-.12v-.47c0-.08.03-.15.08-.21l2.06-2.85a.2.2 0 0 1 .1-.09l.15-.03h.76c.05 0 .1.02.12.05.03.03.05.06.05.12v2.83h.62c.05 0 .1.01.13.05.03.02.05.06.05.11v.5c0 .04-.02.08-.05.11a.16.16 0 0 1-.12.05h-.63v.9c0 .04-.02.08-.05.11a.15.15 0 0 1-.12.05h-.6ZM29.2 118V116L27.77 118h1.43Zm4.7 1.86a.16.16 0 0 1-.12-.05.16.16 0 0 1-.05-.12v-.9h-2.21a.16.16 0 0 1-.12-.04.16.16 0 0 1-.05-.12v-.47c0-.08.03-.15.08-.21l2.05-2.85a.2.2 0 0 1 .1-.09c.05-.02.1-.03.16-.03h.76c.05 0 .1.02.12.05.03.03.05.06.05.12v2.83h.62c.05 0 .1.01.12.05.04.02.05.06.05.11v.5c0 .04-.01.08-.05.11a.16.16 0 0 1-.11.05h-.63v.9c0 .04-.02.08-.05.11a.15.15 0 0 1-.12.05h-.6Zm-.15-1.86V116L32.32 118h1.43ZM17.28 139.03a.16.16 0 0 1-.17-.17v-.9H14.9a.16.16 0 0 1-.12-.04.16.16 0 0 1-.05-.12v-.47c0-.08.03-.15.08-.21l2.06-2.85a.2.2 0 0 1 .1-.09l.15-.03h.76c.05 0 .1.01.12.05.03.03.05.06.05.12v2.83h.62c.05 0 .1.01.13.04s.05.07.05.12v.5c0 .04-.02.08-.05.11a.16.16 0 0 1-.12.05h-.63v.9c0 .04-.02.08-.05.11a.15.15 0 0 1-.12.05h-.6Zm-.15-1.86v-2.01l-1.43 2.01h1.43Zm4.07 1.94c-.38 0-.71-.07-1-.2-.27-.13-.48-.3-.63-.52a1.3 1.3 0 0 1-.23-.69v-.01c0-.04.02-.07.04-.1a.16.16 0 0 1 .1-.03h.66c.1 0 .17.05.2.14.07.2.18.36.33.46.15.1.33.14.53.14.26 0 .48-.08.65-.23a.84.84 0 0 0 .27-.67.78.78 0 0 0-.27-.6.92.92 0 0 0-.65-.25.9.9 0 0 0-.34.06c-.09.04-.17.09-.26.15l-.13.1a.23.23 0 0 1-.1.01h-.64a.17.17 0 0 1-.12-.04.16.16 0 0 1-.04-.1l.25-2.4c0-.05.02-.1.05-.13a.19.19 0 0 1 .14-.05h2.62c.05 0 .09.01.12.05.03.03.05.07.05.12v.46c0 .05-.02.09-.05.12a.16.16 0 0 1-.12.05h-2.01l-.11 1.14c.22-.16.53-.24.91-.24.3 0 .58.06.84.2a1.48 1.48 0 0 1 .85 1.38c0 .33-.08.63-.24.89-.16.25-.38.44-.67.58-.28.14-.61.2-1 .2Zm4.13-.31a.16.16 0 0 1-.12-.05.16.16 0 0 1-.05-.12v-1.36h-1.33a.16.16 0 0 1-.12-.05.17.17 0 0 1-.05-.12v-.36c0-.06.01-.1.05-.12a.16.16 0 0 1 .12-.05h1.33v-1.33c0-.05.02-.09.05-.12a.16.16 0 0 1 .12-.04h.4c.06 0 .1.01.12.04.04.03.05.07.05.12v1.33h1.34c.05 0 .1.01.12.05.03.02.05.06.05.12v.36c0 .05-.02.09-.05.12a.16.16 0 0 1-.12.05H25.9v1.36c0 .05-.01.09-.05.12-.02.03-.06.05-.11.05h-.4Zm4.28 0a.16.16 0 0 1-.11-.05.16.16 0 0 1-.05-.12v-1.36H28.1a.16.16 0 0 1-.12-.05.17.17 0 0 1-.05-.12v-.36c0-.06.02-.1.05-.12a.16.16 0 0 1 .12-.05h1.34v-1.33c0-.05.01-.09.05-.12a.16.16 0 0 1 .11-.04h.4c.06 0 .1.01.13.04s.05.07.05.12v1.33h1.33c.05 0 .1.01.12.05.03.02.05.06.05.12v.36c0 .05-.02.09-.05.12a.16.16 0 0 1-.12.05H30.2v1.36c0 .05-.02.09-.05.12-.03.03-.07.05-.12.05h-.4Z"/></g><g clip-path="url(#h)" fill-rule="evenodd" clip-rule="evenodd"><path d="M112.12 61.58a1.74 1.74 0 0 1 0 3.48h-66.8v-3.48h66.8Z" fill="#42B8EA"/><path d="M95.27 55.77a1.74 1.74 0 1 1 0 3.48H45.31v-3.48h49.96Z" fill="#01669F"/><path d="M135.35 80.75a1.74 1.74 0 0 1 0 3.48H45.31v-3.48h90.04Z" fill="#42B8EA"/><path d="M153.36 74.94a1.74 1.74 0 0 1 0 3.48H45.31v-3.48h108.05Z" fill="#01669F"/><path d="M158.59 99.92a1.74 1.74 0 1 1 0 3.48H45.3v-3.48H158.6Z" fill="#42B8EA"/><path d="M153.36 94.1a1.74 1.74 0 0 1 0 3.5H45.31v-3.5h108.05Z" fill="#01669F"/><path d="M106.3 119.09a1.74 1.74 0 0 1 0 3.48H45.32v-3.48h61Z" fill="#42B8EA"/><path d="M101.08 113.28a1.74 1.74 0 0 1 0 3.48H45.31v-3.48h55.77Z" fill="#01669F"/><path d="M71.45 138.26a1.74 1.74 0 0 1 0 3.48H45.31v-3.48h26.14Z" fill="#42B8EA"/><path d="M89.46 132.45a1.74 1.74 0 0 1 0 3.48H45.31v-3.48h44.15Z" fill="#01669F"/></g></g></g><defs><clipPath id="a"><path fill="#fff" d="M0 0h188.8v170.79H0z"/></clipPath><clipPath id="b"><path fill="#fff" d="M0 0h188.8v170.79H0z"/></clipPath><clipPath id="c"><path fill="#fff" transform="translate(127.8 15.68)" d="M0 0h46.47v17.43H0z"/></clipPath><clipPath id="e"><path fill="#fff" transform="translate(14.52 55.77)" d="M0 0h158.59v103.4H0z"/></clipPath><clipPath id="f"><path fill="#fff" transform="translate(41.83 56.93)" d="M0 0h131.29v102.24H0z"/></clipPath><clipPath id="g"><path fill="#fff" transform="translate(14.52 56.35)" d="M0 0h21.49v84.81H0z"/></clipPath><clipPath id="h"><path fill="#fff" transform="translate(45.31 55.77)" d="M0 0h115.02v85.97H0z"/></clipPath><filter id="d" x="98.46" y=".87" width="105.15" height="76.1" filterUnits="userSpaceOnUse" color-interpolation-filters="sRGB"><feFlood flood-opacity="0" result="BackgroundImageFix"/><feColorMatrix in="SourceAlpha" values="0 0 0 0 0 0 0 0 0 0 0 0 0 0 0 0 0 0 127 0" result="hardAlpha"/><feOffset dy="14.52"/><feGaussianBlur stdDeviation="14.52"/><feColorMatrix values="0 0 0 0 0 0 0 0 0 0 0 0 0 0 0 0 0 0 0.04 0"/><feBlend in2="BackgroundImageFix" result="effect1_dropShadow_147_4376"/><feBlend in="SourceGraphic" in2="effect1_dropShadow_147_4376" result="shape"/></filter></defs></svg>