<svg width="353" height="173" fill="none" xmlns="http://www.w3.org/2000/svg"><path fill="#E6E6E6" d="M0 0h353v173H0z"/><g clip-path="url(#a)"><path fill="#fff" d="M-220-518h1920v4611H-220z"/><path fill="#181818" d="M-220-518h1920v2451H-220z"/><path transform="translate(-220 -518)" fill="url(#b)" fill-opacity=".2" d="M0 0h1920v2451H0z"/><g clip-path="url(#c)" fill="#fff" fill-opacity=".6"><path opacity=".5" d="M6.5-21.67c0-.3-.09-.54-.25-.74-.16-.2-.44-.4-.84-.56-.58-.22-1-.49-1.27-.83-.26-.34-.4-.77-.4-1.29 0-.53.13-.97.39-1.3A1.6 1.6 0 0 1 5.19-27v-1.07h.68V-27c.46.08.8.32 1.05.7.25.38.38.9.38 1.55h-.85c0-.45-.09-.8-.25-1.08-.17-.27-.4-.4-.68-.4-.3 0-.52.1-.68.29-.16.2-.24.48-.24.84 0 .32.09.59.26.78.17.2.46.38.85.54.59.22 1 .5 1.26.83a2 2 0 0 1 .38 1.27 2 2 0 0 1-.4 1.3c-.28.34-.67.55-1.18.62v.93H5.1v-.93c-.51-.08-.9-.3-1.18-.68-.27-.37-.4-.87-.4-1.49h.85c0 .45.09.8.27 1.04a.9.9 0 0 0 .77.37c.34 0 .6-.1.8-.3.19-.2.28-.49.28-.85Zm-.13 11.8c-.34.44-.74.66-1.2.66-.52 0-.93-.22-1.23-.65-.3-.44-.46-1-.46-1.71 0-.74.16-1.33.5-1.78a1.6 1.6 0 0 1 1.36-.67c.6 0 1.06.26 1.4.78.33.51.5 1.23.5 2.14v.27c0 .78-.06 1.42-.18 1.9-.12.5-.3.88-.52 1.18-.23.3-.53.53-.88.68-.36.16-.8.23-1.34.23v-.76h.15c.61 0 1.07-.2 1.39-.55.31-.36.49-.93.51-1.72Zm-1.06-.09c.21 0 .41-.08.61-.25.2-.18.35-.4.46-.69v-.38c0-.59-.1-1.06-.3-1.43-.2-.38-.45-.56-.74-.56-.31 0-.56.15-.75.46-.18.3-.27.7-.27 1.2 0 .48.09.88.27 1.2.18.3.42.45.72.45Zm2.02 14.1c0 1.04-.16 1.82-.46 2.34-.3.52-.78.77-1.44.77-.63 0-1.1-.24-1.41-.74a4.39 4.39 0 0 1-.49-2.24V3.06c0-1.04.15-1.8.46-2.32.3-.5.79-.76 1.43-.76.64 0 1.11.24 1.42.72.3.49.47 1.22.49 2.2v1.24ZM6.46 2.9c0-.75-.08-1.3-.24-1.66-.17-.35-.43-.53-.8-.53-.35 0-.6.17-.77.52-.17.35-.26.88-.26 1.58v1.46c0 .74.08 1.3.26 1.68.17.37.43.56.78.56.35 0 .61-.18.78-.53.16-.35.25-.9.25-1.62V2.91Zm.87 14.23c0 1.04-.16 1.82-.46 2.34-.3.52-.78.77-1.44.77-.63 0-1.1-.24-1.41-.74a4.39 4.39 0 0 1-.49-2.24v-1.21c0-1.04.15-1.8.46-2.32.3-.5.79-.76 1.43-.76.64 0 1.11.24 1.42.72.3.49.47 1.22.49 2.2v1.24Zm-.87-1.23c0-.75-.08-1.3-.24-1.66-.17-.35-.43-.53-.8-.53-.35 0-.6.17-.77.52-.17.35-.26.88-.26 1.58v1.46c0 .74.08 1.3.26 1.68.17.37.43.56.78.56.35 0 .61-.18.78-.53.16-.35.25-.9.25-1.62v-1.46Z"/><path opacity=".5" d="M6.5 6.4c0-.3-.09-.55-.25-.75-.16-.2-.44-.4-.84-.57-.58-.2-1-.48-1.27-.82-.26-.34-.4-.77-.4-1.3 0-.52.13-.96.39-1.3a1.6 1.6 0 0 1 1.06-.6V-.01h.68v1.07c.46.08.8.31 1.05.7.25.38.38.9.38 1.55h-.85c0-.45-.09-.81-.25-1.08-.17-.27-.4-.41-.68-.41-.3 0-.52.1-.68.3-.16.2-.24.47-.24.83 0 .33.09.6.26.8.17.19.46.37.85.53.59.22 1 .5 1.26.83a2 2 0 0 1 .38 1.27 2 2 0 0 1-.4 1.3c-.28.34-.67.55-1.18.61v.94H5.1v-.94c-.51-.07-.9-.3-1.18-.67-.27-.37-.4-.87-.4-1.5h.85c0 .46.09.8.27 1.05a.9.9 0 0 0 .77.36c.34 0 .6-.1.8-.3.19-.2.28-.48.28-.84Zm.68 9.58c0 .36-.07.67-.23.95-.16.27-.37.49-.64.64.32.16.57.4.74.7.18.3.27.65.27 1.03 0 .61-.17 1.1-.52 1.47-.34.36-.8.54-1.37.54-.57 0-1.03-.18-1.38-.54a2.05 2.05 0 0 1-.51-1.47c0-.39.08-.73.26-1.04.18-.3.42-.54.72-.7a1.68 1.68 0 0 1-.62-.63 1.92 1.92 0 0 1-.23-.95c0-.6.16-1.07.48-1.42.32-.35.75-.52 1.28-.52.52 0 .95.17 1.27.52a2 2 0 0 1 .48 1.42Zm-.72 3.3c0-.4-.1-.73-.29-.97a.9.9 0 0 0-.75-.37.9.9 0 0 0-.75.37 1.6 1.6 0 0 0-.28.97c0 .41.1.73.27.96.18.22.44.34.77.34s.58-.12.76-.34c.18-.23.27-.55.27-.96ZM6.33 16c0-.36-.09-.66-.25-.88a.77.77 0 0 0-.65-.34c-.28 0-.5.1-.66.33-.16.22-.24.52-.24.89s.08.66.25.88c.16.21.38.32.65.32s.5-.1.66-.33c.16-.22.24-.51.24-.87Zm1 16.2c0 1.04-.16 1.82-.46 2.34-.3.51-.78.77-1.44.77-.63 0-1.1-.25-1.41-.74a4.39 4.39 0 0 1-.49-2.24v-1.21c0-1.04.15-1.81.46-2.32.3-.5.79-.76 1.43-.76.64 0 1.11.24 1.42.72.3.48.47 1.22.49 2.2v1.23Zm-.87-1.24c0-.74-.08-1.3-.24-1.65-.17-.36-.43-.53-.8-.53-.35 0-.6.17-.77.52-.17.35-.26.87-.26 1.58v1.46c0 .74.08 1.3.26 1.68.17.37.43.56.78.56.35 0 .61-.18.78-.53.16-.36.25-.9.25-1.62v-1.47Zm.87 14.23c0 1.05-.16 1.83-.46 2.35-.3.51-.78.77-1.44.77-.63 0-1.1-.25-1.41-.74a4.39 4.39 0 0 1-.49-2.24v-1.21c0-1.04.15-1.81.46-2.32.3-.5.79-.76 1.43-.76.64 0 1.11.24 1.42.72.3.48.47 1.22.49 2.2v1.23Zm-.87-1.23c0-.74-.08-1.3-.24-1.65-.17-.36-.43-.53-.8-.53-.35 0-.6.17-.77.52-.17.35-.26.87-.26 1.58v1.46c0 .74.08 1.3.26 1.68.17.37.43.56.78.56.35 0 .61-.18.78-.53.16-.36.25-.9.25-1.62v-1.47Z"/><path opacity=".5" d="M6.5 34.45c0-.3-.09-.54-.25-.75-.16-.2-.44-.39-.84-.56-.58-.21-1-.48-1.27-.82-.26-.34-.4-.77-.4-1.3s.13-.96.39-1.3a1.6 1.6 0 0 1 1.06-.6v-1.08h.68v1.08c.46.08.8.31 1.05.7.25.37.38.9.38 1.55h-.85c0-.45-.09-.81-.25-1.08-.17-.28-.4-.41-.68-.41-.3 0-.52.1-.68.3-.16.2-.24.47-.24.83 0 .33.09.59.26.79.17.2.46.37.85.54.59.22 1 .5 1.26.82a2 2 0 0 1 .38 1.28 2 2 0 0 1-.4 1.3c-.28.34-.67.54-1.18.61v.93H5.1v-.93c-.51-.07-.9-.3-1.18-.67-.27-.37-.4-.87-.4-1.5h.85c0 .46.09.8.27 1.05a.9.9 0 0 0 .77.36c.34 0 .6-.1.8-.3.19-.2.28-.48.28-.84Zm.95 8.25L5 49.27h-.9l2.43-6.34H3.4v-.74h4.06v.5Zm-.12 17.55c0 1.05-.16 1.83-.46 2.35-.3.51-.78.77-1.44.77-.63 0-1.1-.25-1.41-.74a4.39 4.39 0 0 1-.49-2.24v-1.22c0-1.03.15-1.8.46-2.31.3-.51.79-.77 1.43-.77.64 0 1.11.25 1.42.73.3.48.47 1.21.49 2.2v1.23Zm-.87-1.23c0-.75-.08-1.3-.24-1.65-.17-.36-.43-.54-.8-.54-.35 0-.6.18-.77.53-.17.35-.26.87-.26 1.57v1.46c0 .75.08 1.31.26 1.69.17.37.43.56.78.56.35 0 .61-.18.78-.53.16-.36.25-.9.25-1.62v-1.47Zm.87 14.23c0 1.05-.16 1.83-.46 2.35-.3.51-.78.77-1.44.77-.63 0-1.1-.25-1.41-.74a4.39 4.39 0 0 1-.49-2.24v-1.22c0-1.03.15-1.8.46-2.31.3-.51.79-.77 1.43-.77.64 0 1.11.25 1.42.73.3.48.47 1.21.49 2.2v1.23Zm-.87-1.23c0-.75-.08-1.3-.24-1.65-.17-.36-.43-.54-.8-.54-.35 0-.6.18-.77.53-.17.35-.26.87-.26 1.57v1.46c0 .75.08 1.31.26 1.69.17.37.43.56.78.56.35 0 .61-.18.78-.53.16-.36.25-.9.25-1.62v-1.47Z"/><path opacity=".5" d="M6.5 62.5c0-.29-.09-.54-.25-.74-.16-.2-.44-.39-.84-.56-.58-.21-1-.49-1.27-.82-.26-.34-.4-.78-.4-1.3 0-.53.13-.96.39-1.3a1.6 1.6 0 0 1 1.06-.6V56.1h.68v1.08c.46.08.8.3 1.05.7.25.37.38.89.38 1.55h-.85c0-.45-.09-.81-.25-1.09-.17-.27-.4-.4-.68-.4-.3 0-.52.1-.68.3-.16.19-.24.47-.24.83 0 .33.09.59.26.79.17.19.46.37.85.54.59.22 1 .5 1.26.82a2 2 0 0 1 .38 1.28 2 2 0 0 1-.4 1.3c-.28.34-.67.54-1.18.6v.94H5.1v-.93c-.51-.08-.9-.3-1.18-.67-.27-.38-.4-.87-.4-1.5h.85c0 .45.09.8.27 1.04a.9.9 0 0 0 .77.37c.34 0 .6-.1.8-.3.19-.2.28-.49.28-.84Zm.04 7.74v.77H6.4c-.58.01-1.03.2-1.35.58a2.8 2.8 0 0 0-.56 1.69c.31-.4.72-.6 1.2-.6.53 0 .94.22 1.25.65.3.43.46 1 .46 1.69 0 .74-.17 1.33-.51 1.76-.34.43-.8.65-1.36.65-.58 0-1.04-.26-1.39-.77a3.52 3.52 0 0 1-.53-2.02v-.35c0-.97.11-1.75.32-2.32.21-.58.52-1.01.93-1.29.41-.28.92-.43 1.53-.44h.15Zm-.99 3.2a.95.95 0 0 0-.65.26c-.2.18-.34.4-.42.68v.36c0 .57.1 1.04.3 1.4.2.36.45.54.75.54.32 0 .57-.14.75-.44.18-.3.27-.69.27-1.18 0-.48-.09-.87-.27-1.17-.18-.3-.42-.46-.73-.46ZM7.33 88.3c0 1.04-.16 1.83-.46 2.34-.3.52-.78.78-1.44.78-.63 0-1.1-.25-1.41-.75a4.39 4.39 0 0 1-.49-2.23v-1.22c0-1.03.15-1.8.46-2.31.3-.51.79-.77 1.43-.77.64 0 1.11.24 1.42.73.3.48.47 1.21.49 2.19v1.24Zm-.87-1.23c0-.75-.08-1.3-.24-1.65-.17-.36-.43-.54-.8-.54-.35 0-.6.18-.77.53-.17.34-.26.87-.26 1.57v1.46c0 .75.08 1.3.26 1.68.17.38.43.56.78.56.35 0 .61-.17.78-.53.16-.35.25-.89.25-1.62v-1.46Zm.87 14.23c0 1.04-.16 1.83-.46 2.34-.3.52-.78.78-1.44.78-.63 0-1.1-.25-1.41-.75a4.39 4.39 0 0 1-.49-2.23v-1.22c0-1.03.15-1.8.46-2.31.3-.51.79-.77 1.43-.77.64 0 1.11.24 1.42.73.3.48.47 1.21.49 2.19v1.24Zm-.87-1.23c0-.75-.08-1.3-.24-1.65-.17-.36-.43-.54-.8-.54-.35 0-.6.18-.77.53-.17.34-.26.87-.26 1.57v1.46c0 .75.08 1.3.26 1.68.17.38.43.56.78.56.35 0 .61-.17.78-.53.16-.35.25-.89.25-1.62v-1.46Z"/><path opacity=".5" d="M6.5 90.56c0-.3-.09-.54-.25-.74-.16-.2-.44-.4-.84-.56-.58-.22-1-.49-1.27-.83-.26-.34-.4-.77-.4-1.29 0-.53.13-.97.39-1.3a1.6 1.6 0 0 1 1.06-.61v-1.07h.68v1.07c.46.08.8.32 1.05.7.25.38.38.9.38 1.55h-.85c0-.45-.09-.8-.25-1.08-.17-.27-.4-.4-.68-.4-.3 0-.52.1-.68.29-.16.2-.24.47-.24.83 0 .33.09.6.26.8.17.19.46.37.85.53.59.22 1 .5 1.26.83a2 2 0 0 1 .38 1.27 2 2 0 0 1-.4 1.3c-.28.34-.67.55-1.18.62v.93H5.1v-.93c-.51-.08-.9-.3-1.18-.68-.27-.37-.4-.87-.4-1.49h.85c0 .45.09.8.27 1.04a.9.9 0 0 0 .77.37c.34 0 .6-.1.8-.3.19-.2.28-.49.28-.85Zm-2.6 11.28.3-3.53h3.08v.83H4.92l-.16 1.93c.29-.2.6-.3.94-.3.55 0 .99.2 1.3.63.31.43.47 1 .47 1.73s-.17 1.3-.51 1.73c-.34.42-.81.63-1.41.63-.53 0-.96-.18-1.3-.52a2.26 2.26 0 0 1-.57-1.44h.8c.05.4.17.7.35.91.19.2.43.31.72.31.33 0 .6-.14.78-.43.2-.3.29-.69.29-1.18 0-.46-.1-.84-.31-1.13a.94.94 0 0 0-.82-.44c-.28 0-.51.07-.68.22l-.23.23-.69-.18Zm3.43 14.53c0 1.04-.16 1.82-.46 2.34-.3.52-.78.78-1.44.78-.63 0-1.1-.25-1.41-.75a4.39 4.39 0 0 1-.49-2.24v-1.21c0-1.04.15-1.8.46-2.32.3-.5.79-.76 1.43-.76.64 0 1.11.24 1.42.72.3.49.47 1.22.49 2.2v1.24Zm-.87-1.23c0-.75-.08-1.3-.24-1.66-.17-.35-.43-.53-.8-.53-.35 0-.6.17-.77.52-.17.35-.26.88-.26 1.58v1.46c0 .74.08 1.3.26 1.68.17.37.43.56.78.56.35 0 .61-.18.78-.53.16-.35.25-.9.25-1.62v-1.46Zm.87 14.23c0 1.04-.16 1.82-.46 2.34-.3.52-.78.78-1.44.78-.63 0-1.1-.25-1.41-.75a4.39 4.39 0 0 1-.49-2.24v-1.21c0-1.04.15-1.8.46-2.32.3-.5.79-.76 1.43-.76.64 0 1.11.24 1.42.72.3.49.47 1.22.49 2.2v1.24Zm-.87-1.23c0-.75-.08-1.3-.24-1.66-.17-.35-.43-.53-.8-.53-.35 0-.6.17-.77.52-.17.35-.26.88-.26 1.58v1.46c0 .74.08 1.3.26 1.68.17.37.43.56.78.56.35 0 .61-.18.78-.53.16-.35.25-.9.25-1.62v-1.46Z"/><path opacity=".5" d="M6.5 118.62c0-.3-.09-.54-.25-.74-.16-.2-.44-.4-.84-.57-.58-.2-1-.48-1.27-.82-.26-.34-.4-.77-.4-1.3 0-.52.13-.96.39-1.3a1.6 1.6 0 0 1 1.06-.6v-1.07h.68v1.07c.46.08.8.31 1.05.7.25.38.38.9.38 1.55h-.85c0-.45-.09-.81-.25-1.08-.17-.27-.4-.41-.68-.41-.3 0-.52.1-.68.3-.16.2-.24.47-.24.83 0 .33.09.6.26.8.17.19.46.36.85.53.59.22 1 .5 1.26.83.26.33.38.75.38 1.27a2 2 0 0 1-.4 1.3c-.28.34-.67.55-1.18.61v.94H5.1v-.94c-.51-.07-.9-.3-1.18-.67-.27-.37-.4-.87-.4-1.5h.85c0 .46.09.8.27 1.05a.9.9 0 0 0 .77.36c.34 0 .6-.1.8-.3.19-.2.28-.48.28-.84Zm.3 12.45h.79v.73H6.8v1.64h-.86v-1.64H3.26v-.53l2.64-4.9h.9v4.7Zm-2.58 0h1.72v-3.37l-1.72 3.37Zm3.1 13.36c0 1.04-.15 1.82-.45 2.34-.3.51-.78.77-1.44.77-.63 0-1.1-.25-1.41-.74a4.38 4.38 0 0 1-.49-2.24v-1.22c0-1.03.15-1.8.46-2.31.3-.5.79-.76 1.43-.76.64 0 1.11.24 1.42.72.3.48.47 1.22.49 2.2v1.24Zm-.86-1.24c0-.75-.08-1.3-.24-1.65-.17-.36-.43-.53-.8-.53-.35 0-.6.17-.77.52-.17.35-.26.87-.26 1.58v1.46c0 .74.08 1.3.26 1.68.17.37.43.56.78.56.35 0 .61-.18.78-.53.16-.35.25-.9.25-1.62v-1.47Zm.87 14.24c0 1.04-.16 1.82-.46 2.34-.3.51-.78.77-1.44.77-.63 0-1.1-.25-1.41-.74a4.38 4.38 0 0 1-.49-2.24v-1.22c0-1.03.15-1.8.46-2.31.3-.5.79-.76 1.43-.76.64 0 1.11.24 1.42.72.3.48.47 1.22.49 2.2v1.24Zm-.87-1.24c0-.75-.08-1.3-.24-1.65-.17-.36-.43-.53-.8-.53-.35 0-.6.17-.77.52-.17.35-.26.87-.26 1.58v1.46c0 .74.08 1.3.26 1.68.17.37.43.56.78.56.35 0 .61-.18.78-.53.16-.35.25-.9.25-1.62v-1.47Z"/><path opacity=".5" d="M6.5 146.68c0-.3-.09-.54-.25-.75-.16-.2-.44-.39-.84-.56-.58-.21-1-.48-1.27-.82-.26-.34-.4-.77-.4-1.3s.13-.96.39-1.3a1.6 1.6 0 0 1 1.06-.6v-1.08h.68v1.08c.46.08.8.31 1.05.7.25.37.38.9.38 1.55h-.85c0-.45-.09-.81-.25-1.09-.17-.27-.4-.4-.68-.4-.3 0-.52.1-.68.3-.16.2-.24.47-.24.83 0 .33.09.59.26.79.17.2.46.37.85.54.59.22 1 .5 1.26.83a2 2 0 0 1 .38 1.27c0 .53-.13.97-.4 1.3-.28.34-.67.54-1.18.61v.93H5.1v-.93a1.7 1.7 0 0 1-1.18-.67c-.27-.37-.4-.87-.4-1.5h.85c0 .46.09.8.27 1.05a.9.9 0 0 0 .77.36c.34 0 .6-.1.8-.3.19-.2.28-.48.28-.84Zm-1.86 10.84h.55c.35 0 .63-.1.82-.32.19-.22.28-.52.28-.9 0-.82-.32-1.24-.96-1.24-.3 0-.55.12-.72.34-.18.22-.27.52-.27.88H3.5c0-.57.17-1.03.51-1.4.35-.37.8-.56 1.33-.56.56 0 1 .18 1.33.53.33.35.5.84.5 1.48a1.75 1.75 0 0 1-.93 1.54c.67.25 1 .8 1 1.66 0 .63-.17 1.13-.53 1.51-.35.37-.8.56-1.37.56-.56 0-1.02-.18-1.37-.53a1.98 1.98 0 0 1-.51-1.44h.86c0 .38.1.68.27.9.18.23.43.34.75.34s.57-.11.76-.33c.2-.22.29-.55.29-1 0-.85-.41-1.28-1.22-1.28h-.52v-.74Zm2.69 14.96c0 1.05-.16 1.83-.46 2.35-.3.51-.78.77-1.44.77-.63 0-1.1-.25-1.41-.74a4.39 4.39 0 0 1-.49-2.24v-1.22c0-1.03.15-1.8.46-2.31.3-.51.79-.77 1.43-.77.64 0 1.11.25 1.42.73.3.48.47 1.21.49 2.2v1.23Zm-.87-1.23c0-.75-.08-1.3-.24-1.65-.17-.36-.43-.54-.8-.54-.35 0-.6.18-.77.53-.17.34-.26.87-.26 1.57v1.46c0 .75.08 1.31.26 1.69.17.37.43.56.78.56.35 0 .61-.18.78-.53.16-.36.25-.9.25-1.62v-1.47Zm.87 14.23c0 1.05-.16 1.83-.46 2.35-.3.51-.78.77-1.44.77-.63 0-1.1-.25-1.41-.74a4.39 4.39 0 0 1-.49-2.24v-1.22c0-1.03.15-1.8.46-2.31.3-.51.79-.77 1.43-.77.64 0 1.11.25 1.42.73.3.48.47 1.21.49 2.2v1.23Zm-.87-1.23c0-.75-.08-1.3-.24-1.65-.17-.36-.43-.54-.8-.54-.35 0-.6.18-.77.53-.17.34-.26.87-.26 1.57v1.46c0 .75.08 1.31.26 1.69.17.37.43.56.78.56.35 0 .61-.18.78-.53.16-.36.25-.9.25-1.62v-1.47Z"/></g><g clip-path="url(#d)" fill="#fff" fill-opacity=".6"><path opacity=".5" d="M279.63 170.03c0-.35-.1-.62-.29-.81-.19-.19-.54-.37-1.03-.55a4.6 4.6 0 0 1-1.15-.56c-.27-.2-.46-.42-.6-.67-.13-.25-.2-.54-.2-.87 0-.56.2-1.02.57-1.38.38-.37.87-.55 1.47-.55.42 0 .79.1 1.11.28.32.19.57.45.75.78.18.33.26.7.26 1.09h-.9c0-.44-.1-.78-.3-1.02-.22-.24-.52-.36-.92-.36-.36 0-.64.1-.83.3-.2.2-.3.48-.3.85 0 .3.1.55.32.75.21.2.55.38 1 .54.69.23 1.19.51 1.49.85.3.34.45.78.45 1.32a1.8 1.8 0 0 1-.56 1.38c-.38.35-.88.52-1.52.52-.42 0-.8-.1-1.15-.27a2.08 2.08 0 0 1-.82-.76c-.2-.32-.3-.7-.3-1.12h.9c0 .44.12.78.36 1.02.25.24.58.37 1 .37.4 0 .7-.1.9-.3.19-.2.29-.48.29-.83Zm5.7-.06h-2.39l-.55 1.85h-.91l2.28-7.08h.76l2.29 7.08h-.92l-.56-1.85Zm-2.15-.76h1.93l-.97-3.22-.96 3.22Zm8.43-3.7h-1.86v6.31h-.9v-6.31H287v-.77h4.61v.77Zm5.6-.77v5.03c0 .67-.2 1.2-.58 1.58-.39.38-.92.57-1.6.57-.7 0-1.24-.19-1.6-.56-.38-.37-.57-.9-.57-1.59v-5.03h.88v5c0 .48.1.83.3 1.07.2.23.53.35.99.35.45 0 .78-.12.98-.35.2-.24.3-.6.3-1.07v-5h.9Zm3.84 4.22h-1.24v2.86h-.9v-7.08h1.99c.7 0 1.22.18 1.57.54.36.36.54.9.54 1.59 0 .44-.1.82-.3 1.15-.18.32-.46.57-.81.73l1.37 3.01v.06h-.96l-1.26-2.86Zm-1.24-.77h1.08c.37 0 .67-.12.89-.36.22-.24.33-.56.33-.96 0-.9-.4-1.36-1.23-1.36h-1.07v2.68Zm-17.98 16.63v-7.08h1.69c.82 0 1.46.26 1.92.78.46.51.69 1.24.69 2.18v1.18c0 .94-.24 1.66-.7 2.18-.46.5-1.13.76-2.02.76h-1.58Zm.89-6.31v5.55h.71c.63 0 1.08-.18 1.37-.54.3-.36.44-.89.45-1.6v-1.25c0-.74-.15-1.29-.44-1.64-.28-.35-.71-.52-1.3-.52h-.8Zm8.32 4.46h-2.39l-.55 1.85h-.91l2.28-7.08h.76l2.29 7.08h-.91l-.56-1.85Zm-2.15-.76h1.93l-.97-3.22-.96 3.22Zm6.31-.92 1.45-3.55h1l-2 4.44v2.64h-.9v-2.64l-2.01-4.44h1.01l1.45 3.55Zm-10.97 14.51c0 1.04-.15 1.83-.46 2.34-.3.52-.78.78-1.43.78-.63 0-1.1-.25-1.42-.75a4.4 4.4 0 0 1-.48-2.23v-1.22c0-1.03.15-1.8.45-2.31.31-.51.79-.77 1.44-.77.64 0 1.1.24 1.41.73.31.48.47 1.21.49 2.2v1.23Zm-.86-1.23c0-.75-.08-1.3-.25-1.65-.17-.36-.43-.54-.8-.54-.34 0-.6.18-.77.53a3.9 3.9 0 0 0-.26 1.57v1.46c0 .75.09 1.3.26 1.69.17.37.43.55.79.55.35 0 .6-.17.77-.53.17-.35.25-.89.26-1.62v-1.46Zm3.43.27h.55c.35 0 .63-.1.82-.32.19-.22.28-.52.28-.9 0-.82-.32-1.24-.96-1.24-.3 0-.55.11-.73.34-.17.22-.26.51-.26.88h-.85c0-.57.17-1.04.51-1.4.35-.37.8-.56 1.33-.56.56 0 1 .18 1.33.53.32.34.49.84.49 1.48a1.75 1.75 0 0 1-.92 1.54c.67.24 1 .8 1 1.66 0 .63-.18 1.13-.53 1.5-.35.38-.8.57-1.38.57-.56 0-1.01-.18-1.36-.53a1.98 1.98 0 0 1-.51-1.44h.86c0 .38.09.68.27.9a.9.9 0 0 0 .75.33c.32 0 .57-.1.76-.32.19-.22.29-.55.29-1 0-.85-.41-1.28-1.23-1.28h-.51v-.74Zm4.47 4.59h-.73l2.48-7.7h.73l-2.48 7.7Zm7.62-7.19-2.44 6.58h-.9l2.43-6.34h-3.15v-.74h4.06v.5ZM331.22 170.03c0-.35-.1-.62-.29-.81-.19-.19-.54-.37-1.03-.55a4.6 4.6 0 0 1-1.15-.56c-.26-.2-.46-.42-.6-.67-.13-.25-.19-.54-.19-.87 0-.56.19-1.02.56-1.38.38-.37.87-.55 1.47-.55.42 0 .79.1 1.11.28.33.19.58.45.75.78.18.33.26.7.26 1.09h-.9c0-.44-.1-.78-.3-1.02-.22-.24-.52-.36-.92-.36-.36 0-.63.1-.83.3-.2.2-.3.48-.3.85 0 .3.1.55.32.75.21.2.55.38 1 .54.69.23 1.19.51 1.49.85.3.34.45.78.45 1.32a1.8 1.8 0 0 1-.56 1.38c-.37.35-.88.52-1.52.52-.42 0-.8-.1-1.15-.27a2.08 2.08 0 0 1-.82-.76c-.2-.32-.3-.7-.3-1.12h.9c0 .44.12.78.37 1.02.24.24.58.37 1 .37.39 0 .69-.1.88-.3.2-.2.3-.48.3-.83Zm6.63-5.3v5.04c-.01.67-.2 1.2-.59 1.58-.38.38-.91.57-1.6.57-.7 0-1.23-.19-1.6-.56-.37-.37-.56-.9-.57-1.59v-5.03h.89v5c0 .48.1.83.3 1.07.2.23.53.35.98.35.45 0 .78-.12.98-.35.2-.24.31-.6.31-1.07v-5h.9Zm6.32 7.1h-.9l-2.83-5.47v5.46h-.9v-7.08h.9l2.85 5.48v-5.48h.88v7.08Zm1.88 0v-7.1h1.69c.82 0 1.46.27 1.92.79.46.51.69 1.24.69 2.18v1.18c0 .94-.23 1.66-.7 2.18-.46.5-1.13.76-2.02.76h-1.58Zm.89-6.32v5.55h.71c.63 0 1.09-.18 1.38-.54.28-.36.43-.89.44-1.6v-1.25c0-.74-.15-1.29-.44-1.64-.28-.35-.71-.52-1.3-.52h-.8Zm-9.34 17.46h-2.4l-.55 1.85h-.91l2.28-7.08h.76l2.29 7.08h-.91l-.56-1.85Zm-2.16-.76h1.93l-.97-3.22-.96 3.22Zm6.31-.92 1.45-3.55h1l-2 4.44v2.64h-.9v-2.64l-2.01-4.44h1.01l1.45 3.55Zm-8.01 14.51c0 1.04-.15 1.83-.46 2.34-.3.52-.78.78-1.43.78-.64 0-1.1-.25-1.42-.75a4.4 4.4 0 0 1-.49-2.23v-1.22c0-1.03.16-1.8.46-2.31.31-.51.79-.77 1.44-.77.64 0 1.1.24 1.41.73.31.48.47 1.21.49 2.2v1.23Zm-.86-1.23c0-.75-.08-1.3-.25-1.65-.17-.36-.43-.54-.8-.54-.35 0-.6.18-.77.53a3.9 3.9 0 0 0-.26 1.57v1.46c0 .75.09 1.3.26 1.69.17.37.43.55.79.55.35 0 .6-.17.77-.53.17-.35.25-.89.26-1.62v-1.46Zm5.59 1.87h.78v.74h-.78v1.64h-.86v-1.64h-2.68v-.53l2.63-4.91h.9v4.7Zm-2.59 0h1.73v-3.36l-1.73 3.36Zm4.9 2.99h-.73l2.48-7.7h.73l-2.49 7.7Zm7.62-7.19-2.44 6.58h-.9l2.43-6.34h-3.15v-.74h4.06v.5ZM25.21 164.74l1.85 5.78 1.85-5.78h1.14v7.08h-.89v-2.76l.09-2.76-1.86 5.52h-.68l-1.84-5.5.08 2.74v2.76h-.89v-7.08h1.15Zm11.32 4.16c0 .97-.2 1.71-.62 2.23-.41.53-1 .79-1.75.79-.73 0-1.31-.25-1.74-.76a3.39 3.39 0 0 1-.65-2.16v-1.33c0-.94.2-1.68.63-2.22.41-.54 1-.8 1.75-.8.74 0 1.32.25 1.74.77.42.5.63 1.24.64 2.2v1.28Zm-.9-1.24c0-.75-.11-1.3-.36-1.67-.24-.36-.62-.55-1.12-.55-.5 0-.86.19-1.12.56-.25.37-.37.91-.38 1.63v1.27c0 .73.13 1.28.38 1.66.25.38.63.57 1.13.57.5 0 .86-.18 1.1-.53.24-.35.37-.89.38-1.6v-1.34Zm7.23 4.16h-.9l-2.83-5.46v5.46h-.9v-7.08h.9l2.85 5.48v-5.48h.88v7.08Zm1.88 0v-7.08h1.69c.82 0 1.46.26 1.92.78.46.51.69 1.24.69 2.18v1.18c0 .94-.23 1.66-.7 2.18-.46.5-1.14.76-2.02.76h-1.58Zm.89-6.31v5.55h.71c.63 0 1.09-.18 1.37-.54.3-.36.44-.89.45-1.6v-1.25c0-.74-.15-1.29-.44-1.64-.28-.35-.71-.52-1.3-.52h-.8ZM34.9 182.97h-2.4l-.54 1.85h-.92l2.28-7.08h.77l2.28 7.08h-.91l-.56-1.85Zm-2.16-.76h1.93l-.97-3.22-.96 3.22Zm6.31-.92 1.45-3.55h1.01l-2.01 4.44v2.64h-.9v-2.64l-2-4.44h1l1.45 3.55Zm-7.83 17.53h-3.96v-.65l2.02-2.67c.3-.41.51-.75.63-1.01.12-.27.18-.55.18-.84 0-.38-.09-.69-.26-.92a.82.82 0 0 0-.7-.35 1 1 0 0 0-.83.38c-.2.24-.3.6-.3 1.07h-.85c0-.66.17-1.18.53-1.59.36-.4.84-.6 1.45-.6.57 0 1.01.18 1.34.52.32.35.48.8.48 1.38 0 .7-.36 1.53-1.1 2.49l-1.57 2.06h2.94v.73Zm4.93-5.23c0 .35-.07.67-.23.94-.16.28-.37.5-.64.65.32.16.56.4.74.7.18.3.27.64.27 1.03 0 .6-.17 1.1-.52 1.46-.34.37-.8.55-1.37.55-.57 0-1.03-.18-1.38-.55a2.06 2.06 0 0 1-.51-1.46c0-.39.08-.74.26-1.04.18-.3.42-.54.72-.7a1.67 1.67 0 0 1-.62-.64 1.91 1.91 0 0 1-.23-.94c0-.6.16-1.07.48-1.42.32-.35.75-.53 1.28-.53.52 0 .95.18 1.27.52a2 2 0 0 1 .48 1.43Zm-.72 3.3c0-.4-.1-.73-.29-.97a.9.9 0 0 0-.75-.37.9.9 0 0 0-.75.37 1.6 1.6 0 0 0-.28.97c0 .4.1.73.27.95.18.23.44.34.77.34s.58-.1.76-.34c.18-.22.27-.54.27-.95Zm-.13-3.29c0-.36-.09-.65-.25-.88a.77.77 0 0 0-.65-.34c-.28 0-.5.11-.66.34-.16.22-.24.52-.24.88 0 .37.08.66.25.88.16.22.38.33.65.33s.5-.11.66-.33c.16-.22.24-.51.24-.88Zm2.78 5.83h-.73l2.48-7.7h.73l-2.48 7.7Zm6.71-7.7v.77h-.14c-.57.01-1.02.2-1.35.58a2.8 2.8 0 0 0-.56 1.69c.32-.4.72-.6 1.2-.6.53 0 .94.22 1.25.65.3.43.46 1 .46 1.7 0 .73-.17 1.32-.5 1.75-.35.43-.8.65-1.37.65-.58 0-1.04-.26-1.39-.76a3.52 3.52 0 0 1-.52-2.03v-.35c0-.97.1-1.75.31-2.32.21-.58.52-1 .93-1.29.41-.28.93-.43 1.53-.43h.15Zm-.99 3.2a.95.95 0 0 0-.64.26c-.2.18-.34.4-.43.68v.36c0 .57.1 1.04.3 1.4.2.36.45.54.75.54.32 0 .57-.14.75-.44.18-.3.28-.69.28-1.17 0-.49-.1-.88-.28-1.18-.18-.3-.42-.45-.73-.45ZM75.93 165.5h-1.86v6.32h-.9v-6.31h-1.85v-.77h4.6v.77Zm5.6-.76v5.03c0 .67-.2 1.2-.58 1.58-.39.38-.92.57-1.6.57-.7 0-1.24-.19-1.61-.56a2.2 2.2 0 0 1-.56-1.59v-5.03h.88v5c0 .48.1.83.3 1.07.2.23.53.35.98.35.46 0 .79-.12.99-.35.2-.24.3-.6.3-1.07v-5h.9Zm5.1 3.8h-2.5v2.52h2.91v.76h-3.8v-7.08h3.75v.77h-2.87v2.27h2.5v.77Zm4.98 1.5c0-.36-.1-.63-.29-.82-.19-.19-.53-.37-1.03-.55-.5-.18-.89-.36-1.15-.56-.26-.2-.46-.42-.6-.67-.12-.25-.19-.54-.19-.87 0-.56.19-1.02.56-1.38.38-.37.87-.55 1.47-.55.42 0 .79.1 1.11.28.33.19.58.45.75.78.18.33.26.7.26 1.09h-.9c0-.44-.1-.78-.3-1.02-.22-.24-.52-.36-.92-.36-.36 0-.64.1-.83.3-.2.2-.3.48-.3.85 0 .3.1.55.32.75.22.2.55.38 1 .54.7.23 1.19.51 1.49.85.3.34.45.78.45 1.32a1.8 1.8 0 0 1-.56 1.38c-.37.35-.88.52-1.52.52-.41 0-.8-.1-1.15-.27a2.08 2.08 0 0 1-.82-.76c-.2-.32-.3-.7-.3-1.12h.9c0 .44.12.78.37 1.02.24.24.58.37 1 .37.39 0 .68-.1.88-.3.2-.2.3-.48.3-.83Zm2.4 1.78v-7.08h1.7c.82 0 1.46.26 1.92.78.45.51.68 1.24.68 2.18v1.18c0 .94-.23 1.66-.7 2.18-.46.5-1.13.76-2.01.76H94Zm.9-6.31v5.55h.7c.63 0 1.1-.18 1.38-.54.29-.36.44-.89.44-1.6v-1.25c0-.74-.14-1.29-.43-1.64-.29-.35-.72-.52-1.3-.52h-.8Zm-11.5 17.46h-2.4l-.54 1.85h-.92l2.29-7.08h.76l2.28 7.08h-.91l-.56-1.85Zm-2.16-.76h1.93l-.97-3.22-.96 3.22Zm6.32-.92 1.45-3.55h1l-2.01 4.44v2.64h-.9v-2.64l-2-4.44h1l1.46 3.55Zm-7.84 17.53h-3.96v-.65l2.02-2.67c.3-.41.51-.75.63-1.01.12-.27.18-.55.18-.84 0-.38-.09-.69-.26-.92a.82.82 0 0 0-.7-.35 1 1 0 0 0-.83.38c-.2.24-.3.6-.3 1.07h-.85c0-.66.18-1.18.53-1.59.36-.4.84-.6 1.46-.6.56 0 1 .18 1.33.52.32.35.49.8.49 1.38 0 .7-.37 1.53-1.1 2.49l-1.57 2.06h2.93v.73Zm4.12-3.02c-.34.43-.74.65-1.2.65-.52 0-.93-.21-1.23-.65-.3-.43-.46-1-.46-1.7 0-.75.17-1.34.5-1.79.33-.44.78-.67 1.36-.67.6 0 1.06.26 1.4.78.33.52.5 1.23.5 2.15v.26c0 .79-.06 1.42-.18 1.91a3.1 3.1 0 0 1-.52 1.18c-.23.3-.52.52-.88.68-.36.15-.8.23-1.34.23v-.76h.15c.61-.02 1.07-.2 1.39-.56.32-.36.49-.93.51-1.71Zm-1.06-.1c.21 0 .41-.08.61-.25.2-.17.35-.4.46-.69v-.38c0-.58-.1-1.06-.3-1.43-.2-.37-.45-.56-.74-.56-.31 0-.56.16-.75.46-.18.3-.27.7-.27 1.2 0 .48.1.88.27 1.2.18.3.42.46.72.46Zm3.8 3.73h-.73l2.48-7.7h.73l-2.48 7.7Zm6.71-7.7v.77h-.14c-.57.01-1.02.2-1.35.58a2.8 2.8 0 0 0-.56 1.69c.32-.4.72-.6 1.21-.6.52 0 .94.22 1.24.65.3.43.46 1 .46 1.7 0 .73-.17 1.32-.5 1.75-.34.43-.8.65-1.37.65-.57 0-1.04-.26-1.39-.76a3.52 3.52 0 0 1-.52-2.03v-.35c0-.97.1-1.75.32-2.32.2-.58.52-1 .92-1.29.42-.28.93-.43 1.54-.43h.14Zm-.98 3.2a.95.95 0 0 0-.65.26c-.2.18-.34.4-.43.68v.36c0 .57.1 1.04.3 1.4.2.36.46.54.75.54.32 0 .57-.14.75-.44.19-.3.28-.69.28-1.17 0-.49-.1-.88-.28-1.18-.18-.3-.42-.45-.72-.45ZM122.09 169.59l.1.8.13-.7 1.14-4.95h.74l1.1 4.94.14.72.1-.82.87-4.84h.89l-1.41 7.08h-.8l-1.19-5.16-.07-.42-.07.42-1.23 5.16h-.8l-1.41-7.08h.89l.88 4.85Zm9.96-1.04h-2.5v2.5h2.91v.77h-3.8v-7.08h3.76v.77h-2.87v2.27h2.5v.77Zm1.89 3.27v-7.08h1.69c.83 0 1.47.26 1.92.78.46.51.69 1.24.69 2.18v1.18c0 .94-.23 1.66-.7 2.18-.46.5-1.13.76-2.01.76h-1.59Zm.89-6.31v5.55h.71c.63 0 1.09-.18 1.38-.54.29-.36.43-.89.44-1.6v-1.25c0-.74-.15-1.29-.43-1.64-.29-.35-.72-.52-1.3-.52h-.8Zm9.76 6.31h-.9l-2.83-5.46v5.46h-.9v-7.08h.9l2.84 5.48v-5.48h.89v7.08Zm5.27-3.27h-2.5v2.5h2.91v.77h-3.8v-7.08h3.75v.77h-2.87v2.27h2.5v.77Zm4.98 1.48c0-.35-.1-.62-.29-.81-.19-.19-.54-.37-1.03-.55a4.6 4.6 0 0 1-1.15-.56c-.26-.2-.46-.42-.6-.67-.13-.25-.19-.54-.19-.87 0-.56.19-1.02.56-1.38.38-.37.87-.55 1.47-.55.42 0 .79.1 1.11.28.33.19.58.45.75.78.18.33.26.7.26 1.09h-.9c0-.44-.1-.78-.3-1.02-.22-.24-.52-.36-.92-.36-.36 0-.64.1-.83.3-.2.2-.3.48-.3.85 0 .3.1.55.32.75.21.2.55.38 1 .54.69.23 1.19.51 1.49.85.3.34.45.78.45 1.32a1.8 1.8 0 0 1-.56 1.38c-.37.35-.88.52-1.52.52-.41 0-.8-.1-1.15-.27a2.08 2.08 0 0 1-.82-.76c-.2-.32-.3-.7-.3-1.12h.9c0 .44.12.78.37 1.02.24.24.58.37 1 .37.39 0 .69-.1.88-.3.2-.2.3-.48.3-.83Zm-24.56 14.8v-7.1h1.69c.83 0 1.47.27 1.93.79.45.51.68 1.24.68 2.18v1.18c0 .94-.23 1.66-.7 2.18-.46.5-1.13.76-2.01.76h-1.59Zm.9-6.32v5.55h.7c.63 0 1.09-.18 1.38-.54.29-.36.43-.89.44-1.6v-1.25c0-.74-.14-1.29-.43-1.64-.29-.35-.72-.52-1.3-.52h-.8Zm8.32 4.46h-2.4l-.54 1.85h-.92l2.28-7.08h.77l2.28 7.08h-.91l-.56-1.85Zm-2.16-.76h1.93l-.97-3.22-.96 3.22Zm6.31-.92 1.45-3.55h1.01l-2.01 4.44v2.64h-.9v-2.64l-2-4.44h1l1.45 3.55ZM130 194.84h.55c.35 0 .62-.1.82-.32.19-.22.28-.52.28-.9 0-.82-.32-1.24-.96-1.24-.3 0-.55.11-.72.34-.18.22-.27.51-.27.88h-.85c0-.57.17-1.04.51-1.4.35-.37.8-.56 1.33-.56.56 0 1 .18 1.33.53.32.34.49.84.49 1.48a1.75 1.75 0 0 1-.92 1.54c.67.24 1 .8 1 1.66 0 .63-.18 1.13-.53 1.5-.35.38-.8.57-1.38.57-.56 0-1.01-.18-1.36-.53a1.98 1.98 0 0 1-.51-1.44h.86c0 .38.09.68.27.9a.9.9 0 0 0 .75.33c.32 0 .57-.1.76-.32.19-.22.29-.55.29-1 0-.85-.41-1.28-1.23-1.28H130v-.74Zm7.94.96c0 1.04-.15 1.83-.46 2.34-.3.52-.78.78-1.43.78-.64 0-1.1-.25-1.42-.75a4.38 4.38 0 0 1-.49-2.23v-1.22c0-1.03.16-1.8.46-2.31.3-.51.79-.77 1.44-.77.64 0 1.1.24 1.41.73.31.48.47 1.21.49 2.2v1.23Zm-.86-1.23c0-.75-.09-1.3-.25-1.65-.17-.36-.43-.54-.8-.54-.35 0-.6.18-.77.53-.17.34-.25.87-.26 1.57v1.46c0 .75.09 1.3.26 1.69.17.37.43.55.79.55.35 0 .6-.17.77-.53.17-.35.25-.89.26-1.62v-1.46Zm2.64 4.86h-.73l2.48-7.7h.73l-2.48 7.7Zm6.71-7.7v.77h-.14c-.57.01-1.02.2-1.34.58a2.8 2.8 0 0 0-.56 1.69c.31-.4.71-.6 1.2-.6.52 0 .94.22 1.24.65.31.43.46 1 .46 1.7 0 .73-.17 1.32-.5 1.75-.34.43-.8.65-1.37.65-.57 0-1.03-.26-1.38-.76a3.52 3.52 0 0 1-.53-2.03v-.35c0-.97.1-1.75.32-2.32.2-.58.52-1 .92-1.29.42-.28.93-.43 1.54-.43h.14Zm-.98 3.2a.94.94 0 0 0-.65.26c-.2.18-.34.4-.43.68v.36c0 .57.1 1.04.3 1.4.2.36.46.54.75.54.32 0 .57-.14.76-.44.18-.3.27-.69.27-1.17 0-.49-.1-.88-.27-1.18-.19-.3-.43-.45-.73-.45ZM182.73 165.5h-1.86v6.32h-.9v-6.31h-1.85v-.77h4.61v.77Zm6.01 6.32h-.9v-3.27H185v3.27h-.9v-7.08h.9v3.04h2.85v-3.04h.9v7.08Zm6.1-7.08v5.03c0 .67-.2 1.2-.58 1.58-.39.38-.92.57-1.6.57-.7 0-1.24-.19-1.61-.56a2.2 2.2 0 0 1-.56-1.59v-5.03h.88v5c0 .48.1.83.3 1.07.2.23.54.35.99.35.45 0 .78-.12.98-.35.2-.24.3-.6.3-1.07v-5h.9Zm3.84 4.22h-1.24v2.86h-.9v-7.08h1.99c.7 0 1.22.18 1.57.54.36.36.54.9.54 1.59 0 .44-.1.82-.3 1.15-.19.32-.46.57-.81.73l1.37 3.01v.06h-.96l-1.26-2.86Zm-1.24-.77h1.08c.37 0 .67-.12.89-.36.22-.24.33-.56.33-.96 0-.9-.4-1.36-1.23-1.36h-1.07v2.68Zm7.82 1.84c0-.35-.1-.62-.29-.81-.19-.19-.53-.37-1.03-.55a4.6 4.6 0 0 1-1.15-.56c-.26-.2-.46-.42-.6-.67-.12-.25-.19-.54-.19-.87 0-.56.19-1.02.56-1.38.38-.37.87-.55 1.47-.55.42 0 .79.1 1.11.28.33.19.58.45.75.78.18.33.27.7.27 1.09h-.9c0-.44-.1-.78-.32-1.02-.2-.24-.51-.36-.9-.36-.36 0-.64.1-.84.3-.2.2-.3.48-.3.85 0 .3.1.55.32.75.22.2.55.38 1 .54.7.23 1.19.51 1.49.85.3.34.45.78.45 1.32a1.8 1.8 0 0 1-.56 1.38c-.37.35-.88.52-1.52.52-.41 0-.8-.1-1.15-.27a2.08 2.08 0 0 1-.82-.76c-.2-.32-.3-.7-.3-1.12h.9c0 .44.12.78.37 1.02.24.24.58.37 1 .37.4 0 .69-.1.88-.3.2-.2.3-.48.3-.83Zm-20.84 14.8v-7.1h1.69c.82 0 1.47.27 1.92.79.46.51.69 1.24.69 2.18v1.18c0 .94-.23 1.66-.7 2.18-.46.5-1.13.76-2.02.76h-1.58Zm.89-6.32v5.55h.71c.63 0 1.09-.18 1.38-.54.28-.36.43-.89.44-1.6v-1.25c0-.74-.15-1.29-.44-1.64-.28-.35-.71-.52-1.3-.52h-.8Zm8.33 4.46h-2.4l-.55 1.85h-.91l2.28-7.08h.76l2.3 7.08h-.92l-.56-1.85Zm-2.16-.76h1.93l-.97-3.22-.96 3.22Zm6.31-.92 1.45-3.55h1l-2 4.44v2.64h-.9v-2.64l-2-4.44h1l1.45 3.55Zm-10.97 14.51c0 1.04-.15 1.83-.46 2.34-.3.52-.78.78-1.43.78-.63 0-1.1-.25-1.42-.75a4.4 4.4 0 0 1-.48-2.23v-1.22c0-1.03.15-1.8.46-2.31.3-.51.78-.77 1.43-.77.64 0 1.11.24 1.42.73.3.48.47 1.21.48 2.2v1.23Zm-.86-1.23c0-.75-.08-1.3-.25-1.65-.16-.36-.43-.54-.79-.54-.35 0-.61.18-.78.53a3.9 3.9 0 0 0-.26 1.57v1.46c0 .75.09 1.3.26 1.69.17.37.44.55.79.55.35 0 .6-.17.77-.53.17-.35.25-.89.26-1.62v-1.46Zm4.9 4.25h-.87v-6l-1.49.67v-.82l2.22-.96h.13v7.11Zm3 .6h-.73l2.48-7.68h.73l-2.48 7.69Zm7.62-7.17-2.44 6.57h-.9l2.44-6.34h-3.16v-.74h4.06v.5ZM232.37 168.7h-2.4v3.12h-.89v-7.08h3.69v.77h-2.8v2.42h2.4v.76Zm3.97.26h-1.24v2.86h-.9v-7.08h1.99c.69 0 1.22.18 1.57.54.36.36.54.9.54 1.59 0 .44-.1.82-.3 1.15-.19.32-.46.57-.81.73l1.37 3.01v.06h-.96l-1.26-2.86Zm-1.24-.77h1.08c.37 0 .66-.12.89-.36.22-.24.33-.56.33-.96 0-.9-.41-1.36-1.23-1.36h-1.07v2.68Zm5.65 3.63h-.89v-7.08h.9v7.08Zm1.9 0v-7.08h1.69c.82 0 1.46.26 1.92.78.46.51.69 1.24.69 2.18v1.18c0 .94-.23 1.66-.7 2.18-.46.5-1.13.76-2.02.76h-1.58Zm.89-6.31v5.55h.71c.63 0 1.09-.18 1.37-.54.3-.36.44-.89.45-1.6v-1.25c0-.74-.15-1.29-.44-1.64-.28-.35-.71-.52-1.3-.52h-.8Zm8.33 4.46h-2.4l-.55 1.85h-.91l2.28-7.08h.76l2.29 7.08h-.91l-.56-1.85Zm-2.16-.76h1.93l-.97-3.22-.96 3.22Zm-9.18 12.08 1.45-3.55h1l-2 4.44v2.64h-.9v-2.64l-2.01-4.44h1.01l1.45 3.55Zm-5.2 14.51c0 1.04-.16 1.83-.46 2.34-.3.52-.79.78-1.44.78-.63 0-1.1-.25-1.41-.75a4.38 4.38 0 0 1-.49-2.23v-1.22c0-1.03.15-1.8.46-2.31.3-.51.78-.77 1.43-.77.64 0 1.11.24 1.42.73.3.48.47 1.21.48 2.2v1.23Zm-.87-1.23c0-.75-.08-1.3-.25-1.65-.16-.36-.43-.54-.79-.54-.35 0-.61.18-.78.53-.16.34-.25.87-.25 1.57v1.46c0 .75.08 1.3.25 1.69.18.37.44.55.8.55.34 0 .6-.17.77-.53.16-.35.25-.89.25-1.62v-1.46Zm6.3 4.25h-3.97v-.65l2.02-2.67c.3-.41.52-.75.63-1.01.13-.27.19-.55.19-.84 0-.38-.1-.69-.27-.92a.82.82 0 0 0-.69-.35 1 1 0 0 0-.83.38c-.2.24-.3.6-.3 1.07h-.86c0-.66.18-1.18.54-1.59.35-.4.84-.6 1.45-.6.57 0 1.01.18 1.33.52.33.35.5.8.5 1.38 0 .7-.37 1.53-1.1 2.49l-1.58 2.06h2.93v.73Zm1.6.6h-.73l2.49-7.68h.72l-2.48 7.69Zm7.62-7.17-2.43 6.57h-.9l2.43-6.34h-3.16v-.74h4.06v.5Z"/></g><g opacity=".07" stroke="#fff" stroke-width=".83" stroke-linecap="square" stroke-dasharray="0.83 0.83 0.83"><path d="M22.33 21.52H352.4M22.33 35.17H352.4M22.33 48.81H352.4M22.33 62.46H352.4M22.33 76.1H352.4M22.33 89.75H352.4M22.33 103.4H352.4M22.33 117.04H352.4M22.33 130.68H352.4M22.33 144.33H352.4M22.33 157.47H352.4"/></g><path d="m23.75 90.55 81.4 33.5 81.41 9.57 81.41-14.36 81.4 14.36" stroke="#42B8EA" stroke-width="1.66"/><path d="m23.75 109.87 81.4-57.61 81.41-9.6 81.41 33.6 81.4 28.81" stroke="#104F8E" stroke-width="1.66"/><path d="m23.75 105.04 81.4-28.8 81.41-14.4 81.41 43.2 81.4-67.22" stroke="#226FC7" stroke-width="1.66"/><circle cx="349.38" cy="37.82" r=".83" fill="#A3A19E" stroke="#226FC7" stroke-width="1.56"/><circle cx="349.38" cy="105.04" r=".83" fill="#226FC7" stroke="#104F8E" stroke-width="1.56"/><circle cx="349.38" cy="133.62" r=".83" fill="#226FC7" stroke="#42B8EA" stroke-width="1.56"/><circle cx="268.07" cy="105.04" r=".83" fill="#A3A19E" stroke="#226FC7" stroke-width="1.56"/><circle cx="268.07" cy="76.06" r=".83" fill="#226FC7" stroke="#104F8E" stroke-width="1.56"/><circle cx="268.07" cy="119.53" r=".83" fill="#226FC7" stroke="#42B8EA" stroke-width="1.56"/><circle cx="186.76" cy="61.97" r=".83" fill="#A3A19E" stroke="#226FC7" stroke-width="1.56"/><circle cx="186.76" cy="42.65" r=".83" fill="#226FC7" stroke="#104F8E" stroke-width="1.56"/><circle cx="186.76" cy="133.62" r=".83" fill="#226FC7" stroke="#42B8EA" stroke-width="1.56"/><circle cx="105.06" cy="76.06" r=".83" fill="#A3A19E" stroke="#226FC7" stroke-width="1.56"/><circle cx="105.06" cy="52.31" r=".83" fill="#226FC7" stroke="#104F8E" stroke-width="1.56"/><circle cx="105.06" cy="124.36" r=".83" fill="#226FC7" stroke="#42B8EA" stroke-width="1.56"/><circle cx="23.75" cy="105.04" r=".83" fill="#A3A19E" stroke="#226FC7" stroke-width="1.56"/><circle cx="23.75" cy="109.87" r=".83" fill="#226FC7" stroke="#104F8E" stroke-width="1.56"/><circle cx="23.75" cy="90.55" r=".83" fill="#226FC7" stroke="#42B8EA" stroke-width="1.56"/><path d="M1.65 5.23V8H.76V.92h2.26c.66 0 1.18.2 1.55.6.38.38.57.9.57 1.56 0 .68-.18 1.2-.54 1.58-.36.37-.86.56-1.52.57H1.65Zm0-.77h1.37c.4 0 .7-.11.91-.35.21-.24.32-.58.32-1.02 0-.42-.11-.76-.33-1.02a1.11 1.11 0 0 0-.9-.38H1.66v2.77Zm9.7.27H8.83v2.5h2.92V8H7.95V.92h3.76v.77H8.84v2.27h2.5v.77Zm5.35.4h-1.24V8h-.9V.92h1.99c.69 0 1.21.18 1.57.54.36.36.54.9.54 1.59 0 .44-.1.82-.3 1.15-.19.32-.46.57-.81.73l1.37 3.01V8h-.96L16.7 5.14Zm-1.24-.76h1.08c.37 0 .67-.12.89-.36.22-.24.33-.56.33-.96 0-.9-.41-1.36-1.23-1.36h-1.07v2.68Zm9.34.5h-2.4V8h-.89V.92h3.69v.77h-2.8V4.1h2.4v.76Zm7.77.21c0 .97-.21 1.71-.62 2.23-.41.53-1 .79-1.76.79-.73 0-1.3-.26-1.73-.76a3.39 3.39 0 0 1-.66-2.16V3.85c0-.95.21-1.69.63-2.22.42-.54 1-.8 1.75-.8s1.33.25 1.74.76c.42.52.64 1.25.65 2.2v1.3Zm-.9-1.24a3 3 0 0 0-.36-1.67c-.25-.36-.62-.55-1.13-.55-.49 0-.86.19-1.11.56-.25.37-.38.91-.38 1.63v1.27c0 .73.12 1.28.37 1.66.26.38.63.56 1.13.56.5 0 .87-.17 1.11-.52.24-.35.37-.89.38-1.61V3.84Zm6.07 1.3H36.5V8h-.9V.92h1.99c.69 0 1.22.18 1.57.54.36.36.54.9.54 1.59 0 .44-.1.82-.3 1.15-.19.32-.46.57-.81.73l1.37 3.01V8H39l-1.26-2.86Zm-1.24-.77h1.08c.37 0 .67-.12.89-.36.22-.24.33-.56.33-.96 0-.9-.4-1.36-1.23-1.36H36.5v2.68ZM43.7.92l1.85 5.78L47.4.92h1.15V8h-.9V5.24l.09-2.76L45.89 8h-.69l-1.84-5.5.08 2.74V8h-.89V.92h1.15Zm11.43 5.23h-2.39L52.2 8h-.91L53.56.92h.76L56.61 8h-.92l-.56-1.85Zm-2.16-.77h1.94l-.97-3.22-.97 3.22ZM5.4 21h-.9l-2.83-5.46V21h-.9v-7.08h.9L4.5 19.4v-5.48h.89V21Zm7.64-2.25a2.6 2.6 0 0 1-.64 1.74c-.39.4-.93.6-1.64.6-.7 0-1.27-.26-1.7-.8a3.5 3.5 0 0 1-.62-2.2v-1.28c0-.92.21-1.65.64-2.19.43-.53 1.02-.8 1.76-.8.69 0 1.22.2 1.59.62.38.4.58 1 .61 1.76h-.9c-.04-.58-.16-1-.36-1.24-.2-.25-.52-.37-.94-.37-.48 0-.85.19-1.11.57-.26.38-.39.93-.39 1.66v1.3c0 .71.12 1.26.36 1.65.24.38.6.57 1.06.57.46 0 .8-.12 1-.35.2-.23.33-.64.38-1.24h.9Zm6.27-1.02h-2.5v2.5h2.91V21h-3.8v-7.08h3.75v.77H16.8v2.27h2.5v.77ZM5.2 32.75a2.6 2.6 0 0 1-.64 1.74c-.38.4-.93.6-1.64.6-.7 0-1.27-.26-1.69-.8a3.5 3.5 0 0 1-.63-2.2v-1.28c0-.92.22-1.65.65-2.19.43-.53 1.01-.8 1.76-.8.68 0 1.2.2 1.58.62.38.4.58 1 .61 1.75h-.9c-.03-.57-.16-.98-.36-1.23-.2-.25-.52-.37-.93-.37-.49 0-.86.19-1.12.57-.26.38-.39.93-.39 1.66v1.3c0 .71.12 1.26.36 1.65.25.38.6.57 1.06.57.47 0 .8-.12 1-.35.2-.23.34-.64.38-1.24h.9ZM12.71 35h-.9v-3.27H8.98V35h-.9v-7.08h.9v3.04h2.85v-3.04h.9V35Zm6.6-1.85h-2.4L16.36 35h-.91l2.28-7.08h.76L20.78 35h-.92l-.56-1.85Zm-2.17-.77h1.93l-.96-3.22-.97 3.22Zm8.4-.24H24.3V35h-.9v-7.08h1.98c.7 0 1.22.18 1.58.54.36.36.54.9.54 1.59 0 .44-.1.82-.3 1.15-.19.32-.46.57-.81.73l1.37 3.01V35h-.96l-1.26-2.86Zm-1.24-.77h1.07c.38 0 .67-.12.9-.36.22-.24.33-.56.33-.96 0-.9-.41-1.36-1.23-1.36H24.3v2.68Zm9.8-2.68h-1.86V35h-.9V28.7H29.5v-.77h4.61v.77Z" fill="#fff"/><path fill="#fff" d="M4.38 5.22h100.44v.4H4.38z"/><g clip-path="url(#e)" fill="#fff"><path d="m280.65 5.77.1.79.13-.7 1.14-4.94h.74l1.1 4.94.14.72.1-.82.87-4.84h.89L284.45 8h-.8l-1.19-5.16-.07-.42-.07.42L281.09 8h-.8L278.88.92h.9l.87 4.85Zm2.04 11.96h-2.5v2.5h2.92V21h-3.81v-7.08h3.76v.77h-2.87v2.27h2.5v.77Zm6.62 0h-2.5v2.5h2.9V21h-3.8v-7.08h3.76v.77h-2.87v2.27h2.5v.77Zm-8.43 14-.7.85V35h-.88v-7.08h.89v3.42l.58-.78 1.9-2.64h1.08l-2.3 3.12 2.48 3.96h-1.07l-1.98-3.26Z"/><path opacity=".5" d="m308.22.92 1.85 5.78 1.85-5.78h1.14V8h-.89V5.24l.09-2.76L310.4 8h-.68l-1.84-5.5.08 2.74V8h-.89V.92h1.15Zm12.65 4.16c0 .97-.2 1.71-.62 2.23-.41.53-1 .79-1.76.79-.73 0-1.3-.26-1.73-.76a3.38 3.38 0 0 1-.65-2.16V3.85c0-.95.2-1.69.62-2.22.42-.54 1-.8 1.75-.8s1.33.25 1.75.76c.41.52.63 1.25.64 2.2v1.3Zm-.9-1.24a3 3 0 0 0-.36-1.67c-.25-.36-.62-.55-1.13-.55-.49 0-.86.19-1.1.56-.26.37-.38.91-.39 1.63v1.27c0 .72.13 1.28.38 1.66.25.37.63.56 1.12.56.5 0 .87-.17 1.11-.52.24-.35.37-.89.38-1.61V3.84ZM311.7 21h-.9l-2.83-5.46V21h-.9v-7.08h.9l2.84 5.48v-5.48h.89V21Zm7.2-6.31h-1.87V21h-.89v-6.31h-1.86v-.77h4.61v.77ZM311.7 35h-.89v-3.27h-2.85V35h-.89v-7.08h.9v3.04h2.84v-3.04h.9V35ZM341.52 4.47l1.45-3.55h1l-2 4.44V8h-.9V5.36L339.06.92h1.01l1.45 3.55Zm8.44.26h-2.51v2.5h2.92V8h-3.81V.92h3.76v.77h-2.87v2.27h2.5v.77Zm-6.98 14.42h-2.4l-.54 1.85h-.92l2.28-7.08h.77l2.28 7.08h-.91l-.56-1.85Zm-2.16-.77h1.93l-.97-3.22-.96 3.22Zm8.4-.24h-1.25V21h-.9v-7.08h1.99c.7 0 1.22.18 1.58.54.35.36.53.9.53 1.59 0 .44-.1.82-.3 1.15-.18.32-.45.57-.8.73l1.36 3.01V21h-.95l-1.27-2.86Zm-1.25-.77h1.08c.37 0 .67-.12.89-.36.22-.24.34-.56.34-.96 0-.9-.42-1.36-1.24-1.36h-1.07v2.68Z" fill-opacity=".6"/></g></g><defs><clipPath id="a"><path fill="#fff" transform="translate(-220 -518)" d="M0 0h1920v4611H0z"/></clipPath><clipPath id="c"><path fill="#fff" transform="translate(0 18.1)" d="M0 0h10.47v142.49H0z"/></clipPath><clipPath id="d"><path fill="#fff" transform="translate(21.74 165.82)" d="M0 0h331.26v6.44H0z"/></clipPath><clipPath id="e"><path fill="#fff" transform="translate(278.54 2)" d="M0 0h74.06v6.44H0z"/></clipPath><radialGradient id="b" cx="0" cy="0" r="1" gradientUnits="userSpaceOnUse" gradientTransform="rotate(89.46 -138.56 1097.3) scale(1484.28 1163.15)"><stop stop-color="#4B4B4B"/><stop offset="1" stop-opacity="0"/></radialGradient></defs></svg>