<svg width="326" height="171" fill="none" xmlns="http://www.w3.org/2000/svg"><g clip-path="url(#a)"><g clip-path="url(#b)"><circle cx="139.37" cy="18.69" r="4.41" fill="#E8EAED"/><path d="M15.54 21.35a.2.2 0 0 1-.15-.06.2.2 0 0 1-.06-.15v-4.72h-1.58a.2.2 0 0 1-.14-.06.2.2 0 0 1-.06-.15v-.63c0-.06.01-.11.05-.15a.2.2 0 0 1 .15-.06h4.36a.2.2 0 0 1 .15.06c.04.04.06.09.06.15v.63a.2.2 0 0 1-.06.15.2.2 0 0 1-.15.06h-1.57v4.72a.2.2 0 0 1-.06.15.2.2 0 0 1-.16.06h-.78Zm4.73.08c-.67 0-1.18-.17-1.55-.5a2 2 0 0 1-.59-1.43v-.75c.03-.59.23-1.06.6-1.4.37-.36.88-.53 1.54-.53.65 0 1.16.17 1.53.52.38.35.57.82.6 1.41a5.38 5.38 0 0 1 0 .75 2 2 0 0 1-.59 1.42c-.36.34-.88.51-1.54.51Zm0-.84c.3 0 .53-.1.7-.28.16-.2.25-.48.27-.85a4.1 4.1 0 0 0 0-.67c-.02-.37-.1-.64-.27-.83a.87.87 0 0 0-.7-.3c-.3 0-.54.1-.7.3-.17.19-.26.46-.28.83v.67c.02.37.11.65.28.85.16.18.4.28.7.28Zm3.3 2.38a.2.2 0 0 1-.14-.06.18.18 0 0 1-.06-.14V17.1c0-.06.02-.11.06-.14a.2.2 0 0 1 .14-.06h.68c.06 0 .1.02.14.06.04.03.06.08.06.14v.34c.32-.42.78-.63 1.37-.63.57 0 1.02.18 1.32.55.31.36.48.84.5 1.46a3.9 3.9 0 0 1 0 .6c-.02.6-.19 1.09-.5 1.46-.3.36-.75.54-1.32.54-.58 0-1.02-.2-1.32-.6v1.94c0 .06-.02.1-.06.14a.18.18 0 0 1-.14.06h-.73Zm1.93-2.45c.62 0 .95-.38.98-1.14a2.81 2.81 0 0 0 0-.5c-.03-.77-.36-1.14-.98-1.14-.33 0-.57.1-.73.31-.16.21-.25.47-.27.78v.66c.01.28.1.53.27.73.17.2.41.3.73.3Zm7.47.91c-.79 0-1.4-.2-1.83-.6-.43-.4-.66-.98-.68-1.71a23 23 0 0 1 0-1.52c.02-.73.25-1.3.69-1.7a2.56 2.56 0 0 1 1.82-.62c.5 0 .95.1 1.32.27.38.17.67.4.87.7.2.3.32.64.33 1.02v.01c0 .05-.02.09-.06.12a.18.18 0 0 1-.12.04h-.81c-.07 0-.12-.01-.16-.04-.03-.03-.06-.08-.08-.16-.1-.36-.24-.61-.46-.75-.2-.15-.49-.22-.84-.22-.82 0-1.25.45-1.28 1.37a21.17 21.17 0 0 0 0 1.44c.03.91.46 1.37 1.28 1.37.35 0 .63-.07.84-.22.22-.15.37-.4.46-.75.01-.08.04-.14.07-.16.04-.03.1-.05.17-.05h.8c.06 0 .1.02.14.05.04.04.05.08.05.13-.01.38-.12.72-.33 1.02-.2.3-.5.53-.87.7-.37.18-.82.26-1.32.26Zm5.4 0c-.67 0-1.19-.17-1.55-.5a2 2 0 0 1-.6-1.43v-.75c.04-.59.24-1.06.6-1.4.38-.36.89-.53 1.54-.53.66 0 1.17.17 1.54.52.37.35.57.82.6 1.41a5.38 5.38 0 0 1 0 .75 2 2 0 0 1-.59 1.42c-.36.34-.88.51-1.55.51Zm0-.84c.3 0 .53-.1.7-.28.16-.2.25-.48.27-.85a4.12 4.12 0 0 0 0-.67c-.02-.37-.11-.64-.28-.83a.87.87 0 0 0-.7-.3c-.3 0-.53.1-.7.3-.16.19-.25.46-.27.83v.67c.02.37.1.65.27.85.17.18.4.28.7.28Zm4.73.84c-.52 0-.93-.17-1.24-.5-.3-.36-.45-.83-.45-1.42v-2.4c0-.06.02-.1.06-.14a.2.2 0 0 1 .15-.06h.75c.06 0 .11.02.14.06.04.03.06.08.06.14v2.35c0 .7.31 1.06.94 1.06.3 0 .52-.1.7-.28.17-.19.26-.45.26-.78v-2.35c0-.06.02-.1.06-.14a.2.2 0 0 1 .15-.06h.75c.06 0 .1.02.14.06.04.03.06.08.06.14v4.03a.2.2 0 0 1-.06.15.18.18 0 0 1-.14.06h-.7a.2.2 0 0 1-.14-.06.2.2 0 0 1-.06-.15v-.35c-.32.43-.8.64-1.43.64Zm3.87-.08a.2.2 0 0 1-.15-.06.2.2 0 0 1-.06-.15v-4.03c0-.06.02-.1.06-.14a.2.2 0 0 1 .15-.06h.7c.05 0 .1.02.14.06a.2.2 0 0 1 .06.14v.35c.34-.43.81-.64 1.43-.64.52 0 .94.17 1.25.52.3.34.46.81.46 1.4v2.4a.2.2 0 0 1-.06.15.18.18 0 0 1-.15.06h-.75a.2.2 0 0 1-.14-.06.2.2 0 0 1-.06-.15V18.8c0-.33-.09-.6-.25-.77-.16-.2-.4-.28-.7-.28-.3 0-.54.09-.72.28-.17.19-.26.44-.26.77v2.35a.2.2 0 0 1-.06.15.18.18 0 0 1-.14.06h-.75Zm7.08 0c-.52 0-.9-.13-1.17-.4-.26-.28-.38-.67-.38-1.2v-1.94h-.68a.2.2 0 0 1-.15-.06.23.23 0 0 1-.05-.15v-.49c0-.06.02-.1.05-.14a.2.2 0 0 1 .15-.06h.68v-1.42c0-.06.02-.11.05-.15a.2.2 0 0 1 .15-.06h.7c.05 0 .1.02.14.06.04.04.06.09.06.15v1.42h1.07c.06 0 .1.02.14.06.04.03.06.08.06.14v.49a.2.2 0 0 1-.06.15.2.2 0 0 1-.14.06H53.6v1.86c0 .24.04.43.13.55.08.13.22.19.42.19h.6c.05 0 .1.02.14.06a.2.2 0 0 1 .06.14v.53a.2.2 0 0 1-.06.15.18.18 0 0 1-.15.06h-.69Zm1.86 0a.2.2 0 0 1-.15-.06.2.2 0 0 1-.05-.15v-4.02c0-.06.01-.1.05-.15a.19.19 0 0 1 .15-.06h.7a.2.2 0 0 1 .15.06c.04.04.06.09.06.15v.35c.13-.18.3-.32.5-.42.22-.1.46-.14.73-.14h.35c.06 0 .1.02.14.06.04.03.06.08.06.14v.62a.2.2 0 0 1-.06.14.18.18 0 0 1-.14.06h-.67a.85.85 0 0 0-.63.23.85.85 0 0 0-.23.63v2.35a.2.2 0 0 1-.06.15.2.2 0 0 1-.16.06h-.74Zm4.16 1.62a.16.16 0 0 1-.12-.05.16.16 0 0 1-.05-.12c0-.05.01-.1.03-.14l.67-1.58-1.64-3.87a.32.32 0 0 1-.03-.12c0-.05.02-.09.06-.12a.16.16 0 0 1 .12-.06h.7c.1 0 .18.05.23.16l1.13 2.8 1.17-2.8c.05-.1.13-.16.23-.16h.69c.04 0 .08.01.12.05.04.03.06.07.06.12 0 .04-.01.08-.04.13l-2.42 5.6c-.05.1-.13.16-.23.16h-.68Z" fill="#5E6C84"/></g><g clip-path="url(#c)"><path opacity=".1" fill-rule="evenodd" clip-rule="evenodd" d="m90.24 50.83 14.31-1.05 14.86-3.89 13.76-9.58 11 8.13v7.2H90.24v-.8Z" fill="url(#d)"/><path d="m90.24 50.83 14.31-1.05 14.86-3.89 13.76-9.58 11 8.13" stroke="#226FC7" stroke-width=".75"/><path d="M21.36 51.17a.47.47 0 0 1-.34-.14.47.47 0 0 1-.14-.34v-2.6h-6.43a.47.47 0 0 1-.35-.14.47.47 0 0 1-.14-.35v-1.38c0-.21.07-.42.22-.6l5.99-8.3c.06-.11.17-.2.3-.25.14-.07.29-.1.45-.1h2.21c.15 0 .26.05.34.14.1.08.15.2.15.35v8.24h1.8a.5.5 0 0 1 .37.14c.1.08.14.2.14.34v1.42c0 .14-.05.25-.14.35-.1.1-.21.14-.35.14h-1.82v2.6c0 .13-.05.25-.15.34-.08.1-.2.14-.34.14h-1.77Zm-.42-5.4v-5.86l-4.16 5.87h4.16ZM32.8 51.4a6.81 6.81 0 0 1-2.9-.57 4.57 4.57 0 0 1-1.85-1.5 3.79 3.79 0 0 1-.67-2.01v-.04c0-.11.04-.2.12-.27.08-.06.18-.1.3-.1h1.9c.3 0 .5.14.6.4.19.6.5 1.04.93 1.33.45.28.97.42 1.57.42.75 0 1.38-.23 1.88-.69.52-.46.77-1.1.77-1.92 0-.73-.25-1.33-.77-1.79a2.68 2.68 0 0 0-1.88-.69 2.59 2.59 0 0 0-1.75.61c-.16.12-.3.2-.39.26a.68.68 0 0 1-.3.06h-1.87a.48.48 0 0 1-.32-.12.48.48 0 0 1-.12-.32l.7-6.94a.55.55 0 0 1 .57-.55h7.63c.14 0 .26.05.35.14.1.1.14.21.14.35v1.36c0 .13-.05.25-.14.34-.1.1-.21.14-.35.14H31.1l-.32 3.31a4.58 4.58 0 0 1 2.65-.69c.88 0 1.7.2 2.44.57a4.32 4.32 0 0 1 2.47 4.02c0 .98-.23 1.85-.69 2.6-.46.73-1.1 1.3-1.94 1.7-.83.4-1.8.59-2.9.59Zm7.93-.23a.47.47 0 0 1-.34-.14.47.47 0 0 1-.14-.34v-2.01c0-.14.05-.25.14-.35.1-.1.2-.16.34-.16h2.03c.14 0 .25.06.35.16.1.1.14.21.14.35v2c0 .14-.05.26-.14.35-.1.1-.21.14-.35.14h-2.03Zm9.94.23a6.81 6.81 0 0 1-2.9-.57 4.57 4.57 0 0 1-1.85-1.5 3.79 3.79 0 0 1-.67-2.01v-.04c0-.11.04-.2.12-.27.08-.06.19-.1.3-.1h1.9c.3 0 .5.14.6.4.2.6.5 1.04.94 1.33.44.28.96.42 1.56.42.76 0 1.39-.23 1.89-.69.51-.46.77-1.1.77-1.92 0-.73-.26-1.33-.77-1.79a2.68 2.68 0 0 0-1.9-.69 2.59 2.59 0 0 0-1.74.61l-.38.26a.68.68 0 0 1-.3.06h-1.87a.48.48 0 0 1-.33-.12.48.48 0 0 1-.12-.32l.71-6.94a.55.55 0 0 1 .57-.55h7.63c.13 0 .25.05.34.14.1.1.15.21.15.35v1.36c0 .13-.05.25-.15.34-.1.1-.2.14-.34.14h-5.87l-.32 3.31a4.58 4.58 0 0 1 2.66-.69c.88 0 1.69.2 2.43.57a4.32 4.32 0 0 1 2.48 4.02c0 .98-.23 1.85-.7 2.6-.45.73-1.1 1.3-1.94 1.7-.83.4-1.8.59-2.9.59Zm10.27-7.29c-.9 0-1.61-.23-2.15-.7a2.72 2.72 0 0 1-.88-1.93 16.3 16.3 0 0 1 0-1.9c.06-.83.34-1.5.86-1.98a3.03 3.03 0 0 1 2.17-.73c.93 0 1.66.24 2.17.73.53.49.81 1.15.85 1.99l.04 1.05c0 .15-.01.43-.04.84a2.61 2.61 0 0 1-.87 1.92 3.1 3.1 0 0 1-2.15.71Zm-1.67 7.06a.46.46 0 0 1-.3-.1.41.41 0 0 1-.12-.3c0-.08.03-.16.08-.22l10-13.2c.11-.13.21-.22.3-.28.1-.07.23-.1.4-.1h1.07c.13 0 .23.04.3.12.08.07.12.16.12.29 0 .08-.02.15-.08.22l-10 13.19c-.1.13-.21.24-.3.3a.78.78 0 0 1-.39.08h-1.08Zm1.67-8.56c.4 0 .68-.11.87-.34.19-.25.3-.54.33-.9l.04-.85-.04-.83a1.35 1.35 0 0 0-.33-.87c-.19-.25-.48-.37-.87-.37-.4 0-.68.12-.87.37-.2.23-.3.52-.3.87a13.24 13.24 0 0 0 0 1.68c.02.36.12.65.3.9.19.23.48.34.87.34Zm8.1 8.69a3.1 3.1 0 0 1-2.16-.73 2.89 2.89 0 0 1-.87-2 16.3 16.3 0 0 1 0-1.86c.05-.84.34-1.5.85-1.99a3.03 3.03 0 0 1 2.17-.73c.94 0 1.66.24 2.18.73.52.49.8 1.15.85 1.99l.04 1.04-.04.83a2.85 2.85 0 0 1-.9 1.99c-.52.48-1.23.73-2.13.73Zm0-1.59c.4 0 .7-.11.87-.34.19-.25.3-.54.32-.87l.04-.86c0-.15-.01-.42-.04-.83a1.44 1.44 0 0 0-.32-.9c-.2-.23-.48-.36-.88-.36-.39 0-.68.13-.87.37-.19.23-.3.53-.32.9a13.16 13.16 0 0 0 0 1.68c.04.35.15.64.32.87.2.23.48.34.87.34Z" fill="#344563"/><g clip-path="url(#e)"><path d="M32.37 91.38c-.74 0-1.3-.2-1.71-.58-.4-.4-.6-1-.6-1.8v-3.48c0-.06.02-.1.05-.14a.2.2 0 0 1 .15-.06h.43c.07 0 .11.02.15.06.04.03.06.08.06.14v3.49c0 .55.13.96.38 1.23.26.27.62.41 1.09.41.47 0 .83-.14 1.08-.41.26-.27.39-.68.39-1.23v-3.49c0-.06.01-.1.05-.14a.2.2 0 0 1 .14-.06h.45c.06 0 .1.02.13.06a.2.2 0 0 1 .06.14V89c0 .8-.2 1.4-.6 1.8-.4.4-.97.6-1.7.6Zm3.82-.08a.22.22 0 0 1-.15-.05.22.22 0 0 1-.05-.15v-4.05c0-.05.02-.1.05-.13a.2.2 0 0 1 .15-.06h.4c.06 0 .1.02.14.06.04.03.06.08.06.13v.38c.16-.21.36-.37.58-.49.23-.11.5-.17.84-.17.55 0 .97.18 1.28.53.3.35.46.81.46 1.4v2.4a.2.2 0 0 1-.06.15.19.19 0 0 1-.14.05h-.43a.22.22 0 0 1-.14-.05.22.22 0 0 1-.05-.15v-2.36c0-.4-.1-.72-.3-.94-.2-.23-.48-.34-.85-.34-.36 0-.64.12-.85.35a1.3 1.3 0 0 0-.32.93v2.36a.2.2 0 0 1-.06.15.18.18 0 0 1-.13.05h-.43Zm5.11-5.27a.22.22 0 0 1-.14-.05.22.22 0 0 1-.06-.15v-.46c0-.06.02-.1.06-.15a.2.2 0 0 1 .14-.05h.54c.06 0 .1.02.14.05a.2.2 0 0 1 .06.15v.46a.2.2 0 0 1-.06.15.22.22 0 0 1-.14.05h-.54Zm.07 5.27a.22.22 0 0 1-.15-.05.22.22 0 0 1-.05-.15v-4.05c0-.05.02-.1.05-.13a.2.2 0 0 1 .15-.06h.41c.06 0 .1.02.14.06.04.03.06.08.06.13v4.05a.2.2 0 0 1-.06.15.18.18 0 0 1-.14.05h-.41Zm3.6 0c-.9 0-1.34-.5-1.34-1.5v-2.26h-.67a.22.22 0 0 1-.15-.05.22.22 0 0 1-.05-.15v-.29c0-.05.02-.1.05-.13a.2.2 0 0 1 .15-.06h.67v-1.43c0-.06.01-.1.05-.14a.2.2 0 0 1 .14-.06h.4c.06 0 .1.02.14.06.04.04.06.08.06.14v1.43h1.06c.06 0 .1.02.14.06.04.03.06.08.06.13v.3a.2.2 0 0 1-.06.14.18.18 0 0 1-.14.05h-1.06v2.2c0 .28.05.5.15.65.1.14.25.2.47.2h.53c.05 0 .1.03.13.07.04.03.06.08.06.14v.3a.2.2 0 0 1-.06.15.19.19 0 0 1-.13.05h-.6Zm3.39.08c-.59 0-1.06-.17-1.41-.53a2.25 2.25 0 0 1-.58-1.49V88.79c.04-.62.24-1.1.59-1.47.35-.37.81-.55 1.39-.55.63 0 1.12.2 1.47.6.34.4.52.95.52 1.63v.15a.2.2 0 0 1-.06.14.18.18 0 0 1-.14.05H47.2v.08c.01.37.12.69.33.95.21.25.49.38.83.38a1.2 1.2 0 0 0 1.01-.48l.12-.12a.3.3 0 0 1 .14-.03h.42c.05 0 .1.01.13.04s.05.07.05.12c0 .13-.08.28-.24.46-.15.17-.37.33-.66.46-.28.12-.6.18-.96.18Zm1.17-2.63v-.02c0-.4-.11-.71-.33-.96-.2-.25-.5-.38-.85-.38-.36 0-.65.13-.86.38-.2.25-.3.56-.3.96v.02h2.34Zm3.45 2.63c-.59 0-1.04-.19-1.34-.58-.3-.38-.46-.87-.48-1.47v-.51c.02-.58.18-1.07.48-1.46.3-.4.75-.59 1.34-.59.59 0 1.05.2 1.39.62v-1.96c0-.06.01-.1.05-.14a.2.2 0 0 1 .14-.06h.41c.06 0 .1.02.14.06.04.04.06.08.06.14v5.67a.2.2 0 0 1-.06.15.19.19 0 0 1-.14.05h-.38a.22.22 0 0 1-.15-.05.22.22 0 0 1-.05-.15v-.36c-.33.43-.8.64-1.4.64Zm.18-.69c.4 0 .69-.13.88-.38.2-.26.31-.57.33-.93a4.16 4.16 0 0 0 0-.66 1.43 1.43 0 0 0-.33-.88c-.2-.25-.5-.38-.88-.38-.4 0-.7.13-.89.38-.18.25-.28.58-.3.99v.25c0 1.07.4 1.61 1.2 1.61Zm7.4.7c-.46 0-.87-.08-1.22-.23-.34-.15-.6-.34-.79-.58a1.4 1.4 0 0 1-.29-.78c0-.05.02-.09.05-.12a.19.19 0 0 1 .14-.06h.44c.1 0 .18.05.22.17.05.24.2.44.43.61.25.17.59.26 1.03.26.47 0 .83-.08 1.07-.25.24-.17.36-.4.36-.7 0-.2-.06-.36-.18-.48a1.44 1.44 0 0 0-.52-.31c-.22-.1-.57-.2-1.02-.35-.45-.12-.8-.26-1.06-.4a1.54 1.54 0 0 1-.6-.53c-.12-.2-.19-.47-.19-.8 0-.3.09-.58.25-.82.17-.25.41-.44.73-.57.31-.15.68-.22 1.12-.22.44 0 .82.08 1.14.24.32.16.56.35.73.6.16.23.25.47.26.71 0 .05-.02.09-.05.12-.03.03-.07.05-.13.05h-.45c-.12 0-.2-.05-.22-.16a.84.84 0 0 0-.4-.6 1.53 1.53 0 0 0-.88-.23c-.4 0-.7.07-.92.22a.74.74 0 0 0-.33.66c0 .2.05.35.15.48.11.12.27.23.49.33.22.1.53.2.95.32.48.13.86.27 1.14.4.28.14.49.32.63.53.13.2.2.47.2.78 0 .53-.2.95-.61 1.25-.41.3-.97.45-1.66.45Zm5.02-.1c-.9 0-1.35-.5-1.35-1.5v-2.25h-.66a.22.22 0 0 1-.15-.05.22.22 0 0 1-.05-.15v-.29c0-.05.02-.1.05-.13a.2.2 0 0 1 .15-.06h.66v-1.43c0-.06.02-.1.06-.14a.2.2 0 0 1 .14-.06h.4c.06 0 .1.02.14.06.04.04.06.08.06.14v1.43h1.06c.06 0 .1.02.14.06.03.03.05.08.05.13v.3a.2.2 0 0 1-.05.14.18.18 0 0 1-.14.05h-1.06v2.2c0 .28.05.5.14.65.1.14.26.2.48.2h.52c.06 0 .1.03.14.07.04.03.06.08.06.14v.3a.2.2 0 0 1-.06.15.19.19 0 0 1-.14.05h-.59Zm2.85.1c-.28 0-.54-.06-.78-.18a1.49 1.49 0 0 1-.57-.46c-.14-.2-.2-.42-.2-.66 0-.37.15-.68.45-.92.32-.24.74-.4 1.27-.48l1.27-.18v-.24c0-.58-.33-.88-1-.88a1.07 1.07 0 0 0-.97.53.23.23 0 0 1-.07.12c-.02.02-.06.03-.1.03h-.37a.2.2 0 0 1-.14-.05.2.2 0 0 1-.05-.14c0-.13.07-.29.19-.46.12-.18.31-.33.57-.45.26-.13.57-.2.95-.2.64 0 1.1.15 1.37.45.28.3.42.67.42 1.11v2.77a.2.2 0 0 1-.06.15.18.18 0 0 1-.13.05h-.4a.22.22 0 0 1-.14-.05.22.22 0 0 1-.05-.15v-.36c-.13.18-.31.33-.55.46-.24.12-.54.18-.91.18Zm.18-.65c.37 0 .67-.12.9-.35.24-.25.36-.6.36-1.06v-.23l-1 .14c-.4.06-.7.15-.9.3-.21.12-.31.29-.31.5 0 .22.1.4.28.52.19.12.4.18.67.18Zm4.98.56c-.9 0-1.35-.5-1.35-1.5v-2.26h-.66a.22.22 0 0 1-.15-.05.22.22 0 0 1-.05-.15v-.29c0-.05.02-.1.05-.13a.2.2 0 0 1 .15-.06h.66v-1.43c0-.06.02-.1.06-.14a.2.2 0 0 1 .14-.06h.4c.06 0 .1.02.14.06.04.04.06.08.06.14v1.43h1.06c.06 0 .1.02.13.06.04.03.06.08.06.13v.3a.2.2 0 0 1-.06.14.18.18 0 0 1-.13.05h-1.06v2.2c0 .28.05.5.14.65.1.14.26.2.48.2h.52c.06 0 .1.03.14.07.04.03.06.08.06.14v.3a.2.2 0 0 1-.06.15.18.18 0 0 1-.14.05h-.59Zm3.38.08c-.58 0-1.05-.17-1.4-.53a2.25 2.25 0 0 1-.58-1.49V88.79c.04-.62.24-1.1.58-1.47.36-.37.82-.55 1.4-.55.63 0 1.12.2 1.46.6.35.4.53.95.53 1.63v.15a.2.2 0 0 1-.06.14.18.18 0 0 1-.14.05H75.8v.08c.02.37.13.69.34.95.2.25.48.38.83.38a1.2 1.2 0 0 0 1.01-.48c.05-.07.09-.11.11-.12a.3.3 0 0 1 .15-.03h.42c.05 0 .1.01.13.04s.05.07.05.12c0 .13-.08.28-.24.46-.16.17-.38.33-.66.46-.28.12-.6.18-.97.18Zm1.17-2.63v-.02c0-.4-.1-.71-.32-.96-.21-.25-.5-.38-.85-.38-.36 0-.65.13-.86.38-.2.25-.3.56-.3.96v.02h2.33Zm3.38 2.63c-.4 0-.74-.06-1.01-.18a1.8 1.8 0 0 1-.6-.45c-.14-.16-.2-.3-.2-.4 0-.06.01-.1.05-.14.05-.03.1-.05.14-.05h.39c.05 0 .1.03.15.09.14.16.28.28.44.37.16.1.38.14.64.14.3 0 .54-.06.72-.17a.55.55 0 0 0 .28-.49.47.47 0 0 0-.12-.33.84.84 0 0 0-.39-.23 6.41 6.41 0 0 0-.82-.22c-.5-.11-.85-.27-1.06-.47-.2-.2-.3-.47-.3-.8 0-.21.06-.42.18-.61.13-.2.32-.36.57-.48.25-.13.55-.19.9-.19.36 0 .67.06.92.18.26.12.45.26.58.43.13.16.2.3.2.4 0 .05-.03.1-.07.13a.17.17 0 0 1-.13.05h-.35a.21.21 0 0 1-.17-.09l-.24-.24a.77.77 0 0 0-.29-.17 1.31 1.31 0 0 0-.46-.07.98.98 0 0 0-.63.18.54.54 0 0 0-.22.46c0 .12.03.22.1.3.06.08.17.16.35.23.18.07.45.14.79.21.54.11.92.28 1.14.5.23.2.34.48.34.8 0 .25-.07.47-.21.67-.14.2-.35.36-.63.47-.28.12-.6.17-.98.17Z" fill="#5E6C84"/><rect x="13.35" y="82.77" width="10.68" height="10.68" rx="2.67" fill="#61A4E4"/><path d="M124.15 91.3a.22.22 0 0 1-.14-.05.22.22 0 0 1-.05-.15v-4.78l-1.42 1.1a.2.2 0 0 1-.13.04c-.05 0-.1-.03-.14-.08l-.23-.28a.2.2 0 0 1-.04-.12c0-.07.03-.13.09-.17l1.86-1.43a.4.4 0 0 1 .22-.06h.44c.05 0 .1.02.13.06.04.03.06.08.06.14v5.58a.2.2 0 0 1-.06.15.19.19 0 0 1-.13.05h-.46Zm3.8.08c-.44 0-.81-.07-1.12-.23a1.83 1.83 0 0 1-.73-.6 1.55 1.55 0 0 1-.27-.8v-.02c0-.05.02-.09.06-.11a.18.18 0 0 1 .12-.05h.46c.12 0 .2.07.23.2.08.3.23.52.46.67.23.14.49.22.78.22.39 0 .7-.12.95-.34.26-.24.39-.56.39-.97 0-.37-.13-.67-.39-.9a1.36 1.36 0 0 0-.94-.34c-.21 0-.38.03-.5.09a1.6 1.6 0 0 0-.38.22c-.06.05-.12.1-.18.12a.34.34 0 0 1-.15.03h-.44a.2.2 0 0 1-.14-.05.16.16 0 0 1-.05-.13l.27-2.86a.2.2 0 0 1 .21-.21h2.99c.05 0 .1.02.13.06.04.03.06.08.06.14v.33a.2.2 0 0 1-.06.14.19.19 0 0 1-.13.06h-2.46l-.17 1.68a2.32 2.32 0 0 1 2.14-.06c.33.15.58.37.76.66.19.3.28.64.28 1.03 0 .42-.1.79-.28 1.1-.18.3-.44.53-.77.69-.33.16-.7.23-1.14.23Zm3.27-.08a.22.22 0 0 1-.15-.05.22.22 0 0 1-.05-.15v-.61c0-.06.02-.1.05-.14a.2.2 0 0 1 .15-.06h.61c.06 0 .1.02.15.06.04.04.06.08.06.14v.61a.2.2 0 0 1-.06.15.21.21 0 0 1-.15.05h-.61Zm3.88.08c-.44 0-.81-.07-1.12-.23a1.83 1.83 0 0 1-.73-.6 1.56 1.56 0 0 1-.26-.8v-.02c0-.05.01-.09.05-.11a.18.18 0 0 1 .12-.05h.46c.12 0 .2.07.23.2.08.3.23.52.46.67.23.14.49.22.78.22.39 0 .7-.12.95-.34.26-.24.39-.56.39-.97 0-.37-.13-.67-.39-.9a1.36 1.36 0 0 0-.94-.34c-.21 0-.38.03-.5.09-.13.05-.25.12-.38.22-.06.05-.12.1-.18.12a.34.34 0 0 1-.15.03h-.44a.2.2 0 0 1-.14-.05.16.16 0 0 1-.05-.13l.27-2.86c0-.07.03-.12.06-.15a.2.2 0 0 1 .16-.06h2.98c.05 0 .1.02.13.06.04.03.06.08.06.14v.33a.2.2 0 0 1-.06.14.19.19 0 0 1-.13.06h-2.46l-.17 1.68c.31-.2.68-.3 1.12-.3.37 0 .72.08 1.03.24.32.15.57.37.75.66.19.3.28.64.28 1.03 0 .42-.1.79-.28 1.1-.18.3-.44.53-.77.69-.33.16-.7.23-1.13.23Zm4.22-3.06c-.37 0-.66-.1-.88-.3a1.2 1.2 0 0 1-.35-.81 6.46 6.46 0 0 1 0-.78c.02-.35.13-.63.34-.84.2-.2.5-.31.9-.31.38 0 .68.1.88.31.21.2.32.49.34.84a12.8 12.8 0 0 1 0 .78c-.02.34-.13.62-.35.82-.21.2-.5.29-.88.29Zm-.72 2.98a.2.2 0 0 1-.12-.04.17.17 0 0 1-.05-.13c0-.04 0-.07.03-.1l4.22-5.55a.5.5 0 0 1 .12-.13c.04-.02.1-.03.16-.03h.28c.06 0 .1.02.13.05.04.03.05.07.05.12 0 .03 0 .07-.03.1l-4.21 5.55a.44.44 0 0 1-.13.13.3.3 0 0 1-.16.03h-.28Zm.72-3.51c.2 0 .36-.06.45-.18a.8.8 0 0 0 .17-.44 10.96 10.96 0 0 0 0-.7.73.73 0 0 0-.17-.45c-.1-.12-.25-.18-.45-.18s-.34.06-.44.18a.76.76 0 0 0-.16.44 5.53 5.53 0 0 0 0 .71c.01.18.07.33.16.45.1.11.24.17.44.17Zm3.2 3.56c-.37 0-.67-.1-.88-.3a1.25 1.25 0 0 1-.35-.84 7.49 7.49 0 0 1 0-.78c.02-.35.13-.63.34-.84.21-.21.5-.32.89-.32.38 0 .68.11.89.32.2.2.32.49.35.84a8.38 8.38 0 0 1 0 .78c-.03.34-.15.62-.36.83-.22.2-.51.31-.88.31Zm0-.56c.2 0 .35-.06.44-.18a.8.8 0 0 0 .17-.44 12.94 12.94 0 0 0 0-.7.77.77 0 0 0-.16-.45c-.1-.12-.25-.18-.45-.18s-.35.06-.45.18a.77.77 0 0 0-.16.44 5.53 5.53 0 0 0 0 .71c.02.17.07.32.16.44.1.12.25.18.45.18Z" fill="#5E6C84"/></g><g clip-path="url(#f)"><path d="M32.27 112.74c-.77 0-1.35-.2-1.75-.61a2.5 2.5 0 0 1-.63-1.7 22.92 22.92 0 0 1 0-1.52c.03-.72.24-1.28.64-1.7.4-.41.98-.62 1.74-.62.5 0 .93.1 1.29.28a1.92 1.92 0 0 1 1.1 1.63v.02c0 .04-.02.08-.06.11a.18.18 0 0 1-.12.05H34c-.12 0-.19-.07-.22-.2-.1-.43-.27-.73-.52-.9a1.72 1.72 0 0 0-1-.26c-.98 0-1.5.54-1.53 1.63a21.44 21.44 0 0 0 0 1.44c.04 1.08.55 1.63 1.53 1.63.42 0 .75-.09 1-.26.26-.18.43-.48.52-.9.02-.08.05-.13.08-.16a.2.2 0 0 1 .14-.04h.47c.05 0 .1.02.13.05.04.03.05.07.05.12a1.93 1.93 0 0 1-1.1 1.65c-.36.17-.79.26-1.3.26Zm3.63-.08a.22.22 0 0 1-.15-.05.22.22 0 0 1-.05-.15v-5.67c0-.06.02-.1.05-.14a.2.2 0 0 1 .15-.06h.42c.06 0 .1.02.14.06.04.04.06.08.06.14v1.99a1.66 1.66 0 0 1 1.41-.65c.55 0 .97.18 1.27.53.31.35.46.81.46 1.4v2.4a.2.2 0 0 1-.06.15.19.19 0 0 1-.13.05h-.43a.22.22 0 0 1-.14-.05.22.22 0 0 1-.06-.15v-2.36c0-.4-.1-.72-.3-.94-.19-.23-.47-.34-.84-.34-.36 0-.65.12-.86.34a1.3 1.3 0 0 0-.32.94v2.36a.2.2 0 0 1-.06.15.19.19 0 0 1-.14.05h-.42Zm5.13-5.27a.22.22 0 0 1-.15-.05.22.22 0 0 1-.05-.15v-.46c0-.06.02-.1.05-.15a.2.2 0 0 1 .15-.06h.53c.06 0 .1.02.15.06a.2.2 0 0 1 .06.15v.46a.2.2 0 0 1-.06.15.22.22 0 0 1-.15.05h-.53Zm.06 5.27a.22.22 0 0 1-.14-.05.22.22 0 0 1-.05-.15v-4.05c0-.05.01-.1.05-.13a.2.2 0 0 1 .14-.06h.41c.06 0 .1.02.14.06.04.03.06.08.06.13v4.05a.2.2 0 0 1-.06.15.19.19 0 0 1-.14.05h-.4Zm2.07 0a.22.22 0 0 1-.14-.05.22.22 0 0 1-.05-.15v-4.05c0-.05.01-.1.05-.13a.2.2 0 0 1 .14-.06h.4c.06 0 .1.02.14.06.04.03.06.08.06.13v.38c.17-.21.36-.38.58-.49.23-.11.51-.17.85-.17.54 0 .97.18 1.27.53.3.35.46.81.46 1.4v2.4a.2.2 0 0 1-.06.15.19.19 0 0 1-.13.05h-.43a.22.22 0 0 1-.15-.05.22.22 0 0 1-.05-.15v-2.36c0-.4-.1-.72-.3-.94-.19-.23-.47-.34-.84-.34-.36 0-.65.12-.86.34a1.3 1.3 0 0 0-.31.94v2.36a.2.2 0 0 1-.06.15.19.19 0 0 1-.14.05h-.43Zm6.23.08c-.28 0-.54-.05-.78-.17a1.49 1.49 0 0 1-.57-.46c-.14-.2-.2-.42-.2-.66 0-.37.15-.68.45-.92.32-.24.74-.4 1.27-.48l1.27-.18v-.25c0-.58-.33-.87-1-.87a1.08 1.08 0 0 0-.97.53.24.24 0 0 1-.07.11c-.02.03-.06.04-.1.04h-.37a.2.2 0 0 1-.14-.05.2.2 0 0 1-.05-.14c0-.14.07-.29.19-.46.12-.18.31-.33.57-.45.26-.13.57-.2.95-.2.64 0 1.1.15 1.38.45.27.3.41.67.41 1.11v2.77a.2.2 0 0 1-.06.15.19.19 0 0 1-.13.05h-.4a.22.22 0 0 1-.14-.05.22.22 0 0 1-.05-.15v-.37c-.13.19-.31.34-.55.47-.24.12-.54.18-.91.18Zm.18-.64c.37 0 .67-.12.9-.36.24-.24.36-.6.36-1.05v-.24l-.99.15c-.4.06-.71.15-.91.29-.21.13-.31.3-.31.5 0 .23.1.4.28.53.19.12.41.18.67.18Z" fill="#5E6C84"/><rect x="13.35" y="104.13" width="10.68" height="10.68" rx="2.67" fill="#01669F"/><path d="M124.15 112.66a.22.22 0 0 1-.14-.05.22.22 0 0 1-.05-.15v-4.78l-1.42 1.1a.2.2 0 0 1-.13.04c-.05 0-.1-.03-.14-.08l-.23-.28a.2.2 0 0 1-.04-.13c0-.06.03-.12.09-.16l1.86-1.43a.4.4 0 0 1 .22-.06h.44c.05 0 .1.02.13.06.04.03.06.08.06.13v5.6a.19.19 0 0 1-.2.2h-.45Zm1.92 0a.22.22 0 0 1-.15-.05.22.22 0 0 1-.05-.15v-.27c0-.13.07-.26.21-.38l1.81-1.8c.44-.37.74-.67.91-.9.16-.23.25-.48.25-.73 0-.33-.1-.6-.29-.78-.18-.19-.44-.28-.8-.28-.33 0-.6.1-.8.3-.2.2-.31.45-.36.77a.23.23 0 0 1-.08.16.23.23 0 0 1-.14.04h-.45a.2.2 0 0 1-.12-.04.16.16 0 0 1-.06-.12c.02-.3.1-.6.25-.88.16-.29.38-.52.68-.7.3-.17.66-.27 1.08-.27.65 0 1.13.17 1.45.5.34.34.5.76.5 1.27 0 .36-.1.69-.27.98-.18.28-.46.59-.83.92l-1.64 1.67h2.66c.07 0 .11.02.15.05.04.04.06.08.06.14v.35a.2.2 0 0 1-.06.15.22.22 0 0 1-.15.05h-3.76Zm5.16 0a.22.22 0 0 1-.14-.05.22.22 0 0 1-.05-.15v-.61c0-.06.01-.1.05-.14a.2.2 0 0 1 .14-.06h.62c.06 0 .1.02.14.06.04.03.06.08.06.14v.61a.2.2 0 0 1-.06.15.22.22 0 0 1-.14.05h-.62Zm3.93.08c-.46 0-.85-.09-1.2-.27-.33-.19-.58-.44-.76-.75a2.08 2.08 0 0 1-.09-1.88c.13-.28.27-.52.42-.73l1.63-2.26.05-.06a.21.21 0 0 1 .1-.08.27.27 0 0 1 .13-.03h.45c.05 0 .1.02.12.06.04.03.05.07.05.13a.2.2 0 0 1-.03.1l-1.25 1.75a2.19 2.19 0 0 1 1.57.22 2 2 0 0 1 1 1.74c0 .37-.09.71-.26 1.03a1.9 1.9 0 0 1-.76.75c-.33.19-.72.28-1.17.28Zm-.01-.72c.24 0 .47-.05.67-.16.21-.1.38-.25.5-.45s.19-.45.19-.72c0-.28-.07-.52-.2-.71-.11-.2-.28-.36-.49-.46-.2-.1-.43-.15-.67-.15-.24 0-.47.05-.68.15-.2.1-.37.26-.5.46-.12.2-.18.43-.18.7 0 .28.06.53.19.73.12.2.29.35.5.45.2.1.42.16.67.16Zm4.17-2.34c-.37 0-.66-.1-.88-.3a1.2 1.2 0 0 1-.35-.81 6.46 6.46 0 0 1 0-.78c.02-.36.13-.63.34-.84.2-.21.5-.31.9-.31.38 0 .68.1.88.31.21.2.32.48.34.84a12.79 12.79 0 0 1 0 .78c-.02.34-.13.62-.35.82-.21.19-.5.29-.88.29Zm-.72 2.98a.19.19 0 0 1-.12-.05.17.17 0 0 1-.05-.12c0-.04 0-.07.03-.1l4.22-5.55a.5.5 0 0 1 .12-.13c.04-.02.1-.03.16-.03h.28c.06 0 .1.01.13.05.04.03.05.07.05.12 0 .03 0 .06-.03.1l-4.21 5.55a.44.44 0 0 1-.13.12c-.04.03-.09.04-.16.04h-.28Zm.72-3.51c.2 0 .36-.06.45-.18a.8.8 0 0 0 .17-.44 10.98 10.98 0 0 0 0-.7.74.74 0 0 0-.17-.45c-.1-.12-.25-.18-.45-.18s-.34.06-.44.18a.76.76 0 0 0-.16.44 5.5 5.5 0 0 0 0 .71c.01.18.07.33.16.45.1.11.24.17.44.17Zm3.2 3.56c-.37 0-.67-.1-.88-.3a1.26 1.26 0 0 1-.35-.84 7.5 7.5 0 0 1 0-.78c.02-.36.13-.64.34-.84.21-.21.5-.32.89-.32.38 0 .68.1.89.32.2.2.32.48.35.84a8.38 8.38 0 0 1 0 .77c-.03.35-.15.63-.36.84-.22.2-.51.3-.88.3Zm0-.56c.2 0 .35-.06.44-.18a.8.8 0 0 0 .17-.44 12.97 12.97 0 0 0 0-.7.77.77 0 0 0-.16-.45c-.1-.12-.25-.18-.45-.18s-.35.06-.45.18a.77.77 0 0 0-.16.44 5.54 5.54 0 0 0 0 .71c.02.17.07.32.16.44.1.12.25.18.45.18Z" fill="#5E6C84"/></g><g clip-path="url(#g)"><path d="M30.3 134.02a.22.22 0 0 1-.14-.05.22.22 0 0 1-.05-.15v-5.59c0-.05.02-.1.05-.13a.2.2 0 0 1 .15-.06h.45c.06 0 .1.02.14.06.04.03.06.08.06.13v5.6a.2.2 0 0 1-.06.14.19.19 0 0 1-.14.05h-.45Zm2.23 0a.22.22 0 0 1-.14-.05.22.22 0 0 1-.05-.15v-4.05c0-.06.01-.1.05-.14a.2.2 0 0 1 .14-.06h.4c.06 0 .1.03.14.06.04.04.06.08.06.14v.38c.17-.21.36-.38.58-.49.23-.11.51-.17.85-.17.55 0 .97.18 1.27.53.3.35.46.81.46 1.4v2.4a.2.2 0 0 1-.06.15.19.19 0 0 1-.13.05h-.43a.22.22 0 0 1-.15-.05.21.21 0 0 1-.05-.15v-2.36c0-.41-.1-.72-.3-.95-.19-.22-.47-.33-.84-.33-.36 0-.65.11-.86.34a1.3 1.3 0 0 0-.31.94v2.36a.2.2 0 0 1-.06.15.19.19 0 0 1-.14.05h-.43Zm6.61.08c-.59 0-1.04-.2-1.34-.58-.3-.39-.46-.88-.48-1.47v-.51c.02-.59.18-1.07.48-1.46.3-.4.75-.59 1.34-.59.59 0 1.05.2 1.39.62v-1.96c0-.06.01-.1.05-.14a.2.2 0 0 1 .14-.06h.41c.06 0 .1.02.14.06.04.04.06.08.06.14v5.67a.2.2 0 0 1-.06.15.19.19 0 0 1-.14.05h-.38a.22.22 0 0 1-.15-.05.22.22 0 0 1-.05-.15v-.36c-.33.43-.8.64-1.4.64Zm.18-.69c.4 0 .69-.13.88-.38.2-.27.3-.58.33-.94a4.14 4.14 0 0 0 0-.65 1.43 1.43 0 0 0-.33-.88c-.2-.25-.5-.38-.88-.38-.4 0-.7.13-.89.38-.18.25-.28.58-.3.99v.25c0 1.07.4 1.61 1.2 1.61Zm3.4-4.66a.22.22 0 0 1-.14-.06.22.22 0 0 1-.05-.14v-.46c0-.06.02-.1.05-.15a.2.2 0 0 1 .15-.06h.54c.05 0 .1.02.14.06a.2.2 0 0 1 .06.15v.46a.2.2 0 0 1-.06.14.22.22 0 0 1-.14.06h-.54Zm.08 5.27a.22.22 0 0 1-.15-.05.22.22 0 0 1-.05-.15v-4.05c0-.06.02-.1.05-.14a.2.2 0 0 1 .15-.06h.4c.06 0 .1.03.14.06.04.04.06.08.06.14v4.05a.2.2 0 0 1-.06.15.19.19 0 0 1-.13.05h-.41Zm3.1.08c-.27 0-.53-.05-.77-.17a1.5 1.5 0 0 1-.57-.46c-.14-.2-.2-.42-.2-.66 0-.37.15-.68.45-.92.32-.24.74-.4 1.27-.48l1.27-.18V131c0-.59-.33-.88-1-.88a1.07 1.07 0 0 0-.97.53.23.23 0 0 1-.07.11c-.02.03-.06.04-.1.04h-.37a.2.2 0 0 1-.14-.05.2.2 0 0 1-.05-.14.9.9 0 0 1 .19-.46c.13-.18.32-.33.57-.45.26-.13.57-.2.95-.2.64 0 1.1.15 1.38.45.28.3.41.67.41 1.11v2.77a.2.2 0 0 1-.06.15.19.19 0 0 1-.13.05h-.4a.22.22 0 0 1-.14-.05.22.22 0 0 1-.05-.15v-.37c-.13.19-.3.34-.55.47-.24.12-.54.18-.91.18Zm.19-.64c.37 0 .67-.12.9-.36.24-.24.36-.6.36-1.05v-.24l-.99.15c-.4.06-.7.15-.91.29-.2.13-.31.3-.31.5 0 .23.1.4.28.53.19.12.41.18.67.18Z" fill="#5E6C84"/><rect x="13.35" y="125.48" width="10.68" height="10.68" rx="2.67" fill="#226FC7"/><path d="M123.75 134.02a.22.22 0 0 1-.15-.05.22.22 0 0 1-.05-.15v-4.78l-1.42 1.09a.2.2 0 0 1-.13.05c-.05 0-.1-.03-.14-.08l-.22-.29a.2.2 0 0 1-.05-.12c0-.06.03-.12.09-.16l1.86-1.43a.4.4 0 0 1 .22-.06h.44c.06 0 .1.02.14.06.03.03.05.08.05.13v5.6a.2.2 0 0 1-.05.14.19.19 0 0 1-.14.05h-.45Zm4 .08c-.73 0-1.27-.21-1.61-.64a2.76 2.76 0 0 1-.55-1.68 25.26 25.26 0 0 1 0-1.51c.02-.69.2-1.24.55-1.67.34-.43.88-.65 1.61-.65.74 0 1.28.22 1.62.65.35.43.53.98.55 1.67a23.6 23.6 0 0 1 0 1.5c-.02.7-.2 1.26-.55 1.7-.34.42-.88.63-1.62.63Zm0-.73c.43 0 .75-.14.97-.43a2 2 0 0 0 .35-1.2 22.25 22.25 0 0 0 0-1.42 2.06 2.06 0 0 0-.34-1.2c-.22-.3-.55-.44-.98-.44-.43 0-.75.14-.97.43-.22.3-.33.7-.34 1.2l-.01.7v.73c.02.51.13.92.35 1.2.22.29.54.43.97.43Zm3.36.65a.22.22 0 0 1-.15-.05.22.22 0 0 1-.05-.15v-.61c0-.06.02-.1.05-.14a.2.2 0 0 1 .15-.06h.61c.06 0 .11.02.15.06.04.03.06.08.06.14v.61a.2.2 0 0 1-.06.15.22.22 0 0 1-.15.05h-.61Zm4.68 0a.21.21 0 0 1-.14-.05.21.21 0 0 1-.05-.15v-1.23h-2.77a.22.22 0 0 1-.15-.05.22.22 0 0 1-.05-.15v-.34c0-.08.03-.17.1-.25l2.56-3.62a.26.26 0 0 1 .13-.1.4.4 0 0 1 .19-.04h.61c.06 0 .1.02.14.06.04.03.06.08.06.13v3.62h.77c.05 0 .1.02.14.06.04.03.06.08.06.13v.35a.19.19 0 0 1-.2.2h-.77v1.23a.2.2 0 0 1-.06.15.19.19 0 0 1-.14.05h-.43Zm-.18-2.16v-2.93l-2.06 2.94h2.06Zm3.71-.82c-.37 0-.66-.1-.88-.3-.2-.2-.32-.47-.35-.81a6.32 6.32 0 0 1 0-.78c.02-.36.13-.63.34-.84.2-.21.5-.32.9-.32.38 0 .68.11.88.32.21.2.33.48.34.84a10.53 10.53 0 0 1 0 .78c-.01.34-.13.62-.35.81-.21.2-.5.3-.88.3Zm-.72 2.98a.2.2 0 0 1-.12-.05.17.17 0 0 1-.05-.12c0-.04 0-.07.03-.1l4.22-5.55.12-.13c.04-.02.1-.03.16-.03h.28c.06 0 .1.01.13.05.04.03.05.07.05.12 0 .03 0 .06-.03.1l-4.21 5.54a.44.44 0 0 1-.13.13.3.3 0 0 1-.16.04h-.28Zm.72-3.51c.2 0 .36-.06.45-.18a.8.8 0 0 0 .17-.44 9.63 9.63 0 0 0 0-.7.73.73 0 0 0-.17-.45c-.1-.12-.25-.18-.45-.18s-.34.06-.44.18a.76.76 0 0 0-.16.44 6.55 6.55 0 0 0 0 .71c.01.18.07.33.16.45.1.1.24.17.44.17Zm3.2 3.56c-.37 0-.67-.1-.88-.3a1.26 1.26 0 0 1-.35-.85 6.46 6.46 0 0 1 0-.77c.02-.36.14-.64.34-.84.21-.21.5-.32.89-.32s.68.1.89.32c.2.2.32.48.35.84a8.35 8.35 0 0 1 0 .77c-.03.35-.14.63-.36.84-.22.2-.51.3-.88.3Zm0-.56c.2 0 .35-.06.44-.18a.8.8 0 0 0 .17-.44 10.98 10.98 0 0 0 0-.7.76.76 0 0 0-.16-.45c-.1-.12-.25-.18-.45-.18s-.35.06-.45.18a.76.76 0 0 0-.16.44 5.53 5.53 0 0 0 0 .71c.02.17.07.32.16.44.1.11.25.17.45.17Z" fill="#5E6C84"/></g><g clip-path="url(#h)"><path d="M30.3 155.38a.22.22 0 0 1-.14-.06.22.22 0 0 1-.05-.14v-5.58c0-.06.02-.11.05-.14a.2.2 0 0 1 .15-.06h3.48c.07 0 .12.01.15.06.04.03.06.08.06.14v.34a.2.2 0 0 1-.06.15c-.03.03-.08.05-.15.05h-2.85v1.99h2.68c.07 0 .11.02.15.06.04.03.06.08.06.14v.35a.2.2 0 0 1-.06.14.21.21 0 0 1-.15.05h-2.68v2.3a.2.2 0 0 1-.06.16.22.22 0 0 1-.14.05h-.43Zm4.77 0a.22.22 0 0 1-.14-.06.22.22 0 0 1-.06-.14v-4.04c0-.06.02-.1.06-.15a.2.2 0 0 1 .14-.06h.4c.05 0 .1.02.14.06a.2.2 0 0 1 .06.15v.37c.23-.38.63-.58 1.2-.58h.33c.05 0 .1.02.13.06.04.04.06.08.06.14v.35c0 .06-.02.1-.06.14a.19.19 0 0 1-.13.05h-.51c-.31 0-.55.09-.73.27a.98.98 0 0 0-.27.73v2.5a.2.2 0 0 1-.06.16.22.22 0 0 1-.14.05h-.42Zm4.22.08a1.8 1.8 0 0 1-.78-.17 1.49 1.49 0 0 1-.57-.46c-.14-.2-.2-.42-.2-.66 0-.38.15-.68.46-.92.31-.25.73-.4 1.26-.48l1.28-.18v-.25c0-.58-.34-.87-1-.87a1.08 1.08 0 0 0-.98.53.22.22 0 0 1-.07.11c-.02.02-.05.04-.1.04h-.37a.2.2 0 0 1-.13-.06.2.2 0 0 1-.05-.13c0-.14.06-.3.18-.46.13-.18.32-.33.58-.46.25-.13.57-.2.94-.2.64 0 1.1.16 1.38.46.28.3.42.67.42 1.11v2.77a.2.2 0 0 1-.06.14.19.19 0 0 1-.14.06h-.4a.22.22 0 0 1-.14-.06.22.22 0 0 1-.05-.14v-.37c-.12.18-.3.34-.54.46-.24.13-.55.2-.92.2Zm.18-.64c.37 0 .67-.12.9-.36.25-.24.37-.6.37-1.05v-.24l-1 .15c-.4.05-.7.15-.91.29-.2.13-.3.3-.3.5 0 .23.09.4.27.53.2.12.41.18.67.18Zm3.5.56a.22.22 0 0 1-.15-.06.22.22 0 0 1-.05-.14v-4.05c0-.06.01-.1.05-.14a.2.2 0 0 1 .14-.06h.4c.06 0 .1.02.14.06.04.04.06.08.06.14v.38c.17-.22.36-.38.58-.5.23-.1.51-.16.85-.16.54 0 .97.17 1.27.53.3.34.46.8.46 1.39v2.4a.2.2 0 0 1-.06.16.19.19 0 0 1-.13.05h-.43a.22.22 0 0 1-.15-.06.22.22 0 0 1-.05-.14v-2.37c0-.4-.1-.72-.3-.94-.2-.22-.47-.33-.84-.33-.36 0-.65.11-.86.34a1.3 1.3 0 0 0-.31.93v2.37a.2.2 0 0 1-.06.14.19.19 0 0 1-.14.06h-.43Zm6.77.08c-.6 0-1.09-.17-1.43-.51a2.1 2.1 0 0 1-.55-1.45v-.69c.02-.62.2-1.1.55-1.44.34-.35.82-.52 1.43-.52.41 0 .76.07 1.04.22.29.15.5.33.64.55.14.21.22.43.23.65 0 .05-.01.1-.05.13a.22.22 0 0 1-.15.05h-.41c-.06 0-.1 0-.13-.03a.35.35 0 0 1-.08-.14 1.1 1.1 0 0 0-.41-.58c-.18-.12-.4-.18-.67-.18-.35 0-.63.11-.85.34-.2.21-.31.55-.33 1v.6c.02.45.13.78.33 1 .21.22.5.33.85.33.27 0 .49-.06.67-.17.17-.12.31-.32.4-.6a.36.36 0 0 1 .1-.13c.02-.03.06-.04.12-.04h.41c.06 0 .1.02.15.06.04.03.05.08.05.13-.01.21-.1.43-.23.65-.14.22-.35.4-.64.55a2.2 2.2 0 0 1-1.04.22Zm4.7 0c-.59 0-1.06-.18-1.41-.54a2.25 2.25 0 0 1-.57-1.48l-.01-.3v-.28c.05-.61.24-1.1.59-1.47.35-.36.81-.54 1.39-.54.63 0 1.12.2 1.47.6.35.4.52.94.52 1.63v.14a.2.2 0 0 1-.06.15.19.19 0 0 1-.14.05h-2.95v.08c.02.37.13.68.33.94.21.26.49.39.83.39a1.2 1.2 0 0 0 1.02-.49l.1-.12a.3.3 0 0 1 .15-.02h.42c.05 0 .1.01.13.04s.05.07.05.12c0 .13-.08.28-.24.45-.15.18-.37.33-.66.46-.27.13-.6.2-.96.2Zm1.17-2.63v-.03c0-.39-.1-.7-.33-.95-.2-.25-.5-.38-.85-.38-.36 0-.64.13-.85.38-.2.24-.31.56-.31.95v.03h2.34Z" fill="#5E6C84"/><rect x="13.35" y="146.84" width="10.68" height="10.68" rx="2.67" fill="#226FC7"/><path d="M127.83 155.46a3 3 0 0 1-1.17-.21 1.66 1.66 0 0 1-1.07-1.59 1.61 1.61 0 0 1 .92-1.47c-.22-.13-.4-.3-.52-.51a1.53 1.53 0 0 1-.18-.75c0-.5.18-.9.55-1.18.36-.3.86-.44 1.47-.44s1.1.15 1.46.44c.37.28.56.67.56 1.17a1.43 1.43 0 0 1-.7 1.27c.28.14.5.33.67.59.17.25.25.54.25.88a1.65 1.65 0 0 1-1.07 1.59c-.34.14-.73.21-1.17.21Zm0-3.58c.35 0 .63-.1.87-.26a.8.8 0 0 0 .35-.68.8.8 0 0 0-.35-.68 1.37 1.37 0 0 0-.87-.27c-.35 0-.64.09-.88.26a.82.82 0 0 0-.34.7c0 .28.11.5.34.68.24.17.53.25.88.25Zm0 2.9c.4 0 .73-.1 1-.31.27-.2.4-.47.4-.81 0-.34-.13-.6-.4-.8-.27-.2-.6-.3-1-.3s-.74.1-1 .3c-.27.2-.4.46-.4.8s.13.6.4.81c.26.2.6.3 1 .3Zm3.4.6a.22.22 0 0 1-.14-.06.22.22 0 0 1-.05-.14v-.62c0-.05.01-.1.05-.13a.2.2 0 0 1 .14-.06h.62c.06 0 .1.02.14.06.04.03.06.08.06.13v.62a.2.2 0 0 1-.06.14.21.21 0 0 1-.14.06h-.62Zm3.93.08c-.46 0-.85-.09-1.2-.27-.33-.19-.58-.44-.76-.75a2.08 2.08 0 0 1-.09-1.88c.13-.28.27-.52.42-.73l1.63-2.26.05-.06a.2.2 0 0 1 .1-.08.26.26 0 0 1 .13-.03h.45c.05 0 .1.01.12.06.03.03.05.07.05.12a.2.2 0 0 1-.03.11l-1.25 1.75a2.16 2.16 0 0 1 1.57.22 1.99 1.99 0 0 1 1 1.74c0 .37-.09.7-.26 1.03-.17.31-.43.56-.76.75-.33.19-.72.28-1.17.28Zm-.01-.72c.24 0 .47-.06.67-.16.21-.1.38-.25.5-.45s.19-.45.19-.73c0-.27-.07-.5-.2-.7-.11-.2-.28-.36-.49-.46-.2-.1-.43-.15-.67-.15-.24 0-.47.05-.68.15-.2.1-.37.25-.5.45-.12.2-.18.44-.18.71 0 .28.06.52.19.73.12.2.29.35.5.45.2.1.42.16.67.16Zm4.17-2.35c-.37 0-.66-.1-.88-.29-.2-.2-.33-.47-.35-.82a7.52 7.52 0 0 1 0-.77c.02-.36.13-.64.34-.84.2-.21.5-.32.9-.32.38 0 .67.1.88.32.21.2.32.48.34.84a12.79 12.79 0 0 1 0 .77c-.02.35-.13.62-.35.82-.21.2-.5.3-.88.3Zm-.72 2.99a.2.2 0 0 1-.12-.05.17.17 0 0 1-.05-.13c0-.03 0-.06.03-.09l4.22-5.55c.04-.06.08-.1.12-.13.04-.02.1-.03.16-.03h.28c.06 0 .1.01.13.05.03.03.05.06.05.12 0 .03 0 .06-.03.09l-4.21 5.55a.45.45 0 0 1-.13.13c-.04.03-.09.04-.16.04h-.29Zm.72-3.51c.2 0 .36-.06.45-.19a.8.8 0 0 0 .17-.43 12.97 12.97 0 0 0 0-.71.74.74 0 0 0-.17-.44c-.1-.12-.25-.18-.45-.18s-.35.06-.44.18a.77.77 0 0 0-.16.44 5.54 5.54 0 0 0 0 .7c.01.19.07.33.16.45.1.12.24.18.44.18Zm3.2 3.56c-.37 0-.67-.1-.88-.31a1.25 1.25 0 0 1-.35-.84 6.3 6.3 0 0 1 0-.78c.02-.35.13-.63.34-.83.2-.21.5-.32.89-.32.38 0 .68.1.88.32.22.2.33.48.36.84a10.1 10.1 0 0 1 0 .77c-.03.35-.15.63-.36.84-.22.2-.51.3-.88.3Zm0-.57c.2 0 .35-.06.44-.18a.8.8 0 0 0 .17-.43 12.77 12.77 0 0 0 0-.71.76.76 0 0 0-.16-.44c-.1-.13-.25-.19-.45-.19s-.35.06-.45.19a.77.77 0 0 0-.16.44 6.55 6.55 0 0 0 0 .7c.02.18.07.32.16.44.1.12.25.18.45.18Z" fill="#5E6C84"/></g><path fill-rule="evenodd" clip-rule="evenodd" d="M30.82 66.06a4.8 4.8 0 1 0-9.61 0 4.8 4.8 0 0 0 9.6 0Zm-6.48 1.99 3.28-3.27v2.2a.23.23 0 1 0 .45 0v-2.75c0-.13-.1-.23-.23-.23h-2.72c-.13 0-.23.1-.23.23s.1.23.23.23h2.17l-3.27 3.26c-.21.22.11.54.32.33Z" fill="#226FC7"/><path d="M32.98 68.94a.22.22 0 0 1-.15-.05.22.22 0 0 1-.05-.15v-5.57c0-.07.02-.12.05-.15a.2.2 0 0 1 .15-.06h.43c.06 0 .1.02.14.06.04.03.06.08.06.15v2.11l2.28-2.18c.1-.1.2-.14.34-.14h.46c.04 0 .08.02.12.05.03.04.05.08.05.12 0 .05-.01.08-.04.11l-2.64 2.58L37 68.65c.03.03.05.07.05.12 0 .05-.02.09-.05.12a.16.16 0 0 1-.12.05h-.48a.46.46 0 0 1-.34-.14l-2.44-2.4v2.34a.2.2 0 0 1-.06.15.22.22 0 0 1-.14.05h-.43Zm6 .09c-.28 0-.54-.06-.77-.17a1.49 1.49 0 0 1-.58-.47c-.13-.2-.2-.41-.2-.65 0-.38.15-.69.46-.93.31-.24.73-.4 1.26-.47l1.28-.18v-.25c0-.58-.34-.87-1-.87a1.07 1.07 0 0 0-.98.53.23.23 0 0 1-.07.1c-.02.03-.05.04-.1.04h-.37a.2.2 0 0 1-.13-.05.2.2 0 0 1-.05-.14.9.9 0 0 1 .18-.46c.13-.17.32-.33.58-.45.25-.13.57-.2.95-.2.63 0 1.1.15 1.37.46.28.3.42.66.42 1.1v2.77a.2.2 0 0 1-.06.15.18.18 0 0 1-.14.05h-.39a.22.22 0 0 1-.15-.05.22.22 0 0 1-.05-.15v-.36c-.12.18-.3.33-.54.46-.24.12-.55.19-.92.19Zm.18-.64c.37 0 .67-.12.9-.36.25-.25.37-.6.37-1.05v-.24l-1 .14c-.4.06-.7.16-.9.3-.21.12-.32.3-.32.5 0 .22.1.4.29.53.18.12.4.18.66.18Zm3.21.55a.22.22 0 0 1-.14-.05.22.22 0 0 1-.05-.15v-.3c0-.04 0-.09.03-.13l.09-.14 2.35-3h-2.2a.22.22 0 0 1-.15-.05.22.22 0 0 1-.05-.14v-.29c0-.05.02-.1.05-.13a.2.2 0 0 1 .15-.06h3.04c.06 0 .1.02.14.06.04.03.06.08.06.13v.32c0 .05-.02.1-.05.14a.95.95 0 0 1-.07.13l-2.33 2.99h2.42a.2.2 0 0 1 .15.05c.03.03.05.08.05.14v.28a.2.2 0 0 1-.06.15.19.19 0 0 1-.14.05h-3.29Zm5.67.09c-.28 0-.53-.06-.77-.17a1.49 1.49 0 0 1-.58-.47c-.13-.2-.2-.41-.2-.65 0-.38.15-.69.46-.93.31-.24.73-.4 1.26-.47l1.28-.18v-.25c0-.58-.34-.87-1-.87a1.07 1.07 0 0 0-.98.53.23.23 0 0 1-.06.1c-.03.03-.06.04-.1.04h-.37a.2.2 0 0 1-.14-.05.2.2 0 0 1-.05-.14.9.9 0 0 1 .19-.46c.12-.17.31-.33.57-.45.25-.13.57-.2.95-.2.63 0 1.1.15 1.37.46.28.3.42.66.42 1.1v2.77a.2.2 0 0 1-.06.15.18.18 0 0 1-.14.05h-.39a.22.22 0 0 1-.14-.05.22.22 0 0 1-.06-.15v-.36c-.12.18-.3.33-.54.46-.24.12-.55.19-.92.19Zm.18-.64c.37 0 .68-.12.9-.36.25-.25.37-.6.37-1.05v-.24l-1 .14c-.4.06-.7.16-.9.3-.21.12-.32.3-.32.5 0 .22.1.4.29.53.18.12.4.18.66.18Zm3.5.55a.22.22 0 0 1-.14-.05.22.22 0 0 1-.05-.15v-5.67c0-.06.01-.1.05-.14a.2.2 0 0 1 .14-.05h.4c.06 0 .1.02.14.05.04.04.06.08.06.14v2.97l1.68-1.4c.02 0 .05-.03.09-.06a.43.43 0 0 1 .11-.06.53.53 0 0 1 .15-.02h.45a.17.17 0 0 1 .18.18c0 .06-.04.11-.1.16l-1.98 1.64 2.19 2.13c.07.05.1.1.1.15a.17.17 0 0 1-.18.18h-.44c-.09 0-.15 0-.19-.02a.82.82 0 0 1-.15-.12l-1.9-1.82v1.76a.2.2 0 0 1-.07.15.18.18 0 0 1-.13.05h-.4Zm4.4 0a.22.22 0 0 1-.14-.05.22.22 0 0 1-.05-.15v-5.67c0-.06.02-.1.05-.14a.2.2 0 0 1 .15-.05h.43c.05 0 .1.02.13.05.04.04.06.08.06.14v2a1.66 1.66 0 0 1 1.41-.66c.55 0 .97.18 1.28.53.3.35.46.81.46 1.4v2.4a.2.2 0 0 1-.06.15.18.18 0 0 1-.14.05h-.43a.22.22 0 0 1-.14-.05.22.22 0 0 1-.05-.15v-2.36c0-.4-.1-.72-.3-.94-.2-.22-.48-.34-.85-.34-.36 0-.64.12-.86.35a1.3 1.3 0 0 0-.32.93v2.36a.2.2 0 0 1-.06.15.18.18 0 0 1-.13.05h-.43Zm6.55.09c-.4 0-.74-.07-1.01-.2a1.8 1.8 0 0 1-.6-.44c-.14-.16-.2-.3-.2-.4 0-.06.02-.1.06-.13.04-.04.09-.06.13-.06h.39c.05 0 .1.03.15.09.14.16.29.28.45.38.16.09.37.13.64.13.3 0 .53-.05.71-.17a.55.55 0 0 0 .29-.49.47.47 0 0 0-.12-.33.84.84 0 0 0-.4-.23 6.41 6.41 0 0 0-.82-.22c-.5-.1-.85-.27-1.06-.47-.2-.2-.3-.47-.3-.8 0-.21.06-.42.18-.61.14-.2.32-.36.57-.48.25-.12.55-.19.9-.19.36 0 .67.06.93.18.25.12.44.26.57.43.13.16.2.3.2.4 0 .05-.02.1-.06.13a.17.17 0 0 1-.13.05h-.36a.21.21 0 0 1-.17-.08c-.1-.11-.17-.2-.24-.25a.77.77 0 0 0-.28-.17 1.31 1.31 0 0 0-.46-.06.98.98 0 0 0-.64.18.54.54 0 0 0-.22.45c0 .12.03.22.1.3.06.09.18.16.35.23.19.07.45.14.79.21.54.12.92.28 1.14.5.23.2.35.48.35.8 0 .25-.07.48-.22.68-.14.2-.35.35-.63.47-.27.1-.6.17-.98.17Zm4.54-.09c-.9 0-1.35-.5-1.35-1.5v-2.26h-.66a.22.22 0 0 1-.15-.05.22.22 0 0 1-.05-.14v-.3c0-.05.02-.1.05-.13a.2.2 0 0 1 .15-.06h.66v-1.43c0-.06.02-.1.05-.14a.2.2 0 0 1 .15-.05h.4c.06 0 .1.02.14.05.04.04.06.08.06.14v1.43h1.06c.05 0 .1.02.13.06.04.03.06.08.06.13v.3a.2.2 0 0 1-.06.14.18.18 0 0 1-.13.05h-1.06v2.2c0 .28.04.5.14.65.1.14.26.21.48.21h.52c.06 0 .1.02.14.06.04.03.06.08.06.14v.3a.2.2 0 0 1-.06.15.18.18 0 0 1-.14.05h-.59Zm2.84.09c-.28 0-.54-.06-.77-.17a1.49 1.49 0 0 1-.58-.47c-.13-.2-.2-.41-.2-.65 0-.38.15-.69.46-.93.31-.24.73-.4 1.26-.47l1.28-.18v-.25c0-.58-.34-.87-1-.87a1.07 1.07 0 0 0-.98.53.23.23 0 0 1-.06.1c-.03.03-.06.04-.1.04h-.37a.2.2 0 0 1-.14-.05.2.2 0 0 1-.05-.14.9.9 0 0 1 .19-.46c.12-.17.31-.33.57-.45.25-.13.57-.2.95-.2.63 0 1.1.15 1.37.46.28.3.42.66.42 1.1v2.77a.2.2 0 0 1-.06.15.18.18 0 0 1-.14.05h-.39a.22.22 0 0 1-.14-.05.22.22 0 0 1-.06-.15v-.36c-.12.18-.3.33-.54.46-.24.12-.55.19-.92.19Zm.18-.64c.37 0 .67-.12.9-.36.25-.25.37-.6.37-1.05v-.24l-1 .14c-.4.06-.7.16-.9.3-.21.12-.32.3-.32.5 0 .22.1.4.29.53.18.12.4.18.66.18Zm3.5.55a.22.22 0 0 1-.15-.05.22.22 0 0 1-.05-.15V64.7c0-.05.02-.1.05-.13a.2.2 0 0 1 .14-.06h.4c.06 0 .1.02.14.06.04.03.06.08.06.13v.38c.17-.21.36-.37.58-.49.23-.11.51-.17.85-.17.55 0 .97.18 1.27.53.31.35.46.81.46 1.4v2.4a.2.2 0 0 1-.06.15.19.19 0 0 1-.13.05h-.43a.22.22 0 0 1-.14-.05.22.22 0 0 1-.06-.15v-2.36c0-.4-.1-.72-.3-.94-.19-.22-.47-.34-.84-.34-.36 0-.64.12-.86.35a1.3 1.3 0 0 0-.31.93v2.36a.2.2 0 0 1-.06.15.18.18 0 0 1-.14.05h-.43Z" fill="#226FC7"/></g></g><g clip-path="url(#i)"><g clip-path="url(#j)"><circle cx="307.56" cy="18.69" r="4.41" fill="#E8EAED"/><path d="M183.74 21.35a.2.2 0 0 1-.15-.06.2.2 0 0 1-.06-.15v-4.72h-1.58a.2.2 0 0 1-.14-.06.2.2 0 0 1-.06-.15v-.63c0-.06.01-.11.05-.15a.2.2 0 0 1 .15-.06h4.36a.2.2 0 0 1 .15.06c.04.04.06.09.06.15v.63a.2.2 0 0 1-.06.15.2.2 0 0 1-.15.06h-1.57v4.72a.2.2 0 0 1-.06.15.2.2 0 0 1-.16.06h-.78Zm4.73.08c-.67 0-1.19-.17-1.55-.5a2 2 0 0 1-.59-1.43v-.75c.03-.59.23-1.06.6-1.4.37-.36.88-.53 1.54-.53.65 0 1.16.17 1.53.52.37.35.57.82.6 1.41a5.12 5.12 0 0 1 0 .75 2 2 0 0 1-.59 1.42c-.36.34-.88.51-1.54.51Zm0-.84c.3 0 .53-.1.7-.28.16-.2.25-.48.27-.85a3.9 3.9 0 0 0 0-.67c-.02-.37-.1-.64-.27-.83a.87.87 0 0 0-.7-.3c-.3 0-.54.1-.7.3-.17.19-.26.46-.28.83v.67c.02.37.11.65.28.85.16.18.4.28.7.28Zm3.3 2.38a.2.2 0 0 1-.14-.06.18.18 0 0 1-.06-.14V17.1c0-.06.02-.11.06-.14a.2.2 0 0 1 .14-.06h.68c.06 0 .1.02.14.06.04.03.06.08.06.14v.34c.32-.42.78-.63 1.37-.63.57 0 1.01.18 1.32.55.31.36.47.84.5 1.46a4.36 4.36 0 0 1 0 .6c-.03.6-.19 1.09-.5 1.46-.3.36-.75.54-1.32.54-.58 0-1.02-.2-1.32-.6v1.94c0 .06-.02.1-.06.14a.18.18 0 0 1-.14.06h-.73Zm1.93-2.45c.62 0 .94-.38.98-1.14a2.67 2.67 0 0 0 0-.5c-.04-.77-.36-1.14-.98-1.14-.33 0-.57.1-.73.31-.16.21-.25.47-.27.78v.66c.01.28.1.53.27.73.17.2.41.3.73.3Zm7.47.91c-.79 0-1.4-.2-1.83-.6-.43-.4-.66-.98-.69-1.71a21.82 21.82 0 0 1 0-1.52c.03-.73.26-1.3.7-1.7a2.56 2.56 0 0 1 1.82-.62c.5 0 .95.1 1.32.27.38.17.67.4.87.7.2.3.32.64.33 1.02v.01c0 .05-.02.09-.06.12a.18.18 0 0 1-.12.04h-.81c-.07 0-.12-.01-.16-.04-.03-.03-.06-.08-.08-.16-.1-.36-.25-.61-.46-.75-.2-.15-.49-.22-.84-.22-.82 0-1.25.45-1.28 1.37a20.08 20.08 0 0 0 0 1.44c.03.91.46 1.37 1.28 1.37.35 0 .63-.07.84-.22.22-.15.37-.4.46-.75.01-.08.04-.14.07-.16.04-.03.1-.05.17-.05h.8c.06 0 .1.02.14.05.04.04.05.08.05.13-.01.38-.12.72-.33 1.02-.2.3-.5.53-.87.7-.38.18-.82.26-1.32.26Zm5.4 0c-.67 0-1.19-.17-1.55-.5a2 2 0 0 1-.6-1.43v-.75c.04-.59.24-1.06.6-1.4.38-.36.89-.53 1.54-.53.66 0 1.17.17 1.54.52.37.35.57.82.6 1.41a6.02 6.02 0 0 1 0 .75 2 2 0 0 1-.6 1.42c-.35.34-.87.51-1.54.51Zm0-.84c.3 0 .53-.1.7-.28.16-.2.25-.48.27-.85a4.06 4.06 0 0 0 0-.67c-.02-.37-.11-.64-.28-.83a.87.87 0 0 0-.7-.3c-.3 0-.53.1-.7.3-.16.19-.25.46-.27.83l-.01.34v.33c.03.37.12.65.28.85.17.18.4.28.7.28Zm4.73.84c-.52 0-.93-.17-1.24-.5-.3-.36-.45-.83-.45-1.42v-2.4c0-.06.02-.1.06-.14a.2.2 0 0 1 .15-.06h.75c.06 0 .1.02.14.06.04.03.06.08.06.14v2.35c0 .7.31 1.06.93 1.06.3 0 .53-.1.7-.28.18-.19.27-.45.27-.78v-2.35c0-.06.02-.1.06-.14a.2.2 0 0 1 .15-.06h.75c.06 0 .1.02.14.06.04.03.06.08.06.14v4.03a.2.2 0 0 1-.06.15.18.18 0 0 1-.14.06h-.7a.2.2 0 0 1-.14-.06.2.2 0 0 1-.06-.15v-.35c-.32.43-.8.64-1.43.64Zm3.86-.08a.2.2 0 0 1-.14-.06.2.2 0 0 1-.06-.15v-4.03c0-.06.02-.1.06-.14a.2.2 0 0 1 .14-.06h.7c.06 0 .11.02.15.06a.2.2 0 0 1 .06.14v.35a1.7 1.7 0 0 1 1.43-.64c.52 0 .94.17 1.25.52.3.34.46.81.46 1.4v2.4a.2.2 0 0 1-.06.15.18.18 0 0 1-.15.06h-.75a.2.2 0 0 1-.15-.06.2.2 0 0 1-.06-.15V18.8c0-.33-.08-.6-.24-.77-.16-.2-.4-.28-.7-.28-.3 0-.54.09-.72.28-.17.19-.26.44-.26.77v2.35a.2.2 0 0 1-.06.15.18.18 0 0 1-.14.06h-.75Zm7.09 0c-.52 0-.9-.13-1.17-.4-.26-.28-.39-.67-.39-1.2v-1.94h-.67a.2.2 0 0 1-.15-.06.23.23 0 0 1-.06-.15v-.49c0-.06.02-.1.06-.14a.2.2 0 0 1 .15-.06h.67v-1.42c0-.06.02-.11.06-.15a.2.2 0 0 1 .15-.06h.7c.05 0 .1.02.14.06.04.04.06.09.06.15v1.42h1.06c.07 0 .11.02.15.06.04.03.06.08.06.14v.49c0 .06-.02.11-.06.15a.2.2 0 0 1-.15.06h-1.06v1.86c0 .24.04.43.13.55.08.13.22.19.42.19h.6c.05 0 .1.02.14.06a.2.2 0 0 1 .06.14v.53a.2.2 0 0 1-.06.15.18.18 0 0 1-.15.06h-.7Zm1.86 0a.2.2 0 0 1-.15-.06.2.2 0 0 1-.06-.15v-4.02c0-.06.02-.1.06-.15a.19.19 0 0 1 .15-.06h.7a.2.2 0 0 1 .15.06c.03.04.05.09.05.15v.35c.14-.18.31-.32.52-.42.2-.1.45-.14.72-.14h.34c.07 0 .12.02.15.06.04.03.06.08.06.14v.62a.2.2 0 0 1-.06.14.18.18 0 0 1-.15.06h-.66a.85.85 0 0 0-.63.23.85.85 0 0 0-.23.63v2.35a.2.2 0 0 1-.06.15.2.2 0 0 1-.16.06h-.74Zm4.16 1.62a.16.16 0 0 1-.12-.05.16.16 0 0 1-.05-.12c0-.05.01-.1.03-.14l.67-1.58-1.64-3.87a.32.32 0 0 1-.03-.12c0-.05.02-.09.06-.12a.16.16 0 0 1 .12-.06h.7c.1 0 .18.05.23.16l1.13 2.8 1.17-2.8c.05-.1.13-.16.23-.16h.69c.04 0 .08.01.12.05.04.03.06.07.06.12 0 .04-.01.08-.04.13l-2.42 5.6c-.05.1-.13.16-.24.16h-.67Z" fill="#5E6C84"/></g><g clip-path="url(#k)"><path opacity=".1" fill-rule="evenodd" clip-rule="evenodd" d="m258.44 50.83 14.3-1.05 14.87-3.89 13.75-9.58 11 8.13v7.2h-53.92v-.8Z" fill="url(#l)"/><path d="m258.44 50.83 14.3-1.05 14.87-3.89 13.75-9.58 11 8.13" stroke="#226FC7" stroke-width=".75"/><path d="M184.5 51.17a.41.41 0 0 1-.31-.12.48.48 0 0 1-.13-.32l.04-.18 4.9-11.16h-6.38a.47.47 0 0 1-.34-.15.47.47 0 0 1-.14-.34v-1.42c0-.15.04-.27.12-.37a.5.5 0 0 1 .36-.14h8.91c.15 0 .27.05.35.14.1.1.14.22.14.37v1.26c0 .27-.06.56-.18.87l-4.85 11.08c-.15.32-.37.48-.65.48h-1.85Zm13.94.2a6.5 6.5 0 0 1-2.98-.64 4.8 4.8 0 0 1-1.97-1.77 4.84 4.84 0 0 1-.69-2.55c0-1.2.52-2.52 1.57-3.94l3.7-5.1c.09-.12.18-.21.27-.28a.7.7 0 0 1 .43-.12h1.89c.12 0 .22.05.3.14.08.08.12.19.12.3 0 .07-.03.16-.1.27l-2.84 3.94c.27-.07.56-.1.87-.1a5.26 5.26 0 0 1 4.33 2.41 4.83 4.83 0 0 1-1.95 6.78c-.84.44-1.82.67-2.95.67Zm-.02-2.33c.78 0 1.43-.23 1.95-.69.53-.47.8-1.13.8-1.96 0-.83-.27-1.47-.8-1.93a2.81 2.81 0 0 0-1.95-.71c-.77 0-1.42.23-1.94.7-.53.47-.8 1.11-.8 1.94 0 .83.27 1.49.8 1.96.52.46 1.17.7 1.94.7Zm7.98 2.13a.47.47 0 0 1-.35-.14.47.47 0 0 1-.14-.34v-2.01c0-.14.05-.25.14-.35.1-.1.21-.16.35-.16h2.03c.13 0 .25.06.34.16.1.1.14.21.14.35v2c0 .14-.04.26-.14.35-.1.1-.2.14-.34.14h-2.03Zm10.24.2a7.7 7.7 0 0 1-3.04-.54 4.47 4.47 0 0 1-1.93-1.56 3.98 3.98 0 0 1-.67-2.28 3.7 3.7 0 0 1 2.09-3.37c-.5-.3-.9-.7-1.18-1.2-.27-.5-.4-1.06-.4-1.7 0-1.19.44-2.14 1.34-2.86.9-.73 2.17-1.1 3.79-1.1 1.6 0 2.86.37 3.75 1.08.9.72 1.34 1.67 1.34 2.86 0 .64-.13 1.2-.4 1.7-.26.5-.64.9-1.14 1.23.65.3 1.16.76 1.52 1.36.38.58.57 1.25.57 2.02a3.97 3.97 0 0 1-2.62 3.82c-.85.36-1.86.55-3.02.55Zm0-8.62c.7-.01 1.28-.2 1.74-.54.48-.36.71-.82.71-1.38 0-.6-.23-1.07-.69-1.42a2.82 2.82 0 0 0-1.76-.53c-.72 0-1.3.17-1.77.53a1.7 1.7 0 0 0-.69 1.42c0 .58.23 1.04.7 1.4.45.35 1.04.52 1.76.52Zm0 6.52c.8 0 1.47-.2 2-.61.55-.42.82-.97.82-1.65 0-.67-.27-1.21-.81-1.62a3.18 3.18 0 0 0-2.01-.63c-.81 0-1.49.2-2.03.61-.53.4-.8.95-.8 1.64 0 .7.27 1.24.8 1.65.54.4 1.22.6 2.03.6Zm10.56-5.16c-.9 0-1.61-.23-2.16-.7a2.72 2.72 0 0 1-.87-1.93 16.85 16.85 0 0 1 0-1.9c.06-.83.34-1.5.85-1.98a3.03 3.03 0 0 1 2.17-.73c.94 0 1.66.24 2.18.73.52.49.8 1.15.85 1.99l.04 1.05c0 .15-.01.43-.04.84a2.62 2.62 0 0 1-.87 1.92 3.1 3.1 0 0 1-2.16.71Zm-1.67 7.06a.46.46 0 0 1-.3-.1.41.41 0 0 1-.12-.3c0-.08.02-.16.08-.22l10-13.2c.1-.13.21-.22.3-.28.1-.07.23-.1.39-.1h1.08c.13 0 .23.04.3.12.08.07.12.16.12.29 0 .08-.03.15-.08.22l-10 13.19c-.11.13-.21.24-.3.3a.78.78 0 0 1-.4.08h-1.07Zm1.66-8.56c.4 0 .69-.11.88-.34.19-.25.3-.54.32-.9l.04-.85c0-.15-.01-.42-.04-.83a1.36 1.36 0 0 0-.32-.87c-.2-.25-.48-.37-.88-.37-.39 0-.68.12-.87.37-.19.23-.29.52-.3.87a12.78 12.78 0 0 0 0 1.68c.03.36.13.65.3.9.2.23.48.34.88.34Zm8.1 8.69a3.1 3.1 0 0 1-2.15-.73 2.89 2.89 0 0 1-.87-2 16.85 16.85 0 0 1 0-1.86c.05-.84.34-1.5.85-1.99a3.03 3.03 0 0 1 2.17-.73c.94 0 1.66.24 2.17.73.53.49.81 1.15.85 1.99l.04 1.04c0 .14 0 .42-.03.83a2.85 2.85 0 0 1-.9 1.99c-.52.48-1.24.73-2.13.73Zm0-1.59c.4 0 .7-.11.87-.34.2-.25.3-.54.33-.87l.04-.86c0-.15-.01-.42-.04-.83a1.44 1.44 0 0 0-.33-.9c-.19-.23-.48-.36-.87-.36-.4 0-.68.13-.87.37-.19.23-.3.53-.33.9a13.68 13.68 0 0 0 0 1.68c.04.35.15.64.33.87.19.23.48.34.87.34Z" fill="#344563"/><g clip-path="url(#m)"><path d="M200.57 91.38c-.74 0-1.3-.2-1.71-.58-.4-.4-.6-1-.6-1.8v-3.48c0-.06.02-.1.05-.14a.2.2 0 0 1 .15-.06h.43c.07 0 .11.02.15.06.04.03.06.08.06.14v3.49c0 .55.13.96.38 1.23.26.27.62.41 1.09.41.46 0 .83-.14 1.08-.41.26-.27.39-.68.39-1.23v-3.49c0-.06.01-.1.05-.14a.2.2 0 0 1 .14-.06h.45c.05 0 .1.02.13.06a.2.2 0 0 1 .06.14V89c0 .8-.2 1.4-.6 1.8-.4.4-.97.6-1.7.6Zm3.82-.08a.22.22 0 0 1-.15-.05.22.22 0 0 1-.05-.15v-4.05c0-.05.02-.1.05-.13a.2.2 0 0 1 .15-.06h.4c.06 0 .1.02.14.06.04.03.06.08.06.13v.38c.16-.21.35-.37.58-.49.22-.11.5-.17.84-.17.55 0 .97.18 1.28.53.3.35.46.81.46 1.4v2.4a.2.2 0 0 1-.06.15.19.19 0 0 1-.14.05h-.43a.22.22 0 0 1-.14-.05.22.22 0 0 1-.05-.15v-2.36c0-.4-.1-.72-.3-.94-.2-.23-.48-.34-.85-.34-.36 0-.64.12-.85.35a1.3 1.3 0 0 0-.32.93v2.36a.2.2 0 0 1-.06.15.18.18 0 0 1-.13.05h-.43Zm5.11-5.27a.22.22 0 0 1-.15-.05.22.22 0 0 1-.05-.15v-.46c0-.06.02-.1.05-.15a.2.2 0 0 1 .15-.05h.54c.06 0 .1.02.14.05a.2.2 0 0 1 .06.15v.46a.2.2 0 0 1-.06.15.22.22 0 0 1-.14.05h-.54Zm.07 5.27a.22.22 0 0 1-.15-.05.22.22 0 0 1-.05-.15v-4.05c0-.05.02-.1.05-.13a.2.2 0 0 1 .15-.06h.4c.07 0 .11.02.15.06.03.03.06.08.06.13v4.05a.2.2 0 0 1-.06.15.19.19 0 0 1-.14.05h-.41Zm3.6 0c-.9 0-1.34-.5-1.34-1.5v-2.26h-.67a.22.22 0 0 1-.15-.05.22.22 0 0 1-.05-.15v-.29c0-.05.02-.1.05-.13a.2.2 0 0 1 .15-.06h.67v-1.43c0-.06.01-.1.05-.14a.2.2 0 0 1 .14-.06h.4c.06 0 .1.02.14.06.04.04.06.08.06.14v1.43h1.06c.06 0 .1.02.14.06.04.03.06.08.06.13v.3a.2.2 0 0 1-.06.14.18.18 0 0 1-.14.05h-1.06v2.2c0 .28.05.5.15.65.1.14.25.2.47.2h.52c.06 0 .1.03.14.07.04.03.06.08.06.14v.3a.2.2 0 0 1-.06.15.19.19 0 0 1-.14.05h-.58Zm3.39.08c-.6 0-1.06-.17-1.41-.53a2.25 2.25 0 0 1-.58-1.49V88.79c.04-.62.24-1.1.59-1.47.35-.37.81-.55 1.39-.55.63 0 1.12.2 1.47.6.34.4.52.95.52 1.63v.15a.2.2 0 0 1-.06.14.19.19 0 0 1-.14.05h-2.96v.08c.02.37.13.69.34.95.2.25.49.38.83.38a1.2 1.2 0 0 0 1.01-.48l.12-.12a.3.3 0 0 1 .14-.03h.42c.05 0 .1.01.13.04s.05.07.05.12c0 .13-.08.28-.24.46-.16.17-.37.33-.66.46-.28.12-.6.18-.96.18Zm1.17-2.63v-.02c0-.4-.11-.71-.33-.96-.2-.25-.5-.38-.85-.38-.36 0-.65.13-.86.38-.2.25-.3.56-.3.96v.02h2.34Zm3.45 2.63c-.59 0-1.04-.19-1.34-.58-.3-.38-.46-.87-.48-1.47v-.51c.02-.58.18-1.07.48-1.46.3-.4.75-.59 1.34-.59.59 0 1.05.2 1.39.62v-1.96c0-.06.01-.1.05-.14a.2.2 0 0 1 .14-.06h.41c.06 0 .1.02.14.06.04.04.06.08.06.14v5.67a.2.2 0 0 1-.06.15.19.19 0 0 1-.14.05h-.38a.21.21 0 0 1-.15-.05.21.21 0 0 1-.05-.15v-.36c-.33.43-.8.64-1.4.64Zm.18-.69c.4 0 .69-.13.88-.38.2-.26.31-.57.33-.93a4.64 4.64 0 0 0 0-.66 1.43 1.43 0 0 0-.33-.88c-.2-.25-.5-.38-.88-.38-.4 0-.7.13-.89.38-.18.25-.28.58-.3.99v.25c0 1.07.4 1.61 1.2 1.61Zm7.4.7c-.47 0-.88-.08-1.22-.23-.34-.15-.6-.34-.79-.58a1.4 1.4 0 0 1-.29-.78c0-.05.02-.09.05-.12a.19.19 0 0 1 .14-.06h.44c.1 0 .18.05.22.17.05.24.2.44.43.61.25.17.59.26 1.03.26.47 0 .83-.08 1.07-.25.23-.17.35-.4.35-.7 0-.2-.06-.36-.18-.48a1.44 1.44 0 0 0-.5-.31c-.23-.1-.58-.2-1.03-.35-.45-.12-.8-.26-1.06-.4a1.53 1.53 0 0 1-.6-.53c-.12-.2-.19-.47-.19-.8 0-.3.09-.58.25-.82.17-.25.41-.44.73-.57.3-.15.68-.22 1.11-.22.45 0 .83.08 1.15.24.32.16.56.35.73.6.16.23.25.47.26.71 0 .05-.02.09-.05.12-.03.03-.07.05-.13.05h-.45c-.12 0-.2-.05-.22-.16a.83.83 0 0 0-.4-.6 1.53 1.53 0 0 0-.89-.23c-.38 0-.69.07-.9.22a.74.74 0 0 0-.34.66c0 .2.05.35.15.48.11.12.27.23.49.33.22.1.53.2.95.32.48.13.86.27 1.14.4.28.14.49.32.63.53.13.2.2.47.2.78 0 .53-.2.95-.61 1.25-.42.3-.97.45-1.66.45Zm5.02-.1c-.9 0-1.35-.5-1.35-1.5v-2.25h-.66a.22.22 0 0 1-.15-.05.22.22 0 0 1-.05-.15v-.29c0-.05.02-.1.05-.13a.2.2 0 0 1 .15-.06h.66v-1.43c0-.06.02-.1.06-.14a.2.2 0 0 1 .14-.06h.4c.06 0 .1.02.14.06.04.04.06.08.06.14v1.43h1.06c.06 0 .1.02.13.06.04.03.06.08.06.13v.3a.2.2 0 0 1-.06.14.18.18 0 0 1-.13.05h-1.06v2.2c0 .28.05.5.14.65.1.14.26.2.48.2h.52c.06 0 .1.03.14.07.04.03.06.08.06.14v.3a.2.2 0 0 1-.06.15.19.19 0 0 1-.14.05h-.59Zm2.84.1c-.27 0-.53-.06-.77-.18a1.49 1.49 0 0 1-.57-.46c-.14-.2-.21-.42-.21-.66 0-.37.15-.68.46-.92.31-.24.74-.4 1.27-.48l1.27-.18v-.24c0-.58-.33-.88-1-.88a1.07 1.07 0 0 0-.97.53.23.23 0 0 1-.07.12c-.03.02-.06.03-.1.03h-.37a.2.2 0 0 1-.14-.05.2.2 0 0 1-.05-.14c0-.13.07-.29.19-.46.12-.18.31-.33.57-.45.26-.13.57-.2.95-.2.64 0 1.1.15 1.37.45.28.3.42.67.42 1.11v2.77a.2.2 0 0 1-.06.15.19.19 0 0 1-.13.05h-.4a.21.21 0 0 1-.14-.05.21.21 0 0 1-.05-.15v-.36c-.13.18-.31.33-.55.46-.24.12-.54.18-.91.18Zm.19-.65c.37 0 .67-.12.9-.35.24-.25.36-.6.36-1.06v-.23l-1 .14c-.4.06-.7.15-.9.3-.21.12-.31.29-.31.5 0 .22.09.4.28.52.19.12.4.18.67.18Zm4.98.56c-.9 0-1.35-.5-1.35-1.5v-2.26h-.66a.22.22 0 0 1-.15-.05.21.21 0 0 1-.05-.15v-.29c0-.05.02-.1.05-.13a.2.2 0 0 1 .15-.06h.66v-1.43c0-.06.02-.1.06-.14a.2.2 0 0 1 .14-.06h.4c.06 0 .1.02.14.06.04.04.06.08.06.14v1.43h1.06c.05 0 .1.02.13.06.04.03.06.08.06.13v.3a.2.2 0 0 1-.06.14.19.19 0 0 1-.13.05h-1.06v2.2c0 .28.05.5.14.65.1.14.26.2.48.2h.52c.06 0 .1.03.14.07.04.03.06.08.06.14v.3a.2.2 0 0 1-.06.15.18.18 0 0 1-.14.05h-.59Zm3.38.08a1.9 1.9 0 0 1-1.4-.53 2.25 2.25 0 0 1-.58-1.49V88.79c.04-.62.24-1.1.58-1.47.35-.37.82-.55 1.4-.55.63 0 1.12.2 1.46.6.35.4.53.95.53 1.63v.15a.2.2 0 0 1-.06.14.18.18 0 0 1-.14.05H244v.08c.02.37.13.69.34.95.2.25.48.38.82.38a1.2 1.2 0 0 0 1.02-.48c.05-.07.09-.11.11-.12a.3.3 0 0 1 .15-.03h.42c.05 0 .09.01.12.04.04.03.06.07.06.12 0 .13-.08.28-.24.46-.16.17-.38.33-.66.46-.28.12-.6.18-.97.18Zm1.17-2.63v-.02c0-.4-.1-.71-.32-.96-.21-.25-.5-.38-.86-.38-.35 0-.64.13-.85.38-.2.25-.3.56-.3.96v.02h2.33Zm3.38 2.63c-.4 0-.74-.06-1.01-.18a1.8 1.8 0 0 1-.61-.45c-.13-.16-.2-.3-.2-.4 0-.06.02-.1.06-.14.05-.03.1-.05.14-.05h.38c.06 0 .11.03.16.09.14.16.28.28.44.37.16.1.38.14.64.14.3 0 .54-.06.72-.17a.55.55 0 0 0 .28-.49.47.47 0 0 0-.12-.33.84.84 0 0 0-.39-.23 6.37 6.37 0 0 0-.82-.22c-.5-.11-.85-.27-1.06-.47-.2-.2-.3-.47-.3-.8 0-.21.06-.42.18-.61.13-.2.32-.36.56-.48.25-.13.55-.19.9-.19.37 0 .68.06.93.18.26.12.45.26.58.43.13.16.2.3.2.4 0 .05-.03.1-.07.13a.17.17 0 0 1-.13.05h-.36a.21.21 0 0 1-.17-.09c-.09-.1-.17-.19-.24-.24a.76.76 0 0 0-.28-.17 1.3 1.3 0 0 0-.46-.07.98.98 0 0 0-.63.18.54.54 0 0 0-.22.46c0 .12.03.22.1.3.05.08.17.16.35.23.18.07.44.14.79.21.54.11.92.28 1.14.5.23.2.34.48.34.8 0 .25-.07.47-.21.67-.14.2-.35.36-.63.47-.28.12-.6.17-.98.17Z" fill="#5E6C84"/><rect x="181.55" y="82.77" width="10.68" height="10.68" rx="2.67" fill="#61A4E4"/><path d="M292.35 91.3a.22.22 0 0 1-.14-.05.22.22 0 0 1-.05-.15v-4.78l-1.42 1.1a.2.2 0 0 1-.13.04c-.05 0-.1-.03-.15-.08l-.22-.28a.2.2 0 0 1-.04-.12c0-.07.03-.13.09-.17l1.86-1.43a.4.4 0 0 1 .22-.06h.44c.05 0 .1.02.13.06.04.03.06.08.06.14v5.58a.2.2 0 0 1-.06.15.19.19 0 0 1-.13.05h-.46Zm3.8.08c-.44 0-.81-.07-1.13-.23a1.83 1.83 0 0 1-.72-.6 1.56 1.56 0 0 1-.27-.8v-.02c0-.05.02-.09.06-.11a.18.18 0 0 1 .12-.05h.46c.12 0 .2.07.23.2.08.3.23.52.46.67.23.14.49.22.78.22.39 0 .7-.12.95-.34.26-.24.39-.56.39-.97 0-.37-.13-.67-.39-.9a1.36 1.36 0 0 0-.95-.34c-.2 0-.37.03-.5.09-.12.05-.24.12-.37.22-.06.05-.13.1-.18.12a.34.34 0 0 1-.15.03h-.44a.2.2 0 0 1-.14-.05.16.16 0 0 1-.05-.13l.27-2.86c0-.07.03-.12.06-.15a.2.2 0 0 1 .16-.06h2.98c.05 0 .1.02.13.06.04.03.06.08.06.14v.33a.2.2 0 0 1-.06.14.19.19 0 0 1-.13.06h-2.46l-.17 1.68a2.31 2.31 0 0 1 2.14-.06c.33.15.58.37.76.66.19.3.28.64.28 1.03 0 .42-.1.79-.28 1.1-.18.3-.44.53-.77.69-.33.16-.7.23-1.14.23Zm3.27-.08a.22.22 0 0 1-.15-.05.22.22 0 0 1-.05-.15v-.61c0-.06.02-.1.05-.14a.2.2 0 0 1 .15-.06h.61c.06 0 .1.02.15.06.04.04.06.08.06.14v.61a.2.2 0 0 1-.06.15.22.22 0 0 1-.15.05h-.61Zm3.88.08c-.44 0-.81-.07-1.13-.23a1.83 1.83 0 0 1-.72-.6 1.56 1.56 0 0 1-.27-.8v-.02c0-.05.02-.09.06-.11a.18.18 0 0 1 .12-.05h.46c.12 0 .2.07.23.2.08.3.23.52.46.67.23.14.49.22.79.22.38 0 .7-.12.94-.34.26-.24.39-.56.39-.97 0-.37-.13-.67-.39-.9a1.36 1.36 0 0 0-.94-.34c-.21 0-.38.03-.5.09-.13.05-.25.12-.38.22-.06.05-.13.1-.18.12a.34.34 0 0 1-.15.03h-.44a.2.2 0 0 1-.14-.05.16.16 0 0 1-.05-.13l.27-2.86c0-.07.03-.12.06-.15a.2.2 0 0 1 .15-.06h2.99c.05 0 .1.02.13.06.04.03.06.08.06.14v.33a.2.2 0 0 1-.06.14.19.19 0 0 1-.13.06h-2.46l-.17 1.68a2.31 2.31 0 0 1 2.14-.06c.33.15.58.37.76.66.19.3.28.64.28 1.03 0 .42-.1.79-.28 1.1-.18.3-.44.53-.77.69-.33.16-.7.23-1.13.23Zm4.22-3.06c-.37 0-.66-.1-.88-.3-.2-.2-.33-.47-.35-.81a7.5 7.5 0 0 1 0-.78c.02-.35.13-.63.33-.84.21-.2.51-.31.9-.31s.69.1.89.31c.21.2.32.49.34.84a12.8 12.8 0 0 1 0 .78c-.01.34-.13.62-.35.82-.21.2-.5.29-.88.29Zm-.72 2.98a.2.2 0 0 1-.12-.04.18.18 0 0 1-.06-.13c0-.04.02-.07.04-.1l4.22-5.55.12-.13c.04-.02.1-.03.16-.03h.28c.06 0 .1.02.13.05.04.03.05.07.05.12 0 .03 0 .07-.03.1l-4.21 5.55a.44.44 0 0 1-.13.13.3.3 0 0 1-.16.03h-.29Zm.72-3.51c.2 0 .36-.06.45-.18a.8.8 0 0 0 .17-.44 12.94 12.94 0 0 0 0-.7.74.74 0 0 0-.17-.45c-.1-.12-.25-.18-.45-.18s-.35.06-.44.18a.76.76 0 0 0-.16.44 5.53 5.53 0 0 0 0 .71c.01.18.07.33.16.45.1.11.24.17.44.17Zm3.2 3.56c-.37 0-.67-.1-.88-.3a1.25 1.25 0 0 1-.35-.84 6.32 6.32 0 0 1 0-.78c.02-.35.13-.63.34-.84.2-.21.5-.32.89-.32.38 0 .68.11.88.32.22.2.33.49.36.84a10.07 10.07 0 0 1 0 .78c-.03.34-.15.62-.36.83-.22.2-.51.31-.88.31Zm0-.56c.2 0 .35-.06.44-.18a.8.8 0 0 0 .17-.44 12.94 12.94 0 0 0 0-.7.77.77 0 0 0-.16-.45c-.1-.12-.25-.18-.45-.18s-.35.06-.45.18a.77.77 0 0 0-.16.44 6.55 6.55 0 0 0 0 .71c.02.17.07.32.16.44.1.12.25.18.45.18Z" fill="#5E6C84"/></g><g clip-path="url(#n)"><path d="M200.47 112.74c-.77 0-1.35-.2-1.75-.61a2.5 2.5 0 0 1-.63-1.7 21.74 21.74 0 0 1 0-1.52c.03-.72.24-1.28.64-1.7.4-.41.98-.62 1.74-.62.5 0 .93.1 1.28.28a1.92 1.92 0 0 1 1.1 1.63v.02c0 .04-.01.08-.05.11a.18.18 0 0 1-.12.05h-.47c-.12 0-.19-.07-.22-.2-.1-.43-.27-.73-.52-.9a1.72 1.72 0 0 0-1-.26c-.98 0-1.5.54-1.53 1.63a20.08 20.08 0 0 0 0 1.44c.04 1.08.55 1.63 1.53 1.63.42 0 .75-.09 1-.26.26-.18.43-.48.52-.9.02-.08.05-.13.08-.16a.2.2 0 0 1 .14-.04h.47c.05 0 .1.02.13.05.03.03.05.07.05.12a1.93 1.93 0 0 1-1.1 1.65c-.36.17-.79.26-1.3.26Zm3.63-.08a.21.21 0 0 1-.15-.05.21.21 0 0 1-.05-.15v-5.67c0-.06.02-.1.05-.14a.2.2 0 0 1 .15-.06h.42c.06 0 .1.02.14.06.04.04.06.08.06.14v1.99a1.67 1.67 0 0 1 1.4-.65c.56 0 .98.18 1.28.53.31.35.46.81.46 1.4v2.4a.19.19 0 0 1-.2.2h-.42a.21.21 0 0 1-.15-.05.21.21 0 0 1-.05-.15v-2.36c0-.4-.1-.72-.3-.94-.19-.23-.47-.34-.84-.34-.36 0-.65.12-.86.34a1.3 1.3 0 0 0-.32.94v2.36a.19.19 0 0 1-.2.2h-.42Zm5.13-5.27a.22.22 0 0 1-.15-.05.22.22 0 0 1-.05-.15v-.46c0-.06.02-.1.05-.15a.2.2 0 0 1 .14-.06h.54c.06 0 .1.02.15.06a.2.2 0 0 1 .06.15v.46a.2.2 0 0 1-.06.15.22.22 0 0 1-.15.05h-.53Zm.06 5.27a.22.22 0 0 1-.14-.05.22.22 0 0 1-.05-.15v-4.05a.19.19 0 0 1 .2-.2h.4c.06 0 .1.03.14.07.04.03.06.08.06.13v4.05a.2.2 0 0 1-.06.15.19.19 0 0 1-.14.05h-.4Zm2.07 0a.22.22 0 0 1-.14-.05.22.22 0 0 1-.05-.15v-4.05c0-.05.01-.1.05-.13a.2.2 0 0 1 .14-.06h.4c.06 0 .1.02.14.06.04.03.06.08.06.13v.38c.17-.21.36-.38.58-.49.23-.11.51-.17.85-.17.54 0 .97.18 1.27.53.3.35.46.81.46 1.4v2.4a.2.2 0 0 1-.06.15.19.19 0 0 1-.13.05h-.43a.22.22 0 0 1-.15-.05.22.22 0 0 1-.05-.15v-2.36c0-.4-.1-.72-.3-.94-.2-.23-.47-.34-.84-.34-.36 0-.65.12-.86.34a1.3 1.3 0 0 0-.31.94v2.36a.2.2 0 0 1-.06.15.18.18 0 0 1-.14.05h-.43Zm6.23.08c-.28 0-.54-.05-.78-.17a1.49 1.49 0 0 1-.57-.46c-.14-.2-.2-.42-.2-.66 0-.37.15-.68.45-.92.32-.24.74-.4 1.27-.48l1.27-.18v-.25c0-.58-.33-.87-1-.87a1.08 1.08 0 0 0-.97.53.24.24 0 0 1-.07.11c-.03.03-.06.04-.1.04h-.37a.2.2 0 0 1-.14-.05.2.2 0 0 1-.05-.14c0-.14.07-.29.19-.46.12-.18.31-.33.57-.45.26-.13.57-.2.95-.2.64 0 1.1.15 1.37.45.28.3.42.67.42 1.11v2.77a.2.2 0 0 1-.06.15.19.19 0 0 1-.13.05h-.4a.22.22 0 0 1-.14-.05.22.22 0 0 1-.05-.15v-.37c-.13.19-.31.34-.55.47-.24.12-.54.18-.91.18Zm.17-.64c.38 0 .68-.12.91-.36.24-.24.36-.6.36-1.05v-.24l-1 .15c-.4.06-.7.15-.9.29-.21.13-.31.3-.31.5 0 .23.1.4.28.53.19.12.4.18.66.18Z" fill="#5E6C84"/><rect x="181.55" y="104.13" width="10.68" height="10.68" rx="2.67" fill="#01669F"/><path d="M292.35 112.66a.22.22 0 0 1-.14-.05.22.22 0 0 1-.05-.15v-4.78l-1.42 1.1a.2.2 0 0 1-.13.04c-.05 0-.1-.03-.15-.08l-.22-.28a.21.21 0 0 1-.04-.13c0-.06.03-.12.09-.16l1.86-1.43a.4.4 0 0 1 .22-.06h.44c.05 0 .1.02.13.06.04.03.06.08.06.13v5.6a.2.2 0 0 1-.06.14.19.19 0 0 1-.13.05h-.46Zm1.91 0a.21.21 0 0 1-.14-.05.21.21 0 0 1-.05-.15v-.27c0-.13.07-.26.21-.38l1.81-1.8c.44-.37.74-.67.9-.9.17-.23.26-.48.26-.73 0-.33-.1-.6-.29-.78-.18-.19-.44-.28-.8-.28-.33 0-.6.1-.8.3-.2.2-.31.45-.36.77a.23.23 0 0 1-.09.16.23.23 0 0 1-.13.04h-.45a.2.2 0 0 1-.13-.04.16.16 0 0 1-.05-.12 1.95 1.95 0 0 1 .93-1.57c.3-.19.66-.28 1.08-.28.64 0 1.13.17 1.45.5.33.34.5.76.5 1.27 0 .36-.1.69-.27.98-.18.28-.46.59-.83.92l-1.64 1.67h2.66c.07 0 .11.02.15.05.04.04.06.08.06.14v.35a.2.2 0 0 1-.06.15.22.22 0 0 1-.15.05h-3.76Zm5.17 0a.22.22 0 0 1-.14-.05.22.22 0 0 1-.05-.15v-.61c0-.06.01-.1.05-.14a.2.2 0 0 1 .14-.06h.62c.06 0 .1.02.14.06.04.03.06.08.06.14v.61a.2.2 0 0 1-.06.15.22.22 0 0 1-.14.05h-.62Zm3.93.08c-.46 0-.86-.09-1.2-.27-.33-.19-.58-.44-.76-.75a2.08 2.08 0 0 1-.09-1.88c.13-.28.27-.52.42-.73l1.63-2.26.05-.06a.22.22 0 0 1 .1-.08.27.27 0 0 1 .13-.03h.45c.05 0 .1.02.12.06.04.03.05.07.05.13a.2.2 0 0 1-.03.1l-1.25 1.75a2.19 2.19 0 0 1 1.57.22 1.98 1.98 0 0 1 1 1.74c0 .37-.09.71-.26 1.03a1.9 1.9 0 0 1-.76.75c-.33.19-.72.28-1.17.28Zm-.01-.72c.24 0 .47-.05.67-.16.21-.1.38-.25.5-.45s.19-.45.19-.72c0-.28-.07-.52-.2-.71-.11-.2-.28-.36-.49-.46-.2-.1-.43-.15-.67-.15-.24 0-.47.05-.68.15-.2.1-.37.26-.5.46-.12.2-.18.43-.18.7 0 .28.06.53.19.73.12.2.29.35.5.45.2.1.42.16.67.16Zm4.17-2.34c-.37 0-.66-.1-.88-.3-.2-.2-.33-.47-.35-.81a7.5 7.5 0 0 1 0-.78c.02-.36.13-.63.33-.84.21-.21.51-.31.9-.31s.69.1.89.31c.21.2.32.48.34.84a12.79 12.79 0 0 1 0 .78c-.01.34-.13.62-.35.82-.21.19-.5.29-.88.29Zm-.72 2.98a.2.2 0 0 1-.12-.05.17.17 0 0 1-.06-.12c0-.04.02-.07.04-.1l4.22-5.55.12-.13c.04-.02.1-.03.16-.03h.28c.06 0 .1.01.13.05.04.03.05.07.05.12 0 .03 0 .06-.03.1l-4.21 5.55a.44.44 0 0 1-.13.12c-.04.03-.09.04-.16.04h-.29Zm.72-3.51c.2 0 .36-.06.45-.18a.8.8 0 0 0 .17-.44 12.95 12.95 0 0 0 0-.7.74.74 0 0 0-.17-.45c-.1-.12-.25-.18-.45-.18s-.35.06-.44.18a.76.76 0 0 0-.16.44 5.5 5.5 0 0 0 0 .71c.01.18.07.33.16.45.1.11.24.17.44.17Zm3.2 3.56c-.37 0-.67-.1-.88-.3a1.25 1.25 0 0 1-.35-.84 6.32 6.32 0 0 1 0-.78c.02-.36.13-.64.34-.84.2-.21.5-.32.89-.32.38 0 .68.1.88.32.22.2.33.48.36.84a10.05 10.05 0 0 1 0 .77c-.03.35-.15.63-.36.84-.22.2-.51.3-.88.3Zm0-.56c.2 0 .35-.06.44-.18a.8.8 0 0 0 .17-.44 12.97 12.97 0 0 0 0-.7.77.77 0 0 0-.16-.45c-.1-.12-.25-.18-.45-.18s-.35.06-.45.18a.77.77 0 0 0-.16.44 6.56 6.56 0 0 0 0 .71c.02.17.07.32.16.44.1.12.25.18.45.18Z" fill="#5E6C84"/></g><g clip-path="url(#o)"><path d="M198.5 134.02a.22.22 0 0 1-.14-.05.22.22 0 0 1-.05-.15v-5.59c0-.05.02-.1.05-.13a.2.2 0 0 1 .15-.06h.45c.06 0 .1.02.14.06.04.03.06.08.06.13v5.6a.2.2 0 0 1-.06.14.19.19 0 0 1-.14.05h-.45Zm2.23 0a.22.22 0 0 1-.14-.05.22.22 0 0 1-.05-.15v-4.05c0-.06.01-.1.05-.14a.2.2 0 0 1 .14-.06h.4c.06 0 .1.03.14.06.04.04.06.08.06.14v.38c.17-.21.36-.38.58-.49.23-.11.51-.17.85-.17.55 0 .97.18 1.27.53.3.35.46.81.46 1.4v2.4a.2.2 0 0 1-.06.15.19.19 0 0 1-.13.05h-.43a.22.22 0 0 1-.15-.05.22.22 0 0 1-.05-.15v-2.36c0-.41-.1-.72-.3-.95-.2-.22-.47-.33-.84-.33-.36 0-.65.11-.86.34a1.3 1.3 0 0 0-.31.94v2.36a.2.2 0 0 1-.06.15.19.19 0 0 1-.14.05h-.43Zm6.61.08c-.6 0-1.04-.2-1.34-.58-.3-.39-.46-.88-.48-1.47v-.51c.02-.59.18-1.07.48-1.46.3-.4.75-.59 1.34-.59.59 0 1.05.2 1.38.62v-1.96c0-.06.02-.1.06-.14a.2.2 0 0 1 .14-.06h.41c.06 0 .1.02.14.06.04.04.06.08.06.14v5.67a.2.2 0 0 1-.06.15.18.18 0 0 1-.14.05h-.38a.22.22 0 0 1-.15-.05.22.22 0 0 1-.05-.15v-.36c-.33.43-.8.64-1.4.64Zm.18-.69c.4 0 .69-.13.88-.38.2-.27.3-.58.32-.94a3.93 3.93 0 0 0 0-.65 1.43 1.43 0 0 0-.32-.88c-.2-.25-.5-.38-.88-.38-.4 0-.7.13-.89.38-.18.25-.28.58-.3.99v.25c0 1.07.4 1.61 1.2 1.61Zm3.4-4.66a.22.22 0 0 1-.14-.06.22.22 0 0 1-.05-.14v-.46c0-.06.02-.1.05-.15a.2.2 0 0 1 .15-.06h.53c.06 0 .11.02.15.06a.2.2 0 0 1 .06.15v.46a.2.2 0 0 1-.06.14.22.22 0 0 1-.15.06h-.53Zm.08 5.27a.22.22 0 0 1-.15-.05.22.22 0 0 1-.05-.15v-4.05c0-.06.02-.1.05-.14a.2.2 0 0 1 .15-.06h.4c.06 0 .1.03.14.06.04.04.06.08.06.14v4.05a.2.2 0 0 1-.06.15.19.19 0 0 1-.13.05H211Zm3.1.08c-.27 0-.53-.05-.77-.17a1.5 1.5 0 0 1-.57-.46c-.14-.2-.2-.42-.2-.66 0-.37.15-.68.45-.92.32-.24.74-.4 1.27-.48l1.27-.18V131c0-.59-.33-.88-1-.88a1.07 1.07 0 0 0-.97.53.24.24 0 0 1-.07.11c-.02.03-.06.04-.1.04h-.37a.2.2 0 0 1-.14-.05.2.2 0 0 1-.05-.14.9.9 0 0 1 .19-.46c.12-.18.31-.33.57-.45.26-.13.57-.2.95-.2.64 0 1.1.15 1.38.45.27.3.41.67.41 1.11v2.77a.2.2 0 0 1-.06.15.19.19 0 0 1-.13.05h-.4a.22.22 0 0 1-.14-.05.22.22 0 0 1-.05-.15v-.37c-.13.19-.31.34-.55.47-.24.12-.54.18-.91.18Zm.19-.64c.37 0 .67-.12.9-.36.24-.24.36-.6.36-1.05v-.24l-.99.15c-.4.06-.7.15-.91.29-.21.13-.31.3-.31.5 0 .23.1.4.28.53.19.12.41.18.67.18Z" fill="#5E6C84"/><rect x="181.55" y="125.48" width="10.68" height="10.68" rx="2.67" fill="#226FC7"/><path d="M291.94 134.02a.22.22 0 0 1-.14-.05.22.22 0 0 1-.05-.15v-4.78l-1.42 1.09a.2.2 0 0 1-.13.05c-.05 0-.1-.03-.14-.08l-.23-.29a.2.2 0 0 1-.04-.12c0-.06.03-.12.09-.16l1.86-1.43a.4.4 0 0 1 .22-.06h.44c.05 0 .1.02.13.06.04.03.06.08.06.13v5.6a.2.2 0 0 1-.06.14.19.19 0 0 1-.13.05h-.46Zm4 .08c-.73 0-1.26-.21-1.6-.64a2.76 2.76 0 0 1-.55-1.68 21.44 21.44 0 0 1 0-1.51c.01-.69.2-1.24.54-1.67.35-.43.89-.65 1.62-.65.73 0 1.27.22 1.62.65.35.43.53.98.55 1.67a23.6 23.6 0 0 1 0 1.5c-.02.7-.2 1.26-.55 1.7-.34.42-.88.63-1.62.63Zm0-.73c.44 0 .76-.14.97-.43a2 2 0 0 0 .35-1.2 24.73 24.73 0 0 0 0-1.42 2.06 2.06 0 0 0-.34-1.2c-.21-.3-.54-.44-.97-.44-.43 0-.75.14-.98.43-.21.3-.33.7-.34 1.2v1.43c.01.51.13.92.34 1.2.23.29.55.43.98.43Zm3.37.65a.22.22 0 0 1-.15-.05.22.22 0 0 1-.05-.15v-.61c0-.06.02-.1.05-.14a.2.2 0 0 1 .15-.06h.61c.06 0 .1.02.15.06.04.03.06.08.06.14v.61a.2.2 0 0 1-.06.15.22.22 0 0 1-.15.05h-.61Zm4.68 0a.22.22 0 0 1-.14-.05.22.22 0 0 1-.06-.15v-1.23h-2.76a.22.22 0 0 1-.15-.05.22.22 0 0 1-.05-.15v-.34c0-.08.03-.17.1-.25l2.56-3.62a.26.26 0 0 1 .13-.1.4.4 0 0 1 .18-.04h.62c.06 0 .1.02.13.06.05.03.06.08.06.13v3.62h.77c.06 0 .1.02.15.06.04.03.06.08.06.13v.35a.2.2 0 0 1-.06.15.19.19 0 0 1-.14.05h-.77v1.23a.2.2 0 0 1-.06.15.19.19 0 0 1-.14.05h-.43Zm-.19-2.16v-2.93l-2.06 2.94h2.06Zm3.72-.82c-.37 0-.66-.1-.88-.3-.21-.2-.33-.47-.35-.81a6.46 6.46 0 0 1 0-.78c.02-.36.13-.63.33-.84.21-.21.51-.32.9-.32s.68.11.89.32c.21.2.32.48.34.84a12.86 12.86 0 0 1 0 .78c-.02.34-.13.62-.35.81-.22.2-.5.3-.88.3Zm-.72 2.98a.2.2 0 0 1-.13-.05.17.17 0 0 1-.05-.12c0-.04.01-.07.04-.1l4.22-5.55c.04-.06.08-.1.12-.13.04-.02.1-.03.16-.03h.28c.06 0 .1.01.13.05.03.03.05.07.05.12l-.03.1-4.21 5.54a.43.43 0 0 1-.13.13.3.3 0 0 1-.17.04h-.28Zm.72-3.51c.2 0 .35-.06.44-.18a.8.8 0 0 0 .18-.44 10.98 10.98 0 0 0 0-.7.73.73 0 0 0-.18-.45c-.1-.12-.24-.18-.44-.18s-.35.06-.44.18a.76.76 0 0 0-.17.44 5.53 5.53 0 0 0 0 .71c.02.18.07.33.17.45.1.1.24.17.44.17Zm3.2 3.56c-.38 0-.67-.1-.88-.3a1.25 1.25 0 0 1-.35-.85 7.5 7.5 0 0 1 0-.77c.02-.36.13-.64.34-.84.2-.21.5-.32.89-.32.38 0 .68.1.88.32.21.2.33.48.35.84a8.88 8.88 0 0 1 0 .77c-.02.35-.14.63-.35.84-.22.2-.51.3-.88.3Zm0-.56c.2 0 .35-.06.44-.18a.8.8 0 0 0 .17-.44 12.95 12.95 0 0 0 0-.7.77.77 0 0 0-.16-.45c-.1-.12-.25-.18-.45-.18s-.35.06-.45.18a.77.77 0 0 0-.16.44 5.53 5.53 0 0 0 0 .71c.02.17.07.32.16.44.1.11.25.17.45.17Z" fill="#5E6C84"/></g><g clip-path="url(#p)"><path d="M198.5 155.38a.22.22 0 0 1-.14-.06.22.22 0 0 1-.05-.14v-5.58c0-.06.02-.11.05-.14a.2.2 0 0 1 .15-.06h3.48c.07 0 .11.01.15.06.04.03.06.08.06.14v.34a.2.2 0 0 1-.06.15c-.03.03-.08.05-.15.05h-2.85v1.99h2.68c.07 0 .11.02.15.06.04.03.06.08.06.14v.35a.2.2 0 0 1-.06.14.21.21 0 0 1-.15.05h-2.68v2.3a.2.2 0 0 1-.06.16.22.22 0 0 1-.15.05h-.42Zm4.77 0a.22.22 0 0 1-.15-.06.22.22 0 0 1-.05-.14v-4.04c0-.06.02-.1.05-.15a.2.2 0 0 1 .15-.06h.4c.05 0 .1.02.14.06a.2.2 0 0 1 .06.15v.37c.23-.38.63-.58 1.2-.58h.33c.05 0 .1.02.13.06.04.04.06.08.06.14v.35c0 .06-.02.1-.06.14a.19.19 0 0 1-.13.05h-.52c-.3 0-.54.09-.72.27a.99.99 0 0 0-.27.73v2.5a.2.2 0 0 1-.06.16.21.21 0 0 1-.14.05h-.42Zm4.22.08a1.8 1.8 0 0 1-.78-.17 1.49 1.49 0 0 1-.57-.46c-.14-.2-.2-.42-.2-.66 0-.38.15-.68.46-.92.31-.25.73-.4 1.26-.48l1.28-.18v-.25c0-.58-.34-.87-1-.87a1.07 1.07 0 0 0-.98.53.23.23 0 0 1-.07.11c-.02.02-.05.04-.1.04h-.37a.2.2 0 0 1-.13-.06.2.2 0 0 1-.05-.13c0-.14.06-.3.18-.46.13-.18.32-.33.58-.46.25-.13.57-.2.94-.2.64 0 1.1.16 1.38.46.28.3.42.67.42 1.11v2.77a.2.2 0 0 1-.06.14.19.19 0 0 1-.14.06h-.4a.22.22 0 0 1-.14-.06.22.22 0 0 1-.05-.14v-.37c-.12.18-.3.34-.54.46-.24.13-.55.2-.92.2Zm.18-.64c.37 0 .67-.12.9-.36.25-.24.37-.6.37-1.05v-.24l-1 .15c-.4.05-.7.15-.91.29-.2.13-.3.3-.3.5 0 .23.09.4.27.53.2.12.41.18.67.18Zm3.5.56a.22.22 0 0 1-.15-.06.22.22 0 0 1-.05-.14v-4.05c0-.06.01-.1.05-.14a.2.2 0 0 1 .14-.06h.4c.06 0 .1.02.14.06.04.04.06.08.06.14v.38c.17-.22.36-.38.58-.5.23-.1.51-.16.85-.16.54 0 .97.17 1.27.53.3.34.46.8.46 1.39v2.4a.19.19 0 0 1-.2.2h-.42a.21.21 0 0 1-.15-.05.21.21 0 0 1-.05-.14v-2.37c0-.4-.1-.72-.3-.94-.2-.22-.47-.33-.84-.33-.36 0-.65.11-.86.34a1.3 1.3 0 0 0-.31.93v2.37a.2.2 0 0 1-.06.14.19.19 0 0 1-.14.06h-.43Zm6.77.08c-.6 0-1.09-.17-1.43-.51a2.1 2.1 0 0 1-.55-1.45l-.01-.34v-.35c.03-.62.21-1.1.56-1.44.34-.35.82-.52 1.43-.52.41 0 .76.07 1.04.22.29.15.5.33.64.55.14.21.22.43.23.65 0 .05-.01.1-.06.13a.22.22 0 0 1-.14.05h-.41c-.06 0-.1 0-.13-.03a.35.35 0 0 1-.08-.14 1.1 1.1 0 0 0-.41-.58c-.18-.12-.4-.18-.67-.18-.35 0-.63.11-.85.34-.2.21-.31.55-.33 1v.6c.02.45.13.78.33 1 .2.22.5.33.85.33.27 0 .49-.06.67-.17.17-.12.3-.32.4-.6a.36.36 0 0 1 .1-.13c.02-.03.06-.04.12-.04h.41c.06 0 .1.02.14.06.05.03.06.08.06.13-.01.21-.1.43-.23.65-.14.22-.35.4-.64.55a2.2 2.2 0 0 1-1.04.22Zm4.7 0c-.59 0-1.06-.18-1.41-.54a2.25 2.25 0 0 1-.57-1.48l-.01-.3v-.28c.05-.61.24-1.1.59-1.47.35-.36.81-.54 1.39-.54.63 0 1.12.2 1.47.6.35.4.52.94.52 1.63v.14a.2.2 0 0 1-.06.15.18.18 0 0 1-.14.05h-2.95v.08c.02.37.13.68.33.94.21.26.49.39.83.39a1.2 1.2 0 0 0 1.02-.49l.1-.12a.3.3 0 0 1 .15-.02h.42c.05 0 .1.01.13.04s.05.07.05.12c0 .13-.08.28-.24.45-.15.18-.37.33-.66.46-.28.13-.6.2-.96.2Zm1.17-2.63v-.03c0-.39-.11-.7-.33-.95-.2-.25-.5-.38-.85-.38-.36 0-.64.13-.85.38-.21.24-.31.56-.31.95v.03h2.34Z" fill="#5E6C84"/><rect x="181.55" y="146.84" width="10.68" height="10.68" rx="2.67" fill="#226FC7"/><path d="M296.03 155.46c-.44 0-.83-.07-1.17-.21-.33-.15-.6-.36-.78-.63-.2-.28-.29-.6-.29-.96a1.62 1.62 0 0 1 .92-1.47c-.22-.13-.4-.3-.52-.51a1.53 1.53 0 0 1-.18-.75c0-.5.18-.9.54-1.18.37-.3.87-.44 1.48-.44s1.1.15 1.46.44c.37.28.56.67.56 1.17a1.43 1.43 0 0 1-.7 1.27 1.61 1.61 0 0 1 .92 1.47 1.65 1.65 0 0 1-1.08 1.59c-.33.14-.72.21-1.16.21Zm0-3.58c.34 0 .63-.1.87-.26a.8.8 0 0 0 .35-.68.8.8 0 0 0-.36-.68 1.37 1.37 0 0 0-.86-.27c-.35 0-.64.09-.88.26a.82.82 0 0 0-.34.7c0 .28.11.5.34.68.24.17.53.25.88.25Zm0 2.9c.4 0 .73-.1 1-.31.27-.2.4-.47.4-.81 0-.34-.13-.6-.4-.8-.27-.2-.6-.3-1-.3s-.74.1-1 .3c-.27.2-.4.46-.4.8s.13.6.4.81c.26.2.6.3 1 .3Zm3.4.6a.22.22 0 0 1-.14-.06.22.22 0 0 1-.05-.14v-.62c0-.05.01-.1.05-.13a.2.2 0 0 1 .14-.06h.62c.05 0 .1.02.14.06.04.03.06.08.06.13v.62a.2.2 0 0 1-.06.14.22.22 0 0 1-.14.06h-.62Zm3.93.08c-.46 0-.86-.09-1.2-.27a1.96 1.96 0 0 1-1.03-1.78c0-.3.06-.59.18-.85.13-.28.27-.52.42-.73l1.63-2.26.05-.06a.2.2 0 0 1 .1-.08.27.27 0 0 1 .13-.03h.45c.05 0 .1.01.12.06.03.03.05.07.05.12a.2.2 0 0 1-.03.11l-1.25 1.75a2.17 2.17 0 0 1 1.57.22 1.99 1.99 0 0 1 1 1.74c0 .37-.09.7-.26 1.03-.17.31-.43.56-.76.75-.33.19-.72.28-1.17.28Zm-.01-.72c.24 0 .47-.06.67-.16.21-.1.38-.25.5-.45s.19-.45.19-.73c0-.27-.07-.5-.2-.7-.11-.2-.28-.36-.49-.46-.2-.1-.43-.15-.67-.15-.24 0-.47.05-.68.15-.2.1-.37.25-.5.45-.12.2-.18.44-.18.71 0 .28.06.52.19.73.12.2.29.35.5.45.2.1.42.16.67.16Zm4.17-2.35c-.37 0-.66-.1-.88-.29-.21-.2-.33-.47-.35-.82a6.35 6.35 0 0 1 0-.77c.02-.36.13-.64.33-.84.21-.21.51-.32.9-.32s.68.1.89.32c.21.2.32.48.34.84a12.79 12.79 0 0 1 0 .77c-.02.35-.13.62-.35.82-.22.2-.5.3-.88.3Zm-.72 2.99a.2.2 0 0 1-.13-.05.17.17 0 0 1-.05-.13c0-.03.01-.06.04-.09l4.22-5.55c.04-.06.08-.1.12-.13.04-.02.1-.03.16-.03h.28c.06 0 .1.01.13.05.04.03.05.06.05.12l-.03.09-4.21 5.55a.47.47 0 0 1-.13.13c-.04.03-.1.04-.17.04h-.28Zm.72-3.51c.2 0 .35-.06.44-.19a.8.8 0 0 0 .18-.43 12.97 12.97 0 0 0 0-.71.73.73 0 0 0-.18-.44c-.1-.12-.24-.18-.44-.18s-.35.06-.44.18a.77.77 0 0 0-.17.44 6.56 6.56 0 0 0 0 .7c.02.19.07.33.17.45s.24.18.44.18Zm3.2 3.56c-.37 0-.67-.1-.88-.31a1.26 1.26 0 0 1-.35-.84 6.3 6.3 0 0 1 0-.78c.02-.35.13-.63.34-.83.2-.21.5-.32.89-.32.38 0 .68.1.88.32.21.2.33.48.35.84a10.1 10.1 0 0 1 0 .77c-.02.35-.14.63-.35.84-.22.2-.51.3-.88.3Zm0-.57c.2 0 .35-.06.44-.18a.8.8 0 0 0 .17-.43 9.53 9.53 0 0 0 0-.71.76.76 0 0 0-.16-.44c-.1-.13-.25-.19-.45-.19s-.35.06-.45.19a.76.76 0 0 0-.16.44 5.53 5.53 0 0 0 0 .7c.02.18.07.32.16.44.1.12.25.18.45.18Z" fill="#5E6C84"/></g><g clip-path="url(#q)" fill="#226FC7"><path fill-rule="evenodd" clip-rule="evenodd" d="M197.41 66.06a4.8 4.8 0 1 0-9.6 0 4.8 4.8 0 0 0 9.6 0Zm-6.47 1.99 3.27-3.27v2.2c0 .12.1.22.23.22s.23-.1.23-.22v-2.75c0-.13-.1-.23-.23-.23h-2.73c-.12 0-.22.1-.22.23s.1.23.22.23h2.18l-3.27 3.26c-.22.22.1.54.32.33Z"/><path d="M200.4 68.94a.22.22 0 0 1-.15-.05.22.22 0 0 1-.05-.15v-5.57c0-.07.02-.12.06-.15a.2.2 0 0 1 .14-.06h.43c.06 0 .1.02.14.06.04.03.06.08.06.15v2.11l2.28-2.18c.1-.1.2-.14.34-.14h.46c.04 0 .08.02.12.05.03.04.05.08.05.12 0 .05-.01.08-.03.11l-2.65 2.58 2.82 2.83c.03.03.04.07.04.12 0 .05-.02.09-.05.12a.17.17 0 0 1-.12.05h-.48a.46.46 0 0 1-.33-.14l-2.45-2.4v2.34a.2.2 0 0 1-.06.15.22.22 0 0 1-.14.05h-.43Zm6 .09c-.27 0-.53-.06-.77-.17a1.49 1.49 0 0 1-.57-.47c-.14-.2-.21-.41-.21-.65 0-.38.15-.69.46-.93.31-.24.74-.4 1.27-.47l1.27-.18v-.25c0-.58-.34-.87-1-.87a1.07 1.07 0 0 0-.97.53.24.24 0 0 1-.07.1c-.03.03-.06.04-.1.04h-.37a.2.2 0 0 1-.14-.05.2.2 0 0 1-.05-.14c0-.13.07-.29.19-.46.12-.17.31-.33.57-.45.25-.13.57-.2.95-.2.63 0 1.1.15 1.37.46.28.3.42.66.42 1.1v2.77a.2.2 0 0 1-.06.15.19.19 0 0 1-.13.05h-.4a.22.22 0 0 1-.14-.05.22.22 0 0 1-.05-.15v-.36c-.13.18-.31.33-.55.46-.24.12-.54.19-.91.19Zm.18-.64c.37 0 .68-.12.91-.36.24-.25.36-.6.36-1.05v-.24l-1 .14c-.4.06-.7.16-.9.3-.21.12-.31.3-.31.5 0 .22.09.4.28.53.19.12.4.18.66.18Zm3.21.55a.22.22 0 0 1-.14-.05.22.22 0 0 1-.05-.15v-.3c0-.04 0-.09.03-.13l.09-.14 2.36-3h-2.2a.22.22 0 0 1-.15-.05.22.22 0 0 1-.05-.14v-.29c0-.05.01-.1.05-.13a.2.2 0 0 1 .14-.06h3.04c.06 0 .1.02.14.06.04.03.06.08.06.13v.32c0 .05-.02.1-.04.14l-.08.13-2.33 2.99h2.42a.2.2 0 0 1 .15.05c.03.03.05.08.05.14v.28a.2.2 0 0 1-.06.15.18.18 0 0 1-.14.05h-3.29Zm5.68.09c-.28 0-.54-.06-.78-.17a1.49 1.49 0 0 1-.57-.47c-.14-.2-.2-.41-.2-.65 0-.38.14-.69.45-.93.31-.24.74-.4 1.27-.47l1.27-.18v-.25c0-.58-.33-.87-1-.87a1.07 1.07 0 0 0-.97.53.23.23 0 0 1-.07.1c-.03.03-.06.04-.1.04h-.37a.2.2 0 0 1-.14-.05.2.2 0 0 1-.05-.14c0-.13.07-.29.19-.46.12-.17.31-.33.57-.45.26-.13.57-.2.95-.2.64 0 1.1.15 1.37.46.28.3.42.66.42 1.1v2.77a.2.2 0 0 1-.06.15.19.19 0 0 1-.13.05h-.4a.22.22 0 0 1-.14-.05.22.22 0 0 1-.05-.15v-.36c-.13.18-.31.33-.55.46-.24.12-.54.19-.91.19Zm.18-.64c.36 0 .67-.12.9-.36.24-.25.36-.6.36-1.05v-.24l-1 .14c-.4.06-.7.16-.9.3-.21.12-.31.3-.31.5 0 .22.1.4.28.53.19.12.4.18.67.18Zm3.5.55a.22.22 0 0 1-.15-.05.22.22 0 0 1-.05-.15v-5.67c0-.06.02-.1.05-.14a.2.2 0 0 1 .15-.05h.4c.05 0 .1.02.13.05.04.04.06.08.06.14v2.97l1.69-1.4.08-.06a.43.43 0 0 1 .11-.06.54.54 0 0 1 .15-.02h.45c.05 0 .1.02.13.05.03.03.05.08.05.13 0 .06-.03.11-.1.16l-1.98 1.64 2.2 2.13c.06.05.1.1.1.15a.17.17 0 0 1-.19.18H222a.5.5 0 0 1-.19-.02.8.8 0 0 1-.15-.12l-1.9-1.82v1.76a.2.2 0 0 1-.07.15.19.19 0 0 1-.13.05h-.4Zm4.4 0a.22.22 0 0 1-.14-.05.22.22 0 0 1-.06-.15v-5.67c0-.06.02-.1.06-.14a.2.2 0 0 1 .14-.05h.43c.06 0 .1.02.14.05.03.04.06.08.06.14v2a1.65 1.65 0 0 1 1.4-.66c.55 0 .97.18 1.28.53.3.35.46.81.46 1.4v2.4a.2.2 0 0 1-.06.15.19.19 0 0 1-.14.05h-.43a.22.22 0 0 1-.14-.05.22.22 0 0 1-.05-.15v-2.36c0-.4-.1-.72-.3-.94-.2-.22-.48-.34-.85-.34-.35 0-.64.12-.86.35a1.3 1.3 0 0 0-.31.93v2.36a.2.2 0 0 1-.06.15.19.19 0 0 1-.14.05h-.43Zm6.54.09c-.4 0-.74-.07-1-.2a1.8 1.8 0 0 1-.62-.44c-.13-.16-.2-.3-.2-.4 0-.06.03-.1.07-.13.04-.04.09-.06.13-.06h.39c.06 0 .1.03.15.09.14.16.29.28.45.38.16.09.37.13.64.13.3 0 .53-.05.72-.17a.55.55 0 0 0 .28-.49.47.47 0 0 0-.12-.33.84.84 0 0 0-.4-.23 6.37 6.37 0 0 0-.82-.22 2.2 2.2 0 0 1-1.05-.47c-.2-.2-.31-.47-.31-.8 0-.21.06-.42.19-.61.13-.2.31-.36.56-.48.25-.12.55-.19.9-.19.36 0 .67.06.93.18s.45.26.57.43c.13.16.2.3.2.4 0 .05-.02.1-.06.13a.18.18 0 0 1-.13.05h-.36a.2.2 0 0 1-.17-.08c-.1-.11-.17-.2-.24-.25a.76.76 0 0 0-.28-.17 1.32 1.32 0 0 0-.46-.06.98.98 0 0 0-.64.18.54.54 0 0 0-.22.45c0 .12.03.22.1.3.06.09.18.16.36.23s.44.14.78.21c.54.12.92.28 1.15.5.22.2.34.48.34.8 0 .25-.07.48-.21.68-.15.2-.36.35-.64.47-.27.1-.6.17-.98.17Zm4.54-.09c-.9 0-1.35-.5-1.35-1.5v-2.26h-.66a.22.22 0 0 1-.15-.05.22.22 0 0 1-.05-.14v-.3c0-.05.02-.1.05-.13a.2.2 0 0 1 .15-.06h.66v-1.43c0-.06.02-.1.06-.14a.2.2 0 0 1 .14-.05h.4c.06 0 .1.02.14.05.04.04.06.08.06.14v1.43h1.06c.05 0 .1.02.13.06.04.03.06.08.06.13v.3a.2.2 0 0 1-.06.14.19.19 0 0 1-.13.05h-1.06v2.2c0 .28.05.5.14.65.1.14.26.21.48.21h.52c.06 0 .1.02.14.06.04.03.06.08.06.14v.3a.2.2 0 0 1-.06.15.18.18 0 0 1-.14.05h-.59Zm2.84.09c-.27 0-.53-.06-.77-.17a1.49 1.49 0 0 1-.57-.47c-.14-.2-.21-.41-.21-.65 0-.38.15-.69.46-.93.31-.24.74-.4 1.27-.47l1.27-.18v-.25c0-.58-.33-.87-1-.87a1.08 1.08 0 0 0-.97.53.24.24 0 0 1-.07.1c-.03.03-.06.04-.1.04h-.37a.2.2 0 0 1-.14-.05.2.2 0 0 1-.05-.14.9.9 0 0 1 .19-.46c.12-.17.31-.33.57-.45.26-.13.57-.2.95-.2.64 0 1.1.15 1.37.46.28.3.42.66.42 1.1v2.77a.2.2 0 0 1-.06.15.19.19 0 0 1-.13.05h-.4a.22.22 0 0 1-.14-.05.22.22 0 0 1-.05-.15v-.36c-.13.18-.31.33-.55.46-.24.12-.54.19-.91.19Zm.18-.64c.38 0 .68-.12.91-.36.24-.25.36-.6.36-1.05v-.24l-1 .14c-.4.06-.7.16-.9.3-.21.12-.31.3-.31.5 0 .22.09.4.28.53.19.12.4.18.66.18Zm3.5.55a.22.22 0 0 1-.15-.05.22.22 0 0 1-.05-.15V64.7c0-.05.02-.1.05-.13a.2.2 0 0 1 .15-.06h.4c.05 0 .1.02.13.06.04.03.06.08.06.13v.38c.17-.21.36-.37.59-.49.22-.11.5-.17.84-.17.55 0 .97.18 1.27.53.31.35.47.81.47 1.4v2.4a.2.2 0 0 1-.06.15.19.19 0 0 1-.14.05h-.43a.22.22 0 0 1-.14-.05.22.22 0 0 1-.05-.15v-2.36c0-.4-.1-.72-.3-.94-.2-.22-.48-.34-.85-.34-.36 0-.64.12-.85.35a1.3 1.3 0 0 0-.32.93v2.36a.2.2 0 0 1-.06.15.19.19 0 0 1-.14.05h-.42Z"/></g></g></g><defs><clipPath id="a"><path fill="#fff" d="M0 0h157.52v170.87H0z"/></clipPath><clipPath id="b"><path fill="#fff" d="M0 0h157.52v170.87H0z"/></clipPath><clipPath id="c"><path fill="#fff" transform="translate(13.35 34.17)" d="M0 0h130.82v123.35H0z"/></clipPath><clipPath id="e"><path fill="#fff" transform="translate(13.35 82.77)" d="M0 0h130.82v20.82H0z"/></clipPath><clipPath id="f"><path fill="#fff" transform="translate(13.35 104.13)" d="M0 0h130.82v10.68H0z"/></clipPath><clipPath id="g"><path fill="#fff" transform="translate(13.35 125.48)" d="M0 0h130.82v10.68H0z"/></clipPath><clipPath id="h"><path fill="#fff" transform="translate(13.35 146.84)" d="M0 0h130.82v10.68H0z"/></clipPath><clipPath id="i"><path fill="#fff" transform="translate(168.2)" d="M0 0h157.52v170.87H0z"/></clipPath><clipPath id="j"><path fill="#fff" transform="translate(168.2)" d="M0 0h157.52v170.87H0z"/></clipPath><clipPath id="k"><path fill="#fff" transform="translate(181.55 34.17)" d="M0 0h130.82v123.35H0z"/></clipPath><clipPath id="m"><path fill="#fff" transform="translate(181.55 82.77)" d="M0 0h130.82v20.82H0z"/></clipPath><clipPath id="n"><path fill="#fff" transform="translate(181.55 104.13)" d="M0 0h130.82v10.68H0z"/></clipPath><clipPath id="o"><path fill="#fff" transform="translate(181.55 125.48)" d="M0 0h130.82v10.68H0z"/></clipPath><clipPath id="p"><path fill="#fff" transform="translate(181.55 146.84)" d="M0 0h130.82v10.68H0z"/></clipPath><clipPath id="q"><path fill="#fff" transform="translate(181.55 60.34)" d="M0 0h64.61v11.75H0z"/></clipPath><linearGradient id="d" x1="136.91" y1="51.64" x2="136.91" y2="41.8" gradientUnits="userSpaceOnUse"><stop stop-color="#FEFFFF"/><stop offset="1" stop-color="#64C8BC"/></linearGradient><linearGradient id="l" x1="305.11" y1="51.64" x2="305.11" y2="41.8" gradientUnits="userSpaceOnUse"><stop stop-color="#FEFFFF"/><stop offset="1" stop-color="#64C8BC"/></linearGradient></defs></svg>