<svg width="353" height="170" fill="none" xmlns="http://www.w3.org/2000/svg"><g clip-path="url(#a)"><path d="M11.85 16.78c-.11 0-.2-.05-.25-.14a.3.3 0 0 1-.01-.28l2.21-5.25c.06-.14.15-.2.29-.2.13 0 .22.06.28.2l2.21 5.26c.05.09.04.18-.02.27a.27.27 0 0 1-.24.14c-.13 0-.23-.06-.28-.18l-.5-1.22h-2.91l-.5 1.22a.28.28 0 0 1-.12.13.28.28 0 0 1-.16.05Zm.99-1.9h2.5l-1.25-3.02-1.25 3.02Zm4.84 1.9a.31.31 0 0 1-.21-.08.3.3 0 0 1-.08-.2v-3.54c0-.1.02-.16.07-.21a.3.3 0 0 1 .22-.09c.09 0 .16.03.2.09.06.05.09.12.09.2v.26c.16-.18.36-.33.6-.43a2 2 0 0 1 1.73.07c.27.14.5.36.66.64.16.29.24.64.24 1.05v1.95c0 .08-.02.15-.08.2a.28.28 0 0 1-.2.09.29.29 0 0 1-.21-.08.28.28 0 0 1-.09-.2v-1.96c0-.47-.13-.81-.39-1.03a1.4 1.4 0 0 0-.95-.34c-.25 0-.47.05-.67.14-.2.1-.35.23-.47.4a.96.96 0 0 0-.17.56v2.22c0 .09-.03.16-.08.21a.27.27 0 0 1-.2.08Zm6.61.04a2 2 0 0 1-1.76-1.03 2.16 2.16 0 0 1-.27-1.06 2.02 2.02 0 0 1 1.02-1.82c.32-.2.68-.28 1.07-.28a2.03 2.03 0 0 1 1.8 1.02c.2.32.29.67.3 1.08v1.76c0 .09-.03.16-.09.21a.3.3 0 0 1-.2.08.3.3 0 0 1-.22-.08.29.29 0 0 1-.08-.2v-.47c-.17.24-.4.44-.66.58-.27.14-.58.2-.9.2Zm.06-.53a1.48 1.48 0 0 0 1.32-.76c.14-.24.2-.5.2-.8 0-.3-.06-.57-.2-.81a1.44 1.44 0 0 0-.54-.56 1.44 1.44 0 0 0-.78-.2 1.5 1.5 0 0 0-1.32.77c-.14.23-.2.5-.2.8a1.5 1.5 0 0 0 1.53 1.56Zm4.1.49a.92.92 0 0 1-.74-.36c-.2-.25-.29-.56-.29-.94v-4.29c0-.09.03-.15.08-.2a.29.29 0 0 1 .2-.09c.1 0 .16.03.21.09.05.05.08.11.08.2v4.29c0 .21.05.39.13.52.09.14.2.2.34.2h.19c.07 0 .13.03.18.09a.3.3 0 0 1 .07.2c0 .09-.04.16-.1.21a.36.36 0 0 1-.24.08h-.1Zm1.95 1.79a.37.37 0 0 1-.13-.03c-.17-.08-.22-.2-.15-.36l.75-1.65-1.68-3.48a.26.26 0 0 1-.02-.21.28.28 0 0 1 .16-.15c.16-.08.28-.04.36.12l1.46 3.1 1.4-3.09c.08-.16.2-.2.36-.13.17.07.22.18.15.35l-2.44 5.36c-.05.11-.12.17-.22.17Zm5.02-1.8c-.26 0-.5-.05-.71-.18-.2-.12-.37-.3-.49-.51a1.54 1.54 0 0 1-.18-.75v-2.01h-.49a.27.27 0 0 1-.19-.07.25.25 0 0 1-.07-.18c0-.07.02-.13.07-.18a.25.25 0 0 1 .2-.08h.48v-1.16a.3.3 0 0 1 .08-.21.28.28 0 0 1 .2-.08c.1 0 .16.02.22.08.05.05.08.12.08.2v1.17h.85c.08 0 .14.03.19.08.05.04.07.1.07.18 0 .07-.02.13-.07.18a.27.27 0 0 1-.19.07h-.85v2c0 .26.08.47.23.64.15.16.34.24.57.24h.2c.09 0 .15.03.2.08a.3.3 0 0 1 .08.21c0 .09-.03.16-.1.21a.34.34 0 0 1-.22.08h-.16Zm1.84 0a.31.31 0 0 1-.22-.07.31.31 0 0 1-.08-.21v-3.53c0-.1.03-.16.08-.21a.3.3 0 0 1 .22-.09c.08 0 .15.03.2.09.05.05.08.12.08.2v3.54a.3.3 0 0 1-.08.21.27.27 0 0 1-.2.08Zm-.01-4.89a.4.4 0 0 1-.29-.12.4.4 0 0 1-.12-.3c0-.12.04-.22.12-.29a.43.43 0 0 1 .3-.1c.1 0 .2.03.27.1.09.07.13.17.13.3a.4.4 0 0 1-.12.3.4.4 0 0 1-.3.11Zm3.6 4.94c-.4 0-.75-.1-1.06-.27a2.06 2.06 0 0 1-1-1.82c0-.4.1-.76.26-1.08a1.92 1.92 0 0 1 1.73-1.02c.62 0 1.13.24 1.52.72.06.06.08.12.06.2a.3.3 0 0 1-.12.17.25.25 0 0 1-.2.04.32.32 0 0 1-.17-.11 1.4 1.4 0 0 0-1.1-.5c-.27 0-.52.07-.74.2a1.4 1.4 0 0 0-.5.56c-.11.24-.17.5-.17.82 0 .3.06.56.19.8a1.4 1.4 0 0 0 1.3.76c.4 0 .73-.1.97-.32a.33.33 0 0 1 .19-.09c.06 0 .13.02.18.06.06.06.1.12.1.2a.2.2 0 0 1-.07.17c-.37.34-.82.5-1.37.5Zm6.73.03c-.48 0-.9-.1-1.28-.3-.36-.21-.62-.48-.78-.82-.04-.08-.04-.16 0-.22a.3.3 0 0 1 .19-.15.26.26 0 0 1 .2.03c.07.03.12.08.16.16.11.22.3.4.57.54.27.14.58.2.94.2.4 0 .72-.09.98-.28.26-.2.39-.47.39-.84 0-.3-.11-.57-.34-.8a1.8 1.8 0 0 0-1.06-.41 2.48 2.48 0 0 1-1.38-.54 1.4 1.4 0 0 1-.5-1.09c0-.3.09-.57.25-.8.16-.22.39-.4.68-.51.28-.13.61-.2.98-.2a2.11 2.11 0 0 1 1.75.95c.05.09.07.16.05.24a.25.25 0 0 1-.13.17.31.31 0 0 1-.4-.13 1.6 1.6 0 0 0-.48-.45c-.2-.14-.46-.21-.8-.21-.4 0-.71.08-.95.25a.83.83 0 0 0-.36.73c0 .26.1.48.3.67.22.2.59.32 1.12.4.63.09 1.09.28 1.4.58.3.29.45.67.45 1.14 0 .36-.09.67-.26.93-.17.25-.4.44-.7.57-.3.13-.63.2-.99.2Zm4.71-.07c-.27 0-.5-.06-.71-.19-.2-.12-.37-.3-.5-.51a1.54 1.54 0 0 1-.17-.75v-2.01h-.5a.27.27 0 0 1-.18-.07.25.25 0 0 1-.08-.18c0-.07.03-.13.08-.18a.25.25 0 0 1 .19-.08h.49v-1.16a.3.3 0 0 1 .07-.21.28.28 0 0 1 .21-.08c.09 0 .16.02.21.08.06.05.09.12.09.2v1.17h.85c.07 0 .13.03.18.08.05.04.08.1.08.18 0 .07-.03.13-.08.18a.27.27 0 0 1-.18.07h-.85v2c0 .26.07.47.22.64.15.16.35.24.58.24h.2c.08 0 .15.03.2.08a.3.3 0 0 1 .07.21c0 .09-.03.16-.09.21a.34.34 0 0 1-.22.08h-.16Zm3.23.04a2 2 0 0 1-1.77-1.03 2.16 2.16 0 0 1-.26-1.06 2.02 2.02 0 0 1 1.02-1.82c.32-.2.67-.28 1.07-.28a2.03 2.03 0 0 1 1.8 1.02c.2.32.29.67.3 1.08v1.76c0 .09-.04.16-.1.21a.3.3 0 0 1-.2.08.3.3 0 0 1-.21-.08.29.29 0 0 1-.09-.2v-.47c-.17.24-.39.44-.66.58-.27.14-.57.2-.9.2Zm.06-.53a1.48 1.48 0 0 0 1.32-.76c.13-.24.2-.5.2-.8 0-.3-.07-.57-.2-.81a1.44 1.44 0 0 0-.54-.56 1.44 1.44 0 0 0-.78-.2 1.5 1.5 0 0 0-1.32.77c-.14.23-.2.5-.2.8a1.5 1.5 0 0 0 1.53 1.56Zm4.83.49c-.27 0-.5-.06-.72-.19-.2-.12-.37-.3-.49-.51a1.55 1.55 0 0 1-.18-.75v-2.01h-.49a.27.27 0 0 1-.18-.07.25.25 0 0 1-.08-.18c0-.07.03-.13.08-.18a.25.25 0 0 1 .18-.08h.5v-1.16a.3.3 0 0 1 .07-.21.29.29 0 0 1 .21-.08c.09 0 .16.02.21.08.06.05.08.12.08.2v1.17h.85c.08 0 .14.03.2.08.04.04.07.1.07.18 0 .07-.03.13-.08.18a.27.27 0 0 1-.19.07h-.85v2c0 .26.08.47.23.64.15.16.34.24.58.24h.2c.08 0 .15.03.2.08a.3.3 0 0 1 .07.21c0 .09-.03.16-.09.21a.34.34 0 0 1-.22.08h-.16Zm1.83 0a.31.31 0 0 1-.22-.08.31.31 0 0 1-.07-.21v-3.53c0-.1.02-.16.07-.21a.3.3 0 0 1 .22-.09c.08 0 .15.03.2.09.06.05.08.12.08.2v3.54a.3.3 0 0 1-.08.21.27.27 0 0 1-.2.08Zm0-4.9a.39.39 0 0 1-.3-.12.4.4 0 0 1-.12-.3c0-.12.04-.22.13-.29a.43.43 0 0 1 .29-.1c.1 0 .2.03.28.1.08.07.12.17.12.3a.4.4 0 0 1-.12.3.4.4 0 0 1-.29.11Zm3.2 4.94c-.3 0-.6-.05-.88-.15-.3-.1-.53-.25-.71-.46a.24.24 0 0 1-.07-.2.3.3 0 0 1 .52-.16c.12.14.28.25.47.33.2.07.43.11.67.11.37 0 .64-.06.8-.19a.6.6 0 0 0 .26-.46c0-.19-.09-.33-.26-.45a2.13 2.13 0 0 0-.84-.28c-.5-.08-.88-.22-1.12-.42a.91.91 0 0 1-.35-.71 1 1 0 0 1 .2-.64c.14-.17.32-.3.55-.39.22-.08.47-.12.74-.12.34 0 .63.05.87.17.24.11.44.27.59.47.05.06.07.13.06.2a.24.24 0 0 1-.12.17.33.33 0 0 1-.21.04.36.36 0 0 1-.2-.11 1.27 1.27 0 0 0-1-.42c-.28 0-.5.05-.67.17-.16.1-.24.25-.24.42 0 .17.07.31.21.42.15.11.43.2.85.27.37.06.67.15.88.27.22.12.38.26.47.42.1.15.14.32.14.5 0 .24-.07.45-.2.63-.14.18-.33.32-.58.42-.24.1-.52.15-.83.15Zm4.22-.04c-.26 0-.5-.06-.71-.19-.2-.12-.37-.3-.49-.51a1.54 1.54 0 0 1-.18-.75v-2.01h-.49a.27.27 0 0 1-.19-.07.25.25 0 0 1-.07-.18c0-.07.02-.13.07-.18a.26.26 0 0 1 .2-.08h.48v-1.16a.3.3 0 0 1 .07-.21.28.28 0 0 1 .22-.08c.08 0 .15.02.2.08.06.05.09.12.09.2v1.17h.85c.07 0 .14.03.19.08.05.04.07.1.07.18 0 .07-.02.13-.07.18a.27.27 0 0 1-.2.07h-.84v2c0 .26.07.47.22.64.15.16.35.24.58.24h.2c.09 0 .15.03.2.08a.3.3 0 0 1 .08.21c0 .09-.03.16-.1.21a.34.34 0 0 1-.22.08h-.16Zm1.83 0a.31.31 0 0 1-.21-.08.31.31 0 0 1-.08-.21v-3.53c0-.1.03-.16.08-.21a.3.3 0 0 1 .21-.09c.09 0 .16.03.2.09.06.05.09.12.09.2v3.54a.3.3 0 0 1-.08.21.27.27 0 0 1-.2.08Zm0-4.9a.39.39 0 0 1-.29-.12.4.4 0 0 1-.12-.3c0-.12.04-.22.12-.29a.43.43 0 0 1 .3-.1c.1 0 .2.03.27.1.09.07.13.17.13.3a.4.4 0 0 1-.12.3.4.4 0 0 1-.3.11Zm3.6 4.94c-.4 0-.75-.1-1.06-.27a2.06 2.06 0 0 1-1-1.82c0-.4.1-.76.26-1.08a1.92 1.92 0 0 1 1.72-1.02c.63 0 1.14.24 1.53.72.06.06.08.12.06.2a.3.3 0 0 1-.13.17.25.25 0 0 1-.18.04.32.32 0 0 1-.18-.11 1.4 1.4 0 0 0-1.1-.5c-.28 0-.52.07-.74.2a1.4 1.4 0 0 0-.5.56c-.11.24-.17.5-.17.82 0 .3.06.56.19.8a1.4 1.4 0 0 0 1.3.76c.4 0 .72-.1.97-.32a.33.33 0 0 1 .19-.09c.06 0 .12.02.18.06.06.06.1.12.1.2a.2.2 0 0 1-.07.17c-.37.34-.82.5-1.37.5Zm4.08 0c-.3 0-.59-.05-.88-.15-.29-.1-.52-.25-.7-.46a.24.24 0 0 1-.07-.2.3.3 0 0 1 .52-.16c.12.14.28.25.47.33.2.07.42.11.66.11.37 0 .64-.06.8-.19a.6.6 0 0 0 .26-.46c0-.19-.08-.33-.25-.45a2.13 2.13 0 0 0-.85-.28c-.5-.08-.87-.22-1.1-.42a.91.91 0 0 1-.36-.71 1 1 0 0 1 .2-.64c.14-.17.32-.3.54-.39.23-.08.48-.12.75-.12.33 0 .62.05.86.17.25.11.45.27.6.47.05.06.07.13.06.2a.24.24 0 0 1-.12.17.33.33 0 0 1-.21.04.36.36 0 0 1-.2-.11 1.27 1.27 0 0 0-1-.42c-.28 0-.5.05-.67.17-.17.1-.25.25-.25.42 0 .17.07.31.22.42.15.11.43.2.84.27.38.06.67.15.89.27.22.12.38.26.47.42.1.15.14.32.14.5 0 .24-.07.45-.21.63-.14.18-.33.32-.57.42-.24.1-.52.15-.84.15Z" fill="#041235"/><path opacity=".1" d="M26.47 114.52h628.1M26.47 134.08h628.1M26.47 94.6h628.1M26.47 75.4h628.1M26.47 56.23h628.1M26.47 37.05h628.1" stroke="#979797" stroke-width=".38" stroke-linecap="square"/><g clip-path="url(#b)" fill="#8596A7"><path d="M21.8 135.76a.87.87 0 0 1-.8-.47 2.57 2.57 0 0 1-.27-1.3c0-.37.04-.68.12-.95.09-.26.2-.46.37-.6a.84.84 0 0 1 .57-.22c.23 0 .42.07.58.22.16.14.28.34.36.6.08.27.13.59.13.95s-.05.68-.13.94c-.08.27-.2.47-.36.61a.83.83 0 0 1-.58.22Zm0-.35a.5.5 0 0 0 .4-.19c.1-.12.18-.29.23-.5a3.16 3.16 0 0 0 0-1.45 1.2 1.2 0 0 0-.24-.51.5.5 0 0 0-.4-.19.5.5 0 0 0-.4.19c-.1.12-.18.29-.23.5a3.17 3.17 0 0 0 0 1.46c.05.21.13.38.23.5.11.13.24.19.4.19ZM16.21 116.58a.87.87 0 0 1-.78-.47 2.58 2.58 0 0 1-.28-1.3c0-.37.04-.68.12-.95.09-.26.2-.47.37-.6a.83.83 0 0 1 .57-.22c.23 0 .42.07.58.22.16.14.28.34.36.6.09.27.13.58.13.95 0 .36-.05.68-.13.94-.08.27-.2.47-.36.61a.83.83 0 0 1-.58.22Zm0-.36c.16 0 .3-.06.4-.18.1-.12.19-.29.24-.5a3.16 3.16 0 0 0 0-1.46 1.2 1.2 0 0 0-.24-.5.5.5 0 0 0-.4-.19.5.5 0 0 0-.4.19c-.1.12-.18.29-.23.5a3.17 3.17 0 0 0 0 1.46c.05.21.13.38.23.5.11.12.24.18.4.18Zm1.8.36a.18.18 0 0 1-.14-.05.17.17 0 0 1-.05-.13c0-.05.02-.09.05-.12l1.37-1.62a1 1 0 0 0 .18-.27.74.74 0 0 0-.12-.8.62.62 0 0 0-.47-.2.64.64 0 0 0-.35.1.7.7 0 0 0-.33.62c0 .05-.02.09-.05.12a.17.17 0 0 1-.13.05.18.18 0 0 1-.12-.05.17.17 0 0 1-.05-.12 1.03 1.03 0 0 1 .5-.92c.15-.1.33-.14.53-.14s.37.04.52.13c.15.1.27.22.35.38.09.16.13.34.13.55 0 .14-.03.28-.1.42-.07.13-.16.25-.25.35l-1.15 1.34h1.4c.06 0 .1.02.13.06a.17.17 0 0 1 0 .25.17.17 0 0 1-.12.05H18Zm2.74 0a.18.18 0 0 1-.12-.05.18.18 0 0 1-.05-.13v-3.17c0-.05.01-.1.05-.13a.17.17 0 0 1 .12-.05c.05 0 .1.02.13.06.03.03.05.07.05.12v1.53l1.65-1.65a.2.2 0 0 1 .14-.06c.05 0 .1.02.12.05.03.03.04.07.04.12a.2.2 0 0 1-.06.13l-1.24 1.24 1.25 1.7c.05.07.05.13.02.2-.03.05-.08.09-.14.09a.17.17 0 0 1-.15-.08l-1.23-1.66-.4.4v1.16c0 .05-.02.09-.05.13a.17.17 0 0 1-.13.05ZM15.91 97.4a.87.87 0 0 1-.78-.48 2.58 2.58 0 0 1-.28-1.3c0-.36.04-.67.12-.94.09-.26.21-.47.37-.6a.83.83 0 0 1 .57-.22c.23 0 .42.07.58.22.16.14.28.34.36.6.09.27.13.58.13.94 0 .37-.04.69-.13.95-.08.26-.2.47-.36.61a.83.83 0 0 1-.58.21Zm0-.36c.16 0 .3-.06.4-.18.1-.12.19-.29.24-.5a3.16 3.16 0 0 0 0-1.46 1.2 1.2 0 0 0-.24-.5.5.5 0 0 0-.4-.19.5.5 0 0 0-.4.19c-.1.12-.18.28-.23.5a3.17 3.17 0 0 0 0 1.46c.05.21.13.38.24.5.1.12.23.18.4.18Zm3.32.35a.16.16 0 0 1-.12-.05.17.17 0 0 1-.05-.12v-.67h-1.62a.17.17 0 0 1-.15-.1.16.16 0 0 1 .01-.18l1.8-2.33a.17.17 0 0 1 .14-.08c.04 0 .08.02.11.06.04.03.05.07.05.13v2.18h.36a.2.2 0 0 1 .12.04c.03.02.05.07.05.13 0 .04-.02.07-.05.1a.17.17 0 0 1-.12.05h-.36v.67c0 .05-.01.1-.05.12a.17.17 0 0 1-.12.05Zm-.17-1.16v-1.72l-1.33 1.72h1.33Zm1.7 1.16a.18.18 0 0 1-.13-.05.18.18 0 0 1-.05-.12v-3.17c0-.05.01-.1.05-.13a.17.17 0 0 1 .12-.05c.05 0 .1.02.13.05.03.04.05.08.05.13v1.53l1.65-1.65a.2.2 0 0 1 .14-.06c.05 0 .1.02.12.05.03.03.04.07.04.12a.2.2 0 0 1-.06.13l-1.24 1.24 1.25 1.7c.05.06.05.13.02.19-.03.06-.08.1-.14.1a.17.17 0 0 1-.15-.08l-1.23-1.66-.4.4v1.16c0 .05-.02.09-.05.12a.17.17 0 0 1-.13.05ZM16.22 78.21a.87.87 0 0 1-.78-.47 2.58 2.58 0 0 1-.28-1.3c0-.36.04-.68.12-.94.09-.26.2-.47.37-.6a.83.83 0 0 1 .57-.22c.23 0 .42.07.58.22.16.14.28.34.36.6.08.27.13.58.13.94 0 .37-.05.69-.13.95s-.2.47-.36.61a.83.83 0 0 1-.58.21Zm0-.35c.16 0 .3-.06.4-.18.1-.12.19-.3.24-.5a3.15 3.15 0 0 0 0-1.46 1.2 1.2 0 0 0-.24-.5.5.5 0 0 0-.4-.19.5.5 0 0 0-.4.19c-.1.12-.18.28-.23.5a3.17 3.17 0 0 0 0 1.46c.05.21.13.38.23.5s.24.18.4.18Zm2.65.35c-.2 0-.39-.04-.55-.13-.16-.1-.29-.22-.38-.38a1.09 1.09 0 0 1-.13-.55c0-.2.04-.37.13-.54l.03-.05 1.08-1.78c.04-.06.1-.1.16-.1.07 0 .12.04.15.1.04.05.04.11 0 .17l-.7 1.16.2-.02c.2 0 .39.05.55.14a1.05 1.05 0 0 1 .51.92 1.06 1.06 0 0 1-.51.93c-.16.09-.34.13-.54.13Zm0-.32a.72.72 0 0 0 .62-.36c.07-.11.1-.24.1-.38a.75.75 0 0 0-.1-.38.68.68 0 0 0-.26-.26.7.7 0 0 0-.37-.1.7.7 0 0 0-.37.1.7.7 0 0 0-.25.26.75.75 0 0 0-.1.38c0 .14.03.27.1.38a.7.7 0 0 0 .62.36Zm1.88.32a.18.18 0 0 1-.12-.05.18.18 0 0 1-.05-.12v-3.18c0-.04.01-.09.05-.12a.17.17 0 0 1 .12-.05c.05 0 .1.02.13.05.03.03.05.08.05.12v1.54l1.65-1.65a.2.2 0 0 1 .14-.06c.05 0 .1.01.12.05.03.03.04.07.04.12a.2.2 0 0 1-.06.13l-1.24 1.24 1.25 1.7c.05.06.05.12.02.19-.03.06-.08.1-.14.1a.17.17 0 0 1-.15-.08l-1.23-1.67-.4.41v1.16c0 .04-.02.09-.05.12a.17.17 0 0 1-.13.05ZM16.16 59.03a.87.87 0 0 1-.79-.47 2.58 2.58 0 0 1-.27-1.3c0-.36.04-.68.12-.94.08-.27.2-.47.37-.61a.83.83 0 0 1 .57-.21c.23 0 .42.07.58.21.16.15.28.35.36.61.08.27.12.58.12.94 0 .37-.04.69-.12.95-.08.26-.2.46-.36.6a.83.83 0 0 1-.58.22Zm0-.35c.16 0 .3-.06.4-.18.1-.12.18-.3.24-.5a3.15 3.15 0 0 0 0-1.46 1.2 1.2 0 0 0-.24-.5.5.5 0 0 0-.4-.2.5.5 0 0 0-.4.2c-.1.11-.18.28-.23.5a3.17 3.17 0 0 0 0 1.46c.05.2.13.38.23.5s.24.18.4.18Zm2.63.37c-.2 0-.38-.05-.54-.14a1.07 1.07 0 0 1-.51-.94c0-.2.04-.39.14-.55.1-.15.23-.28.4-.37a.8.8 0 0 1-.26-.29.89.89 0 0 1-.1-.41.85.85 0 0 1 .42-.74.89.89 0 0 1 .45-.11.86.86 0 0 1 .76.41c.08.13.11.28.1.44 0 .15-.02.29-.1.4a.85.85 0 0 1-.25.3 1.01 1.01 0 0 1 .54.92c0 .2-.05.39-.14.55a1.02 1.02 0 0 1-.9.53Zm0-2.14c.15 0 .28-.05.38-.16.1-.11.15-.24.15-.4a.52.52 0 0 0-.53-.53.52.52 0 0 0-.54.53c0 .16.05.29.15.4.1.1.24.16.4.16Zm0 1.82a.66.66 0 0 0 .6-.37c.07-.12.1-.24.1-.39a.75.75 0 0 0-.09-.37.67.67 0 0 0-.6-.36.69.69 0 0 0-.62.36.75.75 0 0 0-.1.37c0 .15.04.27.1.39a.69.69 0 0 0 .61.37Zm1.96.3a.18.18 0 0 1-.12-.05.18.18 0 0 1-.05-.12v-3.18c0-.05.01-.09.05-.12a.17.17 0 0 1 .12-.05c.05 0 .1.01.13.05.03.03.05.07.05.12v1.54l1.65-1.65a.2.2 0 0 1 .14-.06c.05 0 .1.01.12.05.03.03.04.07.04.12a.2.2 0 0 1-.06.13l-1.24 1.24 1.25 1.7c.05.06.05.12.02.19-.03.06-.08.1-.14.1a.17.17 0 0 1-.15-.09l-1.23-1.66-.4.41v1.16c0 .04-.02.09-.05.12a.17.17 0 0 1-.13.05ZM16.92 39.85a.18.18 0 0 1-.12-.05.17.17 0 0 1-.05-.13v-2.93l-.46.16a.22.22 0 0 1-.09.02.17.17 0 0 1-.17-.17c0-.04 0-.07.02-.1a.16.16 0 0 1 .1-.07l.69-.24.04-.01.05-.01c.05 0 .09.02.12.05.03.04.05.08.05.13v3.17c0 .05-.02.1-.05.13a.17.17 0 0 1-.13.05Zm1.92 0a.87.87 0 0 1-.79-.47 2.58 2.58 0 0 1-.28-1.3c0-.36.05-.68.13-.94.08-.27.2-.47.36-.61a.83.83 0 0 1 .58-.21c.22 0 .42.07.57.21.16.14.28.35.36.61.09.27.13.58.13.94 0 .37-.04.68-.13.95-.08.26-.2.46-.36.6a.83.83 0 0 1-.57.22Zm0-.35c.16 0 .3-.06.4-.18.1-.13.18-.3.23-.5a3.15 3.15 0 0 0 0-1.46 1.2 1.2 0 0 0-.24-.5.5.5 0 0 0-.4-.2.5.5 0 0 0-.4.2c-.1.11-.17.28-.23.5-.05.2-.07.45-.07.72 0 .28.02.52.07.74.06.2.14.37.24.5.1.12.24.18.4.18Zm1.91.35a.18.18 0 0 1-.12-.05.18.18 0 0 1-.05-.13V36.5c0-.05.02-.09.05-.12a.17.17 0 0 1 .12-.06c.05 0 .1.02.13.06.03.03.05.07.05.12v1.54l1.65-1.65a.2.2 0 0 1 .14-.07c.05 0 .1.02.12.05.03.04.04.08.04.13a.2.2 0 0 1-.06.13l-1.23 1.23 1.25 1.71c.04.06.04.12 0 .18-.02.07-.07.1-.13.1a.17.17 0 0 1-.15-.08l-1.23-1.66-.4.4v1.16c0 .05-.02.1-.05.13a.17.17 0 0 1-.13.05Z"/></g><g clip-path="url(#c)" fill="#8596A7"><path d="M42.9 141.96a.94.94 0 0 1-.84-.5c-.2-.34-.3-.81-.3-1.41 0-.4.04-.74.13-1.03.1-.28.22-.5.4-.66a.9.9 0 0 1 .62-.23c.24 0 .45.08.62.24.18.15.3.37.4.66.09.29.13.63.13 1.02 0 .4-.04.74-.14 1.02-.08.29-.21.5-.39.66a.9.9 0 0 1-.62.23Zm0-.38c.18 0 .33-.06.44-.2.12-.13.2-.31.26-.54a3.42 3.42 0 0 0 0-1.58 1.3 1.3 0 0 0-.26-.54.54.54 0 0 0-.43-.2.54.54 0 0 0-.43.2c-.11.13-.2.3-.26.54-.05.23-.08.5-.08.79 0 .3.03.56.08.8.06.22.15.4.26.53.11.14.25.2.43.2Zm2.38.38a.2.2 0 0 1-.14-.05.19.19 0 0 1-.05-.14v-3.18l-.49.17a.24.24 0 0 1-.1.03.19.19 0 0 1-.19-.19c0-.04.01-.07.03-.1a.18.18 0 0 1 .1-.08l.75-.26a.3.3 0 0 1 .05-.01l.04-.01c.06 0 .1.02.14.06.03.03.05.08.05.13v3.44c0 .06-.02.1-.05.14a.19.19 0 0 1-.14.05ZM62.09 141.96a.94.94 0 0 1-.85-.5c-.2-.34-.3-.81-.3-1.41 0-.4.04-.74.13-1.03.1-.28.23-.5.4-.66a.9.9 0 0 1 .62-.23c.25 0 .46.08.62.24.18.15.3.37.4.66.09.29.13.63.13 1.02 0 .4-.04.74-.13 1.02-.1.29-.22.5-.4.66a.9.9 0 0 1-.62.23Zm0-.38c.17 0 .32-.06.43-.2.12-.13.2-.31.26-.54a3.42 3.42 0 0 0 0-1.58 1.3 1.3 0 0 0-.26-.54.54.54 0 0 0-.43-.2.54.54 0 0 0-.43.2c-.11.13-.2.3-.26.54-.05.23-.08.5-.08.79 0 .3.03.56.08.8.06.22.15.4.26.53.11.14.26.2.43.2Zm1.94.38a.2.2 0 0 1-.14-.05.19.19 0 0 1-.05-.14c0-.05.01-.1.05-.13l1.48-1.75c.08-.09.15-.19.2-.3a.8.8 0 0 0-.13-.87.67.67 0 0 0-.52-.21.69.69 0 0 0-.38.1.76.76 0 0 0-.35.68c0 .05-.02.1-.06.13a.19.19 0 0 1-.13.05.2.2 0 0 1-.14-.05.18.18 0 0 1-.05-.13 1.12 1.12 0 0 1 .54-1c.17-.1.36-.15.57-.15.21 0 .4.05.56.15.17.1.3.23.39.4.1.17.14.37.14.6 0 .16-.04.3-.12.45-.07.14-.16.27-.26.39l-1.25 1.45h1.53c.05 0 .1.02.13.06a.18.18 0 0 1 0 .27.18.18 0 0 1-.13.05h-1.88ZM82.4 141.96a.94.94 0 0 1-.85-.5c-.2-.34-.3-.81-.3-1.41 0-.4.04-.74.13-1.03.1-.28.22-.5.4-.66a.9.9 0 0 1 .62-.23c.25 0 .45.08.62.24.18.15.3.37.4.66.09.29.13.63.13 1.02 0 .4-.04.74-.14 1.02-.08.29-.21.5-.39.66a.9.9 0 0 1-.62.23Zm0-.38c.17 0 .32-.06.43-.2.12-.13.2-.31.26-.54a3.42 3.42 0 0 0 0-1.58 1.3 1.3 0 0 0-.26-.54.54.54 0 0 0-.43-.2.54.54 0 0 0-.43.2c-.11.13-.2.3-.26.54-.05.23-.08.5-.08.79 0 .3.03.56.08.8.06.22.15.4.26.53.11.14.25.2.43.2Zm2.86.4c-.22 0-.43-.04-.61-.14s-.32-.24-.43-.41a1.1 1.1 0 0 1-.15-.59c0-.05.01-.1.05-.14a.16.16 0 0 1 .13-.06c.05 0 .1.02.13.06.03.04.05.09.05.14a.78.78 0 0 0 .82.8c.25 0 .45-.07.6-.21a.75.75 0 0 0 .21-.56c0-.16-.03-.3-.1-.41a.77.77 0 0 0-.67-.38.19.19 0 0 1-.19-.2c0-.05.02-.1.05-.13a.18.18 0 0 1 .13-.05.6.6 0 0 0 .32-.08c.1-.06.17-.14.23-.23.06-.1.09-.2.09-.32a.57.57 0 0 0-.18-.43.63.63 0 0 0-.47-.17c-.2 0-.37.06-.5.17a.54.54 0 0 0-.2.43.2.2 0 0 1-.06.14.16.16 0 0 1-.13.05.17.17 0 0 1-.13-.05.2.2 0 0 1-.05-.14c0-.18.05-.34.14-.48.1-.15.22-.26.38-.34a1.17 1.17 0 0 1 1.06 0c.16.08.28.2.36.34.1.14.14.3.14.48 0 .11-.03.22-.08.33a1.03 1.03 0 0 1-.5.47c.25.07.44.2.56.4.12.18.18.38.18.6a1.08 1.08 0 0 1-.58.97c-.18.1-.38.15-.6.15ZM102.33 141.96a.94.94 0 0 1-.85-.5c-.2-.34-.3-.81-.3-1.41 0-.4.05-.74.14-1.03.09-.28.22-.5.4-.66a.9.9 0 0 1 .61-.23c.25 0 .46.08.63.24.17.15.3.37.39.66.1.29.14.63.14 1.02 0 .4-.05.74-.14 1.02-.09.29-.22.5-.4.66a.9.9 0 0 1-.62.23Zm0-.38c.18 0 .32-.06.44-.2.11-.13.2-.31.25-.54a3.4 3.4 0 0 0 0-1.58 1.29 1.29 0 0 0-.26-.54.54.54 0 0 0-.43-.2.54.54 0 0 0-.43.2c-.1.13-.2.3-.25.54a3.47 3.47 0 0 0 0 1.58c.06.23.14.41.25.54.12.14.26.2.43.2Zm3.6.38a.18.18 0 0 1-.13-.05.19.19 0 0 1-.06-.14v-.72H104a.18.18 0 0 1-.17-.1.18.18 0 0 1 .02-.2l1.94-2.53c.04-.06.09-.08.15-.08.05 0 .1.02.13.06.04.03.05.08.05.13v2.38h.39c.05 0 .1 0 .13.03.04.03.06.08.06.14 0 .04-.02.08-.06.12a.19.19 0 0 1-.13.05h-.39v.72c0 .06-.01.1-.05.14a.19.19 0 0 1-.14.05Zm-.19-1.25v-1.87l-1.43 1.87h1.43ZM122.27 141.96a.94.94 0 0 1-.85-.5c-.2-.34-.3-.81-.3-1.41 0-.4.04-.74.13-1.03.1-.28.22-.5.4-.66a.9.9 0 0 1 .62-.23c.24 0 .45.08.62.24.17.15.3.37.4.66.08.29.13.63.13 1.02 0 .4-.05.74-.14 1.02-.08.29-.22.5-.39.66a.9.9 0 0 1-.62.23Zm0-.38c.17 0 .32-.06.43-.2.12-.13.2-.31.26-.54a3.45 3.45 0 0 0 0-1.58 1.29 1.29 0 0 0-.26-.54.54.54 0 0 0-.43-.2.54.54 0 0 0-.43.2c-.12.13-.2.3-.26.54-.05.23-.08.5-.08.79 0 .3.03.56.08.8.06.22.14.4.26.53.11.14.25.2.43.2Zm2.95.38a1.23 1.23 0 0 1-1.08-.6c-.1-.2-.16-.4-.16-.64 0-.06.02-.1.06-.14a.18.18 0 0 1 .13-.05c.05 0 .1.02.14.05.04.04.05.08.05.14 0 .16.04.31.12.44.07.13.17.23.3.3.13.08.28.12.44.12a.82.82 0 0 0 .75-.42.87.87 0 0 0 .11-.44.82.82 0 0 0-.42-.75.86.86 0 0 0-.44-.11h-.86a.18.18 0 0 1-.13-.05.2.2 0 0 1-.06-.14v-1.34c0-.05.02-.1.06-.13a.17.17 0 0 1 .13-.06h1.72c.05 0 .1.02.13.06.04.03.06.08.06.13a.2.2 0 0 1-.05.14.19.19 0 0 1-.14.05h-1.53v.96h.67a1.22 1.22 0 0 1 1.24 1.24 1.23 1.23 0 0 1-.6 1.08c-.19.1-.4.16-.64.16ZM142.57 141.96a.94.94 0 0 1-.85-.5c-.2-.34-.3-.81-.3-1.41 0-.4.05-.74.14-1.03.09-.28.22-.5.4-.66a.9.9 0 0 1 .61-.23c.25 0 .46.08.63.24.17.15.3.37.4.66.08.29.13.63.13 1.02 0 .4-.05.74-.14 1.02-.09.29-.22.5-.39.66a.9.9 0 0 1-.63.23Zm0-.38c.18 0 .33-.06.44-.2.11-.13.2-.31.25-.54a3.45 3.45 0 0 0 0-1.58 1.3 1.3 0 0 0-.25-.54.54.54 0 0 0-.44-.2.54.54 0 0 0-.42.2c-.12.13-.2.3-.26.54-.05.23-.08.5-.08.79 0 .3.03.56.08.8.06.22.14.4.26.53.1.14.25.2.42.2Zm2.87.38c-.22 0-.42-.05-.59-.14-.17-.1-.31-.24-.41-.41-.1-.18-.15-.38-.15-.6 0-.2.05-.4.15-.58v-.01l.03-.05 1.17-1.92c.05-.07.1-.1.17-.1.08 0 .13.03.17.1.04.05.04.12 0 .18l-.77 1.25.23-.02c.22 0 .42.06.59.16.17.1.3.23.4.4.1.18.16.38.16.6a1.15 1.15 0 0 1-.56 1c-.17.1-.37.14-.59.14Zm0-.35c.15 0 .28-.03.4-.1a.74.74 0 0 0 .28-.29.8.8 0 0 0 .1-.4.8.8 0 0 0-.1-.42.74.74 0 0 0-.28-.28.75.75 0 0 0-.4-.1.76.76 0 0 0-.68.4.82.82 0 0 0-.1.4.76.76 0 0 0 .78.8ZM162.89 141.96a.94.94 0 0 1-.85-.5c-.2-.34-.3-.81-.3-1.41 0-.4.04-.74.13-1.03.09-.28.22-.5.4-.66a.9.9 0 0 1 .62-.23c.24 0 .45.08.62.24.17.15.3.37.4.66.08.29.13.63.13 1.02 0 .4-.05.74-.14 1.02-.09.29-.22.5-.39.66a.9.9 0 0 1-.62.23Zm0-.38c.17 0 .32-.06.43-.2.12-.13.2-.31.25-.54a3.45 3.45 0 0 0 0-1.58 1.29 1.29 0 0 0-.25-.54.54.54 0 0 0-.43-.2.54.54 0 0 0-.43.2c-.12.13-.2.3-.26.54-.05.23-.08.5-.08.79 0 .3.03.56.08.8.06.22.15.4.26.53.1.14.25.2.43.2Zm1.9.38a.2.2 0 0 1-.14-.05.19.19 0 0 1-.05-.14l.04-.12 1.46-3.13h-1.69a.2.2 0 0 1-.14-.05.2.2 0 0 1-.05-.14c0-.05.02-.1.05-.13a.19.19 0 0 1 .14-.06h2c.05 0 .1.02.13.06.03.03.05.08.05.13v.05l-.03.05-1.6 3.42c-.03.08-.1.11-.17.11ZM182.82 141.96a.94.94 0 0 1-.85-.5c-.2-.34-.3-.81-.3-1.41 0-.4.04-.74.13-1.03.1-.28.23-.5.4-.66a.9.9 0 0 1 .62-.23c.25 0 .46.08.63.24.17.15.3.37.39.66.09.29.13.63.13 1.02 0 .4-.04.74-.13 1.02-.1.29-.22.5-.4.66a.9.9 0 0 1-.62.23Zm0-.38c.18 0 .32-.06.43-.2.12-.13.2-.31.26-.54a3.45 3.45 0 0 0 0-1.58 1.3 1.3 0 0 0-.26-.54.54.54 0 0 0-.43-.2.54.54 0 0 0-.43.2c-.11.13-.2.3-.25.54a3.41 3.41 0 0 0 0 1.58c.05.23.14.41.25.54.11.14.26.2.43.2Zm2.85.4c-.22 0-.41-.05-.59-.15a1.15 1.15 0 0 1-.55-1.02c0-.22.05-.41.15-.59.11-.17.25-.3.43-.4a.87.87 0 0 1-.38-.76.9.9 0 0 1 .94-.93c.18 0 .34.04.49.12a.9.9 0 0 1 .46.8.9.9 0 0 1-.12.45.91.91 0 0 1-.28.32 1.1 1.1 0 0 1 .59 1c0 .22-.06.41-.16.59a1.11 1.11 0 0 1-.98.57Zm0-2.32c.16 0 .3-.05.4-.17a.62.62 0 0 0 .18-.44c0-.16-.05-.3-.16-.4a.57.57 0 0 0-.42-.17.56.56 0 0 0-.58.57c0 .18.05.32.16.44s.25.17.42.17Zm0 1.98a.7.7 0 0 0 .39-.1.85.85 0 0 0 .37-.72.82.82 0 0 0-.1-.4.73.73 0 0 0-.66-.4.74.74 0 0 0-.66.4.82.82 0 0 0-.1.4c0 .15.03.29.1.41.06.13.15.23.27.3.11.07.24.11.4.11ZM202.75 141.96a.94.94 0 0 1-.85-.5c-.2-.34-.3-.81-.3-1.41 0-.4.05-.74.14-1.03.09-.28.22-.5.4-.66a.9.9 0 0 1 .61-.23c.25 0 .46.08.63.24.17.15.3.37.39.66.1.29.14.63.14 1.02 0 .4-.05.74-.14 1.02-.09.29-.22.5-.4.66a.9.9 0 0 1-.62.23Zm0-.38c.18 0 .32-.06.44-.2.11-.13.2-.31.25-.54a3.4 3.4 0 0 0 0-1.58 1.29 1.29 0 0 0-.26-.54.54.54 0 0 0-.43-.2.54.54 0 0 0-.43.2c-.1.13-.2.3-.25.54-.06.23-.08.5-.08.79 0 .3.02.56.08.8.06.22.14.4.25.53.12.14.26.2.43.2Zm2.77-3.44c.22 0 .42.05.59.15.17.1.3.23.4.4.1.18.16.38.16.6 0 .21-.05.4-.15.58v.01l-.03.05-1.17 1.92c-.05.07-.1.1-.17.1a.19.19 0 0 1-.18-.08.18.18 0 0 1 0-.2l.78-1.25-.23.02a1.13 1.13 0 0 1-1-.56 1.2 1.2 0 0 1-.15-.6 1.1 1.1 0 0 1 .56-1c.17-.1.37-.14.59-.14Zm0 .35a.75.75 0 0 0-.69.39.82.82 0 0 0-.1.4c0 .16.04.3.1.42a.8.8 0 0 0 .29.29c.12.07.25.1.4.1.15 0 .28-.03.4-.1a.8.8 0 0 0 .38-.7.81.81 0 0 0-.1-.41.75.75 0 0 0-.68-.39ZM223.21 141.96a.2.2 0 0 1-.13-.05.19.19 0 0 1-.06-.14v-3.18l-.49.17a.25.25 0 0 1-.1.03.19.19 0 0 1-.13-.05.18.18 0 0 1-.06-.14c0-.04.01-.07.03-.1a.18.18 0 0 1 .1-.08l.75-.26.05-.01.05-.01c.05 0 .1.02.13.06.04.03.05.08.05.13v3.44c0 .06-.01.1-.05.14a.19.19 0 0 1-.14.05Zm2.08 0a.94.94 0 0 1-.85-.5c-.2-.34-.3-.81-.3-1.41 0-.4.04-.74.13-1.03.1-.28.22-.5.4-.66a.9.9 0 0 1 .62-.23c.24 0 .45.08.62.24.18.15.3.37.4.66.08.29.13.63.13 1.02 0 .4-.05.74-.14 1.02-.09.29-.22.5-.39.66a.9.9 0 0 1-.62.23Zm0-.38c.17 0 .32-.06.43-.2.12-.13.2-.31.26-.54a3.45 3.45 0 0 0 0-1.58 1.3 1.3 0 0 0-.26-.54.54.54 0 0 0-.43-.2.54.54 0 0 0-.43.2c-.12.13-.2.3-.26.54-.05.23-.08.5-.08.79 0 .3.03.56.08.8.06.22.15.4.26.53.11.14.25.2.43.2ZM243.9 141.96a.2.2 0 0 1-.14-.05.19.19 0 0 1-.05-.14v-3.18l-.5.17a.24.24 0 0 1-.09.03.18.18 0 0 1-.19-.19c0-.04 0-.07.03-.1a.19.19 0 0 1 .1-.08l.75-.26a.3.3 0 0 1 .04-.01l.05-.01c.06 0 .1.02.14.06.03.03.05.08.05.13v3.44c0 .06-.02.1-.05.14a.19.19 0 0 1-.14.05Zm1.85 0a.2.2 0 0 1-.14-.05.19.19 0 0 1-.05-.14v-3.18l-.5.17a.24.24 0 0 1-.1.03.18.18 0 0 1-.13-.05.18.18 0 0 1-.05-.14c0-.04 0-.07.02-.1a.18.18 0 0 1 .1-.08l.75-.26a.3.3 0 0 1 .05-.01l.05-.01c.06 0 .1.02.13.06.04.03.06.08.06.13v3.44c0 .06-.02.1-.06.14a.19.19 0 0 1-.13.05ZM263.46 141.96a.2.2 0 0 1-.14-.05.19.19 0 0 1-.05-.14v-3.18l-.5.17a.24.24 0 0 1-.09.03.19.19 0 0 1-.14-.05.18.18 0 0 1-.05-.14c0-.04 0-.07.02-.1a.18.18 0 0 1 .1-.08l.75-.26.05-.01.05-.01c.06 0 .1.02.14.06.03.03.05.08.05.13v3.44c0 .06-.02.1-.05.14a.19.19 0 0 1-.14.05Zm1.22 0a.2.2 0 0 1-.14-.05.19.19 0 0 1-.06-.14c0-.05.02-.1.06-.13l1.48-1.75c.08-.09.15-.19.2-.3a.8.8 0 0 0-.13-.87.67.67 0 0 0-.52-.21.7.7 0 0 0-.38.1.75.75 0 0 0-.35.68c0 .05-.02.1-.06.13a.18.18 0 0 1-.13.05.2.2 0 0 1-.14-.05.18.18 0 0 1-.06-.13c0-.22.05-.42.15-.59a1.1 1.1 0 0 1 .97-.56c.21 0 .4.05.56.15.17.1.3.23.39.4.1.17.14.37.14.6 0 .16-.04.3-.12.45-.07.14-.16.27-.26.39l-1.25 1.45h1.53c.05 0 .1.02.13.06a.18.18 0 0 1 0 .27.18.18 0 0 1-.13.05h-1.88ZM283.4 141.96a.2.2 0 0 1-.15-.05.19.19 0 0 1-.05-.14v-3.18l-.49.17a.25.25 0 0 1-.1.03.18.18 0 0 1-.19-.19c0-.04.01-.07.03-.1a.18.18 0 0 1 .1-.08l.75-.26.05-.01.05-.01c.05 0 .1.02.13.06.03.03.05.08.05.13v3.44c0 .06-.02.1-.05.14a.19.19 0 0 1-.14.05Zm2.14.03c-.23 0-.44-.05-.62-.15a1.14 1.14 0 0 1-.58-1c0-.05.02-.1.05-.14a.16.16 0 0 1 .13-.06c.06 0 .1.02.13.06.04.04.05.09.05.14a.78.78 0 0 0 .4.7c.13.06.27.1.42.1.26 0 .46-.07.6-.21a.75.75 0 0 0 .21-.56c0-.16-.03-.3-.1-.41a.76.76 0 0 0-.68-.38.18.18 0 0 1-.19-.2c.01-.05.03-.1.06-.13a.18.18 0 0 1 .14-.05.6.6 0 0 0 .31-.08c.1-.06.18-.14.23-.23.06-.1.1-.2.1-.32a.57.57 0 0 0-.18-.43.63.63 0 0 0-.47-.17c-.2 0-.38.06-.51.17a.53.53 0 0 0-.2.43.2.2 0 0 1-.06.14.16.16 0 0 1-.12.05.17.17 0 0 1-.14-.05.21.21 0 0 1-.04-.14c0-.18.04-.34.13-.48.1-.15.22-.26.38-.34a1.16 1.16 0 0 1 1.07 0c.15.08.27.2.36.34.09.14.13.3.13.48 0 .11-.02.22-.08.33a1.03 1.03 0 0 1-.5.47c.25.07.44.2.56.4.12.18.18.38.18.6a1.07 1.07 0 0 1-.58.97c-.18.1-.37.15-.6.15ZM303.32 141.96a.2.2 0 0 1-.13-.05.19.19 0 0 1-.06-.14v-3.18l-.49.17a.24.24 0 0 1-.1.03.19.19 0 0 1-.13-.05.18.18 0 0 1-.05-.14c0-.04 0-.07.02-.1a.18.18 0 0 1 .1-.08l.75-.26a.3.3 0 0 1 .05-.01l.05-.01c.06 0 .1.02.13.06.04.03.06.08.06.13v3.44c0 .06-.02.1-.06.14a.19.19 0 0 1-.13.05Zm2.88 0a.18.18 0 0 1-.13-.05.19.19 0 0 1-.06-.14v-.72h-1.75a.18.18 0 0 1-.17-.1.18.18 0 0 1 .02-.2l1.94-2.53c.04-.06.09-.08.15-.08s.1.02.13.06c.04.03.06.08.06.13v2.38h.38c.05 0 .1 0 .13.03.04.03.06.08.06.14 0 .04-.02.08-.06.12a.18.18 0 0 1-.13.05h-.38v.72c0 .06-.02.1-.06.14a.19.19 0 0 1-.13.05Zm-.19-1.25v-1.87l-1.43 1.87H306ZM323.63 141.96a.2.2 0 0 1-.13-.05.19.19 0 0 1-.06-.14v-3.18l-.49.17a.25.25 0 0 1-.1.03.19.19 0 0 1-.13-.05.18.18 0 0 1-.06-.14c0-.04.01-.07.03-.1a.18.18 0 0 1 .1-.08l.75-.26.05-.01.05-.01c.05 0 .1.02.13.06.04.03.05.08.05.13v3.44c0 .06-.01.1-.05.14a.19.19 0 0 1-.14.05Zm2.24 0a1.23 1.23 0 0 1-1.08-.6c-.1-.2-.16-.4-.16-.64 0-.06.02-.1.05-.14a.18.18 0 0 1 .14-.05c.05 0 .1.02.13.05.04.04.06.08.06.14a.84.84 0 0 0 .42.75c.13.07.27.11.44.11a.83.83 0 0 0 .86-.86.83.83 0 0 0-.86-.86H325a.18.18 0 0 1-.19-.2v-1.33c0-.05.02-.1.06-.13a.17.17 0 0 1 .13-.06h1.72c.05 0 .1.02.13.06.04.03.06.08.06.13a.2.2 0 0 1-.06.14.19.19 0 0 1-.13.05h-1.53v.96h.67a1.22 1.22 0 0 1 1.24 1.24 1.23 1.23 0 0 1-.6 1.08c-.2.1-.4.16-.64.16ZM343.94 141.96a.2.2 0 0 1-.13-.05.19.19 0 0 1-.06-.14v-3.18l-.49.17a.24.24 0 0 1-.1.03.18.18 0 0 1-.13-.05.18.18 0 0 1-.05-.14c0-.04 0-.07.02-.1a.18.18 0 0 1 .1-.08l.75-.26a.3.3 0 0 1 .05-.01l.05-.01c.05 0 .1.02.13.06.04.03.06.08.06.13v3.44c0 .06-.02.1-.06.14a.19.19 0 0 1-.14.05Zm2.15 0c-.22 0-.42-.05-.6-.14-.16-.1-.3-.24-.4-.41-.1-.18-.15-.38-.15-.6 0-.2.05-.4.15-.58v-.01l.03-.05 1.17-1.92c.04-.07.1-.1.17-.1.08 0 .13.03.17.1.04.05.04.12 0 .18l-.77 1.25.23-.02c.22 0 .41.06.59.16.17.1.3.23.4.4.1.18.15.38.15.6a1.15 1.15 0 0 1-.55 1c-.18.1-.37.14-.59.14Zm0-.35c.15 0 .28-.03.4-.1a.74.74 0 0 0 .28-.29c.07-.12.1-.25.1-.4a.82.82 0 0 0-.1-.42.74.74 0 0 0-.28-.28.75.75 0 0 0-.4-.1.75.75 0 0 0-.4.1.75.75 0 0 0-.28.28.8.8 0 0 0-.1.41c0 .16.03.3.1.41a.75.75 0 0 0 .67.39Z"/></g><path d="M325.55 157a.19.19 0 0 1-.13-.05.19.19 0 0 1-.06-.13v-3.44c0-.06.02-.1.06-.14a.18.18 0 0 1 .13-.05h.88a2 2 0 0 1 .77.14 1.7 1.7 0 0 1 1 1 2 2 0 0 1 .14.76c0 .28-.05.54-.14.78a1.79 1.79 0 0 1-1 1c-.23.1-.49.14-.77.14h-.88Zm.2-.34h.68a1.47 1.47 0 0 0 1.33-.76c.14-.23.2-.5.2-.8 0-.3-.06-.58-.2-.81a1.43 1.43 0 0 0-.53-.56c-.23-.13-.5-.2-.8-.2h-.69v3.13Zm4.54.37c-.27 0-.5-.06-.7-.17a1.3 1.3 0 0 1-.66-1.19c0-.27.06-.5.17-.7.1-.2.26-.37.45-.49.2-.11.41-.17.66-.17a1.18 1.18 0 0 1 1.08.63c.1.2.15.43.15.68 0 .06-.01.1-.05.13a.18.18 0 0 1-.12.04h-1.98c.02.18.07.34.16.47a.96.96 0 0 0 .84.43c.12 0 .23-.02.35-.06a.9.9 0 0 0 .29-.15.2.2 0 0 1 .12-.05c.05 0 .09.01.12.04.04.04.06.08.06.13 0 .04-.01.08-.05.11a1.46 1.46 0 0 1-.89.32Zm-.08-2.38a.86.86 0 0 0-.62.23.97.97 0 0 0-.29.6h1.79a.95.95 0 0 0-.27-.6.8.8 0 0 0-.6-.23Zm2.97 2.38c-.26 0-.5-.06-.7-.18a1.34 1.34 0 0 1-.64-1.18c0-.26.06-.5.17-.7a1.26 1.26 0 0 1 1.12-.66c.4 0 .74.15.99.47.04.04.05.08.04.12-.01.05-.04.08-.08.12a.16.16 0 0 1-.13.03.2.2 0 0 1-.1-.08.91.91 0 0 0-.72-.32.89.89 0 0 0-.49.13.91.91 0 0 0-.32.36 1.2 1.2 0 0 0-.11.53c0 .2.04.37.12.53.08.15.2.27.34.36.15.09.32.13.5.13.27 0 .48-.07.64-.21a.22.22 0 0 1 .12-.05c.04 0 .08 0 .12.03.04.04.06.08.06.13 0 .04 0 .08-.04.11-.24.22-.54.33-.9.33Zm3.25-.02a.2.2 0 0 1-.14-.06.19.19 0 0 1-.05-.13c0-.05.01-.1.05-.14l1.48-1.75c.08-.09.15-.18.2-.29a.8.8 0 0 0-.13-.87.67.67 0 0 0-.52-.22.69.69 0 0 0-.38.1.75.75 0 0 0-.26.29.83.83 0 0 0-.1.4c0 .04-.01.09-.05.12a.18.18 0 0 1-.13.06.2.2 0 0 1-.14-.06.18.18 0 0 1-.05-.13c0-.22.05-.41.14-.59a1.1 1.1 0 0 1 .97-.56c.21 0 .4.05.56.15.17.1.3.23.39.4.1.18.14.38.14.6 0 .16-.04.31-.12.46-.07.14-.16.27-.26.38l-1.25 1.46h1.53c.05 0 .1.02.13.05a.18.18 0 0 1 0 .27.18.18 0 0 1-.13.06h-1.88Zm3.7 0a.94.94 0 0 1-.86-.51c-.2-.34-.3-.81-.3-1.41 0-.4.05-.74.14-1.02.09-.29.22-.5.4-.66a.9.9 0 0 1 .61-.23c.25 0 .46.08.63.23.17.16.3.38.39.66.1.29.14.63.14 1.02 0 .4-.05.74-.14 1.03-.09.28-.22.5-.4.66a.9.9 0 0 1-.62.23Zm0-.38c.17 0 .31-.07.43-.2.11-.13.2-.32.25-.55a3.45 3.45 0 0 0 0-1.57 1.29 1.29 0 0 0-.26-.55.54.54 0 0 0-.43-.2.54.54 0 0 0-.43.2c-.1.13-.2.31-.25.54-.06.23-.08.5-.08.79 0 .3.02.56.08.8.06.23.14.4.25.54.12.13.26.2.43.2Zm2.37.38a.2.2 0 0 1-.14-.06.19.19 0 0 1-.06-.13v-3.18l-.48.17a.24.24 0 0 1-.1.02.19.19 0 0 1-.14-.05.18.18 0 0 1-.05-.13c0-.04 0-.08.02-.11a.18.18 0 0 1 .1-.07l.75-.26.05-.02h.05c.06 0 .1.01.13.05.04.04.06.08.06.13v3.45c0 .05-.02.1-.06.13a.19.19 0 0 1-.13.06Zm2.04-3.83c.22 0 .42.05.6.15a1.15 1.15 0 0 1 .56 1c-.01.21-.06.4-.16.58v.02a2.1 2.1 0 0 1-.03.05l-1.17 1.92c-.04.07-.1.1-.17.1a.2.2 0 0 1-.17-.1.19.19 0 0 1 0-.19l.77-1.25-.23.02a1.13 1.13 0 0 1-1-.56 1.2 1.2 0 0 1-.14-.59c0-.22.04-.42.14-.59a1.14 1.14 0 0 1 1-.56Zm0 .35a.75.75 0 0 0-.68.39.81.81 0 0 0-.1.41.8.8 0 0 0 .38.7c.12.07.25.1.4.1.15 0 .29-.03.4-.1a.8.8 0 0 0 .39-.7.82.82 0 0 0-.1-.4.76.76 0 0 0-.69-.4Z" fill="#8596A7"/><path d="M42.27 80.86a1.5 1.5 0 0 1 3 0v53.03h-3V80.86ZM62.2 103.43a1.5 1.5 0 0 1 3 0v30.46h-3v-30.46ZM82.5 122.23a1.5 1.5 0 0 1 3.02 0v11.66H82.5v-11.66ZM102.44 77.1a1.5 1.5 0 0 1 3.01 0v56.8h-3V77.1ZM122.75 99.3a1.5 1.5 0 0 1 3.01 0v34.6h-3V99.3ZM142.69 88.38a1.5 1.5 0 1 1 3 0v45.51h-3V88.4ZM163 122.23a1.5 1.5 0 0 1 3 0v11.66h-3v-11.66ZM182.93 62.06a1.5 1.5 0 1 1 3 0v71.83h-3V62.06ZM203.24 129.76a1.5 1.5 0 0 1 3 0v4.13h-3v-4.13ZM223.17 99.3a1.5 1.5 0 1 1 3.01 0v34.6h-3V99.3ZM243.48 88.38a1.5 1.5 0 0 1 3.01 0v45.51h-3V88.4ZM263.42 114.71a1.5 1.5 0 0 1 3 0v19.18h-3v-19.18ZM283.35 80.86a1.5 1.5 0 1 1 3 0v53.03h-3V80.86ZM303.28 103.43a1.5 1.5 0 0 1 3.01 0v30.46h-3v-30.46ZM323.6 122.23a1.5 1.5 0 0 1 3 0v11.66h-3v-11.66ZM343.53 77.1a1.5 1.5 0 0 1 3 0v56.8h-3V77.1Z" fill="#01669F"/></g><defs><clipPath id="a"><path fill="#fff" d="M0 0h353v170H0z"/></clipPath><clipPath id="b"><path fill="#fff" transform="translate(14.43 36.1)" d="M0 0h8.65v100.04H0z"/></clipPath><clipPath id="c"><path fill="#fff" transform="translate(41.51 138.03)" d="M0 0h607.41v4.14H0z"/></clipPath></defs></svg>