<svg width="39" height="39" viewBox="0 0 39 39" fill="none" xmlns="http://www.w3.org/2000/svg">
<path d="M38.9999 16.3401C38.9999 16.2058 38.9481 16.0591 38.8654 15.9543L33.7993 9.55116V0.629032C33.7993 0.281681 33.5127 0 33.1586 0H5.84136C5.48725 0 5.20067 0.281681 5.20067 0.629032V9.55116L0.134546 15.9543C0.0517683 16.0587 0 16.2061 0 16.3401V38.371C0 38.3773 0.00345976 38.3826 0.00365197 38.389C0.0057022 38.4597 0.0166581 38.5305 0.0437596 38.5989C0.0449129 38.6018 0.0472194 38.604 0.0484367 38.6069C0.0548437 38.6225 0.0657355 38.6346 0.0733598 38.6495C0.100013 38.7018 0.131727 38.7496 0.170874 38.7917C0.187404 38.8094 0.205215 38.8239 0.223667 38.8398C0.263519 38.874 0.306446 38.9022 0.353601 38.9258C0.374616 38.9363 0.393901 38.9473 0.416197 38.9556C0.487314 38.9819 0.561827 39 0.640761 39H38.3593C38.4382 39 38.5127 38.9819 38.5837 38.9555C38.606 38.9473 38.6254 38.9362 38.6465 38.9256C38.6936 38.9021 38.7364 38.8739 38.7763 38.8398C38.7947 38.824 38.8125 38.8094 38.8291 38.7917C38.8681 38.7496 38.8998 38.702 38.9264 38.6498C38.9341 38.6348 38.9451 38.6225 38.9516 38.6068C38.9527 38.6039 38.9551 38.6018 38.9562 38.5989C38.9833 38.5304 38.9943 38.4595 38.9963 38.3888C38.9965 38.3825 39 38.3773 39 38.371V16.3401H38.9999ZM37.7185 17.5054V36.9409L25.1354 25.6161L37.7185 17.5054ZM37.4276 16.1881L33.7993 18.5268V11.6022L37.4276 16.1881ZM32.5179 1.25806V19.3527L24.0959 24.7812C21.0349 22.8288 17.9461 22.8288 14.9033 24.7807L6.48212 19.3527V1.25806H32.5179ZM1.28146 17.5054L13.8647 25.6161L1.28146 36.9409V17.5054ZM5.20067 18.5268L1.57233 16.1881L5.20067 11.6022V18.5268ZM2.28754 37.7419L15.3067 26.025C18.1197 24.0875 20.8634 24.0875 23.6939 26.0256L36.7125 37.7419H2.28754Z" fill="black"/>
<path d="M11.3841 13.1146V18.1836C11.3834 18.7872 11.3822 19.5384 11.9103 20.0572C12.2238 20.3652 12.6605 20.5216 13.2086 20.5216H15.7001C16.7061 20.5216 17.5246 19.7178 17.5246 18.7301C17.5246 17.9524 17.0171 17.2886 16.2814 17.0417V13.8411C16.6351 14.0313 16.9682 14.3757 17.3926 14.8357C18.1303 15.6359 19.0488 16.6316 20.633 16.6316C22.8416 16.6316 24.0091 15.4863 24.0091 13.3194V12.2278H24.2494C25.5858 12.2278 26.6733 11.1601 26.6733 9.848C26.6733 8.5359 25.5858 7.46825 24.2494 7.46825H24.0091V6.37882C24.0091 4.21036 22.8416 3.06445 20.633 3.06445C19.0487 3.06445 18.1302 4.06084 17.3919 4.86154C16.7281 5.58241 16.2876 6.02405 15.6407 6.02405H13.4026C11.254 6.02405 9.50586 7.73948 9.50586 9.848C9.5058 11.2318 10.2603 12.4426 11.3841 13.1146ZM15.7 19.2635H13.2085C13.0984 19.2635 12.9013 19.2513 12.8169 19.1683C12.6642 19.0184 12.6648 18.5368 12.6655 18.1851V13.6033C12.9044 13.6485 13.1503 13.6741 13.4025 13.6741H14.9999V17.5675C14.9999 17.9148 15.3459 18.1965 15.7001 18.1965C15.9998 18.1965 16.2432 18.4358 16.2432 18.73C16.2432 19.0242 15.9997 19.2635 15.7 19.2635ZM24.2493 8.72631C24.8794 8.72631 25.3918 9.22941 25.3918 9.848C25.3918 10.4666 24.8794 10.9697 24.2493 10.9697H24.0091V8.72631H24.2493ZM22.7277 6.37882V13.3194C22.7277 14.6784 22.191 15.2808 20.9164 15.3579V4.33812C22.191 4.4153 22.7277 5.01842 22.7277 6.37882ZM18.3423 5.70557C18.7676 5.24411 19.1571 4.82222 19.635 4.56872V15.1275C19.1571 14.8743 18.7676 14.4526 18.3423 13.9914C17.7868 13.3894 17.1663 12.7296 16.2813 12.5036V7.19462C17.1665 6.96842 17.7867 6.30812 18.3423 5.70557ZM13.4025 7.28211H14.9999V12.416H13.4025C11.9603 12.416 10.7872 11.264 10.7872 9.848C10.7872 8.43331 11.9603 7.28211 13.4025 7.28211Z" fill="black"/>
<path d="M27.9366 10.4773H29.4476C29.8017 10.4773 30.0883 10.1956 30.0883 9.84827C30.0883 9.50092 29.8017 9.21924 29.4476 9.21924H27.9366C27.5825 9.21924 27.2959 9.50092 27.2959 9.84827C27.2959 10.1956 27.5824 10.4773 27.9366 10.4773Z" fill="black"/>
<path d="M28.1477 8.44055C28.3079 8.44055 28.468 8.38186 28.5925 8.26423L29.6793 7.23438C29.934 6.99295 29.9415 6.5949 29.6956 6.34486C29.4497 6.09482 29.0449 6.0884 28.7896 6.32888L27.7028 7.35874C27.4481 7.60016 27.4406 7.99821 27.6865 8.24825C27.8123 8.37632 27.98 8.44055 28.1477 8.44055Z" fill="black"/>
<path d="M28.5923 11.4325C28.3376 11.1911 27.9322 11.1979 27.6863 11.4482C27.441 11.6979 27.4479 12.0963 27.7025 12.3374L28.7894 13.3675C28.9139 13.4855 29.074 13.5442 29.2342 13.5442C29.4019 13.5442 29.5695 13.48 29.6953 13.3519C29.9406 13.1022 29.9337 12.7038 29.679 12.4627L28.5923 11.4325Z" fill="black"/>
</svg>
