<svg width="29" height="29" viewBox="0 0 29 29" fill="none" xmlns="http://www.w3.org/2000/svg">
<g clip-path="url(#clip0_147_1464)">
<path d="M21.9913 0H2.65789C1.32388 0.00157084 0.242782 1.08267 0.241211 2.41668V17.8834C0.24109 18.9857 0.986877 19.9483 2.0542 20.2237L2.29587 19.288C1.65527 19.1228 1.20764 18.545 1.20788 17.8834V2.41668C1.20788 1.61585 1.85706 0.966671 2.65789 0.966671H21.9913C22.7921 0.966671 23.4413 1.61585 23.4413 2.41668V2.90001H24.408V2.41668C24.4064 1.08267 23.3253 0.00157084 21.9913 0Z" fill="black"/>
<path d="M3.14147 1.93311H2.1748V2.89978H3.14147V1.93311Z" fill="black"/>
<path d="M5.07507 1.93311H4.1084V2.89978H5.07507V1.93311Z" fill="black"/>
<path d="M7.00866 1.93311H6.04199V2.89978H7.00866V1.93311Z" fill="black"/>
<path d="M28.617 26.7251L24.0326 22.1407C24.2734 21.7108 24.466 21.2556 24.6068 20.7835H25.3753V19.8168H24.8146C24.9966 18.6468 24.8563 17.4493 24.4086 16.3532V11.6001H23.4419V14.678C23.1549 14.3113 22.831 13.9751 22.4753 13.6746V9.66674H21.5086V12.9989C21.1992 12.8195 20.8759 12.6652 20.5419 12.5373V7.7334H19.5753V12.2439C19.2567 12.1751 18.9337 12.1298 18.6086 12.1081V8.70007H17.6419V12.1081C17.3168 12.1298 16.9938 12.1751 16.6752 12.2439V10.6334H15.7086V12.5373C15.3746 12.6652 15.0514 12.8195 14.7419 12.9989V10.1501H13.7752V13.6746C13.4195 13.9751 13.0956 14.3113 12.8086 14.678V11.1167H11.8419V16.3532C11.3942 17.4493 11.2539 18.6468 11.4359 19.8168H5.0752V20.7835H11.6437C12.7038 24.359 16.4617 26.3982 20.0373 25.3382C20.7418 25.1292 21.4076 24.8067 22.0084 24.3833L26.4836 28.8585C26.6723 29.0472 26.9783 29.0472 27.167 28.8585L28.617 27.4085C28.8057 27.2198 28.8057 26.9138 28.617 26.7251ZM18.1252 24.6501C14.9234 24.6467 12.3287 22.052 12.3252 18.8501C12.3252 15.6469 14.922 13.0501 18.1252 13.0501C21.3285 13.0501 23.9253 15.6469 23.9253 18.8501C23.9253 22.0534 21.3285 24.6501 18.1252 24.6501ZM26.8253 27.8334L22.7595 23.7676C23.0229 23.5186 23.2661 23.2492 23.4869 22.9618L27.5919 27.0668L26.8253 27.8334Z" fill="black"/>
<path d="M18.1253 14.0166C15.4559 14.0166 13.292 16.1806 13.292 18.85C13.292 21.5194 15.4559 23.6833 18.1253 23.6833C20.7947 23.6833 22.9587 21.5194 22.9587 18.85C22.9558 16.1818 20.7935 14.0195 18.1253 14.0166ZM18.1253 22.7166C16.7457 22.7149 15.4715 21.9781 14.7816 20.7833H21.4691C20.7792 21.9781 19.505 22.7149 18.1253 22.7166ZM14.3858 19.8166C13.9969 18.3449 14.5162 16.7825 15.7087 15.8364V18.85H16.6753V15.268C16.9853 15.1425 17.3103 15.0581 17.642 15.0166V18.85H18.6087V15.0166C18.9404 15.0581 19.2654 15.1425 19.5754 15.268V18.85H20.542V15.8364C21.7345 16.7825 22.2538 18.3449 21.8649 19.8166H14.3858Z" fill="black"/>
<path d="M24.8917 3.8667H5.55828C4.22427 3.86827 3.14317 4.94937 3.1416 6.28338V21.7501C3.14317 23.0841 4.22427 24.1652 5.55828 24.1668H11.8416V23.2001H5.55828C4.75745 23.2001 4.10827 22.5509 4.10827 21.7501V6.28338C4.10827 5.48255 4.75745 4.83337 5.55828 4.83337H24.8917C25.6925 4.83337 26.3417 5.48255 26.3417 6.28338V21.7501C26.3416 22.1032 26.2128 22.4442 25.9792 22.709L26.7042 23.3485C27.0938 22.9072 27.3086 22.3388 27.3084 21.7501V6.28338C27.3068 4.94937 26.2257 3.86827 24.8917 3.8667Z" fill="black"/>
<path d="M6.04187 5.80029H5.0752V6.76697H6.04187V5.80029Z" fill="black"/>
<path d="M7.97546 5.80029H7.00879V6.76697H7.97546V5.80029Z" fill="black"/>
<path d="M9.90808 5.80029H8.94141V6.76697H9.90808V5.80029Z" fill="black"/>
<path d="M7.00866 15.9502H6.04199V18.8502H7.00866V15.9502Z" fill="black"/>
<path d="M8.94128 13.0498H7.97461V18.8498H8.94128V13.0498Z" fill="black"/>
<path d="M10.8749 14.5H9.9082V18.85H10.8749V14.5Z" fill="black"/>
</g>
<defs>
<clipPath id="clip0_147_1464">
<rect width="29" height="29" fill="white"/>
</clipPath>
</defs>
</svg>
