<svg width="29" height="29" viewBox="0 0 29 29" fill="none" xmlns="http://www.w3.org/2000/svg">
<path d="M3.63232 15.7568H2.36238C1.80855 15.7575 1.2776 15.9778 0.885986 16.3694C0.494374 16.761 0.274083 17.292 0.273438 17.8458V26.6546C0.274083 27.2084 0.494374 27.7394 0.885986 28.131C1.2776 28.5226 1.80855 28.7429 2.36238 28.7435H3.63232C4.18614 28.7429 4.71709 28.5226 5.10871 28.131C5.50032 27.7394 5.72061 27.2084 5.72126 26.6546V17.8458C5.72061 17.292 5.50032 16.761 5.10871 16.3694C4.71709 15.9778 4.18614 15.7575 3.63232 15.7568ZM4.65485 26.6546C4.65453 26.9257 4.54669 27.1856 4.355 27.3773C4.16331 27.569 3.90341 27.6768 3.63232 27.6771H2.36238C2.09128 27.6768 1.83139 27.569 1.63969 27.3773C1.448 27.1856 1.34017 26.9257 1.33984 26.6546V17.8458C1.34017 17.5747 1.448 17.3148 1.63969 17.1231C1.83139 16.9314 2.09128 16.8236 2.36238 16.8232H3.63232C3.90341 16.8236 4.16331 16.9314 4.355 17.1231C4.54669 17.3148 4.65453 17.5747 4.65485 17.8458V26.6546Z" fill="black"/>
<path d="M11.3066 17.9819H10.0369C9.48335 17.983 8.95276 18.2034 8.56142 18.595C8.17009 18.9866 7.94994 19.5173 7.94922 20.0709V26.6549C7.94994 27.2087 8.1703 27.7397 8.56196 28.1313C8.95362 28.5229 9.48461 28.7432 10.0385 28.7438H11.3081C11.862 28.7432 12.3931 28.523 12.7848 28.1314C13.1765 27.7398 13.3969 27.2088 13.3976 26.6549V20.0709C13.3969 19.5167 13.1763 18.9855 12.7842 18.5938C12.3922 18.2022 11.8607 17.9821 11.3066 17.9819ZM12.3297 26.6549C12.3293 26.926 12.2214 27.186 12.0296 27.3777C11.8378 27.5694 11.5777 27.6772 11.3066 27.6774H10.0369C9.76608 27.6767 9.50654 27.5687 9.31513 27.377C9.12372 27.1854 9.01603 26.9257 9.01562 26.6549V20.0709C9.01603 19.7998 9.12393 19.5399 9.31567 19.3482C9.50741 19.1565 9.76734 19.0487 10.0385 19.0483H11.3081C11.5793 19.0486 11.8393 19.1564 12.0311 19.3481C12.2229 19.5398 12.3308 19.7997 12.3312 20.0709L12.3297 26.6549Z" fill="black"/>
<path d="M18.9803 13.8599H17.71C17.1561 13.8606 16.6251 14.081 16.2335 14.4727C15.8419 14.8644 15.6217 15.3955 15.6211 15.9494V26.6546C15.6217 27.2084 15.842 27.7394 16.2336 28.131C16.6253 28.5226 17.1562 28.7429 17.71 28.7435H18.9803C19.5341 28.7429 20.0651 28.5226 20.4567 28.131C20.8483 27.7394 21.0686 27.2084 21.0692 26.6546V15.9497C21.0687 15.3958 20.8485 14.8646 20.4569 14.4728C20.0653 14.081 19.5342 13.8606 18.9803 13.8599ZM20.0028 26.6546C20.0025 26.9257 19.8946 27.1856 19.703 27.3773C19.5113 27.569 19.2514 27.6768 18.9803 27.6771H17.71C17.4389 27.6768 17.179 27.569 16.9874 27.3773C16.7957 27.1856 16.6878 26.9257 16.6875 26.6546V15.9497C16.6876 15.6785 16.7953 15.4183 16.987 15.2264C17.1787 15.0346 17.4388 14.9266 17.71 14.9263H18.9803C19.2515 14.9266 19.5115 15.0345 19.7032 15.2263C19.8949 15.4182 20.0026 15.6782 20.0028 15.9494V26.6546Z" fill="black"/>
<path d="M26.6544 8.28564H25.3842C24.8303 8.28629 24.2992 8.50661 23.9076 8.89828C23.5159 9.28995 23.2956 9.82098 23.2949 10.3749V26.6546C23.2956 27.2085 23.516 27.7394 23.9077 28.1311C24.2993 28.5227 24.8303 28.7429 25.3842 28.7436H26.6544C27.2082 28.7429 27.7392 28.5226 28.1308 28.131C28.5224 27.7394 28.7427 27.2085 28.7433 26.6546V10.3749C28.7427 9.82104 28.5224 9.29005 28.1308 8.89839C27.7392 8.50673 27.2083 8.28637 26.6544 8.28564ZM27.6769 26.6546C27.6766 26.9257 27.5688 27.1856 27.3771 27.3773C27.1854 27.569 26.9255 27.6769 26.6544 27.6772H25.3842C25.113 27.6769 24.8531 27.569 24.6614 27.3773C24.4696 27.1857 24.3617 26.9258 24.3613 26.6546V10.3749C24.3617 10.1037 24.4695 9.84374 24.6613 9.65199C24.853 9.46024 25.113 9.35237 25.3842 9.35205H26.6544C26.9255 9.35245 27.1854 9.46036 27.3771 9.6521C27.5688 9.84384 27.6766 10.1038 27.6769 10.3749V26.6546Z" fill="black"/>
<path d="M2.99765 11.8114C3.34499 11.8112 3.6865 11.7221 3.98972 11.5527C4.29294 11.3832 4.54781 11.1391 4.7301 10.8434L8.63498 12.0013C8.63498 12.0168 8.63163 12.0317 8.63163 12.047C8.62955 12.3387 8.69005 12.6275 8.80902 12.8939C8.928 13.1603 9.1027 13.3981 9.32134 13.5913C9.53999 13.7845 9.79751 13.9285 10.0765 14.0138C10.3556 14.099 10.6496 14.1235 10.9389 14.0855C11.2282 14.0475 11.5059 13.9479 11.7535 13.7935C12.001 13.639 12.2126 13.4333 12.3739 13.1902C12.5352 12.9471 12.6426 12.6723 12.6887 12.3842C12.7348 12.0961 12.7187 11.8015 12.6413 11.5202L16.91 9.04579C17.2371 9.37248 17.6656 9.5781 18.1251 9.62879C18.5847 9.67948 19.0477 9.57223 19.4382 9.32468C19.8286 9.07713 20.1231 8.70405 20.2733 8.26681C20.4234 7.82958 20.4203 7.35426 20.2643 6.91907L24.7069 3.85025C25.0882 4.17488 25.5745 4.34979 26.0752 4.34241C26.5759 4.33502 27.0568 4.14583 27.4283 3.8101C27.7999 3.47438 28.0366 3.01501 28.0946 2.51763C28.1525 2.02024 28.0275 1.51877 27.7431 1.10667C27.4586 0.694565 27.034 0.399955 26.5484 0.277741C26.0628 0.155527 25.5493 0.214049 25.1037 0.442399C24.658 0.670749 24.3106 1.05335 24.1262 1.51889C23.9417 1.98443 23.9329 2.50115 24.1012 2.97275L19.6577 6.04248C19.3265 5.76286 18.9148 5.59616 18.4824 5.56662C18.05 5.53709 17.6194 5.64626 17.2533 5.87826C16.8872 6.11027 16.6046 6.453 16.4467 6.85663C16.2888 7.26026 16.2638 7.70374 16.3753 8.12258L12.1072 10.5979C11.8899 10.3812 11.6262 10.2166 11.3362 10.1165C11.0461 10.0164 10.7371 9.98338 10.4324 10.0199C10.1277 10.0564 9.83521 10.1615 9.57698 10.3273C9.31876 10.4931 9.10148 10.7153 8.94149 10.9772L5.03418 9.81939C5.03418 9.80354 5.03631 9.78892 5.03631 9.77216C5.03625 9.36897 4.91664 8.97484 4.69259 8.63962C4.46854 8.30441 4.15012 8.04315 3.7776 7.8889C3.40508 7.73464 2.99518 7.69431 2.59974 7.77301C2.2043 7.85171 1.84107 8.0459 1.55599 8.33102C1.27091 8.61614 1.07677 8.9794 0.998135 9.37486C0.919498 9.77031 0.959888 10.1802 1.1142 10.5527C1.26851 10.9252 1.52981 11.2436 1.86506 11.4676C2.20031 11.6916 2.59445 11.8111 2.99765 11.8111V11.8114ZM26.0201 1.32196C26.1875 1.32192 26.352 1.36508 26.4978 1.44727C26.6435 1.52946 26.7656 1.64789 26.8522 1.7911C26.9387 1.93431 26.9869 2.09744 26.9919 2.2647C26.9969 2.43196 26.9587 2.59769 26.8809 2.74584C26.8031 2.89399 26.6883 3.01954 26.5478 3.11034C26.4072 3.20114 26.2456 3.25411 26.0785 3.26412C25.9115 3.27414 25.7447 3.24085 25.5943 3.16749C25.4439 3.09414 25.315 2.98319 25.22 2.8454C25.1074 2.68398 25.0473 2.49168 25.0482 2.29483C25.0483 2.03699 25.1507 1.78972 25.3329 1.60732C25.5151 1.42491 25.7623 1.32228 26.0201 1.32196ZM18.3451 6.62657C18.5032 6.6268 18.6588 6.66558 18.7986 6.73953C18.9383 6.81349 19.0579 6.9204 19.147 7.051C19.2596 7.21154 19.3191 7.40334 19.317 7.59943C19.3172 7.81389 19.2465 8.02239 19.1157 8.19237C18.9849 8.36235 18.8016 8.48425 18.5942 8.53902C18.3869 8.5938 18.1672 8.57837 17.9696 8.49515C17.7719 8.41193 17.6074 8.2656 17.5017 8.07901C17.4165 7.93361 17.3721 7.76794 17.3731 7.59943C17.3732 7.3416 17.4756 7.09433 17.6578 6.91193C17.8401 6.72952 18.0872 6.62689 18.3451 6.62657ZM10.673 11.072C10.8439 11.0723 11.0116 11.1178 11.1593 11.2038C11.307 11.2897 11.4293 11.4132 11.514 11.5616C11.6003 11.7076 11.6454 11.8743 11.6447 12.0439C11.6308 12.2927 11.5221 12.5267 11.3411 12.6979C11.1601 12.869 10.9204 12.9644 10.6712 12.9644C10.422 12.9644 10.1823 12.869 10.0013 12.6979C9.82028 12.5267 9.71165 12.2927 9.69773 12.0439C9.69738 11.9511 9.71052 11.8587 9.73673 11.7697C9.79757 11.5685 9.92137 11.3921 10.0899 11.2665C10.2584 11.1409 10.4628 11.0727 10.673 11.072ZM2.99765 8.80021C3.19003 8.80015 3.37811 8.85714 3.53809 8.96399C3.69807 9.07083 3.82278 9.22272 3.89643 9.40045C3.97007 9.57817 3.98936 9.77375 3.95184 9.96243C3.91433 10.1511 3.82169 10.3244 3.68566 10.4605C3.54963 10.5965 3.3763 10.6891 3.18762 10.7267C2.99893 10.7642 2.80335 10.7449 2.62563 10.6712C2.4479 10.5976 2.29601 10.4729 2.18917 10.3129C2.08233 10.1529 2.02533 9.96485 2.02539 9.77247C2.02571 9.51471 2.12825 9.2676 2.31052 9.08533C2.49278 8.90307 2.73989 8.80053 2.99765 8.80021Z" fill="black"/>
</svg>
