<svg width="39" height="37" viewBox="0 0 39 37" fill="none" xmlns="http://www.w3.org/2000/svg">
<path d="M18.3833 20.7956H17.9168V19.2737C17.9168 16.6975 16.5558 15.3359 13.9811 15.3359C12.1277 15.3359 11.0833 16.4898 10.1618 17.5077C9.43459 18.3108 8.80681 19.0044 7.90433 19.0044H5.17877C2.65919 19.0044 0.609375 21.0551 0.609375 23.5759C0.609375 25.2631 1.53093 26.7362 2.89484 27.5277V33.9126C2.89392 34.6282 2.89276 35.5185 3.48459 36.1115C3.83303 36.4602 4.32455 36.6373 4.94526 36.6373H7.9755C9.10705 36.6373 10.0277 35.7167 10.0277 34.5848C10.0277 33.6403 9.38498 32.8426 8.51376 32.6057V31.3186C9.3792 31.2842 10.2527 31.1011 10.6547 30.1717C11.4695 31.0216 12.4469 31.8137 13.9812 31.8137C16.5559 31.8137 17.9168 30.4527 17.9168 27.878V26.354H18.3834C19.9152 26.354 21.1616 25.1076 21.1616 23.5758C21.1615 22.043 19.9151 20.7956 18.3833 20.7956ZM1.82812 23.5759C1.82812 21.7272 3.33133 20.2231 5.17877 20.2231H7.29495V26.9269H5.17877C3.33133 26.9269 1.82812 25.4237 1.82812 23.5759ZM8.80888 34.5848C8.80888 35.0445 8.43485 35.4186 7.97544 35.4186H4.9452C4.65983 35.4186 4.45843 35.362 4.34716 35.2501C4.11212 35.0151 4.11298 34.4048 4.11359 33.9141V28.0151C4.45605 28.0973 4.8115 28.1456 5.17877 28.1456H7.29495V33.1438C7.29495 33.4803 7.56783 33.7531 7.90433 33.7531H7.97544C8.43485 33.7532 8.80888 34.1263 8.80888 34.5848ZM8.5137 30.0988V28.2602C8.92698 28.417 9.29071 28.7235 9.6567 29.0984C9.61874 29.8928 9.35915 30.0659 8.5137 30.0988ZM11.0652 28.824C10.3474 28.0312 9.60527 27.2214 8.5137 26.9946V20.1554C9.60527 19.9284 10.3474 19.1186 11.0652 18.3257C11.6427 17.6878 12.2019 17.0814 12.9337 16.7713V30.3785C12.2018 30.0684 11.6427 29.462 11.0652 28.824ZM16.698 27.8781C16.698 29.7209 15.9274 30.534 14.1526 30.585V16.5647C15.9274 16.6158 16.698 17.4294 16.698 19.2737V27.8781ZM18.3833 25.1354H17.9168V22.0144H18.3833C19.2432 22.0144 19.9428 22.7148 19.9428 23.5759C19.9428 24.4358 19.2432 25.1354 18.3833 25.1354Z" fill="black"/>
<path d="M24.7065 22.9663H22.8691C22.5326 22.9663 22.2598 23.2392 22.2598 23.5757C22.2598 23.9122 22.5326 24.1851 22.8691 24.1851H24.7065C25.043 24.1851 25.3158 23.9122 25.3158 23.5757C25.3158 23.2392 25.043 22.9663 24.7065 22.9663Z" fill="black"/>
<path d="M23.5481 21.489L24.8704 20.2126C25.1126 19.979 25.1194 19.5931 24.8855 19.3511C24.6529 19.1089 24.2664 19.1024 24.0241 19.336L22.7018 20.6124C22.4596 20.846 22.4528 21.2319 22.6867 21.4738C22.806 21.5979 22.9655 21.6601 23.1249 21.6601C23.2773 21.6601 23.4299 21.6033 23.5481 21.489Z" fill="black"/>
<path d="M23.5481 25.6629C23.3065 25.4296 22.9206 25.4361 22.6864 25.6783C22.4528 25.9206 22.4597 26.3062 22.7019 26.5401L24.0242 27.8162C24.1423 27.9302 24.2949 27.987 24.4473 27.987C24.6067 27.987 24.7662 27.9248 24.8858 27.8007C25.1194 27.5585 25.1126 27.1729 24.8703 26.939L23.5481 25.6629Z" fill="black"/>
<path d="M21.5943 3.68167C21.4966 3.46181 21.2782 3.31982 21.0375 3.31982C20.7968 3.31982 20.5784 3.46175 20.4808 3.68167L18.1992 8.81407C18.0624 9.12174 18.201 9.48176 18.5084 9.61833C18.8154 9.7561 19.1761 9.61656 19.3126 9.30919L19.5987 8.66557H22.476L22.7621 9.30919C22.8629 9.53624 23.0855 9.67128 23.3191 9.67128C23.4018 9.67128 23.486 9.65434 23.5664 9.61833C23.8737 9.48176 24.0124 9.12174 23.8755 8.81407L21.5943 3.68167ZM20.1407 7.44682L21.0376 5.42948L21.9344 7.44682H20.1407Z" fill="black"/>
<path d="M26.5867 3.31982H25.3584C25.0219 3.31982 24.749 3.5927 24.749 3.9292V9.0616C24.749 9.3981 25.0219 9.67097 25.3584 9.67097H26.5867C28.3383 9.67097 29.7633 8.24601 29.7633 6.49436C29.7633 4.74387 28.3383 3.31982 26.5867 3.31982ZM26.5867 8.45216H25.9678V4.53857H26.5867C27.6662 4.53857 28.5445 5.41601 28.5445 6.49436C28.5445 7.57381 27.6662 8.45216 26.5867 8.45216Z" fill="black"/>
<path d="M32.6783 5.83546C31.6 5.61261 31.5593 5.49031 31.5899 5.16539C31.6688 4.61939 32.2332 4.54858 32.4043 4.53993C32.8465 4.51525 33.3541 4.72085 33.4799 5.22578C33.5614 5.55216 33.8929 5.75185 34.2184 5.66971C34.5451 5.58848 34.7439 5.25789 34.6623 4.9312C34.4124 3.92787 33.4504 3.26615 32.3429 3.3227C31.3075 3.37504 30.5199 4.04572 30.38 5.01993C30.2301 6.57402 31.6083 6.85878 32.4316 7.02898C33.4539 7.24025 33.6441 7.36523 33.6325 7.76602C33.5852 8.17869 33.1671 8.40397 32.7738 8.44443C32.3134 8.49172 31.7478 8.3058 31.53 7.64493C31.4247 7.32568 31.0807 7.15104 30.7606 7.25695C30.441 7.36231 30.2672 7.70685 30.3726 8.0264C30.7531 9.18086 31.7493 9.66946 32.6491 9.66946C32.733 9.66946 32.8163 9.66501 32.8978 9.65666C33.9535 9.54868 34.7355 8.84467 34.847 7.8562C34.9001 6.29456 33.5093 6.00712 32.6783 5.83546Z" fill="black"/>
<path d="M35.4667 0.362793H17.7954C16.2039 0.362793 14.9194 1.63925 14.8712 3.28706L14.8715 10.4689C14.8479 11.2286 15.1324 11.9537 15.673 12.5113C16.2277 13.0838 17.0013 13.4119 17.7954 13.4119H20.4335L19.9479 16.5508C19.9422 16.5876 19.9398 16.6252 19.941 16.6627C19.9571 17.1837 20.1975 17.6002 20.5847 17.7773C20.6823 17.8219 20.8239 17.8668 21 17.8665C21.2393 17.8665 21.5416 17.7841 21.8831 17.5071C21.9093 17.4857 21.934 17.4622 21.9563 17.4369L25.5007 13.412H35.4667C37.0791 13.412 38.3907 12.1005 38.3907 10.488V3.28712C38.3907 1.67472 37.0791 0.362793 35.4667 0.362793ZM37.1719 10.488C37.1719 11.4283 36.4069 12.1933 35.4667 12.1933H25.2254C25.0505 12.1933 24.8839 12.2685 24.7681 12.3998L21.1957 16.4562L21.7465 12.8957C21.7736 12.7199 21.7227 12.5411 21.607 12.406C21.4912 12.2709 21.3222 12.1933 21.1443 12.1933H17.7954C17.3291 12.1933 16.8745 12.0001 16.548 11.663C16.2392 11.3444 16.0761 10.9337 16.0898 10.488L16.0895 3.30498C16.1181 2.33857 16.8674 1.5816 17.7954 1.5816H35.4666C36.4069 1.58154 37.1719 2.34655 37.1719 3.28712V10.488Z" fill="black"/>
</svg>
