<svg width="39" height="39" viewBox="0 0 39 39" fill="none" xmlns="http://www.w3.org/2000/svg">
<path d="M8.63232 20.7568H7.36238C6.80855 20.7575 6.2776 20.9778 5.88599 21.3694C5.49437 21.761 5.27408 22.292 5.27344 22.8458V31.6546C5.27408 32.2084 5.49437 32.7394 5.88599 33.131C6.2776 33.5226 6.80855 33.7429 7.36238 33.7435H8.63232C9.18614 33.7429 9.71709 33.5226 10.1087 33.131C10.5003 32.7394 10.7206 32.2084 10.7213 31.6546V22.8458C10.7206 22.292 10.5003 21.761 10.1087 21.3694C9.71709 20.9778 9.18614 20.7575 8.63232 20.7568ZM9.65485 31.6546C9.65453 31.9257 9.54669 32.1856 9.355 32.3773C9.16331 32.569 8.90341 32.6768 8.63232 32.6771H7.36238C7.09128 32.6768 6.83139 32.569 6.63969 32.3773C6.448 32.1856 6.34017 31.9257 6.33984 31.6546V22.8458C6.34017 22.5747 6.448 22.3148 6.63969 22.1231C6.83139 21.9314 7.09128 21.8236 7.36238 21.8232H8.63232C8.90341 21.8236 9.16331 21.9314 9.355 22.1231C9.54669 22.3148 9.65453 22.5747 9.65485 22.8458V31.6546Z" fill="black"/>
<path d="M16.3066 22.9819H15.0369C14.4834 22.983 13.9528 23.2034 13.5614 23.595C13.1701 23.9866 12.9499 24.5173 12.9492 25.0709V31.6549C12.9499 32.2087 13.1703 32.7397 13.562 33.1313C13.9536 33.5229 14.4846 33.7432 15.0385 33.7438H16.3081C16.862 33.7432 17.3931 33.523 17.7848 33.1314C18.1765 32.7398 18.3969 32.2088 18.3976 31.6549V25.0709C18.3969 24.5167 18.1763 23.9855 17.7842 23.5938C17.3922 23.2022 16.8607 22.9821 16.3066 22.9819ZM17.3297 31.6549C17.3293 31.926 17.2214 32.186 17.0296 32.3777C16.8378 32.5694 16.5777 32.6772 16.3066 32.6774H15.0369C14.7661 32.6767 14.5065 32.5687 14.3151 32.377C14.1237 32.1854 14.016 31.9257 14.0156 31.6549V25.0709C14.016 24.7998 14.1239 24.5399 14.3157 24.3482C14.5074 24.1565 14.7673 24.0487 15.0385 24.0483H16.3081C16.5793 24.0486 16.8393 24.1564 17.0311 24.3481C17.2229 24.5398 17.3308 24.7997 17.3312 25.0709L17.3297 31.6549Z" fill="black"/>
<path d="M23.9803 18.8599H22.71C22.1561 18.8606 21.6251 19.081 21.2335 19.4727C20.8419 19.8644 20.6217 20.3955 20.6211 20.9494V31.6546C20.6217 32.2084 20.842 32.7394 21.2336 33.131C21.6253 33.5226 22.1562 33.7429 22.71 33.7435H23.9803C24.5341 33.7429 25.0651 33.5226 25.4567 33.131C25.8483 32.7394 26.0686 32.2084 26.0692 31.6546V20.9497C26.0687 20.3958 25.8485 19.8646 25.4569 19.4728C25.0653 19.081 24.5342 18.8606 23.9803 18.8599ZM25.0028 31.6546C25.0025 31.9257 24.8946 32.1856 24.703 32.3773C24.5113 32.569 24.2514 32.6768 23.9803 32.6771H22.71C22.4389 32.6768 22.179 32.569 21.9874 32.3773C21.7957 32.1856 21.6878 31.9257 21.6875 31.6546V20.9497C21.6876 20.6785 21.7953 20.4183 21.987 20.2264C22.1787 20.0346 22.4388 19.9266 22.71 19.9263H23.9803C24.2515 19.9266 24.5115 20.0345 24.7032 20.2263C24.8949 20.4182 25.0026 20.6782 25.0028 20.9494V31.6546Z" fill="black"/>
<path d="M31.6544 13.2856H30.3842C29.8303 13.2863 29.2992 13.5066 28.9076 13.8983C28.5159 14.29 28.2956 14.821 28.2949 15.3749V31.6546C28.2956 32.2085 28.516 32.7394 28.9077 33.1311C29.2993 33.5227 29.8303 33.7429 30.3842 33.7436H31.6544C32.2082 33.7429 32.7392 33.5226 33.1308 33.131C33.5224 32.7394 33.7427 32.2085 33.7433 31.6546V15.3749C33.7427 14.821 33.5224 14.2901 33.1308 13.8984C32.7392 13.5067 32.2083 13.2864 31.6544 13.2856ZM32.6769 31.6546C32.6766 31.9257 32.5688 32.1856 32.3771 32.3773C32.1854 32.569 31.9255 32.6769 31.6544 32.6772H30.3842C30.113 32.6769 29.8531 32.569 29.6614 32.3773C29.4696 32.1857 29.3617 31.9258 29.3613 31.6546V15.3749C29.3617 15.1037 29.4695 14.8437 29.6613 14.652C29.853 14.4602 30.113 14.3524 30.3842 14.3521H31.6544C31.9255 14.3525 32.1854 14.4604 32.3771 14.6521C32.5688 14.8438 32.6766 15.1038 32.6769 15.3749V31.6546Z" fill="black"/>
<path d="M7.99765 16.8114C8.34499 16.8112 8.6865 16.7221 8.98972 16.5527C9.29294 16.3832 9.54781 16.1391 9.7301 15.8434L13.635 17.0013C13.635 17.0168 13.6316 17.0317 13.6316 17.047C13.6296 17.3387 13.69 17.6275 13.809 17.8939C13.928 18.1603 14.1027 18.3981 14.3213 18.5913C14.54 18.7845 14.7975 18.9285 15.0765 19.0138C15.3556 19.099 15.6496 19.1235 15.9389 19.0855C16.2282 19.0475 16.5059 18.9479 16.7535 18.7935C17.001 18.639 17.2126 18.4333 17.3739 18.1902C17.5352 17.9471 17.6426 17.6723 17.6887 17.3842C17.7348 17.0961 17.7187 16.8015 17.6413 16.5202L21.91 14.0458C22.2371 14.3725 22.6656 14.5781 23.1251 14.6288C23.5847 14.6795 24.0477 14.5722 24.4382 14.3247C24.8286 14.0771 25.1231 13.704 25.2733 13.2668C25.4234 12.8296 25.4203 12.3543 25.2643 11.9191L29.7069 8.85025C30.0882 9.17488 30.5745 9.34979 31.0752 9.34241C31.5759 9.33502 32.0568 9.14583 32.4283 8.8101C32.7999 8.47438 33.0366 8.01501 33.0946 7.51763C33.1525 7.02024 33.0275 6.51877 32.7431 6.10667C32.4586 5.69457 32.034 5.39995 31.5484 5.27774C31.0628 5.15553 30.5493 5.21405 30.1037 5.4424C29.658 5.67075 29.3106 6.05335 29.1262 6.51889C28.9417 6.98443 28.9329 7.50115 29.1012 7.97275L24.6577 11.0425C24.3265 10.7629 23.9148 10.5962 23.4824 10.5666C23.05 10.5371 22.6194 10.6463 22.2533 10.8783C21.8872 11.1103 21.6046 11.453 21.4467 11.8566C21.2888 12.2603 21.2638 12.7037 21.3753 13.1226L17.1072 15.5979C16.8899 15.3812 16.6262 15.2166 16.3362 15.1165C16.0461 15.0164 15.7371 14.9834 15.4324 15.0199C15.1277 15.0564 14.8352 15.1615 14.577 15.3273C14.3188 15.4931 14.1015 15.7153 13.9415 15.9772L10.0342 14.8194C10.0342 14.8035 10.0363 14.7889 10.0363 14.7722C10.0363 14.369 9.91664 13.9748 9.69259 13.6396C9.46854 13.3044 9.15012 13.0432 8.7776 12.8889C8.40508 12.7346 7.99518 12.6943 7.59974 12.773C7.2043 12.8517 6.84107 13.0459 6.55599 13.331C6.27091 13.6161 6.07677 13.9794 5.99814 14.3749C5.9195 14.7703 5.95989 15.1802 6.1142 15.5527C6.26851 15.9252 6.52981 16.2436 6.86506 16.4676C7.20031 16.6916 7.59445 16.8111 7.99765 16.8111V16.8114ZM31.0201 6.32196C31.1875 6.32192 31.352 6.36508 31.4978 6.44727C31.6435 6.52946 31.7656 6.64789 31.8522 6.7911C31.9387 6.93431 31.9869 7.09744 31.9919 7.2647C31.9969 7.43196 31.9587 7.59769 31.8809 7.74584C31.8031 7.89399 31.6883 8.01954 31.5478 8.11034C31.4072 8.20114 31.2456 8.25411 31.0785 8.26412C30.9115 8.27414 30.7447 8.24085 30.5943 8.16749C30.4439 8.09414 30.315 7.98319 30.22 7.8454C30.1074 7.68398 30.0473 7.49168 30.0482 7.29483C30.0483 7.03699 30.1507 6.78972 30.3329 6.60732C30.5151 6.42491 30.7623 6.32228 31.0201 6.32196ZM23.3451 11.6266C23.5032 11.6268 23.6588 11.6656 23.7986 11.7395C23.9383 11.8135 24.0579 11.9204 24.147 12.051C24.2596 12.2115 24.3191 12.4033 24.317 12.5994C24.3172 12.8139 24.2465 13.0224 24.1157 13.1924C23.9849 13.3624 23.8016 13.4842 23.5942 13.539C23.3869 13.5938 23.1672 13.5784 22.9696 13.4952C22.7719 13.4119 22.6074 13.2656 22.5017 13.079C22.4165 12.9336 22.3721 12.7679 22.3731 12.5994C22.3732 12.3416 22.4756 12.0943 22.6578 11.9119C22.8401 11.7295 23.0872 11.6269 23.3451 11.6266ZM15.673 16.072C15.8439 16.0723 16.0116 16.1178 16.1593 16.2038C16.307 16.2897 16.4293 16.4132 16.514 16.5616C16.6003 16.7076 16.6454 16.8743 16.6447 17.0439C16.6308 17.2927 16.5221 17.5267 16.3411 17.6979C16.1601 17.869 15.9204 17.9644 15.6712 17.9644C15.422 17.9644 15.1823 17.869 15.0013 17.6979C14.8203 17.5267 14.7116 17.2927 14.6977 17.0439C14.6974 16.9511 14.7105 16.8587 14.7367 16.7697C14.7976 16.5685 14.9214 16.3921 15.0899 16.2665C15.2584 16.1409 15.4628 16.0727 15.673 16.072ZM7.99765 13.8002C8.19003 13.8001 8.37811 13.8571 8.53809 13.964C8.69807 14.0708 8.82278 14.2227 8.89643 14.4004C8.97007 14.5782 8.98936 14.7737 8.95184 14.9624C8.91433 15.1511 8.82169 15.3244 8.68566 15.4605C8.54963 15.5965 8.3763 15.6891 8.18762 15.7267C7.99893 15.7642 7.80335 15.7449 7.62563 15.6712C7.4479 15.5976 7.29601 15.4729 7.18917 15.3129C7.08233 15.1529 7.02533 14.9648 7.02539 14.7725C7.02571 14.5147 7.12825 14.2676 7.31052 14.0853C7.49278 13.9031 7.73989 13.8005 7.99765 13.8002Z" fill="black"/>
</svg>
