<svg width="39" height="39" viewBox="0 0 39 39" fill="none" xmlns="http://www.w3.org/2000/svg">
<path d="M21.5952 4.68167C21.4976 4.46181 21.2792 4.31982 21.0385 4.31982C20.7978 4.31982 20.5794 4.46175 20.4818 4.68167L18.2002 9.81407C18.0634 10.1217 18.202 10.4818 18.5094 10.6183C18.8164 10.7561 19.1771 10.6166 19.3136 10.3092L19.5997 9.66557H22.4769L22.763 10.3092C22.8639 10.5362 23.0865 10.6713 23.3201 10.6713C23.4028 10.6713 23.487 10.6543 23.5674 10.6183C23.8747 10.4818 24.0134 10.1217 23.8765 9.81407L21.5952 4.68167ZM20.1416 8.44682L21.0386 6.42948L21.9353 8.44682H20.1416Z" fill="black"/>
<path d="M26.5867 4.31982H25.3584C25.0219 4.31982 24.749 4.5927 24.749 4.9292V10.0616C24.749 10.3981 25.0219 10.671 25.3584 10.671H26.5867C28.3383 10.671 29.7633 9.24601 29.7633 7.49436C29.7633 5.74387 28.3383 4.31982 26.5867 4.31982ZM26.5867 9.45216H25.9678V5.53857H26.5867C27.6662 5.53857 28.5445 6.41601 28.5445 7.49436C28.5445 8.57381 27.6662 9.45216 26.5867 9.45216Z" fill="black"/>
<path d="M32.6783 6.83546C31.6 6.61261 31.5593 6.49031 31.5899 6.16539C31.6688 5.61939 32.2332 5.54858 32.4043 5.53993C32.8465 5.51525 33.3541 5.72085 33.4799 6.22578C33.5614 6.55216 33.8929 6.75185 34.2184 6.66971C34.5451 6.58848 34.7439 6.25789 34.6623 5.9312C34.4124 4.92787 33.4504 4.26615 32.3429 4.3227C31.3075 4.37504 30.5199 5.04572 30.38 6.01993C30.2301 7.57402 31.6083 7.85878 32.4316 8.02898C33.4539 8.24025 33.6441 8.36523 33.6325 8.76602C33.5852 9.17869 33.1671 9.40397 32.7738 9.44443C32.3134 9.49172 31.7478 9.3058 31.53 8.64493C31.4247 8.32568 31.0807 8.15104 30.7606 8.25695C30.441 8.36231 30.2672 8.70685 30.3726 9.0264C30.7531 10.1809 31.7493 10.6695 32.6491 10.6695C32.733 10.6695 32.8163 10.665 32.8978 10.6567C33.9535 10.5487 34.7355 9.84467 34.847 8.8562C34.9001 7.29456 33.5093 7.00712 32.6783 6.83546Z" fill="black"/>
<path d="M35.4667 1.36279H17.7954C16.2039 1.36279 14.9194 2.63925 14.8712 4.28706L14.8715 11.4689C14.8479 12.2286 15.1324 12.9537 15.673 13.5113C16.2277 14.0838 17.0013 14.4119 17.7954 14.4119H20.4335L19.9479 17.5508C19.9422 17.5876 19.9398 17.6252 19.941 17.6627C19.9571 18.1837 20.1975 18.6002 20.5847 18.7773C20.6823 18.8219 20.8239 18.8668 21 18.8665C21.2393 18.8665 21.5416 18.7841 21.8831 18.5071C21.9093 18.4857 21.934 18.4622 21.9563 18.4369L25.5007 14.412H35.4667C37.0791 14.412 38.3907 13.1005 38.3907 11.488V4.28712C38.3907 2.67472 37.0791 1.36279 35.4667 1.36279ZM37.1719 11.488C37.1719 12.4283 36.4069 13.1933 35.4667 13.1933H25.2254C25.0505 13.1933 24.8839 13.2685 24.7681 13.3998L21.1957 17.4562L21.7465 13.8957C21.7736 13.7199 21.7227 13.5411 21.607 13.406C21.4912 13.2709 21.3222 13.1933 21.1443 13.1933H17.7954C17.3291 13.1933 16.8745 13.0001 16.548 12.663C16.2392 12.3444 16.0761 11.9337 16.0898 11.488L16.0895 4.30498C16.1181 3.33857 16.8674 2.5816 17.7954 2.5816H35.4666C36.4069 2.58154 37.1719 3.34655 37.1719 4.28712V11.488Z" fill="black"/>
<g clip-path="url(#clip0_147_1591)">
<path d="M13.1275 20H4.87243C2.18573 20 0 22.1857 0 24.8724V33.1277C0 35.8142 2.18573 38 4.87243 38H13.1277C15.8142 38 18 35.8142 18 33.1277V24.8724C18 22.1857 15.8142 20 13.1275 20V20ZM16.9447 33.1277C16.9447 35.2324 15.2324 36.9447 13.1275 36.9447H4.87243C2.76759 36.9447 1.05523 35.2324 1.05523 33.1277V24.8724C1.05523 22.7676 2.76759 21.0552 4.87243 21.0552H13.1277C15.2324 21.0552 16.9447 22.7676 16.9447 24.8724V33.1277Z" fill="black"/>
<path d="M8.99985 24.0781C6.28596 24.0781 4.07812 26.286 4.07812 28.9999C4.07812 31.7137 6.28596 33.9216 8.99985 33.9216C11.7137 33.9216 13.9216 31.7137 13.9216 28.9999C13.9216 26.286 11.7137 24.0781 8.99985 24.0781ZM8.99985 32.8663C6.86796 32.8663 5.13336 31.1319 5.13336 28.9999C5.13336 26.868 6.86796 25.1334 8.99985 25.1334C11.1319 25.1334 12.8663 26.868 12.8663 28.9999C12.8663 31.1319 11.1319 32.8663 8.99985 32.8663Z" fill="black"/>
<path d="M14.0393 22.3306C13.2373 22.3306 12.585 22.983 12.585 23.7849C12.585 24.5869 13.2373 25.2393 14.0393 25.2393C14.8413 25.2393 15.4937 24.5869 15.4937 23.7849C15.4937 22.9829 14.8413 22.3306 14.0393 22.3306ZM14.0393 24.184C13.8193 24.184 13.6402 24.0049 13.6402 23.7849C13.6402 23.5647 13.8193 23.3858 14.0393 23.3858C14.2594 23.3858 14.4385 23.5647 14.4385 23.7849C14.4385 24.0049 14.2594 24.184 14.0393 24.184Z" fill="black"/>
</g>
<defs>
<clipPath id="clip0_147_1591">
<rect width="18" height="18" fill="white" transform="translate(0 20)"/>
</clipPath>
</defs>
</svg>
