<svg width="44" height="44" viewBox="0 0 44 44" fill="none" xmlns="http://www.w3.org/2000/svg">
<path fill-rule="evenodd" clip-rule="evenodd" d="M35.5371 32.8274C35.3584 32.8314 35.1792 32.8334 34.9997 32.8334C21.8369 32.8334 11.1663 22.1628 11.1663 9.00004C11.1663 8.82043 11.1683 8.64126 11.1723 8.46255C7.20592 11.6402 4.66634 16.5257 4.66634 22C4.66634 31.5729 12.4267 39.3333 21.9997 39.3333C27.4739 39.3333 32.3594 36.7938 35.5371 32.8274ZM38.1762 28.2426C37.1425 28.412 36.0813 28.5 34.9997 28.5C24.2301 28.5 15.4997 19.7696 15.4997 9.00004C15.4997 7.91833 15.5878 6.8572 15.7571 5.82342C16.0434 4.07619 16.5619 2.4071 17.2798 0.848877C15.4136 1.26349 13.6379 1.91881 11.9871 2.78056C5.061 6.39619 0.333008 13.6459 0.333008 22C0.333008 33.9661 10.0335 43.6666 21.9997 43.6666C30.3537 43.6666 37.6034 38.9387 41.219 32.0126C42.0808 30.3618 42.7361 28.5862 43.1507 26.7199C41.5925 27.4379 39.9234 27.9563 38.1762 28.2426Z" fill="white"/>
</svg>
