<svg width="39" height="39" viewBox="0 0 39 39" fill="none" xmlns="http://www.w3.org/2000/svg">
<g clip-path="url(#clip0_147_1537)">
<path d="M16.2591 2.60742C8.72324 2.60742 2.61426 8.71641 2.61426 16.2522C2.61426 23.7881 8.72324 29.8971 16.2591 29.8971C23.7949 29.8971 29.9039 23.7881 29.9039 16.2522C29.8957 8.71982 23.7915 2.61563 16.2591 2.60742ZM16.2591 3.90693C20.2726 3.9101 24.0336 5.86618 26.3407 9.15044L24.7163 10.7748C24.321 10.5356 23.8684 10.4076 23.4064 10.4045C21.971 10.4045 20.8074 11.5681 20.8074 13.0035C20.8096 13.466 20.9369 13.9193 21.1758 14.3153L16.9212 18.5699C16.1156 18.0787 15.1031 18.0787 14.2975 18.5699L11.3424 15.6148C11.5813 15.2188 11.7085 14.7655 11.7108 14.303C11.7126 12.8704 10.5528 11.7077 9.12024 11.7059C7.9355 11.7045 6.90036 12.5058 6.60505 13.6532H4.19446C5.42469 7.97219 10.4464 3.91546 16.2591 3.90693ZM24.7059 13.0035C24.7059 13.7212 24.1241 14.303 23.4064 14.303C22.6886 14.303 22.1069 13.7212 22.1069 13.0035C22.1069 12.2857 22.6886 11.704 23.4064 11.704C24.1241 11.704 24.7059 12.2857 24.7059 13.0035ZM16.9088 20.8005C16.9088 21.5183 16.3271 22.1 15.6093 22.1C14.8916 22.1 14.3098 21.5183 14.3098 20.8005C14.3098 20.0828 14.8916 19.501 15.6093 19.501C16.3271 19.501 16.9088 20.0828 16.9088 20.8005ZM10.4113 14.303C10.4113 15.0207 9.82953 15.6025 9.11179 15.6025C8.39406 15.6025 7.81229 15.0207 7.81229 14.303C7.81229 13.5853 8.39406 13.0035 9.11179 13.0035C9.82953 13.0035 10.4113 13.5853 10.4113 14.303ZM22.2575 27.0468C20.4225 28.0656 18.358 28.5994 16.2591 28.5975C9.44561 28.6021 3.91839 23.0825 3.91377 16.2691C3.91344 15.8293 3.93667 15.3899 3.98329 14.9527H6.60505C6.90044 16.0966 7.9303 16.8975 9.11179 16.9019C9.57434 16.8996 10.0276 16.7724 10.4236 16.5335L13.3787 19.4886C13.1399 19.8846 13.0126 20.3379 13.0103 20.8004C13.0103 22.2358 14.1739 23.3995 15.6093 23.3995C17.0447 23.3995 18.2083 22.2358 18.2083 20.8004C18.2061 20.3379 18.0788 19.8846 17.8399 19.4886L22.0945 15.234C22.4905 15.4729 22.9438 15.6001 23.4064 15.6024C24.8418 15.6024 26.0054 14.4388 26.0054 13.0034C26.0031 12.5409 25.8758 12.0876 25.637 11.6915L27.0534 10.2757C30.3603 16.2314 28.213 23.74 22.2575 27.0468Z" fill="black"/>
<path d="M32.5024 6.50646C33.6839 6.50199 34.7138 5.70125 35.0092 4.5572H39V3.25769H35.0092C34.7138 2.11364 33.6839 1.3129 32.5024 1.30843C31.067 1.30843 29.9034 2.47206 29.9034 3.90744C29.9057 4.36999 30.033 4.82327 30.2718 5.2193L29.1302 6.36091C23.6678 -0.755594 13.4706 -2.09652 6.35408 3.36587C-0.762429 8.82827 -2.10336 19.0256 3.35904 26.1421C8.51516 32.8595 17.9667 34.489 25.0745 29.8859L27.0354 31.8469L27.9542 32.7656L33.1847 37.9961C34.515 39.3264 36.6717 39.3264 38.0019 37.9961C39.3322 36.6658 39.3322 34.5091 38.0019 33.1788L32.7714 27.9483L31.8527 27.0296L29.8917 25.0686C33.3727 19.7069 33.3727 12.7988 29.8917 7.43691L31.1912 6.1374C31.587 6.37635 32.0401 6.50386 32.5024 6.50646ZM32.5024 2.60794C33.2202 2.60794 33.8019 3.18971 33.8019 3.90744C33.8019 4.62518 33.2202 5.20695 32.5024 5.20695C31.7847 5.20695 31.2029 4.62518 31.2029 3.90744C31.2029 3.18971 31.7848 2.60794 32.5024 2.60794ZM37.0832 34.0976C37.9154 34.9111 37.9306 36.2452 37.1171 37.0774C36.3036 37.9095 34.9695 37.9247 34.1373 37.1112C34.1258 37.1001 34.1146 37.0888 34.1034 37.0774L28.8729 31.8469L31.8527 28.8671L37.0832 34.0976ZM30.9339 27.9483L27.9542 30.9281L26.1556 29.1296C26.2473 29.0594 26.333 28.9821 26.4233 28.91C26.5137 28.8378 26.6183 28.7514 26.7151 28.6702C26.8574 28.5507 26.9977 28.4298 27.1355 28.3057C27.2063 28.2407 27.2739 28.1757 27.3434 28.1108C27.6098 27.8613 27.8677 27.6033 28.1172 27.3369C28.1822 27.2674 28.2472 27.1998 28.3122 27.129C28.4363 26.9912 28.5571 26.8509 28.6767 26.7086C28.7582 26.6124 28.8381 26.5152 28.9164 26.4169C28.9879 26.3272 29.0652 26.2414 29.1354 26.1498L30.9339 27.9483ZM28.4142 24.9302C28.2095 25.2161 27.9983 25.4962 27.7755 25.7658C27.7105 25.8444 27.641 25.9204 27.5741 25.9978C27.3752 26.2291 27.1699 26.4535 26.9581 26.6709C26.8658 26.7662 26.772 26.86 26.6767 26.9523C26.4601 27.1641 26.2358 27.3694 26.0036 27.5682C25.9263 27.6332 25.8503 27.704 25.7716 27.7696C25.502 27.9925 25.2219 28.2037 24.9361 28.4084C18.2098 33.2137 8.86156 31.6565 4.05622 24.9302C-0.749109 18.204 0.808106 8.85572 7.53436 4.05039C14.2606 -0.754944 23.6089 0.802191 28.4142 7.52852C32.1325 12.7332 32.1325 19.7255 28.4142 24.9302Z" fill="black"/>
</g>
<defs>
<clipPath id="clip0_147_1537">
<rect width="39" height="39" fill="white"/>
</clipPath>
</defs>
</svg>
