<svg width="250" height="56" viewBox="0 0 250 56" fill="none" xmlns="http://www.w3.org/2000/svg">
<path fill-rule="evenodd" clip-rule="evenodd" d="M34.2799 27.0684C34.3546 27.1614 34.4225 27.2686 34.4592 27.3633L34.4713 27.3944L34.4694 27.3994L34.4713 27.4041L34.4592 27.4349C34.4225 27.5296 34.3544 27.6368 34.2799 27.7295C34.201 27.8278 34.1116 27.9134 34.0408 27.9547C33.8273 28.0961 33.5509 28.1799 33.2392 28.2749C33.1153 28.3124 32.986 28.3521 32.8599 28.3946C32.8919 29.7638 33.1959 30.4716 33.5045 31.1899L33.5583 31.3146L33.56 31.3274C33.5881 31.5431 33.4742 31.8836 33.1824 32.2515C32.9562 32.5369 32.6208 32.8435 32.1601 33.1256C31.5961 33.5052 30.9878 33.872 30.3978 34.228C29.1712 34.968 28.0213 35.6619 27.5173 36.3175L27.4241 36.4388L27.3717 36.2947C27.1243 35.6133 27.4271 35.073 27.6884 34.6065C27.8092 34.3907 27.9209 34.1919 27.9554 34.0114C27.7096 33.1789 27.5579 32.4925 27.4944 31.8005C27.4349 31.1547 27.4525 30.5057 27.5422 29.7299L24.2669 31.9755L24.1638 31.8216C24.123 31.7628 24.0766 31.6961 24.0488 31.6484C23.731 31.108 23.4486 30.4036 23.2489 29.6358C23.0629 28.921 22.9485 28.1499 22.9443 27.4047V27.3938C22.9485 26.6486 23.0629 25.8774 23.2489 25.1627C23.4486 24.3952 23.731 23.6905 24.0488 23.1501C24.0769 23.1026 24.123 23.036 24.1635 22.9771L24.2672 22.823L27.5424 25.0686C27.4528 24.2928 27.4351 23.6438 27.4947 22.9979C27.5582 22.3057 27.7099 21.6196 27.9556 20.7868C27.9212 20.6063 27.8094 20.4072 27.6886 20.1918C27.4274 19.7253 27.1246 19.1849 27.372 18.5035L27.4244 18.3594L27.5176 18.4807C28.0218 19.1363 29.1721 19.8305 30.3984 20.5702C30.9884 20.9262 31.5963 21.2933 32.1604 21.6726C32.621 21.9547 32.9562 22.2613 33.1826 22.5467C33.4742 22.9146 33.5881 23.2551 33.5603 23.4708L33.5589 23.4825L33.5048 23.608C33.1962 24.3261 32.8919 25.0341 32.8602 26.4034C32.9865 26.4461 33.1162 26.4856 33.2397 26.523C33.5498 26.6174 33.825 26.7013 34.0383 26.8413C34.1092 26.8818 34.1996 26.9684 34.2799 27.0684ZM28.4273 32.5494L28.8375 32.3056C29.1949 32.0927 29.6018 31.8503 29.9041 31.6786L29.9838 31.6334L30.0219 31.7178C30.055 31.7908 30.0801 31.9224 30.0713 32.0516C30.0641 32.1535 30.0365 32.2568 29.9761 32.3359C29.8139 32.5703 29.5817 32.8357 29.3668 33.082C29.153 33.3269 28.9561 33.5524 28.8686 33.6996C28.8289 33.7887 28.7845 33.932 28.7487 34.085C28.7299 34.1655 28.7136 34.248 28.7018 34.3266C29.1447 34.035 29.6294 33.7401 30.1179 33.443C30.5691 33.1684 31.024 32.8913 31.4479 32.6164L31.4794 32.5972C31.6669 32.4828 31.9687 32.2987 32.0106 32.081C31.9659 31.9635 31.9381 31.8877 31.9169 31.8022C31.8948 31.7136 31.8813 31.6178 31.8655 31.4568L31.8589 31.3879L32.0184 31.3382C32.2732 31.2593 32.4338 31.2094 32.5422 31.0344C32.4338 30.8595 32.2732 30.8098 32.0186 30.7307L31.8592 30.6807L31.8658 30.6121C31.8815 30.4513 31.8951 30.3555 31.9171 30.2667C31.9384 30.1814 31.9662 30.1056 32.0109 29.9881C31.969 29.7702 31.6678 29.5866 31.4802 29.472L31.4479 29.4525C31.0245 29.1779 30.5702 28.9013 30.1193 28.627C29.6305 28.3296 29.1453 28.0342 28.7018 27.7426C28.7136 27.8209 28.7299 27.9036 28.7487 27.9842C28.7845 28.1374 28.8289 28.2805 28.8686 28.3696C28.9561 28.5168 29.153 28.7425 29.3668 28.9871C29.5819 29.2334 29.8139 29.4992 29.9761 29.7335C30.0365 29.8124 30.0641 29.916 30.0713 30.0179C30.0801 30.147 30.055 30.2783 30.0219 30.3516L29.9838 30.436L29.9041 30.3908C29.6029 30.22 29.1983 29.9787 28.8416 29.766L28.4273 29.5197C28.3823 29.7371 28.3457 29.9621 28.3195 30.1936C28.2888 30.466 28.2726 30.747 28.2751 31.0339V31.0353C28.2728 31.3221 28.2888 31.6028 28.3195 31.8752C28.3454 32.1068 28.3823 32.3317 28.4273 32.5491V32.5494ZM28.8375 22.4898L28.4273 22.246C28.3823 22.4634 28.3457 22.6886 28.3195 22.9202C28.2888 23.1926 28.2726 23.4733 28.2751 23.7602V23.7616C28.2728 24.0484 28.2888 24.3291 28.3195 24.6018C28.3454 24.8334 28.3823 25.0583 28.4273 25.276L28.8375 25.0322C29.1949 24.8192 29.6018 24.5768 29.9041 24.4052L29.9838 24.3602L30.0216 24.4441C30.0547 24.5171 30.0801 24.6493 30.0713 24.7781C30.0641 24.88 30.0365 24.9833 29.9761 25.0622C29.8136 25.2965 29.5817 25.5626 29.3665 25.8089C29.153 26.0535 28.9558 26.279 28.8684 26.4259C28.8286 26.5153 28.7842 26.6583 28.7484 26.8115C28.7296 26.8921 28.7133 26.9745 28.7015 27.0531C29.1445 26.7618 29.6288 26.4669 30.1168 26.1701C30.5683 25.8952 31.0234 25.6184 31.4477 25.3429L31.4791 25.3238C31.6664 25.2094 31.9684 25.0253 32.0104 24.8073C31.9657 24.6898 31.9378 24.614 31.9166 24.5288C31.8945 24.4399 31.881 24.3441 31.8653 24.1833L31.8586 24.1148L32.0181 24.0648C32.2729 23.9856 32.4335 23.9359 32.5419 23.761C32.4335 23.5863 32.2732 23.5364 32.0184 23.4575L31.8586 23.4075L31.8653 23.3387C31.881 23.1776 31.8945 23.0821 31.9166 22.9932C31.9378 22.908 31.9657 22.8322 32.0104 22.7147C31.9684 22.4967 31.6664 22.3126 31.4791 22.1985L31.4477 22.1791C31.0234 21.9039 30.5683 21.6271 30.1168 21.3522C29.6288 21.0553 29.1442 20.7604 28.7015 20.4692C28.7133 20.5475 28.7296 20.6302 28.7484 20.7105C28.7842 20.8637 28.8286 21.0067 28.8684 21.0961C28.9558 21.2433 29.153 21.4691 29.3668 21.7137C29.5819 21.96 29.8136 22.2257 29.9761 22.4598C30.0365 22.5387 30.0641 22.642 30.0713 22.7439C30.0801 22.8727 30.0547 23.0046 30.0216 23.0776L29.9838 23.1615L29.9041 23.1162C29.6018 22.9446 29.1952 22.7022 28.8375 22.4892V22.4898ZM31.7875 26.2837L30.0939 27.3269L31.2325 27.4002L30.0942 27.4721C30.7589 27.8817 31.4471 28.2635 32.0743 28.7264C32.0823 28.2646 31.993 28.0836 31.9257 27.9472C31.9105 27.9167 31.8964 27.8881 31.8832 27.8562L31.8449 27.7631L31.9431 27.7409C32.1389 27.6968 32.2956 27.6457 32.4087 27.5821C32.495 27.5335 32.554 27.4782 32.583 27.4135L32.5747 27.3999L32.5833 27.3858C32.5543 27.3208 32.4953 27.2653 32.4087 27.2167C32.2958 27.1531 32.1386 27.102 31.9431 27.0578L31.8449 27.0359L31.8835 26.9429C31.8967 26.9107 31.9111 26.8821 31.926 26.8515C31.9933 26.7152 32.0826 26.5344 32.0746 26.0724L31.7878 26.2837H31.7875ZM24.2063 25.9868L23.9329 25.8208C23.8846 26.0354 23.8435 26.2748 23.8143 26.53C23.7826 26.8057 23.7649 27.0995 23.7658 27.3994C23.7649 27.6995 23.7829 27.993 23.8143 28.2688C23.8435 28.5242 23.8846 28.7636 23.9329 28.9785L24.2148 28.8069C24.6068 28.5678 25.0886 28.2741 25.4249 28.0769L25.4861 28.0411L25.5316 28.0958C25.5603 28.1305 25.6301 28.2638 25.6191 28.4304C25.6127 28.5281 25.5802 28.6389 25.4983 28.7508C25.3711 28.9413 25.2271 29.1721 25.0889 29.4C24.8856 29.7352 24.6948 30.0653 24.5866 30.2553C24.5477 30.345 24.5268 30.4441 24.5243 30.5516C24.5224 30.6293 24.5304 30.7126 24.5477 30.8006C25.3474 30.2497 26.1854 29.6272 26.9996 29.1135C27.1874 28.9952 27.4903 28.8041 27.5322 28.5764C27.4829 28.4501 27.4517 28.3488 27.4305 28.2399C27.4081 28.1263 27.3968 28.0061 27.3866 27.8414L27.3825 27.7756L27.5402 27.7245C27.7962 27.6426 27.9565 27.5913 28.0651 27.4069L28.0643 27.4052L28.0668 27.4005L28.0643 27.3955L28.0654 27.393C27.9567 27.2081 27.7965 27.1567 27.5408 27.0748L27.3825 27.024L27.3866 26.9582C27.3968 26.7932 27.4081 26.673 27.4305 26.5594C27.4517 26.4506 27.4826 26.3492 27.5322 26.2229C27.4903 25.9952 27.188 25.8044 27.0002 25.6861C26.1884 25.178 25.3446 24.5477 24.5477 23.9987C24.5301 24.0867 24.5224 24.17 24.5243 24.2478C24.5268 24.3555 24.5477 24.4544 24.5866 24.544C24.6948 24.734 24.8859 25.0644 25.0892 25.3998C25.2274 25.6275 25.3711 25.858 25.4983 26.0485C25.5799 26.1601 25.6127 26.2712 25.6191 26.3686C25.6301 26.5355 25.5603 26.6688 25.5316 26.7035L25.4861 26.7582L25.4249 26.7221C25.0864 26.5236 24.5999 26.227 24.2065 25.9871L24.2063 25.9868Z" fill="#D2AE6D"/>
<path d="M78.0002 36.795L77.6709 34.2456C78.2005 34.4714 78.7538 34.6591 79.3309 34.806C79.8809 34.9256 80.4069 34.987 80.9127 34.987C81.6393 34.987 82.2229 34.8368 82.661 34.5361C83.099 34.2317 83.3161 33.8286 83.3161 33.3196C83.3161 32.667 82.6439 31.8945 81.2997 30.9957L80.95 30.7633C79.6668 29.8817 78.8214 29.1469 78.4209 28.5558C78.0204 27.9646 77.8201 27.2846 77.8201 26.5157C77.8201 25.2478 78.2581 24.2432 79.1303 23.5051C79.9995 22.7668 81.1875 22.3978 82.6844 22.3978C83.0444 22.3978 83.2921 22.4011 83.4311 22.4114C83.5701 22.4216 83.8181 22.4455 84.1711 22.4833C84.5278 22.5174 84.9112 22.5891 85.3285 22.6952L85.6002 25.2445C85.3865 25.1523 85.1691 25.0701 84.9451 24.9985C84.7245 24.9302 84.4834 24.8652 84.2222 24.8035C83.7673 24.7044 83.3056 24.653 82.8405 24.653C82.1242 24.653 81.5745 24.7863 81.1875 25.0529C80.7972 25.3228 80.6035 25.6952 80.6035 26.1772C80.6035 26.4915 80.7293 26.8195 80.9836 27.1544C81.2349 27.4928 81.6084 27.8241 82.0972 28.1454L83.0138 28.7365C83.9676 29.338 84.5788 29.772 84.8433 30.0386C85.3354 30.5273 85.6852 30.9954 85.8956 31.443C86.1028 31.894 86.2079 32.393 86.2079 32.95C86.2079 34.2315 85.7293 35.2738 84.7755 36.0699C83.8214 36.866 82.5655 37.2626 81.0142 37.2626C80.4847 37.2626 79.9586 37.2251 79.4392 37.1498C78.9163 37.0712 78.438 36.9549 78 36.7944L78.0002 36.795ZM93.9714 25.0637C93.649 25.959 93.3298 26.8817 93.0176 27.8352L92.0332 30.9893H95.7028C95.438 30.0086 95.2648 29.373 95.1867 29.0789C95.1663 28.997 95.0543 28.6244 94.8472 27.9579C94.5554 26.9225 94.2633 25.959 93.9714 25.0634V25.0637ZM92.0941 22.5624L92.8885 22.5932L94.1921 22.6035L95.275 22.5932L95.9505 22.5624C96.2492 23.7312 96.5684 24.8757 96.901 26C97.2373 27.1244 97.6138 28.3067 98.0314 29.5404C98.8327 31.9154 99.7694 34.4236 100.835 37.0582H97.2541C97.1896 36.7369 97.1217 36.4259 97.0505 36.1219C96.9827 35.8175 96.8977 35.4896 96.7959 35.1342C96.6467 34.5089 96.4564 33.8424 96.2288 33.1421H91.4867C91.3 33.7436 91.1202 34.3759 90.9505 35.0353C90.9097 35.2028 90.8556 35.4421 90.7842 35.7565C90.7163 36.0708 90.6248 36.5048 90.5125 37.0585H87.2097C88.4622 33.9282 89.5148 31.1229 90.3633 28.6382C91.1712 26.2497 91.7482 24.2232 92.0944 22.5624H92.0941ZM103.435 22.6238H107.244C107.485 23.4099 107.722 24.1685 107.957 24.8893C108.191 25.6138 108.469 26.4099 108.785 27.2779C108.979 27.818 109.182 28.3783 109.393 28.9592C109.607 29.5401 109.814 30.0938 110.021 30.62C110.204 31.1087 110.435 31.6896 110.706 32.3627C111.297 30.8422 111.881 29.2086 112.455 27.4692C112.981 25.894 113.47 24.2776 113.928 22.6235H117.679C117.679 23.5429 117.72 24.4928 117.808 25.4666C117.872 26.2083 117.977 27.1002 118.123 28.1493C118.252 28.9967 118.378 29.8409 118.503 30.6814C118.84 33.1316 119.25 35.2572 119.735 37.0579H116.266C116.266 36.3915 116.249 35.7012 116.215 34.994C116.181 34.2937 116.141 33.617 116.096 32.9644C116.076 32.6704 116.022 32.0384 115.937 31.0712C115.937 30.5175 115.906 29.9436 115.842 29.3558C115.781 28.7646 115.703 28.1837 115.608 27.6164C115.516 27.0491 115.424 26.4924 115.33 25.9453C114.6 27.8558 113.907 29.7828 113.252 31.7307C112.947 32.6534 112.662 33.5589 112.397 34.4442C112.159 35.2266 111.908 36.0983 111.65 37.0585H109.502C109.019 35.2714 108.453 33.4329 107.801 31.5533C107.18 29.7287 106.464 27.8421 105.656 25.884C105.601 26.3316 105.537 26.8717 105.455 27.497C105.357 28.2523 105.289 28.8229 105.255 29.2092C105.197 29.8686 105.167 30.4803 105.167 31.0407C105.167 31.543 105.136 32.1511 105.079 32.8689C105.017 33.5864 104.96 34.3109 104.902 35.0456C104.848 35.7803 104.821 36.4501 104.821 37.0585H101.508C101.939 34.9842 102.319 32.7253 102.652 30.2821C102.692 29.9814 102.804 29.1647 102.991 27.8285C103.13 26.8206 103.232 25.9698 103.297 25.2759C103.392 24.2882 103.436 23.4032 103.436 22.6241L103.435 22.6238ZM121.803 37.0582C121.857 36.5184 121.912 35.9475 121.973 35.353C122.03 34.7549 122.061 34.1981 122.061 33.6853C122.061 33.183 122.068 32.7251 122.081 32.3047C122.126 30.8216 122.149 29.9877 122.149 29.8C122.149 29.3147 122.142 28.8704 122.129 28.4708C122.085 27.0799 122.061 26.3316 122.061 26.2189C122.061 25.7301 122.054 25.3645 122.037 25.122C122.02 24.8794 121.942 24.0455 121.803 22.6241H125.164C126.45 22.6241 127.394 22.6549 127.998 22.7129C128.602 22.7746 129.128 22.8734 129.58 23.0137C130.394 23.2527 131.036 23.6903 131.501 24.319C131.969 24.9513 132.204 25.6893 132.204 26.5368C132.204 27.4834 131.908 28.2692 131.318 28.8945C130.727 29.5165 129.865 29.9505 128.724 30.1896C129.149 30.3501 129.539 30.5964 129.895 30.931C130.069 31.0918 130.245 31.2831 130.418 31.5052C130.595 31.7307 130.775 31.987 130.961 32.2808C131.08 32.4688 131.406 33.1216 131.935 34.2456C132.424 35.2983 132.923 36.2379 133.426 37.0579H129.807C128.87 34.5086 128.082 32.8034 127.448 31.9456C126.81 31.0879 126.08 30.6608 125.255 30.6608H125.028V31.2998C125.028 31.5425 125.038 31.9423 125.065 32.5027C125.085 33.0699 125.095 33.5142 125.095 33.8355C125.095 34.3414 125.126 34.9323 125.19 35.6126C125.252 36.2893 125.296 36.7711 125.316 37.0582H121.803H121.803ZM125.028 29.1336L125.333 29.1644H125.822C126.946 29.1644 127.798 28.9629 128.378 28.563C128.958 28.1631 129.251 27.5925 129.251 26.8442C129.251 26.1572 129.003 25.6344 128.504 25.2756C128.005 24.9168 127.275 24.7358 126.311 24.7358L125.615 24.7461L125.096 24.7769L125.085 25.1665C125.085 25.6927 125.075 26.3966 125.055 27.2749C125.034 28.1531 125.028 28.7751 125.028 29.1339V29.1336ZM135.215 22.6238H138.816C138.738 23.4235 138.687 23.9394 138.667 24.1649C138.609 24.8177 138.579 25.3645 138.579 25.7985C138.579 26.1708 138.572 26.5879 138.558 27.0491C138.524 28.1973 138.507 28.9423 138.507 29.2908C138.507 31.6147 138.721 33.1352 139.145 33.8597C139.566 34.5841 140.34 34.9462 141.46 34.9462C142.499 34.9462 143.236 34.5977 143.667 33.9038C144.095 33.2102 144.312 31.9662 144.312 30.1721C144.312 29.6254 144.302 28.8906 144.281 27.9682C144.261 27.0488 144.251 26.3996 144.251 26.0273C144.251 25.46 144.237 24.9132 144.207 24.3904C144.176 23.8675 144.135 23.2763 144.081 22.6235H147.442C147.36 23.3719 147.282 24.1407 147.207 24.9371C147.129 25.7299 147.092 26.4304 147.092 27.0385C147.092 27.5647 147.082 28.0809 147.061 28.5899C147.004 30.1105 146.973 30.9307 146.973 31.0504V31.7304C146.973 32.619 146.841 33.4118 146.579 34.109C146.318 34.806 145.934 35.4041 145.432 35.9031C144.461 36.8769 143.11 37.3656 141.372 37.3656C139.583 37.3656 138.202 36.8769 137.234 35.9031C136.752 35.411 136.372 34.8026 136.1 34.0818C135.829 33.364 135.693 32.5474 135.693 31.6419V31.4814C135.693 31.1193 135.679 30.6442 135.652 30.0494C135.594 28.7165 135.563 27.8147 135.563 27.3465C135.563 26.7623 135.543 26.1847 135.503 25.6174C135.496 25.4908 135.401 24.4931 135.214 22.6238H135.215ZM150.504 22.6238H154.014C154.014 22.9517 153.993 23.3449 153.952 23.8061C153.861 24.886 153.813 25.583 153.813 25.8973L153.705 29.3899C154.573 28.3475 155.347 27.261 156.027 26.1333C156.709 25.0024 157.296 23.83 157.795 22.6238H161.713C160.799 23.7925 159.941 24.9271 159.14 26.0273C158.871 26.386 158.613 26.745 158.362 27.0969C158.111 27.4523 157.846 27.828 157.568 28.2281C157.263 28.6688 156.997 29.0517 156.77 29.3694C157.096 29.5848 157.425 29.8717 157.755 30.2374C158.087 30.5997 158.478 31.1054 158.929 31.7513L160.002 33.3437C160.545 34.1845 161.057 34.9226 161.533 35.5582C161.991 36.1699 162.405 36.6722 162.779 37.0585H158.529C157.741 35.3019 156.947 33.8394 156.142 32.664C155.338 31.4886 154.53 30.5964 153.715 29.9916C153.715 30.4973 153.722 30.9827 153.736 31.4405C153.777 32.8245 153.797 33.5831 153.797 33.723C153.797 34.2392 153.817 34.8062 153.865 35.4249C153.871 35.5582 153.923 36.1049 154.014 37.0585H150.504C150.504 36.7097 150.558 35.9444 150.664 34.7554C150.715 34.1609 150.742 33.7028 150.742 33.3748C150.742 32.8795 150.748 32.4352 150.762 32.0353C150.809 30.6378 150.833 29.8961 150.833 29.8006C150.833 29.353 150.827 28.9429 150.813 28.5702C150.766 27.2682 150.742 26.5437 150.742 26.3968C150.742 26.1031 150.691 25.3409 150.582 24.1038C150.531 23.4854 150.504 22.9898 150.504 22.6241L150.504 22.6238ZM176.329 24.7152C175.189 24.7152 174.33 25.1423 173.753 25.9967C173.175 26.8508 172.887 28.1326 172.887 29.8411C172.887 31.543 173.175 32.8209 173.753 33.6786C174.33 34.5364 175.189 34.9667 176.329 34.9667C177.456 34.9667 178.312 34.5363 178.895 33.675C179.479 32.8139 179.771 31.5358 179.771 29.8409C179.771 28.1459 179.483 26.8678 178.906 26.0067C178.329 25.1456 177.47 24.715 176.329 24.715V24.7152ZM177.551 36.8977C178.009 37.0651 178.498 37.1984 179.018 37.2976C179.537 37.3967 180.033 37.4481 180.501 37.4481C180.861 37.4481 181.217 37.4275 181.581 37.3831C181.94 37.3386 182.293 37.2737 182.636 37.1881L182.27 39.5767C182.117 39.6178 181.954 39.6586 181.785 39.6964C181.611 39.7375 181.391 39.7786 181.126 39.823C180.861 39.8674 180.579 39.888 180.281 39.888C179.738 39.888 179.208 39.823 178.692 39.6967C178.176 39.5703 177.677 39.3823 177.202 39.1294L176.268 38.6304C174.89 37.889 173.818 37.3864 173.057 37.1201L173.393 36.5084C172.246 36.0266 171.374 35.2269 170.773 34.1096C170.172 32.9922 169.873 31.6047 169.873 29.9439C169.873 27.562 170.44 25.6927 171.577 24.3429C172.715 22.9931 174.29 22.3164 176.306 22.3164C178.312 22.3164 179.897 22.9931 181.062 24.3429C182.226 25.6927 182.806 27.5414 182.806 29.8822C182.806 31.8845 182.341 33.5078 181.408 34.7552C180.474 36.0025 179.188 36.7167 177.552 36.8977H177.551ZM188.369 30.8935C187.633 29.4174 186.845 27.9582 186.01 26.516C185.223 25.1493 184.415 23.8506 183.587 22.6238H187.27C187.446 23.1775 187.769 23.953 188.227 24.9441C188.689 25.9384 189.283 27.1413 190.005 28.5491C190.633 27.4009 191.18 26.3449 191.645 25.3847C191.859 24.9507 192.076 24.4759 192.3 23.9564C192.494 23.5087 192.68 23.0645 192.857 22.6235H196.031C195.315 23.6898 194.564 24.8993 193.774 26.2458C193.39 26.895 192.989 27.5989 192.572 28.3578C192.158 29.1197 191.716 29.933 191.251 30.8011C191.251 31.1565 191.268 31.8945 191.302 33.0155C191.316 33.4598 191.323 33.8699 191.323 34.2356C191.323 34.6491 191.333 35.0112 191.357 35.3258C191.38 35.6401 191.448 36.2177 191.56 37.0582H188.04C188.108 36.5184 188.166 36.0125 188.213 35.541C188.264 35.0695 188.288 34.6185 188.288 34.1845C188.288 33.846 188.302 33.3096 188.329 32.5854C188.356 31.8573 188.37 31.2937 188.37 30.8938L188.369 30.8935ZM197.677 22.6238H206.516C206.564 22.9828 206.628 23.3174 206.717 23.632C206.761 23.8028 206.812 23.9702 206.869 24.1343C206.927 24.2948 206.992 24.4623 207.063 24.6264C206.89 24.8691 206.472 25.4669 205.81 26.4205C205.6 26.7212 205.192 27.3123 204.599 28.1873C203.967 29.1097 203.573 29.6873 203.414 29.9197C202.932 30.6508 202.558 31.2115 202.3 31.6044C202.12 31.8812 201.764 32.4349 201.228 33.2685C200.966 33.6786 200.62 34.2254 200.182 34.9154H201.156C201.594 34.9154 202.042 34.9051 202.5 34.8845C203.719 34.8298 204.381 34.8026 204.486 34.8026C204.911 34.8026 205.369 34.7685 205.861 34.6932C206.153 34.6488 206.56 34.5702 207.083 34.4644L206.676 37.0582H197.099C197.079 36.9455 197.052 36.8155 197.015 36.6756C196.978 36.532 196.933 36.3782 196.882 36.2107C196.828 36.0433 196.777 35.8861 196.726 35.7356C196.675 35.5887 196.611 35.418 196.533 35.223C198.104 33.0633 199.459 31.1429 200.599 29.4549C201.74 27.7666 202.748 26.1914 203.624 24.7255H202.656C202.259 24.7255 201.723 24.7425 201.047 24.7769C200.372 24.811 199.893 24.828 199.615 24.828C199.231 24.828 198.81 24.8588 198.352 24.9271C198.04 24.9749 197.666 25.0435 197.228 25.1356L197.676 22.6238H197.677ZM210.054 22.6238H213.862C214.103 23.4099 214.341 24.1685 214.575 24.8893C214.81 25.6138 215.088 26.4099 215.403 27.2779C215.597 27.818 215.801 28.3783 216.011 28.9592C216.225 29.5401 216.432 30.0938 216.639 30.62C216.822 31.1087 217.053 31.6896 217.325 32.3627C217.915 30.8422 218.499 29.2086 219.073 27.4692C219.599 25.894 220.088 24.2776 220.546 22.6235H224.297C224.297 23.5429 224.338 24.4928 224.426 25.4666C224.491 26.2083 224.596 27.1002 224.742 28.1493C224.871 28.9967 224.996 29.8409 225.122 30.6814C225.458 33.1316 225.868 35.2572 226.354 37.0579H222.885C222.885 36.3915 222.868 35.7012 222.834 34.994C222.8 34.2937 222.759 33.617 222.715 32.9644C222.694 32.6704 222.64 32.0384 222.555 31.0712C222.555 30.5175 222.525 29.9436 222.461 29.3558C222.399 28.7646 222.321 28.1837 222.226 27.6164C222.135 27.0491 222.043 26.4924 221.948 25.9453C221.218 27.8558 220.526 29.7828 219.871 31.7307C219.565 32.6534 219.28 33.5589 219.015 34.4442C218.778 35.2266 218.527 36.0983 218.269 37.0585H216.12C215.638 35.2714 215.071 33.4329 214.419 31.5533C213.798 29.7287 213.082 27.8421 212.274 25.884C212.22 26.3316 212.155 26.8717 212.074 27.497C211.975 28.2523 211.908 28.8229 211.874 29.2092C211.816 29.8686 211.785 30.4803 211.785 31.0407C211.785 31.543 211.755 32.1511 211.697 32.8689C211.636 33.5864 211.578 34.3109 211.521 35.0456C211.466 35.7803 211.439 36.4501 211.439 37.0585H208.126C208.557 34.9842 208.937 32.7253 209.27 30.2821C209.311 29.9814 209.423 29.1647 209.61 27.8285C209.749 26.8206 209.851 25.9698 209.915 25.2759C210.01 24.2882 210.054 23.4032 210.054 22.6241L210.054 22.6238ZM228.462 22.6238H236.66L236.908 25.0468C236.596 24.999 236.287 24.9513 235.981 24.8966C235.652 24.8488 235.336 24.8247 235.038 24.8247C234.8 24.8247 234.461 24.8144 234.019 24.7905C233.578 24.7666 233.289 24.7563 233.157 24.7563H231.714V28.3445H236.888L236.48 30.6578C235.971 30.5964 235.601 30.5553 235.37 30.5381C235.143 30.5176 234.953 30.5073 234.8 30.5073C234.559 30.5073 234.226 30.497 233.795 30.4765C233.364 30.4628 233.089 30.4559 232.977 30.4559H231.714V34.9256H232.77C233.035 34.9256 233.408 34.912 233.894 34.8845C234.372 34.864 234.681 34.8537 234.827 34.8537C235.105 34.8537 235.326 34.8468 235.486 34.8299C235.645 34.8129 236.151 34.741 237.006 34.6147L236.579 37.0579H228.462C228.54 36.2038 228.591 35.6432 228.612 35.3766C228.669 34.6624 228.7 34.0679 228.7 33.5928C228.7 33.0938 228.707 32.6359 228.721 32.2225C228.765 30.7666 228.788 29.9603 228.788 29.7998C228.788 29.3522 228.782 28.942 228.768 28.5694C228.724 27.2607 228.7 26.5329 228.7 26.3857C228.7 26.085 228.646 25.3231 228.54 24.0963C228.489 23.4813 228.462 22.9892 228.462 22.6235V22.6238ZM242.254 37.0582C242.322 36.4293 242.38 35.8142 242.431 35.2128C242.478 34.608 242.506 34.0337 242.506 33.4939C242.506 32.9405 242.512 32.4177 242.523 31.922C242.57 30.1929 242.594 29.1814 242.594 28.8807L242.584 26.2663V26.0578V25.8768V25.7263V25.5963V25.4869C242.584 25.3603 242.58 25.2306 242.574 25.1043C242.567 24.9777 242.553 24.8549 242.533 24.735C241.711 24.735 240.92 24.7794 240.163 24.8649C239.481 24.9266 238.863 25.0257 238.313 25.1656L238.622 22.6232H249.437L249.716 25.1656C249.179 25.0324 248.565 24.9332 247.862 24.8649C247.519 24.8308 247.146 24.8035 246.746 24.7761C246.341 24.7486 245.931 24.735 245.507 24.735L245.446 26.4982L245.435 28.3672C245.435 29.1361 245.442 29.84 245.456 30.4792C245.497 32.3963 245.517 33.3701 245.517 33.4043C245.517 33.9785 245.548 34.6174 245.605 35.325C245.632 35.6051 245.694 36.1827 245.785 37.0574H242.255L242.254 37.0582Z" fill="#17335D"/>
<path d="M27.8171 41.6119C24.0848 41.6119 20.7056 40.0888 18.2601 37.6272C15.8149 35.1654 14.3019 31.7636 14.3019 28.0063C14.3019 24.25 15.8149 20.8476 18.2601 18.3863C20.7056 15.9236 24.0851 14.4005 27.8171 14.4005C31.5491 14.4005 34.9286 15.9247 37.3736 18.3863C39.8188 20.8479 41.3317 24.2488 41.3317 28.0063C41.3317 31.7636 39.8188 35.1654 37.3736 37.6272C34.9283 40.0888 31.5488 41.6119 27.8171 41.6119ZM27.8171 0.000277947C25.1338 0.000277947 22.5198 0.392081 20.0315 1.1207C16.825 2.06119 13.7585 3.60812 11.0882 5.63154C10.09 6.39015 9.89111 7.82073 10.645 8.82592C11.3988 9.83082 12.8199 10.0302 13.8184 9.27159C16.0706 7.56083 18.5765 6.28852 21.2901 5.49326C23.3426 4.89237 25.5324 4.56887 27.8171 4.56887C34.2467 4.56887 40.0676 7.19235 44.2798 11.4338C48.4934 15.6742 51.0992 21.534 51.0992 28.0063C51.0992 31.7378 50.232 35.3131 48.6539 38.4908C47.3857 41.0446 45.6595 43.3551 43.556 45.2958L40.4317 41.0071C43.924 37.5406 45.8703 32.9542 45.8703 28.0063C45.8703 22.9879 43.8495 18.444 40.5831 15.1555C37.3162 11.867 32.8028 9.83193 27.8171 9.83193C22.8317 9.83193 18.318 11.867 15.0514 15.1555C11.7844 18.444 9.76367 22.9879 9.76367 28.0063C9.76367 33.0256 11.7844 37.5695 15.0514 40.8577C18.318 44.1465 22.8317 46.1808 27.8171 46.1808C31.0965 46.1808 34.172 45.2997 36.823 43.7617L41.3406 49.9555C42.0894 50.9607 43.5067 51.1648 44.5049 50.4106C47.9809 47.7857 50.777 44.3903 52.6954 40.5259C54.5943 36.702 55.638 32.4317 55.638 28.0063C55.638 20.2731 52.5233 13.2707 47.4894 8.20282C42.4546 3.13552 35.4998 0 27.8171 0V0.000277947Z" fill="#17335D"/>
<path d="M9.07144 10.3771C8.08755 9.60292 6.66647 9.77924 5.89773 10.7697C4.01049 13.1988 2.51465 15.9375 1.50594 18.8898C-0.253587 24.0354 -0.475079 29.6797 0.861598 34.9522C1.1697 36.174 2.40432 36.9123 3.61798 36.6024C4.83219 36.2923 5.56617 35.0497 5.2578 33.8268C4.1382 29.414 4.32328 24.6785 5.79649 20.3706C6.64798 17.8801 7.89612 15.5871 9.46146 13.5723C10.2302 12.5818 10.0556 11.1512 9.07171 10.3771H9.07144Z" fill="#D2AE6D"/>
<path d="M15.5499 47.9405C13.8579 46.8829 12.3141 45.6166 10.9548 44.1813C9.59082 42.7394 8.40806 41.1255 7.44485 39.3803C6.83775 38.2821 5.46052 37.8865 4.36906 38.4968C3.27759 39.1082 2.88426 40.4955 3.49164 41.594C4.64544 43.6849 6.05466 45.6089 7.67462 47.3219C9.30589 49.0451 11.1482 50.5573 13.1562 51.8135C14.2184 52.4786 15.6161 52.1512 16.2767 51.0819C16.9373 50.0123 16.6121 48.6058 15.5499 47.9405Z" fill="#D2AE6D"/>
<path d="M27.4542 51.4486C26.344 51.4325 25.249 51.3359 24.1776 51.1674C23.09 50.996 22.0231 50.7467 20.9852 50.4263C19.7908 50.0625 18.5286 50.7414 18.1662 51.9435C17.804 53.1461 18.479 54.4178 19.6733 54.7816C20.906 55.162 22.1801 55.4583 23.4864 55.6643C24.7624 55.8654 26.0704 55.9803 27.4015 55.9995C28.6494 56.0139 29.6736 55.0079 29.6882 53.7506C29.7031 52.4944 28.7026 51.4634 27.4542 51.4489V51.4486Z" fill="#D2AE6D"/>
<path d="M36.2891 49.8609C35.8817 50.0209 35.4702 50.1689 35.0584 50.3049C34.497 50.4887 33.9492 50.6426 33.3876 50.7842C32.1732 51.0894 31.4359 52.3283 31.739 53.5498C32.0421 54.7713 33.2729 55.5147 34.4863 55.2095C35.1394 55.0451 35.8139 54.8535 36.4582 54.6417C36.9613 54.4762 37.4548 54.2982 37.9375 54.1085C39.1023 53.6501 39.678 52.3275 39.2226 51.1549C38.7675 49.9817 37.4537 49.4028 36.2888 49.8612L36.2891 49.8609Z" fill="#D2AE6D"/>
</svg>
