<svg aria-hidden="true" style="position: absolute; width: 0; height: 0; overflow: hidden;" version="1.1" xmlns="http://www.w3.org/2000/svg" xmlns:xlink="http://www.w3.org/1999/xlink">
<defs>
<symbol id="arrowDown" viewBox="0 0 51 32">
<path fill="#fff" style="fill: var(--color1, #fff)" d="M25.482 31.219l24.634-24.634-5.792-5.8-18.842 18.854-18.838-18.854-5.796 5.796 24.634 24.638z"></path>
</symbol>
<symbol id="buttonMenu" viewBox="0 0 46 32">
<path  stroke-linejoin="miter" stroke-linecap="butt" stroke-miterlimit="4" stroke-width="4.3636" d="M45.818 2.182h-45.818"></path>
<path  stroke-linejoin="miter" stroke-linecap="butt" stroke-miterlimit="4" stroke-width="4.3636" d="M45.818 16h-32.727"></path>
<path   stroke-linejoin="miter" stroke-linecap="butt" stroke-miterlimit="4" stroke-width="4.3636" d="M45.818 29.818h-17.455"></path>
</symbol>
<symbol id="check-mark" viewBox="0 0 32 32">
<path fill="#1baf3c" style="fill: var(--color2, #1baf3c)" d="M31.531 4.718c-0.625-0.625-1.638-0.625-2.263 0l-19.169 19.169-7.368-7.368c-0.625-0.625-1.638-0.625-2.263 0s-0.625 1.638 0 2.263l8.5 8.499c0.625 0.625 1.638 0.624 2.263 0l20.3-20.3c0.625-0.625 0.625-1.638 0-2.263z"></path>
</symbol>
<symbol id="cross" viewBox="0 0 32 32">
<path fill="none"   stroke-linejoin="miter" stroke-linecap="butt" stroke-miterlimit="4" stroke-width="1.5238" d="M0.762 0.762l30.476 30.476"></path>
<path fill="none"  stroke-linejoin="miter" stroke-linecap="butt" stroke-miterlimit="4" stroke-width="1.5238" d="M31.238 0.762l-30.476 30.476"></path>
</symbol>
<symbol id="cross2" viewBox="0 0 32 32">
<path fill="none" stroke="#fff" style="stroke: var(--color1, #FF0000)" stroke-linejoin="miter" stroke-linecap="butt" stroke-miterlimit="4" stroke-width="1.5238" d="M0.762 0.762l30.476 30.476"></path>
<path fill="none" stroke="#fff" style="stroke: var(--color1, #FF0000)" stroke-linejoin="miter" stroke-linecap="butt" stroke-miterlimit="4" stroke-width="1.5238" d="M31.238 0.762l-30.476 30.476"></path>
</symbol>
<symbol id="email-marketing" viewBox="0 0 32 32">
<path d="M32 13.407c0-0.11-0.043-0.231-0.11-0.317l-4.157-5.254v-7.321c0-0.285-0.235-0.516-0.526-0.516h-22.414c-0.291 0-0.526 0.231-0.526 0.516v7.321l-4.157 5.254c-0.068 0.086-0.11 0.207-0.11 0.317v18.077c0 0.005 0.003 0.010 0.003 0.015 0.002 0.058 0.011 0.116 0.033 0.172 0.001 0.002 0.003 0.004 0.004 0.007 0.005 0.013 0.014 0.023 0.020 0.035 0.022 0.043 0.048 0.082 0.080 0.117 0.014 0.015 0.028 0.026 0.043 0.039 0.033 0.028 0.068 0.051 0.107 0.071 0.017 0.009 0.033 0.018 0.051 0.024 0.058 0.022 0.119 0.036 0.184 0.036h30.949c0.065 0 0.126-0.015 0.184-0.037 0.018-0.007 0.034-0.016 0.052-0.025 0.039-0.019 0.074-0.042 0.107-0.070 0.015-0.013 0.030-0.025 0.043-0.039 0.032-0.035 0.058-0.074 0.080-0.116 0.006-0.012 0.015-0.022 0.021-0.035 0.001-0.002 0.003-0.004 0.004-0.006 0.022-0.056 0.031-0.114 0.033-0.172 0-0.005 0.003-0.009 0.003-0.015v-18.077h-0zM30.948 14.363v15.947l-10.325-9.292 10.325-6.655zM30.71 13.283l-2.977 1.919v-5.682l2.977 3.763zM26.681 1.032v14.847l-6.91 4.454c-2.512-1.602-5.046-1.602-7.543-0l-6.91-4.454v-14.847h21.363zM1.051 14.363l10.325 6.655-10.325 9.292v-15.947zM4.267 15.201l-2.977-1.919 2.977-3.763v5.682zM1.877 30.968l10.682-9.614c2.308-1.59 4.559-1.59 6.882 0l10.682 9.613h-28.246z"></path>
<path d="M9.341 10.761v4.159c-0.001 0.495-0.002 1.112 0.432 1.537 0.257 0.253 0.616 0.381 1.065 0.381h2.044c0.825 0 1.497-0.66 1.497-1.47 0-0.638-0.416-1.183-1.020-1.385v-2.626c0.29 0.156 0.564 0.439 0.912 0.816 0.605 0.657 1.359 1.474 2.659 1.474 1.812 0 2.77-0.94 2.77-2.718v-0.896h0.197c1.097 0 1.989-0.876 1.989-1.953s-0.892-1.953-1.989-1.953h-0.197v-0.894c0-1.779-0.958-2.719-2.77-2.719-1.3 0-2.054 0.818-2.659 1.475-0.545 0.591-0.906 0.954-1.437 0.954h-1.836c-1.763 0-3.197 1.408-3.197 3.138-0 1.135 0.619 2.129 1.541 2.68zM12.882 15.806h-2.044c-0.090 0-0.252-0.010-0.321-0.078-0.125-0.123-0.125-0.518-0.124-0.807v-3.759c0.196 0.037 0.398 0.058 0.605 0.058h1.311v3.195c0 0.285 0.284 0.516 0.575 0.516 0.246 0 0.446 0.196 0.446 0.438s-0.2 0.438-0.446 0.438zM19.897 7.16c0.517 0 0.937 0.413 0.937 0.92s-0.42 0.92-0.937 0.92h-0.197v-1.841h0.197zM18.648 5.234v5.695c0 1.115-0.44 1.609-1.486 1.673v-9.042c1.046 0.063 1.486 0.558 1.486 1.674zM15.050 4.681c0.349-0.379 0.669-0.725 1.061-0.933v8.664c-0.392-0.208-0.712-0.554-1.061-0.932-0.456-0.494-0.965-1.035-1.691-1.221v-4.356c0.726-0.186 1.235-0.727 1.691-1.222zM10.997 5.975h1.311v4.212h-1.311c-1.183 0-2.146-0.945-2.146-2.107 0-1.161 0.963-2.105 2.146-2.105z"></path>
<path d="M22.922 8.597h1.24c0.291 0 0.526-0.231 0.526-0.516s-0.235-0.516-0.526-0.516h-1.24c-0.291 0-0.526 0.231-0.526 0.516s0.235 0.516 0.526 0.516z"></path>
<path d="M23.096 6.926c0.131 0 0.263-0.048 0.365-0.145l0.892-0.845c0.209-0.198 0.215-0.525 0.013-0.73s-0.534-0.21-0.743-0.013l-0.892 0.845c-0.209 0.198-0.215 0.525-0.013 0.73 0.103 0.105 0.241 0.158 0.378 0.158z"></path>
<path d="M23.46 9.38c-0.209-0.198-0.542-0.193-0.743 0.013s-0.196 0.532 0.013 0.73l0.892 0.845c0.102 0.097 0.234 0.145 0.365 0.145 0.138 0 0.275-0.053 0.378-0.158 0.201-0.205 0.196-0.532-0.013-0.73l-0.892-0.845z"></path>
</symbol>
<symbol id="facebook" viewBox="0 0 32 32">
<path d="M2.669 16.003c0.002 6.559 4.771 12.144 11.249 13.172v-9.319h-3.383v-3.853h3.387v-2.933c-0.151-1.39 0.323-2.775 1.295-3.78s2.341-1.525 3.735-1.42c1.001 0.016 1.999 0.105 2.987 0.267v3.279h-1.685c-0.58-0.076-1.164 0.116-1.586 0.521s-0.637 0.98-0.585 1.563v2.504h3.695l-0.591 3.855h-3.104v9.317c7.006-1.107 11.919-7.506 11.179-14.56s-6.872-12.295-13.956-11.925c-7.083 0.37-12.637 6.22-12.638 13.313z"></path>
</symbol>
<symbol id="facebook-marketing" viewBox="0 0 32 32">
<path d="M22.752 23.534c0-0.992-0.662-1.832-1.567-2.102 0.166-0.309 0.26-0.661 0.26-1.035 0-1.209-0.984-2.193-2.193-2.193h-3.909l0.358-1.064c0.371-1.103 0.283-2.28-0.25-3.314s-1.439-1.791-2.552-2.129c-0.319-0.097-0.656 0.073-0.77 0.385l-1.334 3.686c-0.367 1.013-1.090 1.855-2.037 2.371l-0.856 0.466c-0.090-0.234-0.317-0.401-0.583-0.401h-6.696c-0.345 0-0.625 0.28-0.625 0.625v12.545c0 0.345 0.28 0.625 0.625 0.625h6.696c0.345 0 0.625-0.28 0.625-0.625v-0.004l0.271 0.106c0.885 0.347 1.816 0.523 2.767 0.523h7.92c1.21 0 2.193-0.984 2.193-2.193 0-0.384-0.099-0.745-0.273-1.059 0.867-0.293 1.492-1.113 1.492-2.078 0-0.513-0.178-0.985-0.474-1.359 0.551-0.399 0.91-1.046 0.91-1.777zM1.25 30.75v-11.296h2.095v4.698c0 0.345 0.28 0.625 0.625 0.625s0.625-0.28 0.625-0.625v-4.698h2.1v11.296h-5.446zM20.122 27.614h-3.31c-0.345 0-0.625 0.28-0.625 0.625s0.28 0.625 0.625 0.625h2.091c0.52 0 0.943 0.423 0.943 0.943s-0.423 0.943-0.943 0.943h-7.92c-0.794 0-1.571-0.147-2.31-0.437l-0.727-0.285v-10.022l1.411-0.769c1.215-0.662 2.143-1.743 2.614-3.043l1.112-3.074c0.536 0.285 0.971 0.726 1.256 1.279 0.377 0.731 0.439 1.564 0.177 2.343l-0.636 1.888c-0.064 0.191-0.033 0.401 0.085 0.564s0.306 0.261 0.508 0.261h4.779c0.52 0 0.943 0.423 0.943 0.943s-0.423 0.943-0.943 0.943h-2.439c-0.345 0-0.625 0.28-0.625 0.625s0.28 0.625 0.625 0.625h3.746c0.52 0 0.943 0.423 0.943 0.943s-0.423 0.943-0.943 0.943h-3.746c-0.345 0-0.625 0.28-0.625 0.625s0.28 0.625 0.625 0.625h3.31c0.52 0 0.943 0.423 0.943 0.943s-0.423 0.943-0.943 0.943z"></path>
<path d="M3.97 26.020c-0.345 0-0.625 0.28-0.625 0.625v0.007c0 0.345 0.28 0.625 0.625 0.625s0.625-0.28 0.625-0.625v-0.007c0-0.345-0.28-0.625-0.625-0.625z"></path>
<path d="M25.671 5.352h-0.246c-1.25 0-2.267 1.017-2.267 2.267v0.753h-0.080c-0.345 0-0.625 0.28-0.625 0.625s0.28 0.625 0.625 0.625h0.080v2.401c0 0.345 0.28 0.625 0.625 0.625s0.625-0.28 0.625-0.625v-2.401h1.036c0.345 0 0.625-0.28 0.625-0.625s-0.28-0.625-0.625-0.625h-1.036v-0.753c0-0.561 0.456-1.017 1.017-1.017h0.246c0.345 0 0.625-0.28 0.625-0.625s-0.28-0.625-0.625-0.625z"></path>
<path d="M24.375 1.375c-4.205 0-7.625 3.421-7.625 7.625s3.42 7.625 7.625 7.625c4.204 0 7.625-3.421 7.625-7.625s-3.42-7.625-7.625-7.625zM24.375 15.375c-3.515 0-6.375-2.86-6.375-6.375s2.86-6.375 6.375-6.375c3.515 0 6.375 2.86 6.375 6.375s-2.86 6.375-6.375 6.375z"></path>
</symbol>
<symbol id="reclam" viewBox="0 0 34 32">
<path d="M15.899 17.985h-0.403v-1.316c0-2.228-1.177-3.406-3.404-3.406-1.603 0-2.506 0.998-3.303 1.878-0.629 0.695-1.172 1.294-1.952 1.294h-2.357c-2.179 0-3.952 1.774-3.952 3.954 0 1.459 0.797 2.733 1.977 3.418v5.522c-0.001 0.619-0.002 1.389 0.51 1.902 0.301 0.302 0.726 0.455 1.263 0.455h2.621c0.979 0 1.775-0.796 1.775-1.775 0-0.817-0.556-1.507-1.309-1.712v-1.113c0.748-0.030 1.504-0.188 1.852-0.992 0.705 0.735 1.55 1.42 2.877 1.42 2.227 0 3.404-1.177 3.404-3.404v-1.318h0.404c1.325 0 2.403-1.078 2.403-2.403s-1.078-2.404-2.403-2.404zM1.581 20.39c0-1.599 1.3-2.9 2.898-2.9h1.83v5.798h-1.83c-1.598 0-2.898-1.3-2.898-2.898zM7.619 29.911c0 0.398-0.324 0.721-0.721 0.721h-2.621c-0.247 0-0.421-0.049-0.517-0.146-0.203-0.203-0.203-0.731-0.202-1.155v-5.102c0.296 0.071 0.604 0.113 0.921 0.113h1.83v4.323c0 0.291 0.236 0.527 0.527 0.527h0.061c0.397 0 0.721 0.323 0.721 0.719zM7.363 26.031v-1.59c0.357 0.136 0.672 0.401 0.989 0.725-0.033 0.687-0.257 0.837-0.989 0.865zM9.57 24.929c-0.621-0.686-1.263-1.386-2.207-1.582v-5.915c0.944-0.196 1.586-0.897 2.207-1.582 0.499-0.552 0.983-1.076 1.616-1.344v11.768c-0.633-0.268-1.117-0.793-1.616-1.344zM14.441 24.111c0 1.594-0.666 2.297-2.201 2.341v-12.126c1.535 0.044 2.201 0.748 2.201 2.343v7.442zM15.899 21.739h-0.403v-2.699h0.403c0.744 0 1.349 0.606 1.349 1.351 0 0.744-0.605 1.349-1.349 1.349z"></path>
<path d="M21.368 19.863h-1.589c-0.291 0-0.527 0.236-0.527 0.527s0.236 0.527 0.527 0.527h1.589c0.291 0 0.527-0.236 0.527-0.527s-0.236-0.527-0.527-0.527z"></path>
<path d="M20.366 18.585l1.144-1.104c0.209-0.202 0.215-0.536 0.013-0.745-0.201-0.209-0.535-0.215-0.745-0.013l-1.144 1.104c-0.209 0.202-0.215 0.536-0.013 0.745 0.103 0.107 0.241 0.161 0.379 0.161 0.132 0 0.264-0.049 0.366-0.148z"></path>
<path d="M20.366 22.195c-0.209-0.202-0.543-0.196-0.745 0.013s-0.196 0.543 0.013 0.745l1.144 1.104c0.102 0.099 0.234 0.148 0.366 0.148 0.138 0 0.276-0.054 0.379-0.161 0.202-0.209 0.196-0.543-0.013-0.745l-1.144-1.104z"></path>
<path d="M18.676 3.184c-0.084-0.19-0.273-0.313-0.482-0.313s-0.397 0.123-0.481 0.313l-1.973 4.439c-0.118 0.266 0.002 0.577 0.267 0.696 0.265 0.119 0.577-0.002 0.696-0.267l0.247-0.557h2.488l0.247 0.557c0.087 0.196 0.28 0.313 0.482 0.313 0.072 0 0.144-0.015 0.214-0.046 0.266-0.118 0.386-0.429 0.267-0.696l-1.973-4.439zM17.419 6.441l0.776-1.745 0.776 1.745h-1.551z"></path>
<path d="M22.994 2.871h-1.062c-0.291 0-0.527 0.236-0.527 0.527v4.439c0 0.291 0.236 0.527 0.527 0.527h1.062c1.515 0 2.747-1.232 2.747-2.747 0-1.514-1.232-2.746-2.747-2.746zM22.994 7.31h-0.535v-3.385h0.535c0.934 0 1.693 0.759 1.693 1.691s-0.76 1.693-1.693 1.693z"></path>
<path d="M28.262 5.047c-0.933-0.193-0.968-0.298-0.941-0.58 0.068-0.472 0.556-0.533 0.704-0.541 0.382-0.021 0.821 0.156 0.93 0.593 0.070 0.282 0.357 0.455 0.639 0.384 0.283-0.070 0.454-0.356 0.384-0.639-0.216-0.868-1.048-1.44-2.006-1.391-0.895 0.045-1.577 0.625-1.698 1.468-0.13 1.344 1.062 1.59 1.774 1.738 0.884 0.183 1.049 0.291 1.039 0.637-0.041 0.357-0.402 0.552-0.743 0.587-0.398 0.041-0.887-0.12-1.076-0.691-0.091-0.276-0.389-0.427-0.665-0.336s-0.427 0.389-0.336 0.665c0.329 0.998 1.191 1.421 1.969 1.421 0.073 0 0.145-0.004 0.215-0.011 0.913-0.093 1.589-0.702 1.686-1.557 0.046-1.351-1.157-1.599-1.876-1.748z"></path>
<path d="M30.674 0.314h-15.283c-1.376 0-2.487 1.104-2.529 2.529l0 6.211c-0.020 0.657 0.226 1.284 0.693 1.766 0.48 0.495 1.149 0.779 1.836 0.779h2.282l-0.42 2.715c-0.005 0.032-0.007 0.064-0.006 0.097 0.014 0.451 0.222 0.811 0.557 0.964 0.084 0.039 0.207 0.077 0.359 0.077 0.207 0 0.468-0.071 0.764-0.311 0.023-0.018 0.044-0.039 0.063-0.061l3.065-3.481h8.619c1.395 0 2.529-1.134 2.529-2.529v-6.228c0-1.395-1.134-2.529-2.529-2.529zM32.149 9.071c0 0.813-0.662 1.475-1.475 1.475h-8.857c-0.151 0-0.295 0.065-0.395 0.179l-3.090 3.508 0.476-3.079c0.023-0.152-0.021-0.307-0.121-0.424s-0.246-0.184-0.4-0.184h-2.896c-0.403 0-0.796-0.167-1.079-0.459-0.267-0.276-0.408-0.631-0.396-1.016l-0-6.212c0.025-0.836 0.673-1.49 1.475-1.49h15.283c0.813-0 1.475 0.662 1.475 1.475v6.228z"></path>
</symbol>
<symbol id="google-analitics" viewBox="0 0 32 32">
<path d="M4.008 17.387h-1.401c-0.611 0.001-1.197 0.244-1.629 0.676s-0.675 1.018-0.676 1.629v9.72c0.001 0.611 0.244 1.197 0.676 1.629s1.018 0.675 1.629 0.676h1.401c0.611-0.001 1.197-0.244 1.629-0.676s0.675-1.018 0.676-1.629v-9.72c-0.001-0.611-0.244-1.197-0.676-1.629s-1.018-0.675-1.629-0.676zM5.136 29.412c-0 0.299-0.119 0.586-0.331 0.797s-0.498 0.33-0.797 0.331h-1.401c-0.299-0-0.586-0.119-0.797-0.331s-0.331-0.498-0.331-0.797v-9.72c0-0.299 0.119-0.586 0.331-0.797s0.498-0.33 0.797-0.331h1.401c0.299 0 0.586 0.119 0.797 0.331s0.331 0.498 0.331 0.797v9.72z"></path>
<path d="M12.476 19.842h-1.401c-0.611 0.001-1.196 0.244-1.628 0.677s-0.675 1.018-0.676 1.629v7.265c0.001 0.611 0.244 1.197 0.676 1.629s1.018 0.675 1.629 0.676h1.401c0.611-0.001 1.197-0.244 1.629-0.676s0.675-1.018 0.676-1.629v-7.265c-0.001-0.612-0.244-1.198-0.677-1.63s-1.019-0.675-1.63-0.675zM13.605 29.412c-0 0.299-0.12 0.586-0.331 0.798s-0.499 0.33-0.798 0.331h-1.401c-0.299-0.001-0.585-0.12-0.796-0.331s-0.33-0.498-0.331-0.797v-7.265c0-0.299 0.12-0.586 0.331-0.797s0.498-0.33 0.798-0.331h1.401c0.299 0 0.586 0.119 0.798 0.331s0.331 0.498 0.331 0.798l-0.002 7.265z"></path>
<path d="M20.944 15.294h-1.402c-0.611 0.001-1.197 0.244-1.629 0.676s-0.675 1.018-0.676 1.629v11.813c0.001 0.611 0.244 1.197 0.676 1.629s1.018 0.675 1.629 0.676h1.402c0.611-0.001 1.197-0.244 1.629-0.676s0.675-1.018 0.676-1.629v-11.812c-0.001-0.611-0.244-1.197-0.676-1.63s-1.018-0.676-1.629-0.676zM22.072 29.412c-0 0.299-0.119 0.586-0.331 0.797s-0.498 0.33-0.797 0.331h-1.402c-0.299-0-0.586-0.119-0.797-0.331s-0.331-0.498-0.331-0.797v-11.812c0-0.299 0.119-0.586 0.33-0.798s0.499-0.331 0.798-0.331h1.402c0.299 0 0.586 0.119 0.798 0.331s0.33 0.499 0.331 0.798v11.813z"></path>
<path d="M29.412 9.143h-1.402c-0.611 0.001-1.197 0.244-1.629 0.676s-0.675 1.018-0.676 1.629v17.964c0.001 0.611 0.244 1.197 0.676 1.629s1.018 0.675 1.629 0.676h1.402c0.611-0.001 1.197-0.244 1.629-0.676s0.675-1.018 0.676-1.629v-17.964c-0.001-0.611-0.244-1.197-0.676-1.629s-1.018-0.675-1.629-0.676zM30.54 29.412c-0 0.299-0.119 0.586-0.331 0.797s-0.498 0.331-0.797 0.331h-1.402c-0.299-0-0.586-0.119-0.798-0.331s-0.331-0.498-0.331-0.797v-17.964c0-0.299 0.119-0.586 0.331-0.798s0.498-0.331 0.798-0.331h1.402c0.299 0 0.586 0.12 0.797 0.331s0.33 0.498 0.331 0.798v17.964z"></path>
<path d="M3.308 13.033c0.383-0 0.76-0.099 1.095-0.285s0.616-0.456 0.817-0.783l4.309 1.278c0 0.017-0.004 0.034-0.004 0.050-0.002 0.322 0.064 0.641 0.196 0.934s0.324 0.556 0.565 0.77c0.241 0.213 0.525 0.372 0.833 0.466s0.632 0.121 0.952 0.079 0.626-0.152 0.899-0.322c0.273-0.17 0.507-0.397 0.685-0.666s0.296-0.571 0.347-0.889c0.051-0.318 0.033-0.643-0.052-0.953l4.71-2.73c0.361 0.361 0.834 0.587 1.341 0.643s1.018-0.062 1.449-0.336c0.431-0.273 0.756-0.685 0.921-1.167s0.162-1.007-0.010-1.487l4.902-3.386c0.421 0.358 0.957 0.551 1.51 0.543s1.083-0.217 1.493-0.587c0.41-0.37 0.671-0.877 0.735-1.426s-0.074-1.102-0.388-1.557c-0.314-0.455-0.782-0.78-1.318-0.915s-1.102-0.070-1.594 0.182c-0.492 0.252-0.875 0.674-1.079 1.188s-0.213 1.084-0.028 1.604l-4.903 3.387c-0.365-0.309-0.82-0.492-1.297-0.525s-0.952 0.088-1.356 0.344c-0.404 0.256-0.716 0.634-0.89 1.080s-0.202 0.935-0.079 1.397l-4.71 2.731c-0.24-0.239-0.531-0.421-0.851-0.531s-0.661-0.147-0.997-0.107-0.659 0.156-0.944 0.339c-0.285 0.183-0.525 0.428-0.701 0.717l-4.311-1.278c0-0.018 0.002-0.034 0.002-0.052-0-0.445-0.132-0.88-0.379-1.25s-0.599-0.658-1.010-0.828c-0.411-0.17-0.863-0.215-1.3-0.128s-0.837 0.301-1.152 0.616c-0.315 0.315-0.529 0.715-0.616 1.152s-0.042 0.889 0.128 1.3c0.17 0.411 0.459 0.762 0.829 1.010s0.805 0.379 1.25 0.379v0zM28.712 1.459c0.185-0 0.366 0.048 0.527 0.138s0.296 0.221 0.391 0.379c0.095 0.158 0.149 0.338 0.154 0.523s-0.037 0.367-0.122 0.531c-0.086 0.163-0.213 0.302-0.368 0.402s-0.333 0.159-0.518 0.17c-0.184 0.011-0.368-0.026-0.534-0.107s-0.308-0.203-0.413-0.355c-0.124-0.178-0.191-0.39-0.19-0.608 0-0.284 0.113-0.557 0.314-0.759s0.474-0.315 0.758-0.315zM20.243 7.312c0.174 0 0.346 0.043 0.5 0.125s0.286 0.2 0.384 0.344c0.124 0.177 0.19 0.389 0.188 0.605 0 0.237-0.078 0.467-0.222 0.654s-0.347 0.322-0.575 0.383c-0.229 0.060-0.471 0.043-0.689-0.048s-0.4-0.253-0.516-0.459c-0.094-0.16-0.143-0.343-0.142-0.529 0-0.284 0.113-0.557 0.314-0.759s0.474-0.315 0.758-0.315zM11.777 12.217c0.189 0 0.374 0.051 0.537 0.145s0.298 0.231 0.391 0.395c0.095 0.161 0.145 0.345 0.144 0.532-0.015 0.275-0.135 0.533-0.335 0.722s-0.464 0.294-0.739 0.294-0.539-0.105-0.739-0.294c-0.2-0.189-0.32-0.447-0.335-0.722-0-0.102 0.014-0.204 0.043-0.303 0.067-0.222 0.204-0.417 0.39-0.555s0.411-0.214 0.643-0.215zM3.308 9.711c0.212-0 0.42 0.063 0.596 0.181s0.314 0.286 0.395 0.482c0.081 0.196 0.103 0.412 0.061 0.62s-0.144 0.399-0.294 0.55c-0.15 0.15-0.341 0.252-0.55 0.294s-0.424 0.020-0.62-0.061c-0.196-0.081-0.364-0.219-0.482-0.395s-0.181-0.384-0.181-0.596c0-0.284 0.114-0.557 0.315-0.758s0.474-0.314 0.758-0.315z"></path>
</symbol>
<symbol id="google-data" viewBox="0 0 32 32">
<path d="M24.266 0h-21.333c-1.472 0.002-2.665 1.195-2.667 2.667v17.067c-0 1.216 0.823 2.279 2.001 2.582l0.267-1.032c-0.707-0.182-1.201-0.82-1.201-1.55v-17.067c0-0.884 0.716-1.6 1.6-1.6h21.333c0.884 0 1.6 0.716 1.6 1.6v0.533h1.067v-0.533c-0.002-1.472-1.195-2.665-2.667-2.667z"></path>
<path d="M3.466 2.133h-1.067v1.067h1.067v-1.067z"></path>
<path d="M5.6 2.133h-1.067v1.067h1.067v-1.067z"></path>
<path d="M7.734 2.133h-1.067v1.067h1.067v-1.067z"></path>
<path d="M31.577 29.49l-5.059-5.059c0.266-0.474 0.478-0.977 0.634-1.498h0.848v-1.067h-0.619c0.201-1.291 0.046-2.612-0.448-3.822v-5.245h-1.067v3.396c-0.317-0.405-0.674-0.776-1.067-1.107v-4.422h-1.067v3.677c-0.341-0.198-0.698-0.368-1.067-0.509v-5.301h-1.067v4.977c-0.352-0.076-0.708-0.126-1.067-0.15v-3.761h-1.067v3.761c-0.359 0.024-0.715 0.074-1.067 0.15v-1.777h-1.067v2.101c-0.369 0.141-0.725 0.311-1.067 0.509v-3.143h-1.067v3.889c-0.393 0.332-0.75 0.703-1.067 1.107v-3.93h-1.067v5.778c-0.494 1.209-0.649 2.531-0.448 3.822h-7.019v1.067h7.248c1.17 3.945 5.316 6.196 9.262 5.026 0.777-0.231 1.512-0.586 2.175-1.054l4.938 4.938c0.208 0.208 0.546 0.208 0.754 0l1.6-1.6c0.208-0.208 0.208-0.546 0-0.754zM20 27.2c-3.533-0.004-6.396-2.867-6.4-6.4 0-3.535 2.865-6.4 6.4-6.4s6.4 2.865 6.4 6.4c0 3.535-2.865 6.4-6.4 6.4zM29.6 30.713l-4.486-4.486c0.291-0.275 0.559-0.572 0.803-0.889l4.53 4.53-0.846 0.846z"></path>
<path d="M20 15.467c-2.946 0-5.333 2.388-5.333 5.333s2.388 5.333 5.333 5.333c2.946 0 5.333-2.388 5.333-5.333-0.003-2.944-2.389-5.33-5.333-5.333zM20 25.067c-1.522-0.002-2.928-0.815-3.69-2.133h7.379c-0.761 1.318-2.167 2.131-3.69 2.133zM15.874 21.867c-0.429-1.624 0.144-3.348 1.46-4.392v3.325h1.067v-3.953c0.342-0.138 0.701-0.232 1.067-0.277v4.23h1.067v-4.23c0.366 0.046 0.725 0.139 1.067 0.277v3.953h1.067v-3.325c1.316 1.044 1.889 2.768 1.46 4.392h-8.253z"></path>
<path d="M27.467 4.267h-21.333c-1.472 0.002-2.665 1.195-2.667 2.667v17.067c0.002 1.472 1.195 2.665 2.667 2.667h6.933v-1.067h-6.933c-0.884 0-1.6-0.716-1.6-1.6v-17.067c0-0.884 0.716-1.6 1.6-1.6h21.333c0.884 0 1.6 0.716 1.6 1.6v17.067c-0 0.39-0.142 0.766-0.4 1.058l0.8 0.706c0.43-0.487 0.667-1.114 0.667-1.764v-17.067c-0.002-1.472-1.195-2.665-2.667-2.667z"></path>
<path d="M6.667 6.4h-1.067v1.067h1.067v-1.067z"></path>
<path d="M8.8 6.4h-1.067v1.067h1.067v-1.067z"></path>
<path d="M10.933 6.4h-1.067v1.067h1.067v-1.067z"></path>
<path d="M7.734 17.6h-1.067v3.2h1.067v-3.2z"></path>
<path d="M9.866 14.4h-1.067v6.4h1.067v-6.4z"></path>
<path d="M12 16h-1.067v4.8h1.067v-4.8z"></path>
</symbol>
<symbol id="instagram" viewBox="0 0 32 32">
<path d="M16.003 28.055c-3.28 0-3.667-0.017-4.947-0.073-0.998-0.033-1.983-0.236-2.913-0.6-1.609-0.626-2.881-1.899-3.507-3.508-0.35-0.933-0.539-1.919-0.559-2.916-0.075-1.277-0.075-1.696-0.075-4.951 0-3.289 0.017-3.673 0.075-4.947 0.020-0.995 0.209-1.98 0.559-2.912 0.625-1.611 1.899-2.885 3.511-3.509 0.932-0.352 1.916-0.541 2.912-0.56 1.273-0.072 1.692-0.072 4.944-0.072 3.307 0 3.687 0.017 4.947 0.072 0.998 0.019 1.986 0.208 2.92 0.56 1.611 0.625 2.885 1.899 3.511 3.509 0.356 0.946 0.546 1.946 0.561 2.956 0.075 1.277 0.075 1.695 0.075 4.948s-0.019 3.68-0.075 4.943c-0.020 0.998-0.209 1.985-0.56 2.919-0.627 1.61-1.901 2.883-3.512 3.509-0.933 0.35-1.919 0.538-2.915 0.559-1.273 0.073-1.691 0.073-4.952 0.073zM15.957 6.117c-3.261 0-3.6 0.016-4.873 0.073-0.76 0.010-1.513 0.15-2.225 0.415-1.052 0.403-1.885 1.232-2.292 2.283-0.266 0.72-0.407 1.481-0.415 2.249-0.071 1.292-0.071 1.631-0.071 4.869 0 3.2 0.012 3.588 0.071 4.872 0.012 0.76 0.152 1.513 0.415 2.227 0.408 1.050 1.24 1.879 2.292 2.281 0.712 0.266 1.465 0.406 2.225 0.415 1.291 0.075 1.631 0.075 4.873 0.075 3.271 0 3.609-0.016 4.872-0.075 0.761-0.009 1.514-0.15 2.227-0.415 1.046-0.406 1.873-1.233 2.28-2.279 0.266-0.721 0.406-1.482 0.415-2.251h0.015c0.057-1.275 0.057-1.615 0.057-4.872s-0.015-3.6-0.072-4.873c-0.012-0.759-0.152-1.511-0.415-2.224-0.406-1.047-1.233-1.876-2.28-2.283-0.713-0.266-1.466-0.406-2.227-0.415-1.289-0.073-1.627-0.073-4.872-0.073zM16.003 22.165c-2.493 0.002-4.742-1.499-5.698-3.802s-0.429-4.955 1.333-6.719 4.414-2.292 6.717-1.339c2.304 0.953 3.806 3.201 3.807 5.694-0.004 3.401-2.759 6.159-6.16 6.165zM16.003 11.997c-2.209 0-4 1.791-4 4s1.791 4 4 4c2.209 0 4-1.791 4-4-0.005-2.207-1.793-3.995-4-4zM22.403 11.047c-0.793-0.003-1.433-0.647-1.432-1.44s0.645-1.435 1.437-1.435c0.793 0 1.436 0.642 1.437 1.435 0 0.382-0.152 0.749-0.422 1.020s-0.638 0.421-1.020 0.42z"></path>
</symbol>
<symbol id="instagram-ads" viewBox="0 0 32 32">
<path d="M17.719 3.841c-0.080-0.18-0.259-0.297-0.457-0.297s-0.377 0.116-0.457 0.297l-1.872 4.211c-0.112 0.252 0.001 0.548 0.254 0.66 0.252 0.113 0.548-0.001 0.66-0.254l0.235-0.528h2.361l0.235 0.528c0.083 0.186 0.265 0.297 0.457 0.297 0.068 0 0.137-0.014 0.203-0.043 0.252-0.112 0.366-0.407 0.254-0.66l-1.872-4.211zM16.526 6.931l0.736-1.655 0.736 1.655h-1.472z"></path>
<path d="M21.815 3.544h-1.008c-0.276 0-0.5 0.224-0.5 0.5v4.211c0 0.276 0.224 0.5 0.5 0.5h1.008c1.437 0 2.606-1.169 2.606-2.606s-1.169-2.605-2.606-2.605zM21.815 7.756h-0.508v-3.211h0.508c0.886 0 1.606 0.72 1.606 1.605s-0.721 1.606-1.606 1.606z"></path>
<path d="M26.813 5.609c-0.885-0.183-0.918-0.283-0.893-0.55 0.065-0.448 0.528-0.506 0.668-0.513 0.363-0.020 0.779 0.148 0.883 0.563 0.067 0.268 0.339 0.432 0.606 0.364 0.268-0.067 0.431-0.338 0.364-0.606-0.205-0.823-0.994-1.366-1.903-1.32-0.85 0.043-1.496 0.593-1.611 1.393-0.123 1.275 1.008 1.509 1.683 1.648 0.839 0.173 0.995 0.276 0.985 0.605-0.039 0.339-0.382 0.523-0.705 0.557-0.378 0.039-0.842-0.114-1.021-0.656-0.086-0.262-0.369-0.405-0.631-0.318s-0.405 0.369-0.318 0.631c0.312 0.947 1.13 1.348 1.868 1.348 0.069 0 0.137-0.004 0.204-0.011 0.866-0.089 1.508-0.666 1.599-1.477 0.044-1.281-1.098-1.517-1.779-1.658z"></path>
<path d="M29.101 1.118h-14.5c-1.306 0-2.36 1.047-2.399 2.399l0 5.893c-0.019 0.623 0.214 1.218 0.658 1.676 0.455 0.47 1.090 0.739 1.741 0.739h2.165l-0.398 2.575c-0.005 0.030-0.007 0.061-0.006 0.092 0.013 0.428 0.21 0.769 0.528 0.915 0.080 0.037 0.196 0.073 0.341 0.073 0.196 0 0.444-0.068 0.725-0.295 0.021-0.018 0.042-0.037 0.060-0.058l2.908-3.302h8.177c1.323 0 2.399-1.076 2.399-2.399v-5.908c0-1.323-1.076-2.399-2.399-2.399zM30.5 9.426c0 0.772-0.628 1.399-1.399 1.399h-8.403c-0.143 0-0.28 0.062-0.375 0.169l-2.931 3.328 0.452-2.921c0.022-0.144-0.020-0.291-0.114-0.402s-0.234-0.175-0.38-0.175h-2.748c-0.383 0-0.756-0.159-1.024-0.435-0.253-0.261-0.387-0.598-0.376-0.964l-0-5.894c0.023-0.793 0.638-1.414 1.4-1.414h14.499c0.772-0 1.399 0.628 1.399 1.399v5.908z"></path>
<path d="M10.771 16.41h-6.773c-2.204 0-3.998 1.793-3.998 3.998v6.774c0 2.204 1.793 3.998 3.998 3.998h6.774c2.204 0 3.998-1.793 3.998-3.998v-6.774c0-2.204-1.793-3.998-3.998-3.998v0zM13.903 27.182c0 1.727-1.405 3.132-3.132 3.132h-6.773c-1.727 0-3.132-1.405-3.132-3.132v-6.774c0-1.727 1.405-3.132 3.132-3.132h6.774c1.727 0 3.132 1.405 3.132 3.132v6.774z"></path>
<path d="M7.385 19.756c-2.227 0-4.038 1.812-4.038 4.038s1.812 4.038 4.038 4.038c2.227 0 4.038-1.812 4.038-4.038s-1.812-4.038-4.038-4.038zM7.385 26.967c-1.749 0-3.173-1.423-3.173-3.172s1.423-3.172 3.172-3.172c1.749 0 3.172 1.423 3.172 3.172s-1.423 3.172-3.172 3.172z"></path>
<path d="M11.519 18.323c-0.658 0-1.193 0.535-1.193 1.193s0.535 1.193 1.193 1.193 1.193-0.535 1.193-1.193c0-0.658-0.535-1.193-1.193-1.193zM11.519 19.843c-0.181 0-0.327-0.147-0.327-0.327s0.147-0.327 0.327-0.327c0.181 0 0.328 0.147 0.328 0.327s-0.147 0.327-0.328 0.327z"></path>
</symbol>
<symbol id="linkin" viewBox="0 0 33 32">
<path  d="M18.259 32h-7.259v-21.333h7.259v3.556c1.547-1.928 3.894-3.078 6.397-3.134 4.502 0.024 8.134 3.613 8.121 8.023v12.889h-7.259v-12c-0.29-1.986-2.029-3.46-4.078-3.456-0.896 0.028-1.742 0.412-2.342 1.064s-0.903 1.516-0.839 2.392v12zM7.37 32h-7.259v-21.333h7.259v21.333zM3.741 7.111c-2.005 0-3.63-1.592-3.63-3.556s1.625-3.556 3.63-3.556c2.005 0 3.63 1.592 3.63 3.556 0 0.943-0.382 1.847-1.063 2.514s-1.604 1.041-2.567 1.041z"></path>
</symbol>
<symbol id="moon" viewBox="0 0 32 32">
<path  d="M25.845 23.874c-2.311 2.885-5.864 4.732-9.845 4.732-6.962 0-12.606-5.644-12.606-12.606 0-3.981 1.847-7.534 4.732-9.845-0.003 0.13-0.004 0.26-0.004 0.391 0 9.573 7.76 17.333 17.333 17.333 0.131 0 0.261-0.001 0.391-0.004zM27.765 20.54c-0.752 0.123-1.524 0.187-2.31 0.187-7.832 0-14.182-6.349-14.182-14.182 0-0.787 0.064-1.558 0.187-2.31 0.208-1.271 0.585-2.485 1.107-3.618-1.357 0.302-2.649 0.778-3.849 1.405-5.037 2.63-8.476 7.902-8.476 13.978 0 8.703 7.055 15.758 15.758 15.758 6.076 0 11.348-3.438 13.978-8.476 0.627-1.201 1.103-2.492 1.405-3.849-1.133 0.522-2.347 0.899-3.618 1.107z"></path>
</symbol>
<symbol id="roistat" viewBox="0 0 32 32">
<path d="M13.341 2.139c-6.183 0-11.196 5.012-11.196 11.196s5.013 11.196 11.196 11.196c6.183 0 11.196-5.012 11.196-11.196-0.007-6.18-5.015-11.189-11.196-11.196zM13.341 3.206c3.293 0.003 6.379 1.608 8.272 4.302l-1.333 1.333c-0.324-0.196-0.696-0.301-1.075-0.304-1.178 0-2.133 0.955-2.133 2.133 0.002 0.38 0.106 0.751 0.302 1.076l-3.491 3.491c-0.661-0.403-1.492-0.403-2.153 0l-2.425-2.425c0.196-0.325 0.3-0.697 0.302-1.076 0.001-1.175-0.95-2.129-2.126-2.131-0.972-0.001-1.821 0.656-2.064 1.598h-1.978c1.009-4.661 5.13-7.99 9.899-7.997zM20.271 10.67c0 0.589-0.477 1.066-1.066 1.066s-1.066-0.477-1.066-1.066c0-0.589 0.477-1.066 1.066-1.066s1.066 0.477 1.066 1.066zM13.874 17.067c0 0.589-0.477 1.066-1.066 1.066s-1.066-0.477-1.066-1.066c0-0.589 0.477-1.066 1.066-1.066s1.066 0.477 1.066 1.066zM8.543 11.736c0 0.589-0.477 1.066-1.066 1.066s-1.066-0.477-1.066-1.066c0-0.589 0.477-1.066 1.066-1.066s1.066 0.477 1.066 1.066zM18.263 22.192c-1.506 0.836-3.2 1.274-4.922 1.272-5.591 0.004-10.126-4.525-10.13-10.116-0-0.361 0.019-0.721 0.057-1.080h2.151c0.242 0.939 1.087 1.596 2.057 1.599 0.38-0.002 0.751-0.106 1.076-0.302l2.425 2.425c-0.196 0.325-0.3 0.697-0.302 1.076 0 1.178 0.955 2.133 2.133 2.133s2.133-0.955 2.133-2.133c-0.002-0.38-0.106-0.751-0.302-1.076l3.491-3.491c0.325 0.196 0.697 0.3 1.076 0.302 1.178 0 2.133-0.955 2.133-2.133-0.002-0.38-0.106-0.751-0.302-1.076l1.162-1.162c2.713 4.887 0.951 11.048-3.935 13.761z"></path>
<path d="M26.669 5.339c0.969-0.004 1.814-0.661 2.057-1.599h3.274v-1.066h-3.274c-0.242-0.939-1.087-1.596-2.057-1.599-1.178 0-2.133 0.955-2.133 2.133 0.002 0.38 0.106 0.751 0.302 1.076l-0.937 0.937c-4.482-5.839-12.849-6.939-18.688-2.457s-6.939 12.849-2.457 18.688c4.231 5.512 11.986 6.849 17.818 3.072l6.655 6.655c1.092 1.092 2.861 1.092 3.953 0s1.092-2.861 0-3.953l-6.655-6.655c2.856-4.399 2.856-10.068 0-14.467l1.066-1.066c0.325 0.196 0.697 0.301 1.076 0.303zM26.669 2.14c0.589 0 1.066 0.477 1.066 1.066s-0.477 1.066-1.066 1.066c-0.589 0-1.066-0.477-1.066-1.066s0.477-1.066 1.066-1.066zM30.427 27.978c0.683 0.668 0.695 1.762 0.028 2.445s-1.762 0.695-2.445 0.028c-0.009-0.009-0.019-0.018-0.028-0.028l-4.292-4.292 2.445-2.445 4.292 4.292zM25.382 22.932l-2.445 2.445-1.476-1.476c0.075-0.058 0.146-0.121 0.22-0.18s0.16-0.13 0.239-0.197c0.117-0.098 0.232-0.197 0.345-0.299 0.058-0.053 0.114-0.107 0.171-0.16 0.219-0.205 0.43-0.416 0.635-0.635 0.053-0.057 0.107-0.113 0.16-0.171 0.102-0.113 0.201-0.228 0.299-0.345 0.067-0.079 0.132-0.159 0.197-0.239 0.059-0.074 0.122-0.144 0.18-0.219l1.476 1.476zM23.314 20.456c-0.168 0.235-0.341 0.464-0.524 0.686-0.053 0.064-0.11 0.127-0.165 0.19-0.163 0.19-0.332 0.374-0.505 0.552-0.076 0.078-0.153 0.155-0.231 0.231-0.178 0.174-0.362 0.342-0.552 0.505-0.063 0.053-0.126 0.111-0.19 0.165-0.221 0.183-0.451 0.356-0.686 0.524-5.519 3.943-13.189 2.665-17.132-2.854s-2.665-13.189 2.854-17.132 13.189-2.665 17.132 2.854c3.051 4.271 3.051 10.008 0 14.278z"></path>
</symbol>
<symbol id="yandex-direct" viewBox="0 0 32 32">
<path d="M13.754 26.392l3.512-7.758h1.552v7.758h2.205v-20.784h-3.904c-2.485 0-5.446 2.613-5.446 6.86s3.715 5.962 3.715 5.962l-4.41 7.962h2.777zM15.116 15.779c-0.543-0.682-1.015-1.816-1.015-3.699 0-4.124 2.371-4.657 2.698-4.711 0.023-0.004 0.046-0.005 0.070-0.005h1.887v9.431h-1.468c-0.839 0-1.649-0.361-2.172-1.017z" fill='black'></path>
<path d="M0 0v32h32v-32h-32zM30.021 30.021h-28.041v-28.041h28.041v28.041z" fill="black"></path>
</symbol>
<symbol id="arrowRight" viewBox="0 0 32 32">
<line x1="0.00193797" y1="10.5" x2="129.002" y2="11" stroke="white"/>
<path d="M120 1C123 6 124.5 8 129 11.08C125.213 13.5784 123 16 120 20.5" stroke="white" stroke-linecap="round"/>
</symbol>
<symbol id="icon-check" viewBox="0 0 32 32"><path  stroke-linejoin="miter" stroke-linecap="butt" stroke-miterlimit="4" stroke-width="0.4267" d="M8.442 16.538l-0.147-0.141-0.147 0.139-2.057 1.95 0.162 0.156 7.605 7.253 0.147-0.141 16.171-15.426-0.162-0.154-2.029-1.935-0.147 0.141-13.98 13.325-5.417-5.167z"></path></symbol>


<symbol id="youtube" viewBox="0 0 32 32">
<path d="M16.008 25.349h-0.027c-0.083 0-8.353-0.016-10.44-0.583-1.147-0.309-2.044-1.206-2.352-2.353-0.375-2.117-0.556-4.264-0.541-6.413-0.010-2.153 0.176-4.303 0.556-6.423 0.317-1.149 1.209-2.049 2.355-2.377 2.029-0.533 10.072-0.533 10.413-0.533h0.028c0.084 0 8.376 0.016 10.441 0.583 1.145 0.311 2.039 1.205 2.349 2.351 0.387 2.125 0.569 4.282 0.543 6.441 0.009 2.151-0.177 4.298-0.557 6.415-0.312 1.146-1.209 2.041-2.356 2.351-2.027 0.537-10.071 0.543-10.412 0.543zM13.341 12.007l-0.007 8 6.949-4-6.943-4z"></path>
</symbol>
<symbol id="zoho-crm" viewBox="0 0 43 32">
<path d="M39.672 0.534h-36.31c-1.854 0-3.362 1.508-3.362 3.362v24.207c0 1.854 1.508 3.362 3.362 3.362h36.31c1.854 0 3.362-1.508 3.362-3.362v-24.207c0-1.854-1.508-3.362-3.362-3.362zM1.345 28.104v-22.19h8.741v24.207h-6.724c-1.112 0-2.017-0.905-2.017-2.017zM39.672 30.121h-28.241v-24.207h26.224c0.371 0 0.672-0.301 0.672-0.672s-0.301-0.672-0.672-0.672h-36.31v-0.672c0-1.112 0.905-2.017 2.017-2.017h36.31c1.112 0 2.017 0.905 2.017 2.017v0.672h-1.345c-0.371 0-0.672 0.301-0.672 0.672s0.301 0.672 0.672 0.672h1.345v22.19c0 1.112-0.905 2.017-2.017 2.017z"></path>
<path d="M3.362 2.552c-0.177 0-0.35 0.071-0.476 0.197s-0.197 0.298-0.197 0.476c0 0.177 0.071 0.35 0.197 0.476s0.299 0.197 0.476 0.197 0.35-0.072 0.476-0.197c0.125-0.125 0.197-0.298 0.197-0.476s-0.071-0.35-0.197-0.476-0.299-0.197-0.476-0.197z"></path>
<path d="M5.379 2.552c-0.176 0-0.351 0.071-0.476 0.197s-0.197 0.298-0.197 0.476c0 0.177 0.071 0.35 0.197 0.476s0.299 0.197 0.476 0.197 0.35-0.072 0.476-0.197c0.125-0.125 0.197-0.298 0.197-0.476s-0.071-0.35-0.197-0.476-0.299-0.197-0.476-0.197z"></path>
<path d="M7.397 2.552c-0.176 0-0.351 0.071-0.476 0.197s-0.197 0.298-0.197 0.476c0 0.177 0.071 0.35 0.197 0.476s0.299 0.197 0.476 0.197 0.351-0.072 0.476-0.197c0.125-0.125 0.197-0.299 0.197-0.476s-0.071-0.35-0.197-0.476-0.298-0.197-0.476-0.197z"></path>
<path d="M3.362 8.603h4.707c0.371 0 0.672-0.301 0.672-0.672s-0.301-0.672-0.672-0.672h-4.707c-0.371 0-0.672 0.301-0.672 0.672s0.301 0.672 0.672 0.672z"></path>
<path d="M8.069 9.948h-4.707c-0.371 0-0.672 0.301-0.672 0.672s0.301 0.672 0.672 0.672h4.707c0.371 0 0.672-0.301 0.672-0.672s-0.301-0.672-0.672-0.672z"></path>
<path d="M8.069 12.638h-4.707c-0.371 0-0.672 0.301-0.672 0.672s0.301 0.672 0.672 0.672h4.707c0.371 0 0.672-0.301 0.672-0.672s-0.301-0.672-0.672-0.672z"></path>
<path d="M6.052 15.328h-2.69c-0.371 0-0.672 0.301-0.672 0.672s0.301 0.672 0.672 0.672h2.69c0.371 0 0.672-0.301 0.672-0.672s-0.301-0.672-0.672-0.672z"></path>
<path d="M6.052 18.017h-2.69c-0.371 0-0.672 0.301-0.672 0.672s0.301 0.672 0.672 0.672h2.69c0.371 0 0.672-0.301 0.672-0.672s-0.301-0.672-0.672-0.672z"></path>
<path d="M4.034 20.707h-0.672c-0.371 0-0.672 0.301-0.672 0.672s0.301 0.672 0.672 0.672h0.672c0.371 0 0.672-0.301 0.672-0.672s-0.301-0.672-0.672-0.672z"></path>
<path d="M18.155 14.655c0.898 0 1.742 0.35 2.377 0.985 0.262 0.262 0.688 0.262 0.951 0s0.263-0.688 0-0.951c-1.835-1.835-4.821-1.835-6.656 0-0.889 0.889-1.379 2.071-1.379 3.328s0.49 2.439 1.379 3.328c0.918 0.918 2.123 1.376 3.328 1.376s2.411-0.459 3.328-1.376c0.263-0.263 0.263-0.688 0-0.951s-0.688-0.262-0.951 0c-0.635 0.635-1.479 0.985-2.377 0.985s-1.742-0.35-2.377-0.985c-0.635-0.635-0.985-1.479-0.985-2.377s0.35-1.742 0.985-2.377c0.635-0.635 1.479-0.985 2.377-0.985z"></path>
<path d="M27.571 19.754c1.187-0.519 2.019-1.705 2.019-3.082 0-1.854-1.508-3.362-3.362-3.362h-2.693c-0.371 0-0.672 0.301-0.672 0.672 0 0.023 0.001 0.045 0.003 0.067v8.002c0 0.371 0.301 0.672 0.672 0.672s0.672-0.301 0.672-0.672v-7.397h2.017c1.112 0 2.017 0.905 2.017 2.017s-0.905 2.017-2.017 2.017c-0.272 0-0.517 0.164-0.621 0.415s-0.047 0.541 0.146 0.733l2.69 2.69c0.131 0.131 0.303 0.197 0.475 0.197s0.344-0.066 0.475-0.197c0.263-0.263 0.263-0.688 0-0.951l-1.822-1.822z"></path>
<path d="M38.5 13.332c-0.297-0.076-0.608 0.056-0.757 0.324l-2.774 4.994-2.774-4.994c-0.149-0.268-0.46-0.401-0.756-0.324s-0.504 0.345-0.504 0.651v8.069c0 0.371 0.301 0.672 0.672 0.672s0.672-0.301 0.672-0.672v-5.474l2.102 3.783c0.118 0.214 0.344 0.346 0.588 0.346s0.469-0.132 0.588-0.346l2.102-3.783v5.474c0 0.371 0.301 0.672 0.672 0.672s0.672-0.301 0.672-0.672v-8.069c0-0.307-0.207-0.574-0.504-0.651z"></path>
</symbol>
</defs>
</svg>
