<svg width="378" height="170" fill="none" xmlns="http://www.w3.org/2000/svg"><path fill="#E6E6E6" d="M0 0h378v170H0z"/><g clip-path="url(#a)"><path fill="#fff" d="M-223-1356h1920v4611H-223z"/><path fill="#181818" d="M-223-1356h1920v2451H-223z"/><path transform="translate(-223 -1356)" fill="url(#b)" fill-opacity=".2" d="M0 0h1920v2451H0z"/><g clip-path="url(#c)" fill="#fff" fill-opacity=".6"><path opacity=".5" d="M1.95 151.24a.59.59 0 0 0-.12-.38c-.09-.1-.23-.2-.43-.3-.3-.1-.51-.24-.65-.41-.13-.17-.2-.4-.2-.66 0-.27.07-.49.2-.66a.82.82 0 0 1 .53-.31v-.55h.35v.55c.23.04.41.16.54.35.13.2.19.46.19.8h-.43c0-.23-.05-.42-.13-.56-.08-.13-.2-.2-.35-.2a.42.42 0 0 0-.34.15.67.67 0 0 0-.12.42c0 .17.04.3.13.4.09.1.23.2.43.28.3.11.51.25.64.42.13.17.2.38.2.65s-.07.5-.2.66a.88.88 0 0 1-.6.31v.48h-.35v-.48a.86.86 0 0 1-.6-.34c-.14-.19-.2-.44-.2-.76h.43c0 .23.04.4.14.53.09.13.22.19.39.19s.3-.05.4-.16a.6.6 0 0 0 .15-.42Zm3.1-.61c0 .53-.08.93-.23 1.19-.16.26-.4.4-.73.4a.8.8 0 0 1-.72-.38 2.24 2.24 0 0 1-.25-1.15v-.61c0-.53.08-.92.23-1.18a.8.8 0 0 1 .73-.4c.33 0 .57.13.72.38.16.24.24.62.25 1.11v.64Zm-.44-.63c0-.38-.04-.66-.12-.84-.09-.19-.22-.28-.4-.28-.19 0-.32.1-.4.27a2 2 0 0 0-.14.8v.75c0 .38.05.66.14.86.08.19.22.28.4.28.18 0 .3-.09.4-.27.08-.18.12-.45.12-.82V150ZM1.96 20.99a.58.58 0 0 0-.12-.38 1.1 1.1 0 0 0-.43-.29c-.3-.1-.5-.25-.64-.42-.14-.17-.2-.4-.2-.66 0-.27.06-.49.19-.66a.81.81 0 0 1 .54-.31v-.55h.35v.55c.23.04.4.16.53.35.13.2.2.46.2.8h-.44c0-.23-.04-.42-.13-.55-.08-.14-.2-.21-.34-.21a.42.42 0 0 0-.35.15.66.66 0 0 0-.12.42c0 .17.04.3.13.4.09.1.23.2.43.28.3.11.52.25.65.42.13.17.2.39.2.65 0 .27-.08.5-.22.67a.88.88 0 0 1-.6.3v.48h-.34v-.47a.86.86 0 0 1-.6-.35c-.14-.19-.2-.44-.2-.76h.43c0 .23.05.4.14.53.1.13.22.19.4.19.16 0 .3-.05.4-.16a.6.6 0 0 0 .14-.42Zm2.48.93H4v-3.06l-.76.34v-.42l1.13-.49h.07v3.63Zm2.28-1.67-.35.43v1.24H5.9V18.3h.46v1.74l.3-.4.96-1.34h.55L7 19.9l1.26 2.02h-.54l-1.01-1.67ZM2.23 34.1a.58.58 0 0 0-.12-.38 1.1 1.1 0 0 0-.43-.3c-.3-.1-.5-.24-.64-.41-.14-.17-.2-.4-.2-.66 0-.27.06-.49.19-.66a.81.81 0 0 1 .54-.31v-.55h.35v.55c.23.04.4.16.53.35.13.2.2.46.2.8H2.2c0-.23-.04-.42-.13-.56-.08-.13-.2-.2-.35-.2a.42.42 0 0 0-.34.15.66.66 0 0 0-.12.42c0 .17.04.3.13.4.09.1.23.2.43.28.3.11.52.25.65.42.13.17.2.38.2.65s-.08.5-.22.66a.88.88 0 0 1-.6.31v.48h-.34v-.48a.86.86 0 0 1-.6-.34c-.14-.19-.2-.44-.2-.76h.43c0 .23.05.4.14.53.1.13.22.19.39.19s.3-.05.4-.16a.6.6 0 0 0 .15-.42Zm2.62-.62c-.18.23-.38.34-.62.34a.73.73 0 0 1-.62-.33 1.48 1.48 0 0 1-.24-.87c0-.38.09-.68.26-.91.17-.23.4-.34.69-.34.3 0 .54.13.71.4.17.26.26.62.26 1.09v.13c0 .4-.03.73-.1.97-.05.25-.14.45-.26.6-.12.16-.26.27-.45.35-.18.08-.4.12-.68.12v-.39h.08c.31 0 .54-.1.7-.28.17-.19.25-.48.27-.88Zm-.54-.04c.1 0 .2-.04.3-.13.1-.1.19-.2.24-.35v-.2c0-.3-.05-.54-.15-.73-.1-.19-.23-.28-.38-.28-.16 0-.28.08-.38.23-.1.16-.14.36-.14.61s.05.46.14.61c.09.16.21.24.37.24Zm3.7.05c0 .53-.08.93-.23 1.2-.16.25-.4.38-.73.38a.8.8 0 0 1-.72-.37 2.23 2.23 0 0 1-.25-1.14v-.62c0-.53.08-.92.23-1.18a.8.8 0 0 1 .73-.4c.33 0 .57.13.72.38.16.24.24.62.25 1.11v.64Zm-.44-.63c0-.38-.04-.66-.12-.84-.09-.18-.22-.28-.4-.28-.19 0-.32.1-.4.27a2 2 0 0 0-.14.8v.75c0 .38.05.66.13.86.1.19.23.28.4.28.18 0 .32-.09.4-.27.08-.18.13-.45.13-.82v-.75Zm3.12.63c0 .53-.08.93-.24 1.2-.15.25-.4.38-.73.38A.8.8 0 0 1 9 34.7a2.23 2.23 0 0 1-.25-1.14v-.62c0-.53.08-.92.24-1.18a.8.8 0 0 1 .73-.4c.32 0 .56.13.72.38.16.24.24.62.25 1.11v.64Zm-.44-.63c0-.38-.04-.66-.13-.84-.08-.18-.22-.28-.4-.28-.18 0-.31.1-.4.27a2 2 0 0 0-.13.8v.75c0 .38.04.66.13.86.09.19.22.28.4.28.18 0 .31-.09.4-.27.08-.18.13-.45.13-.82v-.75ZM2.23 46.78a.58.58 0 0 0-.12-.38 1.1 1.1 0 0 0-.43-.28c-.3-.11-.5-.25-.64-.42-.14-.18-.2-.4-.2-.66 0-.27.06-.5.19-.66a.81.81 0 0 1 .54-.32v-.54h.35v.55c.23.04.4.16.53.35.13.2.2.46.2.8H2.2c0-.24-.04-.42-.13-.56-.08-.14-.2-.2-.35-.2a.42.42 0 0 0-.34.14.66.66 0 0 0-.12.43c0 .17.04.3.13.4.09.1.23.2.43.28.3.1.52.25.65.42.13.16.2.38.2.65s-.08.49-.22.66a.88.88 0 0 1-.6.31v.48h-.34v-.48a.86.86 0 0 1-.6-.34c-.14-.2-.2-.44-.2-.76h.43c0 .23.05.4.14.53.1.12.22.18.39.18s.3-.05.4-.15a.6.6 0 0 0 .15-.43Zm3.03-1.73c0 .18-.04.34-.12.48a.87.87 0 0 1-.32.33c.16.08.28.2.37.35.1.16.14.33.14.53 0 .3-.09.56-.26.74a.92.92 0 0 1-.7.28c-.3 0-.53-.1-.7-.28a1.05 1.05 0 0 1-.27-.74c0-.2.05-.38.14-.53.09-.16.21-.28.37-.36a.86.86 0 0 1-.32-.32.98.98 0 0 1-.12-.48c0-.3.08-.55.25-.73a.85.85 0 0 1 .65-.27c.26 0 .48.1.64.27.17.18.25.42.25.73Zm-.37 1.68c0-.2-.05-.37-.14-.5a.46.46 0 0 0-.39-.19.45.45 0 0 0-.38.2c-.1.12-.14.28-.14.49 0 .2.04.37.14.48.09.12.22.18.39.18s.3-.06.39-.18c.09-.11.13-.27.13-.48Zm-.06-1.68a.73.73 0 0 0-.13-.45.4.4 0 0 0-.33-.17.4.4 0 0 0-.34.17.75.75 0 0 0-.12.45c0 .2.04.34.13.45.08.11.19.17.33.17a.4.4 0 0 0 .33-.17.74.74 0 0 0 .13-.45ZM8 46.17c0 .53-.08.93-.23 1.2-.16.26-.4.4-.73.4a.8.8 0 0 1-.72-.39 2.24 2.24 0 0 1-.25-1.14v-.62c0-.52.08-.92.23-1.18a.8.8 0 0 1 .73-.39c.33 0 .57.13.72.37.16.25.24.62.25 1.12v.63Zm-.44-.62c0-.39-.04-.67-.12-.85-.09-.18-.22-.27-.4-.27-.19 0-.32.09-.4.27a2 2 0 0 0-.14.8v.74c0 .38.05.67.13.86.1.2.23.29.4.29.18 0 .32-.1.4-.27.08-.18.13-.46.13-.83v-.74Zm3.12.62c0 .53-.08.93-.24 1.2-.15.26-.4.4-.73.4a.8.8 0 0 1-.72-.39 2.24 2.24 0 0 1-.25-1.14v-.62c0-.52.08-.92.24-1.18a.8.8 0 0 1 .73-.39c.32 0 .56.13.72.37.16.25.24.62.25 1.12v.63Zm-.44-.62c0-.39-.04-.67-.13-.85-.08-.18-.22-.27-.4-.27-.18 0-.31.09-.4.27a2 2 0 0 0-.13.8v.74c0 .38.04.67.13.86.09.2.22.29.4.29.18 0 .31-.1.4-.27.08-.18.13-.46.13-.83v-.74ZM2.23 59.9a.58.58 0 0 0-.12-.39 1.1 1.1 0 0 0-.43-.28c-.3-.11-.5-.25-.64-.42-.14-.18-.2-.4-.2-.66 0-.27.06-.5.19-.66a.81.81 0 0 1 .54-.32v-.54h.35v.55c.23.04.4.16.53.35.13.2.2.46.2.8H2.2c0-.24-.04-.42-.13-.56-.08-.14-.2-.2-.35-.2a.42.42 0 0 0-.34.14.66.66 0 0 0-.12.43c0 .17.04.3.13.4.09.1.23.2.43.28.3.1.52.25.65.42.13.16.2.38.2.65s-.08.49-.22.66a.88.88 0 0 1-.6.31v.48h-.34v-.48a.86.86 0 0 1-.6-.34c-.14-.2-.2-.44-.2-.76h.43c0 .23.05.4.14.53.1.12.22.18.39.18s.3-.05.4-.15a.6.6 0 0 0 .15-.43Zm3.17-2.43-1.25 3.35H3.7l1.23-3.23h-1.6v-.38H5.4v.26ZM8 59.28c0 .53-.08.93-.23 1.2-.16.26-.4.4-.73.4a.8.8 0 0 1-.72-.39 2.23 2.23 0 0 1-.25-1.14v-.62c0-.52.08-.92.23-1.18a.8.8 0 0 1 .73-.39c.33 0 .57.13.72.37.16.25.24.62.25 1.12v.63Zm-.44-.62c0-.39-.04-.67-.12-.85-.09-.18-.22-.27-.4-.27-.19 0-.32.09-.4.27a2 2 0 0 0-.14.8v.74c0 .38.05.67.13.86.1.2.23.29.4.29.18 0 .32-.1.4-.27.08-.18.13-.46.13-.83v-.74Zm3.12.62c0 .53-.08.93-.24 1.2-.15.26-.4.4-.73.4a.8.8 0 0 1-.72-.39 2.23 2.23 0 0 1-.25-1.14v-.62c0-.52.08-.92.24-1.18a.8.8 0 0 1 .73-.39c.32 0 .56.13.72.37.16.25.24.62.25 1.12v.63Zm-.44-.62c0-.39-.04-.67-.13-.85-.08-.18-.22-.27-.4-.27-.18 0-.31.09-.4.27a2 2 0 0 0-.13.8v.74c0 .38.04.67.13.86.09.2.22.29.4.29.18 0 .31-.1.4-.27.08-.18.13-.46.13-.83v-.74ZM2.23 73a.58.58 0 0 0-.12-.38 1.1 1.1 0 0 0-.43-.29c-.3-.1-.5-.24-.64-.41-.14-.18-.2-.4-.2-.66 0-.27.06-.5.19-.66a.81.81 0 0 1 .54-.32v-.54h.35v.55c.23.04.4.16.53.35.13.2.2.46.2.8H2.2c0-.24-.04-.42-.13-.56-.08-.14-.2-.2-.35-.2a.42.42 0 0 0-.34.14.66.66 0 0 0-.12.43c0 .17.04.3.13.4.09.1.23.2.43.28.3.1.52.25.65.42.13.16.2.38.2.65s-.08.49-.22.66a.88.88 0 0 1-.6.31v.48h-.34v-.48a.86.86 0 0 1-.6-.34c-.14-.2-.2-.45-.2-.76h.43c0 .23.05.4.14.53.1.12.22.18.39.18s.3-.05.4-.15a.6.6 0 0 0 .15-.43Zm2.7-2.68v.39h-.07c-.3 0-.52.1-.69.3-.16.19-.26.47-.28.86.16-.2.36-.3.61-.3.27 0 .48.1.64.32.15.22.23.5.23.86 0 .38-.09.68-.26.9a.83.83 0 0 1-.7.33.82.82 0 0 1-.7-.39 1.8 1.8 0 0 1-.27-1.03v-.18c0-.5.06-.89.16-1.18.11-.3.27-.51.48-.66.2-.14.47-.21.78-.22h.07Zm-.5 1.63a.48.48 0 0 0-.33.13c-.1.1-.17.2-.22.35v.18c0 .3.05.53.16.72.1.18.23.27.38.27.16 0 .29-.07.38-.22.1-.16.14-.36.14-.6 0-.25-.05-.45-.14-.6-.1-.16-.22-.23-.37-.23Zm3.58.44c0 .53-.08.93-.23 1.2-.16.26-.4.39-.73.39a.8.8 0 0 1-.72-.38 2.24 2.24 0 0 1-.25-1.14v-.62c0-.53.08-.92.23-1.18a.8.8 0 0 1 .73-.39c.33 0 .57.13.72.37.16.25.24.62.25 1.12v.63Zm-.44-.63c0-.38-.04-.66-.12-.84-.09-.18-.22-.27-.4-.27-.19 0-.32.09-.4.27a2 2 0 0 0-.14.8v.74c0 .38.05.67.13.86.1.2.23.29.4.29.18 0 .32-.1.4-.27.08-.18.13-.46.13-.83v-.75Zm3.12.63c0 .53-.08.93-.24 1.2-.15.26-.4.39-.73.39A.8.8 0 0 1 9 73.6a2.24 2.24 0 0 1-.25-1.14v-.62c0-.53.08-.92.24-1.18a.8.8 0 0 1 .73-.39c.32 0 .56.13.72.37.16.25.24.62.25 1.12v.63Zm-.44-.63c0-.38-.04-.66-.13-.84-.08-.18-.22-.27-.4-.27-.18 0-.31.09-.4.27a2 2 0 0 0-.13.8v.74c0 .38.04.67.13.86.09.2.22.29.4.29.18 0 .31-.1.4-.27.08-.18.13-.46.13-.83v-.75ZM2.23 85.69a.58.58 0 0 0-.12-.38 1.1 1.1 0 0 0-.43-.29c-.3-.1-.5-.25-.64-.42-.14-.17-.2-.39-.2-.66s.06-.49.19-.66a.81.81 0 0 1 .54-.31v-.55h.35v.55c.23.04.4.16.53.36.13.19.2.45.2.79H2.2c0-.23-.04-.41-.13-.55-.08-.14-.2-.21-.35-.21a.42.42 0 0 0-.34.15.66.66 0 0 0-.12.43c0 .16.04.3.13.4.09.1.23.19.43.27.3.11.52.26.65.42.13.17.2.39.2.65 0 .27-.08.5-.22.67a.88.88 0 0 1-.6.3v.48h-.34v-.47a.86.86 0 0 1-.6-.35c-.14-.19-.2-.44-.2-.76h.43c0 .23.05.41.14.53.1.13.22.19.39.19s.3-.05.4-.15a.6.6 0 0 0 .15-.43Zm1.35-.88.16-1.8h1.57v.42H4.1l-.08.99c.14-.1.3-.16.48-.16.28 0 .5.11.66.33.16.22.24.5.24.88 0 .37-.09.66-.26.88a.87.87 0 0 1-.72.32.88.88 0 0 1-.66-.27 1.15 1.15 0 0 1-.3-.73h.42c.02.2.08.36.17.47.1.1.22.15.37.15.17 0 .3-.07.4-.22.1-.15.14-.35.14-.6a.99.99 0 0 0-.15-.57.48.48 0 0 0-.42-.23.51.51 0 0 0-.35.12l-.12.11-.35-.1Zm4.43.27c0 .53-.08.93-.23 1.2-.16.26-.4.39-.73.39a.8.8 0 0 1-.72-.38 2.23 2.23 0 0 1-.25-1.14v-.62c0-.53.08-.92.23-1.18a.8.8 0 0 1 .73-.39c.33 0 .57.12.72.37.16.25.24.62.25 1.12v.63Zm-.44-.63c0-.38-.04-.66-.12-.84-.09-.18-.22-.27-.4-.27-.19 0-.32.09-.4.26a2 2 0 0 0-.14.8v.75c0 .38.05.67.13.86.1.19.23.28.4.28.18 0 .32-.09.4-.27.08-.18.13-.45.13-.82v-.75Zm3.12.63c0 .53-.08.93-.24 1.2-.15.26-.4.39-.73.39a.8.8 0 0 1-.72-.38 2.23 2.23 0 0 1-.25-1.14v-.62c0-.53.08-.92.24-1.18a.8.8 0 0 1 .73-.39c.32 0 .56.12.72.37.16.25.24.62.25 1.12v.63Zm-.44-.63c0-.38-.04-.66-.13-.84-.08-.18-.22-.27-.4-.27-.18 0-.31.09-.4.26a2 2 0 0 0-.13.8v.75c0 .38.04.67.13.86.09.19.22.28.4.28.18 0 .31-.09.4-.27.08-.18.13-.45.13-.82v-.75ZM2.23 98.8a.58.58 0 0 0-.12-.38 1.1 1.1 0 0 0-.43-.29c-.3-.1-.5-.25-.64-.42-.14-.17-.2-.4-.2-.66 0-.27.06-.49.19-.66a.81.81 0 0 1 .54-.31v-.55h.35v.55c.23.04.4.16.53.36.13.19.2.45.2.79H2.2c0-.23-.04-.41-.13-.55-.08-.14-.2-.21-.35-.21a.42.42 0 0 0-.34.15.66.66 0 0 0-.12.43c0 .16.04.3.13.4.09.1.23.19.43.27.3.11.52.25.65.42.13.17.2.39.2.65 0 .27-.08.5-.22.67a.88.88 0 0 1-.6.3v.48h-.34v-.47a.86.86 0 0 1-.6-.35c-.14-.19-.2-.44-.2-.76h.43c0 .23.05.41.14.53.1.13.22.19.39.19s.3-.05.4-.15a.6.6 0 0 0 .15-.43Zm2.84-.29h.4v.38h-.4v.84h-.44v-.84H3.26v-.27l1.34-2.5h.47v2.4Zm-1.32 0h.88V96.8l-.88 1.71Zm4.26-.32c0 .53-.08.93-.23 1.2-.16.25-.4.39-.73.39a.8.8 0 0 1-.72-.38 2.24 2.24 0 0 1-.25-1.14v-.62c0-.53.08-.92.23-1.18a.8.8 0 0 1 .73-.4c.33 0 .57.13.72.38.16.24.24.62.25 1.12v.63Zm-.44-.63c0-.38-.04-.66-.12-.84-.09-.18-.22-.27-.4-.27-.19 0-.32.09-.4.26a2 2 0 0 0-.14.8v.75c0 .38.05.67.13.86.1.19.23.28.4.28.18 0 .32-.09.4-.27.08-.18.13-.45.13-.82v-.75Zm3.12.63c0 .53-.08.93-.24 1.2-.15.25-.4.39-.73.39A.8.8 0 0 1 9 99.4a2.24 2.24 0 0 1-.25-1.14v-.62c0-.53.08-.92.24-1.18a.8.8 0 0 1 .73-.4c.32 0 .56.13.72.38.16.24.24.62.25 1.12v.63Zm-.44-.63c0-.38-.04-.66-.13-.84-.08-.18-.22-.27-.4-.27-.18 0-.31.09-.4.26a2 2 0 0 0-.13.8v.75c0 .38.04.67.13.86.09.19.22.28.4.28.18 0 .31-.09.4-.27.08-.18.13-.45.13-.82v-.75ZM2.23 111.48a.58.58 0 0 0-.12-.38 1.1 1.1 0 0 0-.43-.28c-.3-.11-.5-.25-.64-.42-.14-.18-.2-.4-.2-.66 0-.27.06-.5.19-.66a.81.81 0 0 1 .54-.31v-.55h.35v.55c.23.04.4.16.53.35.13.2.2.46.2.8H2.2c0-.23-.04-.42-.13-.56-.08-.14-.2-.2-.35-.2a.42.42 0 0 0-.34.15.67.67 0 0 0-.12.42c0 .17.04.3.13.4.09.1.23.2.43.28.3.11.52.25.65.42.13.17.2.38.2.65s-.08.5-.22.66a.88.88 0 0 1-.6.31v.48h-.34v-.48a.86.86 0 0 1-.6-.34c-.14-.19-.2-.44-.2-.76h.43c0 .23.05.4.14.53.1.12.22.19.39.19s.3-.05.4-.16a.6.6 0 0 0 .15-.43Zm1.74-1.1h.28c.18 0 .31-.05.41-.16.1-.11.15-.26.15-.45 0-.43-.17-.64-.5-.64a.44.44 0 0 0-.36.17.7.7 0 0 0-.14.45h-.43a1 1 0 0 1 .26-.71c.18-.19.4-.28.68-.28s.5.08.67.26c.17.18.25.43.25.76a.89.89 0 0 1-.46.78c.34.13.5.4.5.85 0 .32-.08.58-.26.77a.92.92 0 0 1-.7.28.93.93 0 0 1-.7-.27 1.01 1.01 0 0 1-.26-.73h.44c0 .2.04.35.14.46.09.11.21.17.38.17.16 0 .29-.06.38-.17.1-.1.15-.28.15-.5 0-.44-.2-.66-.62-.66h-.26v-.37Zm4.04.5c0 .53-.08.92-.23 1.19-.16.26-.4.4-.73.4a.8.8 0 0 1-.72-.39 2.24 2.24 0 0 1-.25-1.14v-.62c0-.52.08-.92.23-1.17.16-.27.4-.4.73-.4.33 0 .57.13.72.38.16.24.24.61.25 1.11v.63Zm-.44-.63c0-.38-.04-.67-.12-.84-.09-.19-.22-.28-.4-.28-.19 0-.32.1-.4.27a2 2 0 0 0-.14.8v.75c0 .38.05.66.13.85.1.2.23.29.4.29.18 0 .32-.1.4-.27.08-.18.13-.46.13-.83v-.74Zm3.12.62c0 .54-.08.93-.24 1.2-.15.26-.4.4-.73.4a.8.8 0 0 1-.72-.39 2.24 2.24 0 0 1-.25-1.14v-.62c0-.52.08-.92.24-1.17.15-.27.4-.4.73-.4.32 0 .56.13.72.38.16.24.24.61.25 1.11v.63Zm-.44-.62c0-.38-.04-.67-.13-.84-.08-.19-.22-.28-.4-.28-.18 0-.31.1-.4.27a2 2 0 0 0-.13.8v.75c0 .38.04.66.13.85.09.2.22.29.4.29.18 0 .31-.1.4-.27.08-.18.13-.46.13-.83v-.74ZM2.23 124.6a.59.59 0 0 0-.12-.39c-.08-.1-.23-.2-.43-.28-.3-.11-.5-.25-.64-.42-.14-.18-.2-.4-.2-.66 0-.27.06-.5.19-.66a.81.81 0 0 1 .54-.31v-.55h.35v.55c.23.04.4.16.53.35.13.2.2.46.2.8H2.2c0-.23-.04-.42-.13-.56-.08-.14-.2-.2-.35-.2a.42.42 0 0 0-.34.15.67.67 0 0 0-.12.42c0 .17.04.3.13.4.09.1.23.2.43.28.3.11.52.25.65.42.13.17.2.38.2.65s-.08.5-.22.66a.88.88 0 0 1-.6.31v.48h-.34v-.48a.86.86 0 0 1-.6-.34c-.14-.19-.2-.44-.2-.76h.43c0 .23.05.4.14.53.1.12.22.19.39.19s.3-.06.4-.16a.6.6 0 0 0 .15-.43Zm3.2.92H3.4v-.33l1.02-1.36c.16-.21.27-.38.33-.52.06-.13.09-.27.09-.42 0-.2-.05-.35-.14-.47a.42.42 0 0 0-.35-.18.51.51 0 0 0-.42.2c-.1.12-.15.3-.15.54h-.44c0-.33.09-.6.27-.8.18-.21.43-.32.74-.32.29 0 .52.1.68.27.17.18.25.4.25.7 0 .36-.19.78-.56 1.27l-.8 1.05h1.5v.37ZM8 123.98c0 .54-.08.93-.23 1.2-.16.26-.4.4-.73.4a.8.8 0 0 1-.72-.39 2.24 2.24 0 0 1-.25-1.14v-.62c0-.52.08-.92.23-1.18a.8.8 0 0 1 .73-.39c.33 0 .57.13.72.37.16.25.24.62.25 1.12v.63Zm-.44-.62c0-.39-.04-.67-.12-.85-.09-.18-.22-.27-.4-.27-.19 0-.32.1-.4.27a2 2 0 0 0-.14.8v.75c0 .38.05.66.13.85.1.2.23.29.4.29.18 0 .32-.1.4-.27.08-.18.13-.46.13-.83v-.74Zm3.12.62c0 .54-.08.93-.24 1.2-.15.26-.4.4-.73.4a.8.8 0 0 1-.72-.39 2.24 2.24 0 0 1-.25-1.14v-.62c0-.52.08-.92.24-1.18a.8.8 0 0 1 .73-.39c.32 0 .56.13.72.37.16.25.24.62.25 1.12v.63Zm-.44-.62c0-.39-.04-.67-.13-.85-.08-.18-.22-.27-.4-.27-.18 0-.31.1-.4.27a2 2 0 0 0-.13.8v.75c0 .38.04.66.13.85.09.2.22.29.4.29.18 0 .31-.1.4-.27.08-.18.13-.46.13-.83v-.74ZM2.23 137.7a.58.58 0 0 0-.12-.38c-.08-.1-.23-.2-.43-.28-.3-.11-.5-.25-.64-.42-.14-.18-.2-.4-.2-.66 0-.27.06-.5.19-.66a.82.82 0 0 1 .54-.32v-.54h.35v.55c.23.04.4.16.53.35.13.2.2.46.2.8H2.2c0-.23-.04-.42-.13-.56-.08-.14-.2-.2-.35-.2a.42.42 0 0 0-.34.15.66.66 0 0 0-.12.42c0 .17.04.3.13.4.09.1.23.2.43.28.3.11.52.25.65.42.13.16.2.38.2.65s-.08.49-.22.66a.88.88 0 0 1-.6.31v.48h-.34v-.48a.86.86 0 0 1-.6-.34c-.14-.19-.2-.44-.2-.76h.43c0 .23.05.4.14.53.1.12.22.19.39.19s.3-.06.4-.16a.6.6 0 0 0 .15-.43Zm2.48.93h-.44v-3.05l-.76.34v-.42l1.13-.5h.07v3.63Zm3.3-1.54c0 .53-.08.93-.23 1.2-.16.26-.4.4-.73.4a.8.8 0 0 1-.72-.39 2.23 2.23 0 0 1-.25-1.14v-.62c0-.52.08-.92.23-1.18.16-.26.4-.39.73-.39.33 0 .57.13.72.37.16.25.24.62.25 1.12v.63Zm-.44-.62c0-.38-.04-.67-.12-.85-.09-.18-.22-.27-.4-.27-.19 0-.32.09-.4.27a2 2 0 0 0-.14.8v.75c0 .38.05.66.13.85.1.2.23.29.4.29.18 0 .32-.1.4-.27.08-.18.13-.46.13-.83v-.74Zm3.12.62c0 .53-.08.93-.24 1.2-.15.26-.4.4-.73.4a.8.8 0 0 1-.72-.39 2.23 2.23 0 0 1-.25-1.14v-.62c0-.52.08-.92.24-1.18.15-.26.4-.39.73-.39.32 0 .56.13.72.37.16.25.24.62.25 1.12v.63Zm-.44-.62c0-.38-.04-.67-.13-.85-.08-.18-.22-.27-.4-.27-.18 0-.31.09-.4.27a2 2 0 0 0-.13.8v.75c0 .38.04.66.13.85.09.2.22.29.4.29.18 0 .31-.1.4-.27.08-.18.13-.46.13-.83v-.74Z"/></g><g clip-path="url(#d)" fill="#fff" fill-opacity=".6"><path opacity=".5" d="M288.98 167.32c0-.18-.05-.32-.15-.41-.1-.1-.27-.2-.52-.28-.26-.1-.45-.19-.59-.29-.13-.1-.23-.21-.3-.34a.95.95 0 0 1-.1-.44c0-.28.1-.52.29-.7.19-.2.44-.28.75-.28.2 0 .4.04.56.14.17.1.3.23.38.4.1.16.14.35.14.55h-.46c0-.22-.05-.4-.16-.52-.1-.12-.26-.18-.46-.18-.19 0-.33.05-.43.15-.1.1-.15.25-.15.43 0 .16.05.28.16.38.11.1.28.2.5.28.36.12.62.26.77.43.15.18.23.4.23.68 0 .29-.1.52-.29.7a1.1 1.1 0 0 1-.77.26c-.21 0-.4-.04-.58-.13-.18-.1-.32-.22-.42-.39-.1-.17-.15-.36-.15-.57h.45c0 .22.06.4.19.52.12.12.3.18.5.18s.36-.05.46-.15c.1-.1.15-.24.15-.42Zm2.9-.03h-1.21l-.28.94h-.47l1.17-3.6h.39l1.16 3.6h-.47l-.28-.94Zm-1.1-.39h1l-.5-1.64-.5 1.64Zm4.3-1.88h-.94v3.21h-.46v-3.21h-.94v-.4h2.35v.4Zm2.86-.4v2.57c0 .34-.1.61-.3.8-.2.2-.47.3-.81.3-.36 0-.63-.1-.82-.29a1.12 1.12 0 0 1-.29-.8v-2.57h.45v2.54c0 .25.05.43.15.55.1.12.28.18.5.18.24 0 .4-.06.5-.18.11-.12.16-.3.16-.55v-2.54h.46Zm1.96 2.15h-.64v1.46h-.45v-3.6h1c.36 0 .63.09.81.27.18.19.27.46.27.81 0 .22-.05.42-.15.59a.93.93 0 0 1-.41.37l.7 1.53v.03h-.5l-.63-1.46Zm-.64-.39h.55c.2 0 .34-.06.46-.18a.7.7 0 0 0 .17-.49c0-.46-.21-.7-.63-.7h-.55v1.38Zm2.41 1.85v-3.6h.86c.42 0 .75.13.98.4.24.25.35.63.35 1.1v.6c0 .49-.12.85-.35 1.12-.24.25-.58.38-1.03.38h-.8Zm.45-3.21v2.82h.37c.32 0 .55-.09.7-.27.14-.18.22-.45.22-.81v-.64c0-.38-.07-.66-.22-.84-.14-.17-.36-.26-.66-.26h-.4Zm4.25 2.27h-1.22l-.28.94h-.47l1.17-3.6h.38l1.17 3.6h-.47l-.28-.94Zm-1.1-.39h.98l-.5-1.64-.48 1.64Zm3.21-.46.74-1.81h.51l-1.02 2.26v1.34h-.45v-1.34l-1.03-2.26h.52l.73 1.8Zm5.06.25c0 .54-.08.94-.24 1.2-.15.26-.4.4-.73.4a.8.8 0 0 1-.72-.39 2.23 2.23 0 0 1-.25-1.14v-.61c0-.53.08-.93.24-1.18.16-.26.4-.4.73-.4.32 0 .56.13.72.38.16.24.24.61.25 1.11v.63Zm-.44-.62c0-.38-.04-.66-.13-.84-.08-.19-.22-.28-.4-.28-.18 0-.31.1-.4.27a2 2 0 0 0-.13.8v.75c0 .38.04.66.13.85.09.2.22.29.4.29.18 0 .31-.1.4-.27.08-.18.13-.46.13-.83v-.74Zm1.75.14h.28c.18 0 .32-.06.41-.17.1-.11.15-.26.15-.45 0-.43-.16-.64-.5-.64a.45.45 0 0 0-.36.17.71.71 0 0 0-.13.45h-.44a1 1 0 0 1 .26-.71c.18-.19.4-.28.68-.28s.5.09.68.26c.16.18.25.43.25.76a.9.9 0 0 1-.47.78c.34.13.5.41.5.85 0 .32-.08.58-.26.77a.92.92 0 0 1-.7.28.93.93 0 0 1-.7-.27 1 1 0 0 1-.26-.73h.44c0 .2.04.35.14.46.09.11.22.17.38.17s.29-.06.38-.17c.1-.1.15-.28.15-.5 0-.44-.2-.66-.62-.66h-.26v-.37Zm2.27 2.33h-.37l1.27-3.91h.37l-1.27 3.91Zm3.88-3.66-1.24 3.35h-.45l1.24-3.23h-1.61v-.37H321v.25ZM343.7 167.32c0-.18-.04-.32-.14-.41a1.5 1.5 0 0 0-.53-.28c-.25-.1-.45-.19-.58-.29-.14-.1-.24-.21-.3-.34a.95.95 0 0 1-.1-.44c0-.28.09-.52.28-.7.2-.2.44-.28.75-.28.21 0 .4.04.57.14.16.1.29.23.38.4.09.16.13.35.13.55h-.46c0-.22-.05-.4-.16-.52-.1-.12-.26-.18-.46-.18-.18 0-.32.05-.43.15a.6.6 0 0 0-.15.43c0 .16.06.28.17.38.1.1.27.2.5.28.36.12.61.26.76.43.16.18.23.4.23.68 0 .29-.1.52-.28.7a1.1 1.1 0 0 1-.78.26c-.2 0-.4-.04-.58-.13-.18-.1-.32-.22-.42-.39-.1-.17-.15-.36-.15-.57h.46c0 .22.06.4.18.52.13.12.3.18.51.18.2 0 .35-.05.45-.15.1-.1.15-.24.15-.42Zm3.38-2.7v2.57c0 .34-.1.61-.3.8-.2.2-.46.3-.81.3-.36 0-.63-.1-.82-.29a1.12 1.12 0 0 1-.29-.8v-2.57h.45v2.54c0 .25.06.43.16.55.1.12.27.18.5.18.23 0 .4-.06.5-.18.1-.12.15-.3.15-.55v-2.54h.46Zm3.23 3.61h-.46l-1.45-2.78v2.78h-.45v-3.6h.45l1.45 2.79v-2.8h.45v3.61Zm.95 0v-3.6h.86c.42 0 .75.13.98.4.23.25.35.63.35 1.1v.6c0 .49-.12.85-.35 1.12-.24.25-.58.38-1.03.38h-.81Zm.45-3.21v2.82h.37c.32 0 .55-.09.7-.27.14-.18.22-.45.22-.81v-.64c0-.38-.07-.66-.22-.84-.14-.17-.36-.26-.66-.26h-.4Zm4.25 2.27h-1.22l-.28.94h-.47l1.16-3.6h.4l1.16 3.6h-.47l-.28-.94Zm-1.1-.39h.98l-.5-1.64-.48 1.64Zm3.21-.46.74-1.81h.51l-1.02 2.26v1.34h-.46v-1.34l-1.02-2.26h.51l.74 1.8Zm5.06.25c0 .54-.08.94-.24 1.2-.15.26-.4.4-.73.4a.8.8 0 0 1-.72-.39 2.24 2.24 0 0 1-.25-1.14v-.61c0-.53.08-.93.24-1.18.15-.26.4-.4.73-.4.32 0 .56.13.72.38.16.24.24.61.25 1.11v.63Zm-.44-.62c0-.38-.05-.66-.13-.84-.08-.19-.22-.28-.4-.28-.18 0-.31.1-.4.27a2 2 0 0 0-.13.8v.75c0 .38.04.66.13.85.09.2.22.29.4.29.18 0 .31-.1.4-.27.08-.18.12-.46.13-.83v-.74Zm2.85.95h.4v.38h-.4v.83h-.44v-.83h-1.37v-.27l1.34-2.5h.47v2.4Zm-1.32 0h.88v-1.71l-.88 1.71Zm2.49 1.52h-.37l1.27-3.91h.36l-1.26 3.91Zm3.88-3.66-1.24 3.35h-.46l1.24-3.23h-1.6v-.37h2.06v.25ZM24 164.63l.94 2.94.95-2.94h.58v3.6h-.45v-1.4l.04-1.4-.94 2.8h-.35l-.94-2.8.04 1.4v1.4h-.45v-3.6H24Zm5.77 2.12c0 .49-.1.87-.32 1.13-.2.27-.5.4-.89.4-.37 0-.67-.13-.88-.38a1.72 1.72 0 0 1-.34-1.1v-.68c0-.48.11-.86.32-1.13.22-.28.51-.41.9-.41.38 0 .67.13.88.4.22.25.32.63.33 1.11v.66Zm-.45-.63c0-.39-.07-.67-.2-.86-.12-.18-.3-.27-.56-.27-.25 0-.44.09-.57.28-.13.19-.2.46-.2.83v.65c0 .37.07.65.2.84.12.2.32.29.57.29.25 0 .44-.09.57-.27.12-.18.18-.45.19-.82v-.67Zm3.68 2.11h-.46l-1.44-2.78v2.78h-.46v-3.6h.46l1.45 2.79v-2.8H33v3.61Zm.95 0v-3.6h.86c.42 0 .75.13.98.4.23.25.35.63.35 1.1v.6c0 .49-.12.85-.35 1.12-.24.25-.58.38-1.03.38h-.8Zm.45-3.21v2.82h.37c.32 0 .55-.09.7-.27.14-.18.22-.45.22-.81v-.64c0-.38-.07-.66-.22-.84-.14-.17-.36-.26-.66-.26h-.4Zm4.25 2.27h-1.22l-.28.94h-.47l1.16-3.6h.4l1.16 3.6h-.47l-.28-.94Zm-1.1-.39h.98l-.5-1.64-.48 1.64Zm3.21-.46.74-1.81h.52l-1.03 2.26v1.34h-.45v-1.34l-1.03-2.26h.52l.73 1.8Zm5.15 1.8h-2.02v-.34l1.03-1.36c.15-.2.26-.38.32-.51.06-.14.1-.28.1-.43 0-.2-.05-.35-.14-.47a.42.42 0 0 0-.35-.18.51.51 0 0 0-.43.2c-.1.12-.15.3-.15.54h-.44c0-.33.1-.6.28-.8.18-.21.42-.31.74-.31.28 0 .51.08.68.26.16.18.24.41.24.7 0 .36-.18.78-.55 1.27l-.8 1.05h1.49v.37Zm2.51-2.67c0 .18-.04.34-.12.48a.86.86 0 0 1-.32.33c.16.08.28.2.38.36.09.15.13.32.13.52 0 .31-.09.56-.26.75a.92.92 0 0 1-.7.27c-.3 0-.53-.09-.7-.27a1.05 1.05 0 0 1-.27-.75c0-.2.05-.38.14-.53.09-.16.21-.27.37-.35a.86.86 0 0 1-.32-.33.97.97 0 0 1-.12-.48c0-.3.08-.55.25-.73a.85.85 0 0 1 .65-.26c.27 0 .48.08.64.26.17.18.25.42.25.73Zm-.37 1.68c0-.2-.05-.37-.14-.5a.46.46 0 0 0-.39-.18.45.45 0 0 0-.38.19.81.81 0 0 0-.14.49c0 .2.05.37.14.49.09.11.22.17.39.17s.3-.06.39-.17c.09-.12.13-.28.13-.49Zm-.06-1.68a.73.73 0 0 0-.13-.44.4.4 0 0 0-.33-.18.4.4 0 0 0-.34.17.75.75 0 0 0-.12.45c0 .2.04.34.13.45.08.11.2.17.33.17a.4.4 0 0 0 .33-.17.73.73 0 0 0 .13-.45Zm1.41 2.97h-.37l1.27-3.91h.37l-1.27 3.91Zm3.42-3.92v.4h-.07c-.3 0-.52.1-.69.29-.16.19-.26.48-.28.86.16-.2.36-.3.61-.3.27 0 .48.1.64.33.15.22.23.5.23.86 0 .38-.09.67-.26.9a.83.83 0 0 1-.7.32.82.82 0 0 1-.7-.39c-.18-.25-.27-.6-.27-1.03v-.18c0-.49.06-.89.16-1.18.11-.3.27-.51.48-.65.2-.15.47-.22.78-.23h.07Zm-.5 1.63a.49.49 0 0 0-.33.13c-.1.1-.17.21-.22.35v.18c0 .3.05.53.15.72.1.18.24.27.39.27.16 0 .29-.07.38-.22.1-.15.14-.35.14-.6s-.05-.44-.14-.6c-.1-.15-.22-.23-.37-.23ZM76.23 165.02h-.95v3.21h-.45v-3.21h-.95v-.4h2.35v.4Zm2.85-.4v2.57c0 .34-.1.61-.3.8-.19.2-.46.3-.8.3-.37 0-.64-.1-.83-.29a1.12 1.12 0 0 1-.28-.8v-2.57h.45v2.54c0 .25.05.43.15.55.1.12.27.18.5.18.23 0 .4-.06.5-.18.1-.12.16-.3.16-.55v-2.54h.45Zm2.6 1.95H80.4v1.28h1.5v.38h-1.95v-3.6h1.92v.39H80.4v1.16h1.28v.39Zm2.54.75c0-.18-.05-.32-.15-.41a1.5 1.5 0 0 0-.53-.28c-.25-.1-.44-.19-.58-.29-.13-.1-.23-.21-.3-.34a.95.95 0 0 1-.1-.44c0-.28.1-.52.28-.7.2-.2.45-.28.75-.28.22 0 .4.04.57.14.16.1.3.23.38.4.09.16.13.35.13.55h-.45c0-.22-.05-.4-.16-.52s-.26-.18-.47-.18c-.18 0-.32.05-.42.15-.1.1-.15.25-.15.43 0 .16.05.28.16.38.11.1.28.2.5.28.36.12.61.26.77.43.15.18.23.4.23.68 0 .29-.1.52-.29.7a1.1 1.1 0 0 1-.77.26c-.21 0-.4-.04-.59-.13-.17-.1-.31-.22-.41-.39-.1-.17-.16-.36-.16-.57h.46c0 .22.06.4.19.52.12.12.3.18.5.18s.36-.05.46-.15c.1-.1.15-.24.15-.42Zm1.22.91v-3.6h.86c.42 0 .75.13.98.4.24.25.35.63.35 1.1v.6c0 .49-.11.85-.35 1.12-.24.25-.58.38-1.03.38h-.8Zm.46-3.21v2.82h.36c.32 0 .55-.09.7-.27.15-.18.22-.45.23-.81v-.64c0-.38-.08-.66-.23-.84-.14-.17-.36-.26-.66-.26h-.4Zm4.24 2.27h-1.22l-.28.94h-.47l1.17-3.6h.39l1.16 3.6h-.47l-.28-.94Zm-1.1-.39h.98l-.49-1.64-.49 1.64Zm3.22-.46.73-1.81h.52l-1.03 2.26v1.34h-.45v-1.34L91 164.63h.52l.74 1.8Zm5.14 1.8h-2.02v-.34l1.03-1.36c.16-.2.26-.38.32-.51.06-.14.1-.28.1-.43 0-.2-.05-.35-.14-.47a.42.42 0 0 0-.35-.18.51.51 0 0 0-.43.2c-.1.12-.15.3-.15.54h-.43c0-.33.09-.6.27-.8.18-.21.43-.31.74-.31.29 0 .51.08.68.26.16.18.25.41.25.7 0 .36-.19.78-.56 1.27l-.8 1.05h1.49v.37Zm2.1-1.55c-.17.23-.38.34-.61.34a.73.73 0 0 1-.63-.34 1.48 1.48 0 0 1-.23-.87c0-.37.08-.67.25-.9.17-.23.4-.34.7-.34.3 0 .53.13.7.4.18.26.26.62.26 1.09v.13c0 .4-.03.73-.09.97-.06.25-.15.45-.26.6-.12.16-.27.27-.45.35-.18.08-.41.12-.68.12v-.39h.07c.31 0 .55-.1.7-.28.17-.19.26-.48.27-.88Zm-.54-.04c.1 0 .21-.05.31-.13.1-.1.18-.2.24-.35v-.2c0-.3-.06-.54-.16-.73-.1-.19-.23-.28-.38-.28-.16 0-.28.08-.38.23-.09.16-.13.36-.13.61s.04.45.13.61c.1.16.22.24.37.24Zm1.93 1.9h-.37l1.27-3.92h.37l-1.27 3.91Zm3.42-3.93v.4h-.07c-.29 0-.52.1-.68.29-.17.19-.26.48-.29.86.16-.2.37-.3.62-.3.26 0 .47.1.63.33.16.22.23.5.23.86 0 .38-.08.67-.26.9a.83.83 0 0 1-.7.32.82.82 0 0 1-.7-.39c-.18-.25-.27-.6-.27-1.03v-.18c0-.49.06-.89.17-1.18.1-.3.26-.51.47-.65.2-.15.47-.22.78-.23h.07Zm-.5 1.63a.49.49 0 0 0-.33.13c-.1.1-.17.21-.22.35v.18c0 .3.05.53.16.72.1.18.23.27.38.27.16 0 .3-.07.38-.22.1-.15.14-.35.14-.6s-.04-.44-.14-.6c-.09-.15-.21-.23-.37-.23ZM126.71 167.1l.05.4.07-.36.58-2.51h.38l.56 2.51.07.37.05-.42.44-2.46h.46l-.72 3.6h-.41l-.6-2.63-.04-.2-.04.2-.62 2.63h-.41l-.72-3.6h.45l.45 2.47Zm5.08-.53h-1.28v1.28H132v.38h-1.94v-3.6h1.91v.39h-1.46v1.16h1.28v.39Zm.96 1.66v-3.6h.86c.42 0 .75.13.98.4.23.25.35.63.35 1.1v.6c0 .49-.12.85-.35 1.12-.24.25-.58.38-1.03.38h-.81Zm.45-3.21v2.82h.37c.32 0 .55-.09.7-.27.14-.18.22-.45.22-.81v-.64c0-.38-.07-.66-.22-.84-.14-.17-.36-.26-.66-.26h-.4Zm4.98 3.21h-.46l-1.44-2.78v2.78h-.46v-3.6h.46l1.44 2.79v-2.8h.46v3.61Zm2.68-1.66h-1.28v1.28h1.49v.38h-1.94v-3.6h1.91v.39h-1.46v1.16h1.28v.39Zm2.54.75c0-.18-.05-.32-.15-.41-.1-.1-.27-.2-.53-.28-.25-.1-.45-.19-.58-.29-.13-.1-.24-.21-.3-.34a.95.95 0 0 1-.1-.44c0-.28.1-.52.28-.7.2-.2.44-.28.75-.28.21 0 .4.04.57.14.16.1.29.23.38.4.09.16.13.35.13.55h-.45c0-.22-.06-.4-.16-.52-.11-.12-.27-.18-.47-.18-.18 0-.32.05-.42.15-.1.1-.15.25-.15.43 0 .16.05.28.16.38.1.1.28.2.5.28.36.12.61.26.76.43.16.18.24.4.24.68 0 .29-.1.52-.29.7a1.1 1.1 0 0 1-.78.26c-.2 0-.4-.04-.58-.13-.17-.1-.31-.22-.42-.39-.1-.17-.15-.36-.15-.57h.46c0 .22.06.4.19.52.12.12.29.18.5.18.2 0 .36-.05.46-.15.1-.1.15-.24.15-.42Zm1.22.91v-3.6h.86c.42 0 .75.13.98.4.24.25.35.63.35 1.1v.6c0 .49-.12.85-.35 1.12-.24.25-.58.38-1.03.38h-.8Zm.45-3.21v2.82h.37c.32 0 .55-.09.7-.27.15-.18.22-.45.22-.81v-.64c0-.38-.07-.66-.22-.84-.14-.17-.36-.26-.66-.26h-.4Zm4.25 2.27h-1.22l-.28.94h-.47l1.16-3.6h.4l1.16 3.6h-.47l-.28-.94Zm-1.1-.39h.98l-.5-1.64-.48 1.64Zm3.22-.46.73-1.81h.52l-1.03 2.26v1.34h-.45v-1.34l-1.03-2.26h.52l.74 1.8Zm3.68-.23h.28c.18 0 .32-.06.42-.17.1-.11.14-.26.14-.45 0-.43-.16-.64-.49-.64a.45.45 0 0 0-.37.17.71.71 0 0 0-.13.45h-.44a1 1 0 0 1 .27-.71c.17-.19.4-.28.67-.28.29 0 .51.09.68.26.17.18.25.43.25.76a.9.9 0 0 1-.47.78c.34.13.51.41.51.85 0 .32-.09.58-.27.77a.92.92 0 0 1-.7.28.93.93 0 0 1-.7-.27 1 1 0 0 1-.26-.73h.44c0 .2.05.35.14.46.1.11.22.17.38.17s.3-.06.39-.17c.1-.1.14-.28.14-.5 0-.44-.2-.66-.62-.66h-.26v-.37Zm4.04.48c0 .54-.07.94-.23 1.2-.15.26-.4.4-.73.4a.8.8 0 0 1-.72-.39 2.23 2.23 0 0 1-.25-1.14v-.61c0-.53.08-.93.24-1.18.15-.26.4-.4.73-.4.32 0 .56.13.72.38.15.24.24.61.25 1.11v.63Zm-.43-.62c0-.38-.04-.66-.13-.84-.08-.19-.22-.28-.4-.28-.18 0-.32.1-.4.27a2 2 0 0 0-.13.8v.75c0 .38.04.66.13.85.09.2.22.29.4.29.18 0 .31-.1.4-.27.08-.18.12-.46.13-.83v-.74Zm1.34 2.47h-.37l1.27-3.91h.37l-1.27 3.91Zm3.42-3.92v.4h-.07c-.3 0-.52.1-.68.29-.17.19-.27.48-.29.86.16-.2.37-.3.61-.3.27 0 .48.1.64.33.15.22.23.5.23.86 0 .38-.09.67-.26.9a.83.83 0 0 1-.7.32.82.82 0 0 1-.7-.39 1.8 1.8 0 0 1-.27-1.03v-.18c0-.49.06-.89.16-1.18.11-.3.27-.51.48-.65.2-.15.47-.22.78-.23h.07Zm-.5 1.63a.49.49 0 0 0-.33.13c-.1.1-.17.21-.22.35v.18c0 .3.05.53.16.72.1.18.23.27.38.27.16 0 .29-.07.38-.22.1-.15.14-.35.14-.6s-.05-.44-.14-.6c-.1-.15-.22-.23-.37-.23ZM187.04 165.02h-.94v3.21h-.46v-3.21h-.94v-.4h2.34v.4Zm3.07 3.21h-.46v-1.66h-1.45v1.66h-.45v-3.6h.45v1.55h1.45v-1.55h.46v3.6Zm3.1-3.6v2.56c0 .34-.1.61-.3.8-.19.2-.46.3-.8.3-.37 0-.64-.1-.83-.29-.19-.19-.28-.46-.28-.8v-2.57h.45v2.54c0 .25.05.43.15.55.1.12.27.18.5.18.23 0 .4-.06.5-.18.1-.12.16-.3.16-.55v-2.54h.45Zm1.96 2.14h-.63v1.46h-.46v-3.6h1.01c.36 0 .62.09.8.27.19.19.28.46.28.81 0 .22-.05.42-.15.59a.92.92 0 0 1-.42.37l.7 1.53v.03h-.49l-.64-1.46Zm-.63-.39h.55c.19 0 .34-.06.45-.18a.7.7 0 0 0 .17-.49c0-.46-.2-.7-.63-.7h-.54v1.38Zm3.98.94c0-.18-.05-.32-.14-.41a1.5 1.5 0 0 0-.53-.28c-.26-.1-.45-.19-.59-.29-.13-.1-.23-.21-.3-.34a.95.95 0 0 1-.1-.44c0-.28.1-.52.29-.7.19-.2.44-.28.75-.28.21 0 .4.04.56.14.17.1.3.23.38.4.1.16.14.35.14.55h-.46c0-.22-.05-.4-.16-.52-.1-.12-.26-.18-.46-.18a.57.57 0 0 0-.43.15c-.1.1-.15.25-.15.43 0 .16.06.28.17.38.1.1.27.2.5.28.35.12.6.26.76.43.15.18.23.4.23.68 0 .29-.1.52-.28.7a1.1 1.1 0 0 1-.78.26c-.2 0-.4-.04-.58-.13-.18-.1-.32-.22-.42-.39-.1-.17-.15-.36-.15-.57h.45c0 .22.07.4.19.52.13.12.3.18.51.18.2 0 .35-.05.45-.15.1-.1.15-.24.15-.42Zm1.23.91v-3.6h.86c.42 0 .75.13.98.4.23.25.35.63.35 1.1v.6c0 .49-.12.85-.36 1.12-.23.25-.58.38-1.03.38h-.8Zm.45-3.21v2.82h.37c.31 0 .55-.09.7-.27.14-.18.22-.45.22-.81v-.64c0-.38-.07-.66-.22-.84-.15-.17-.37-.26-.66-.26h-.4Zm4.24 2.27h-1.22l-.28.94h-.46l1.16-3.6h.39l1.16 3.6h-.46l-.29-.94Zm-1.1-.39h.99l-.5-1.64-.49 1.64Zm3.22-.46.74-1.81h.51l-1.02 2.26v1.34h-.46v-1.34l-1.02-2.26h.51l.74 1.8Zm5.05.25c0 .54-.07.94-.23 1.2-.15.26-.4.4-.73.4a.8.8 0 0 1-.72-.39 2.24 2.24 0 0 1-.25-1.14v-.61c0-.53.08-.93.23-1.18.16-.26.4-.4.74-.4.32 0 .56.13.72.38.15.24.24.61.24 1.11v.63Zm-.44-.62c0-.38-.04-.66-.12-.84-.09-.19-.22-.28-.4-.28-.19 0-.32.1-.4.27a2 2 0 0 0-.13.8v.75c0 .38.04.66.13.85.09.2.22.29.4.29.18 0 .31-.1.4-.27.08-.18.12-.46.13-.83v-.74Zm2.5 2.16h-.44v-3.05l-.76.34v-.42l1.13-.5h.07v3.63Zm1.53.31h-.37l1.26-3.91h.37l-1.26 3.91Zm3.88-3.66-1.24 3.35h-.46l1.24-3.23h-1.6v-.37h2.06v.25ZM241.66 166.64h-1.22v1.6h-.45v-3.61h1.87v.39h-1.42v1.23h1.22v.4Zm2.02.13h-.63v1.46h-.46v-3.6h1.01c.36 0 .62.09.8.27.19.19.28.46.28.81 0 .22-.05.42-.15.59a.93.93 0 0 1-.42.37l.7 1.53v.03h-.49l-.64-1.46Zm-.63-.39h.55c.19 0 .34-.06.45-.18a.7.7 0 0 0 .17-.49c0-.46-.2-.7-.63-.7h-.54v1.38Zm2.88 1.85h-.45v-3.6h.45v3.6Zm.97 0v-3.6h.85c.43 0 .75.13.99.4.23.25.34.63.34 1.1v.6c0 .49-.11.85-.35 1.12-.23.25-.58.38-1.03.38h-.8Zm.45-3.21v2.82h.36c.32 0 .55-.09.7-.27.15-.18.22-.45.23-.81v-.64c0-.38-.08-.66-.22-.84-.15-.17-.37-.26-.66-.26h-.41Zm4.24 2.27h-1.22l-.28.94h-.46l1.16-3.6h.39l1.16 3.6h-.46l-.29-.94Zm-1.1-.39h.98l-.49-1.64-.49 1.64Zm3.22-.46.74-1.81h.5l-1.02 2.26v1.34h-.45v-1.34l-1.03-2.26h.52l.74 1.8Zm5.05.25c0 .54-.08.94-.23 1.2-.16.26-.4.4-.73.4a.8.8 0 0 1-.72-.39 2.22 2.22 0 0 1-.25-1.14v-.61c0-.53.08-.93.23-1.18.16-.26.4-.4.73-.4.33 0 .57.13.72.38.16.24.24.61.25 1.11v.63Zm-.44-.62c0-.38-.04-.66-.12-.84-.09-.19-.22-.28-.4-.28-.19 0-.32.1-.4.27a2 2 0 0 0-.13.8v.75c0 .38.04.66.13.85.08.2.22.29.4.29.18 0 .3-.1.4-.27.08-.18.12-.46.12-.83v-.74Zm3.2 2.16h-2v-.33l1.02-1.36a3 3 0 0 0 .32-.51c.06-.14.1-.28.1-.43 0-.2-.05-.35-.14-.47a.42.42 0 0 0-.35-.18.51.51 0 0 0-.43.2c-.1.12-.15.3-.15.54h-.44c0-.33.1-.6.28-.8.18-.21.42-.31.74-.31.28 0 .51.08.68.26.16.18.24.41.24.7 0 .36-.18.78-.55 1.27l-.8 1.05h1.49v.37Zm.83.31h-.38l1.27-3.91h.37l-1.26 3.91Zm3.88-3.66-1.24 3.35h-.46l1.24-3.23h-1.61v-.37h2.07v.25Z"/></g><g opacity=".07" stroke="#fff" stroke-width=".42" stroke-linecap="square" stroke-dasharray="0.42 0.42 0.42"><path d="M23.46 20.51h346.79M23.46 20.51h346.79M23.46 35.31h346.79M23.46 49.69h346.79M23.46 64.07h346.79M23.46 78.87h346.79M23.46 93.25h346.79M23.46 107.63h346.79M23.46 122.43h346.79M23.46 136.8h346.79M23.46 150.65h346.79"/></g><g filter="url(#e)"><path d="M22.84 150.5c42.8 0 40.27-39.7 83.08-39.7 42.81 0 42.81-43.25 85.62-43.25s42.81 66.3 85.62 66.3 50.48-110.4 93.29-110.4" stroke="#42B8EA" stroke-width="1.27"/></g><path d="m1.08 3.86.04.4.08-.35.57-2.52h.38l.56 2.52.08.37.05-.42.44-2.47h.45L3.01 5h-.4L2 2.37l-.05-.21-.03.21L1.3 5H.9L.17 1.4h.45l.45 2.46Zm5.6.2H5.44L5.17 5h-.46l1.16-3.6h.39L7.42 5h-.46l-.29-.94Zm-1.1-.4h.98l-.5-1.63-.49 1.64Zm3.64.95h1.41V5H8.76V1.4h.46V4.6Zm3.26 0h1.41V5h-1.87V1.4h.46V4.6ZM17 3.33h-1.28v1.28h1.49V5h-1.94V1.4h1.91v.38h-1.46v1.16h1.28v.4Zm3.8-1.55h-.95V5h-.46V1.78h-.94V1.4h2.35v.4Zm3.74 1.8V5h-.45V1.4h1.15c.33 0 .6.1.79.3.19.2.28.46.28.8s-.09.6-.27.8c-.18.18-.44.28-.77.29h-.73Zm0-.38h.7c.2 0 .35-.06.46-.18.1-.12.16-.3.16-.52a.78.78 0 0 0-.17-.52.57.57 0 0 0-.45-.2h-.7V3.2Zm4.94.13H28.2v1.28h1.49V5h-1.94V1.4h1.91v.38h-1.46v1.16h1.28v.4Zm2.72.21h-.63V5h-.46V1.4h1.02c.35 0 .62.08.8.27.18.18.27.45.27.8 0 .23-.05.43-.15.6a.93.93 0 0 1-.41.37l.7 1.53V5h-.5l-.64-1.46Zm-.63-.39h.55c.19 0 .34-.06.45-.18a.7.7 0 0 0 .17-.5c0-.45-.2-.69-.62-.69h-.55v1.37Zm4.76.26h-1.22V5h-.45V1.4h1.87v.38h-1.42v1.24h1.22v.39Zm3.96.1c0 .5-.1.87-.32 1.14-.2.27-.5.4-.9.4a1.1 1.1 0 0 1-.87-.39 1.72 1.72 0 0 1-.34-1.1V2.9c0-.49.1-.86.32-1.14.21-.27.51-.4.9-.4.37 0 .67.12.88.39.21.26.32.63.33 1.12v.65Zm-.46-.63c0-.38-.06-.66-.19-.85-.12-.19-.31-.28-.57-.28-.25 0-.44.1-.57.28-.12.2-.19.47-.19.84v.64c0 .37.07.65.2.85.12.19.31.29.57.29.25 0 .44-.1.56-.27.12-.18.19-.45.2-.82v-.68Zm3.1.66h-.64V5h-.46V1.4h1.01c.36 0 .63.08.8.27.19.18.28.45.28.8 0 .23-.05.43-.15.6a.93.93 0 0 1-.42.37l.7 1.53V5h-.48l-.65-1.46Zm-.64-.39h.55c.19 0 .34-.06.45-.18a.7.7 0 0 0 .17-.5c0-.45-.2-.69-.63-.69h-.54v1.37Zm3.67-1.76.94 2.95.94-2.95h.59V5h-.46V3.6l.05-1.41L47.08 5h-.34l-.94-2.8.04 1.4V5h-.46V1.4h.59Zm5.82 2.67h-1.22L50.3 5h-.46l1.16-3.6h.39L52.54 5h-.46l-.29-.94Zm-1.1-.4h.99l-.5-1.63-.49 1.64ZM56.24 5h-.46l-1.44-2.78V5h-.46V1.4h.46l1.45 2.78V1.4h.45V5Zm3.9-1.14c-.03.38-.14.68-.34.88-.2.2-.47.31-.83.31s-.65-.14-.86-.41a1.79 1.79 0 0 1-.32-1.12v-.66c0-.47.1-.84.32-1.1.22-.28.52-.42.9-.42.35 0 .62.1.8.32.2.2.3.5.32.9h-.46c-.02-.3-.08-.51-.18-.64-.1-.12-.27-.19-.48-.19-.25 0-.43.1-.57.3-.13.19-.2.47-.2.84v.66c0 .37.07.65.19.84.12.2.3.3.54.3.23 0 .4-.07.5-.18.11-.12.18-.33.2-.63h.46Zm3.18-.53h-1.27v1.28h1.48V5H61.6V1.4h1.92v.38h-1.46v1.16h1.27v.4Z" fill="#42B8EA"/><path fill="#42B8EA" d="M58.78 3.38h51.17v.42H58.78z"/><g clip-path="url(#f)"><path d="m293.71 3.86.05.4.07-.35.58-2.52h.38l.56 2.52.07.37.05-.42.44-2.47h.46L295.65 5h-.4l-.61-2.63-.04-.21-.04.21-.62 2.63h-.41l-.72-3.6h.46l.44 2.46Zm5.76-.53h-1.28v1.28h1.49V5h-1.94V1.4h1.91v.38h-1.46v1.16h1.28v.4Zm3.36 0h-1.27v1.28h1.49V5h-1.94V1.4h1.91v.38h-1.46v1.16h1.27v.4Zm2.45 0-.35.44V5h-.46V1.4h.46v1.73l.3-.39.96-1.35h.55L305.57 3 306.83 5h-.54l-1-1.66Z" fill="#42B8EA"/><path opacity=".5" d="m322.79 1.4.94 2.94.94-2.95h.59V5h-.46V3.6l.05-1.41L323.9 5h-.35l-.94-2.8.05 1.4V5h-.46V1.4h.59Zm6.44 2.11c0 .5-.1.87-.31 1.14-.21.27-.51.4-.9.4a1.1 1.1 0 0 1-.88-.39 1.72 1.72 0 0 1-.33-1.1V2.9c0-.49.1-.86.31-1.14.22-.27.52-.4.9-.4s.67.12.88.39c.22.26.33.63.33 1.12v.65Zm-.45-.63c0-.38-.06-.66-.19-.85-.12-.19-.31-.28-.57-.28-.25 0-.44.1-.57.28-.13.2-.2.47-.2.84v.64c0 .37.07.65.2.85.13.19.32.29.57.29.26 0 .44-.1.57-.27.12-.18.18-.45.19-.82v-.68ZM333.14 5h-.46l-1.45-2.78V5h-.45V1.4h.45l1.45 2.78V1.4h.45V5Zm3.66-3.22h-.95V5h-.45V1.78h-.95V1.4h2.35v.4ZM340.54 5h-.46V3.33h-1.45V5h-.45V1.4h.45v1.54h1.45V1.4h.46V5ZM357.4 3.2l.74-1.8h.5l-1.02 2.25V5h-.45V3.65l-1.03-2.26h.52l.74 1.81Zm4.3.13h-1.28v1.28h1.48V5h-1.94V1.4h1.92v.38h-1.46v1.16h1.27v.4Zm3.31.73h-1.21l-.28.94h-.47l1.16-3.6h.4l1.16 3.6h-.47l-.29-.94Zm-1.1-.4h.99l-.5-1.63-.48 1.64Zm4.28-.12h-.63V5h-.46V1.4h1.01c.36 0 .62.08.8.27.19.18.28.45.28.8 0 .23-.05.43-.15.6a.93.93 0 0 1-.42.37l.7 1.53V5h-.49l-.64-1.46Zm-.63-.39h.55c.19 0 .34-.06.45-.18a.7.7 0 0 0 .17-.5c0-.45-.2-.69-.63-.69h-.54v1.37Z" fill="#fff" fill-opacity=".6"/></g></g><defs><clipPath id="a"><path fill="#fff" transform="translate(-223 -1356)" d="M0 0h1920v4611H0z"/></clipPath><clipPath id="c"><path fill="#fff" transform="translate(0 16.92)" d="M0 0h10.99v137.01H0z"/></clipPath><clipPath id="d"><path fill="#fff" transform="translate(22.84 163.23)" d="M0 0h348.04v6.77H0z"/></clipPath><clipPath id="f"><path fill="#fff" transform="translate(292.64)" d="M0 0h77.81v6.77H0z"/></clipPath><radialGradient id="b" cx="0" cy="0" r="1" gradientUnits="userSpaceOnUse" gradientTransform="rotate(89.46 -138.56 1097.3) scale(1484.28 1163.15)"><stop stop-color="#4B4B4B"/><stop offset="1" stop-opacity="0"/></radialGradient><filter id="e" x="16.07" y="19.44" width="361.14" height="141.85" filterUnits="userSpaceOnUse" color-interpolation-filters="sRGB"><feFlood flood-opacity="0" result="BackgroundImageFix"/><feColorMatrix in="SourceAlpha" values="0 0 0 0 0 0 0 0 0 0 0 0 0 0 0 0 0 0 127 0" result="hardAlpha"/><feOffset dy="3.38"/><feGaussianBlur stdDeviation="3.38"/><feColorMatrix values="0 0 0 0 0.25098 0 0 0 0 0.196078 0 0 0 0 0.0745098 0 0 0 0.5 0"/><feBlend in2="BackgroundImageFix" result="effect1_dropShadow_0_1"/><feBlend in="SourceGraphic" in2="effect1_dropShadow_0_1" result="shape"/></filter></defs></svg>