<svg width="191" height="170" fill="none" xmlns="http://www.w3.org/2000/svg"><g clip-path="url(#a)"><g clip-path="url(#b)"><path fill-rule="evenodd" clip-rule="evenodd" d="M61.19 128.1h68.04l22.84-31.9H38.35l22.84 31.9Z" fill="#01669F"/><path fill-rule="evenodd" clip-rule="evenodd" d="m61.19 128.1 5.3 31.61h57.44l5.3-31.61H61.2Z" fill="#42B8EA"/><path fill-rule="evenodd" clip-rule="evenodd" d="m29.44 64.28 8.91 31.91h113.72L161 64.3H29.44Z" fill="#104F8E"/><path fill-rule="evenodd" clip-rule="evenodd" d="m10.21 32.67 19.23 31.61h131.54l19.23-31.6h-170Z" fill="#226FC7"/><path d="m77.55 46.1-1.65 3.73-1.64-3.72h-.5l1.9 4.28h.45l1.9-4.28h-.46Zm1.2.37c.18 0 .31-.14.31-.32a.3.3 0 0 0-.32-.3.31.31 0 0 0-.31.3c0 .18.14.32.31.32Zm-.23 3.92h.44v-3.22h-.44v3.22Zm2.51.03c.84 0 1.33-.36 1.33-.91 0-1.24-2.09-.59-2.09-1.46 0-.3.26-.53.84-.53.33 0 .67.08.95.28l.2-.35c-.28-.19-.73-.3-1.15-.3-.82 0-1.27.39-1.27.92 0 1.27 2.09.6 2.09 1.45 0 .32-.25.52-.87.52-.45 0-.89-.15-1.14-.36l-.2.35c.26.22.78.4 1.31.4Zm2.36-3.95c.18 0 .31-.14.31-.32a.3.3 0 0 0-.31-.3.31.31 0 0 0-.32.3c0 .18.14.32.32.32Zm-.22 3.92h.43v-3.22h-.43v3.22Zm3.18-.5a.72.72 0 0 1-.47.16c-.36 0-.56-.2-.56-.59v-1.92h.98v-.37h-.98v-.7h-.44v.7h-.57v.37h.57v1.95c0 .6.34.93.95.93.25 0 .5-.07.68-.22l-.16-.31Zm2.15.53c.95 0 1.64-.68 1.64-1.64 0-.95-.7-1.63-1.64-1.63s-1.64.68-1.64 1.63c0 .96.7 1.64 1.64 1.64Zm0-.38c-.68 0-1.2-.5-1.2-1.26 0-.75.52-1.25 1.2-1.25.69 0 1.2.5 1.2 1.25 0 .76-.51 1.26-1.2 1.26Zm2.94-2.24v-.63h-.41v3.22h.43v-1.64c0-.76.41-1.19 1.09-1.19h.1v-.41c-.6 0-1 .22-1.2.65Zm2.1.01a.33.33 0 0 0 0-.66.32.32 0 0 0-.32.33c0 .19.14.33.32.33Zm0 2.61a.33.33 0 0 0 0-.66.32.32 0 0 0-.32.33c0 .19.14.33.32.33Zm2.3-4.31v.39h1.02v3.9h.44v-4.3h-1.45Zm3.61 1.75h-.55l.15-1.36H101v-.4h-2.35l-.22 2.16h.91c1.1 0 1.44.34 1.44.89 0 .52-.39.88-1.12.88-.55 0-1.04-.21-1.31-.5l-.22.35c.33.34.92.55 1.54.55 1.05 0 1.55-.57 1.55-1.3 0-.76-.48-1.27-1.78-1.27Zm2.88 2.14 1.46-1.43c.58-.57.7-.93.7-1.34 0-.72-.54-1.16-1.41-1.16-.66 0-1.2.22-1.52.61l.3.27c.3-.32.68-.48 1.18-.48.65 0 1 .3 1 .8 0 .3-.09.59-.57 1.07l-1.78 1.74v.31h3V50h-2.36Zm3.31-.24a.32.32 0 0 0-.32.33c0 .16.1.27.22.31l-.2.89h.28l.26-.85a.99.99 0 0 0 .09-.35.32.32 0 0 0-.33-.33Zm4.53-.89h-.86v-.99h-.42v1h-1.87l2.2-2.77h-.5l-2.27 2.84v.32h2.42v1.12h.44v-1.12h.86v-.4Zm2.92-.72c.44-.18.69-.5.69-.95 0-.7-.6-1.13-1.51-1.13s-1.5.43-1.5 1.13c0 .45.23.77.67.95-.53.17-.83.53-.83 1.05 0 .76.63 1.23 1.66 1.23 1.02 0 1.66-.47 1.66-1.23 0-.51-.3-.88-.84-1.05Zm-1.88-.94c0-.47.4-.77 1.06-.77.64 0 1.06.3 1.06.78 0 .47-.4.77-1.06.77-.67 0-1.06-.3-1.06-.78Zm1.06 2.85c-.76 0-1.21-.33-1.21-.87 0-.52.45-.85 1.2-.85.77 0 1.22.33 1.22.85 0 .54-.45.87-1.21.87Zm3.4-2.2h-.55l.15-1.36h1.96v-.4h-2.35l-.22 2.16h.91c1.1 0 1.44.34 1.44.89 0 .52-.39.88-1.12.88-.55 0-1.04-.21-1.32-.5l-.21.35c.33.34.92.55 1.54.55 1.04 0 1.55-.57 1.55-1.3 0-.76-.49-1.27-1.78-1.27ZM67.23 82.05h.46v-4.3h-.46v4.3Zm3.4-3.25c-.56 0-1 .23-1.22.62v-.6h-.42v3.23h.43v-1.7c0-.73.44-1.16 1.13-1.16.61 0 .97.35.97 1.03v1.83h.43v-1.87c0-.93-.54-1.38-1.32-1.38Zm4.05 2.74a.72.72 0 0 1-.48.16c-.36 0-.56-.2-.56-.59V79.2h.98v-.37h-.98v-.7h-.43v.7h-.58v.37h.58v1.95c0 .6.34.94.94.94.25 0 .51-.08.68-.23l-.15-.31Zm3.64-1.1c0-.97-.65-1.64-1.56-1.64-.9 0-1.57.68-1.57 1.63 0 .96.68 1.65 1.69 1.65.5 0 .95-.19 1.24-.53l-.25-.28c-.24.28-.59.42-.98.42-.7 0-1.22-.45-1.27-1.12h2.7v-.14Zm-1.56-1.27c.63 0 1.09.44 1.15 1.07h-2.29c.06-.63.51-1.07 1.14-1.07Zm2.86.28v-.63h-.41v3.23h.43V80.4c0-.76.41-1.18 1.09-1.18h.1v-.42c-.6 0-1 .23-1.2.65Zm3.12-.65c-.5 0-.99.16-1.31.43l.2.33c.26-.23.65-.38 1.07-.38.6 0 .9.3.9.85v.2H82.6c-.93 0-1.25.41-1.25.9 0 .57.45.95 1.18.95.53 0 .91-.2 1.1-.54v.5h.42v-2c0-.82-.47-1.24-1.3-1.24Zm-.15 2.93c-.52 0-.82-.23-.82-.6 0-.33.2-.58.83-.58h1v.53c-.16.42-.52.65-1.01.65Zm3.98.35c.55 0 1-.22 1.26-.64l-.32-.22c-.22.32-.56.47-.94.47-.7 0-1.22-.5-1.22-1.26 0-.75.52-1.25 1.22-1.25.38 0 .72.15.94.48l.32-.22c-.25-.43-.71-.64-1.26-.64-.96 0-1.66.67-1.66 1.63 0 .97.7 1.65 1.66 1.65Zm3.7-.54a.72.72 0 0 1-.48.16c-.36 0-.56-.2-.56-.59V79.2h.98v-.37h-.98v-.7h-.43v.7h-.58v.37h.58v1.95c0 .6.34.94.94.94.25 0 .51-.08.68-.23l-.15-.31Zm1.16-3.42c.19 0 .32-.14.32-.32a.3.3 0 0 0-.32-.3.31.31 0 0 0-.31.3c0 .18.14.32.31.32Zm-.22 3.93h.44v-3.23h-.44v3.23Zm2.97.03c.94 0 1.63-.69 1.63-1.65 0-.95-.69-1.63-1.63-1.63-.95 0-1.65.68-1.65 1.63 0 .96.7 1.65 1.65 1.65Zm0-.39c-.69 0-1.2-.5-1.2-1.26 0-.75.51-1.25 1.2-1.25.68 0 1.2.5 1.2 1.25 0 .76-.52 1.26-1.2 1.26Zm4.16-2.9c-.56 0-1 .24-1.22.63v-.6h-.42v3.23h.43v-1.7c0-.73.44-1.16 1.13-1.16.61 0 .97.35.97 1.03v1.83h.44v-1.87c0-.93-.54-1.38-1.33-1.38Zm3.37 3.29c.84 0 1.33-.37 1.33-.92 0-1.24-2.09-.58-2.09-1.45 0-.31.26-.54.84-.54.33 0 .67.08.95.28l.19-.35c-.27-.18-.72-.3-1.14-.3-.82 0-1.28.4-1.28.92 0 1.27 2.1.61 2.1 1.45 0 .32-.26.53-.87.53-.45 0-.89-.16-1.14-.37l-.2.35c.26.22.78.4 1.31.4Zm2.18-2.61a.33.33 0 0 0 0-.67.32.32 0 0 0-.33.33c0 .19.15.34.33.34Zm0 2.6a.33.33 0 0 0 0-.66.32.32 0 0 0-.33.33c0 .19.15.34.33.34Zm2.44-4.31v1.2h.44v-.81h2.2l-1.76 3.9h.48l1.8-3.98v-.31h-3.16Zm3.61 0v1.2h.44v-.81h2.2l-1.76 3.9h.48l1.79-3.98v-.31h-3.15Zm3.75 3.65a.32.32 0 0 0-.33.33c0 .16.1.27.22.31l-.2.89h.29l.25-.85a.98.98 0 0 0 .09-.35.32.32 0 0 0-.32-.33Zm.62-3.65v.39h1.01v3.9h.44v-4.3h-1.45Zm6.12 2.77h-.85v-1h-.43v1h-1.87l2.2-2.77h-.5l-2.27 2.84v.32h2.43v1.13h.44v-1.13h.85v-.4Zm1.78-.94 1.21-1.52v-.31h-2.76v.39h2.2l-1.2 1.49v.32h.31c.8 0 1.16.34 1.16.85 0 .54-.39.87-1.1.87-.56 0-1.05-.21-1.33-.5l-.21.35c.33.34.92.55 1.54.55 1.03 0 1.55-.55 1.55-1.27 0-.68-.45-1.17-1.37-1.22ZM78.03 113.7h2.86v-.4h-2.4v-3.9h-.46v4.3Zm6.28-1.61c0-.97-.65-1.64-1.56-1.64-.9 0-1.57.68-1.57 1.64 0 .95.68 1.64 1.69 1.64.5 0 .95-.19 1.24-.53l-.24-.28c-.25.28-.6.42-.99.42-.7 0-1.22-.45-1.27-1.12h2.7v-.13Zm-1.56-1.27c.63 0 1.1.45 1.15 1.08H81.6c.06-.64.52-1.08 1.14-1.08Zm3.49-.37c-.51 0-.99.16-1.31.44l.2.32c.26-.23.65-.38 1.06-.38.6 0 .92.3.92.85v.2h-1.03c-.92 0-1.24.41-1.24.91 0 .56.45.94 1.18.94.53 0 .9-.2 1.1-.54v.5h.42v-1.99c0-.83-.47-1.25-1.3-1.25Zm-.16 2.93c-.51 0-.81-.23-.81-.6 0-.33.2-.58.83-.58h1v.53c-.16.42-.53.65-1.02.65Zm5.16-4.23v1.94a1.4 1.4 0 0 0-1.22-.64c-.92 0-1.6.66-1.6 1.64-.01.97.68 1.64 1.6 1.64.53 0 .98-.23 1.24-.67v.64h.42v-4.55h-.44Zm-1.19 4.2c-.68 0-1.2-.51-1.2-1.26 0-.76.52-1.26 1.2-1.26.68 0 1.2.5 1.2 1.26 0 .75-.52 1.25-1.2 1.25Zm3.7.38c.84 0 1.33-.36 1.33-.92 0-1.24-2.09-.58-2.09-1.45 0-.31.26-.54.84-.54.33 0 .67.08.95.28l.19-.35c-.27-.18-.72-.3-1.14-.3-.82 0-1.27.4-1.27.92 0 1.27 2.09.61 2.09 1.45 0 .32-.26.53-.87.53-.45 0-.89-.16-1.14-.36l-.2.34c.26.23.78.4 1.31.4Zm2.18-2.61a.33.33 0 0 0 0-.67.32.32 0 0 0-.33.33c0 .2.15.34.33.34Zm0 2.6a.33.33 0 1 0 0-.67.32.32 0 0 0-.33.34c0 .19.15.34.33.34Zm4.03-2.47 1.2-1.53v-.31h-2.75v.4h2.2l-1.2 1.48v.32h.31c.8 0 1.16.34 1.16.86 0 .53-.4.86-1.1.86-.56 0-1.06-.2-1.33-.5l-.22.35c.34.34.93.55 1.55.55 1.03 0 1.55-.55 1.55-1.27 0-.68-.45-1.16-1.37-1.21Zm2.33 1.81a.32.32 0 0 0-.32.33c0 .16.09.28.22.31l-.21.9h.3l.25-.85a1 1 0 0 0 .09-.36.32.32 0 0 0-.33-.33Zm2.3-3.69c-.83 0-1.47.52-1.47 1.32 0 .78.6 1.28 1.45 1.28.6 0 1.1-.26 1.31-.73l.02.35c0 1.16-.6 1.76-1.52 1.76a1.5 1.5 0 0 1-.83-.2l-.18.35c.27.17.63.23 1.02.23 1.16 0 1.96-.76 1.96-2.21 0-1.36-.62-2.15-1.76-2.15Zm.05 2.23c-.66 0-1.08-.36-1.08-.92 0-.57.43-.94 1.05-.94.74 0 1.13.45 1.13.92 0 .54-.45.94-1.1.94Zm2.9 1.7 1.46-1.43c.58-.56.7-.93.7-1.34 0-.72-.54-1.16-1.41-1.16-.66 0-1.2.22-1.52.61l.3.27c.3-.32.68-.47 1.18-.47.66 0 1 .3 1 .8 0 .3-.09.58-.57 1.06l-1.78 1.74v.32h3v-.4h-2.36Zm4.38-2.05 1.2-1.53v-.31h-2.75v.4h2.2l-1.2 1.48v.32h.31c.8 0 1.16.34 1.16.86 0 .53-.4.86-1.1.86-.56 0-1.06-.2-1.33-.5l-.22.35c.33.34.93.55 1.55.55 1.03 0 1.55-.55 1.55-1.27 0-.68-.46-1.16-1.38-1.21ZM76.72 141.06v3.48l-2.76-3.48h-.38v4.29h.46v-3.48l2.76 3.48h.37v-4.29h-.45Zm4.57 2.68c0-.97-.66-1.64-1.56-1.64-.91 0-1.58.68-1.58 1.64 0 .95.69 1.64 1.7 1.64.5 0 .95-.19 1.24-.53l-.25-.28c-.24.28-.6.42-.98.42-.71 0-1.22-.44-1.27-1.12h2.7v-.13Zm-1.56-1.27c.63 0 1.09.45 1.14 1.08H78.6c.05-.63.51-1.08 1.14-1.08Zm6.72-.34-1.03 2.74-1.03-2.74h-.37l-1.04 2.74-1-2.74h-.42l1.2 3.22h.42l1.02-2.64 1.01 2.64h.41l1.22-3.22h-.4Zm8.2-1.07-1.26 3.7-1.26-3.7h-.42l-1.29 3.69-1.23-3.69h-.47l1.45 4.29h.47l1.26-3.66 1.26 3.66h.47l1.45-4.29h-.43Zm1.37.36c.19 0 .32-.14.32-.32a.3.3 0 0 0-.32-.3.31.31 0 0 0-.32.3c0 .18.14.32.32.32Zm-.22 3.93h.44v-3.22h-.44v3.22Zm3.29-3.25c-.56 0-1 .23-1.23.62v-.6h-.41v3.23h.43v-1.7c0-.73.44-1.16 1.13-1.16.61 0 .97.35.97 1.03v1.83h.43v-1.87c0-.92-.54-1.38-1.32-1.38Zm3.37 3.28c.84 0 1.33-.36 1.33-.92 0-1.24-2.1-.58-2.1-1.45 0-.3.27-.53.85-.53.33 0 .66.08.95.27l.19-.35c-.27-.18-.73-.3-1.14-.3-.82 0-1.28.4-1.28.92 0 1.27 2.1.61 2.1 1.45 0 .32-.26.53-.87.53-.46 0-.9-.16-1.15-.36l-.2.34c.27.23.78.4 1.32.4Zm2.17-2.61a.33.33 0 0 0 0-.67.32.32 0 0 0-.32.33c0 .2.15.34.32.34Zm0 2.6c.18 0 .33-.14.33-.33a.33.33 0 0 0-.33-.33.32.32 0 0 0-.32.33c0 .2.15.34.32.34Zm3.9-4.35c-.82 0-1.45.52-1.45 1.32 0 .78.59 1.29 1.44 1.29.6 0 1.1-.27 1.31-.74l.02.35c0 1.16-.6 1.76-1.52 1.76a1.5 1.5 0 0 1-.83-.2l-.18.35c.27.17.63.23 1.02.23 1.16 0 1.96-.75 1.96-2.21 0-1.36-.62-2.15-1.76-2.15Zm.06 2.23c-.66 0-1.08-.36-1.08-.92 0-.57.43-.93 1.05-.93.74 0 1.13.44 1.13.92 0 .53-.45.93-1.1.93Zm2.18-2.19v1.2h.43v-.8h2.2l-1.76 3.89h.48l1.8-3.98v-.31h-3.15Zm4.74 1.76h-.55l.15-1.37h1.96v-.39h-2.35l-.22 2.15h.91c1.1 0 1.44.34 1.44.9 0 .52-.39.87-1.12.87-.55 0-1.04-.2-1.32-.5l-.21.35c.33.34.92.55 1.54.55 1.04 0 1.55-.56 1.55-1.3 0-.75-.49-1.26-1.78-1.26Z" fill="#fff"/></g><path d="M13.63 19.28a3.2 3.2 0 0 1-1.56-.38 2.84 2.84 0 0 1-1.47-2.55c0-.55.13-1.05.4-1.5.26-.44.62-.79 1.08-1.04.46-.25.98-.38 1.55-.38.45 0 .86.07 1.23.23.37.14.68.36.95.66l-.53.51a2.13 2.13 0 0 0-1.61-.68c-.43 0-.81.1-1.16.29a2.1 2.1 0 0 0-1.09 1.91 2.11 2.11 0 0 0 1.1 1.91c.34.2.72.29 1.15.29.63 0 1.17-.23 1.6-.69l.54.52c-.27.3-.58.51-.96.67-.37.15-.78.23-1.22.23Zm4.9-.02c-.43 0-.82-.1-1.16-.29a2.11 2.11 0 0 1-1.1-1.92c0-.43.1-.8.29-1.14.2-.34.46-.6.8-.78.35-.2.74-.29 1.17-.29.43 0 .81.1 1.15.29.34.18.6.44.8.78.2.33.3.71.3 1.14 0 .42-.1.8-.3 1.14-.2.33-.46.6-.8.78-.34.2-.72.29-1.15.29Zm0-.69c.28 0 .52-.06.74-.18.22-.14.4-.31.52-.54.13-.24.2-.5.2-.8 0-.3-.07-.57-.2-.8-.12-.23-.3-.41-.52-.54a1.46 1.46 0 0 0-.74-.18c-.28 0-.53.06-.75.18-.22.13-.4.3-.53.54-.12.23-.18.5-.18.8 0 .3.06.56.18.8.13.23.3.4.53.54.22.12.47.18.75.18Zm8.74-3.73c.55 0 .98.16 1.3.47.32.32.48.79.48 1.4v2.5h-.79v-2.4c0-.42-.1-.74-.3-.95-.18-.21-.46-.32-.82-.32-.4 0-.71.13-.94.38-.24.24-.36.6-.36 1.06v2.23h-.78v-2.4c0-.42-.1-.74-.3-.95-.18-.21-.46-.32-.82-.32-.4 0-.71.13-.95.38-.23.24-.35.6-.35 1.06v2.23h-.78v-4.33h.75v.65c.16-.23.36-.4.62-.51.26-.12.55-.18.87-.18.34 0 .64.07.9.2.26.14.47.34.6.6.17-.25.4-.45.69-.59.29-.14.62-.21.98-.21Zm5.51 0c.42 0 .8.1 1.13.28.33.18.6.44.78.77.19.34.28.72.28 1.16 0 .43-.1.82-.28 1.16-.19.33-.45.59-.78.77a2.28 2.28 0 0 1-1.98.1c-.26-.12-.48-.3-.66-.52v2.24h-.78v-5.92h.75v.69c.18-.24.4-.42.66-.54.27-.13.56-.19.88-.19Zm-.06 3.73c.28 0 .52-.06.74-.18.23-.14.4-.31.53-.54.13-.24.2-.5.2-.8 0-.3-.07-.57-.2-.8-.13-.23-.3-.41-.53-.54a1.46 1.46 0 0 0-.74-.18 1.44 1.44 0 0 0-1.27.72c-.12.23-.18.5-.18.8 0 .3.06.56.18.8a1.38 1.38 0 0 0 1.27.72Zm4.87-3.73c.6 0 1.06.15 1.38.44.32.3.48.73.48 1.32v2.61h-.75v-.57c-.13.2-.31.36-.56.46-.24.1-.52.16-.86.16-.48 0-.87-.12-1.16-.35a1.13 1.13 0 0 1-.44-.92c0-.39.14-.7.42-.92.28-.23.72-.35 1.32-.35h1.24v-.16c0-.33-.1-.6-.29-.77-.2-.18-.49-.27-.87-.27a2.23 2.23 0 0 0-1.37.46l-.33-.58c.23-.18.5-.32.8-.41.32-.1.65-.15 1-.15Zm-.18 3.82c.3 0 .56-.07.78-.2.22-.14.38-.33.47-.57v-.6h-1.2c-.67 0-1 .22-1 .66 0 .22.08.4.25.52.17.12.4.19.7.19Zm3.49-3.78h.78v4.33h-.78v-4.33Zm.4-.83a.54.54 0 0 1-.4-.15.49.49 0 0 1-.14-.36.52.52 0 0 1 .53-.51.5.5 0 0 1 .38.14c.1.1.15.21.15.36a.5.5 0 0 1-.53.52Zm6.02.83v3.74c0 .76-.19 1.32-.56 1.68-.38.36-.94.54-1.68.54-.41 0-.8-.05-1.17-.17-.37-.1-.67-.26-.9-.47l.37-.6a2.8 2.8 0 0 0 1.67.56c.5 0 .88-.12 1.12-.36.24-.24.37-.6.37-1.1v-.34c-.19.22-.42.4-.69.5a2.42 2.42 0 0 1-2-.1 2.02 2.02 0 0 1-1.07-1.83c0-.4.1-.77.29-1.08.19-.33.45-.57.78-.75a2.42 2.42 0 0 1 2.03-.08c.29.12.52.3.7.53v-.67h.74Zm-2.25 3.46c.28 0 .53-.06.76-.18.23-.11.4-.28.53-.5.13-.21.2-.46.2-.73 0-.42-.15-.76-.42-1.01a1.5 1.5 0 0 0-1.07-.4c-.44 0-.8.14-1.08.4-.28.25-.42.6-.42 1.01 0 .27.06.52.19.74.13.2.3.38.53.5.23.11.49.17.78.17Zm6.06-3.5c.55 0 .99.16 1.3.48.34.32.5.78.5 1.4v2.49h-.79v-2.4c0-.42-.1-.74-.3-.95-.2-.21-.49-.32-.86-.32-.43 0-.76.13-1 .38-.25.24-.38.6-.38 1.06v2.23h-.78v-4.33h.75v.65c.16-.22.37-.39.64-.51s.58-.18.92-.18Zm6.37-.64v2h2.87v.7H57.5v2.31h-.81v-5.72h4.03v.71H57.5Zm8.16.68v4.33h-.75v-.65c-.15.22-.36.4-.62.52s-.54.18-.85.18a1.9 1.9 0 0 1-1.36-.47c-.33-.33-.5-.8-.5-1.42v-2.49h.79v2.4c0 .42.1.74.3.96.2.21.49.32.86.32.42 0 .74-.13.98-.38s.36-.6.36-1.06v-2.24h.79Zm3.8-.04c.55 0 .99.16 1.3.48.34.32.5.78.5 1.4v2.49h-.79v-2.4c0-.42-.1-.74-.3-.95-.2-.21-.49-.32-.86-.32-.43 0-.76.13-1 .38-.25.24-.38.6-.38 1.06v2.23h-.78v-4.33h.75v.65c.16-.22.37-.39.64-.51s.58-.18.92-.18Zm5.56 0c.55 0 .99.16 1.3.48.34.32.5.78.5 1.4v2.49h-.79v-2.4c0-.42-.1-.74-.3-.95-.2-.21-.49-.32-.86-.32-.43 0-.76.13-1 .38-.25.24-.38.6-.38 1.06v2.23h-.78v-4.33h.75v.65c.16-.22.37-.39.64-.51s.58-.18.92-.18Zm7.19 2.23c0 .06 0 .14-.02.24h-3.51c.05.38.21.69.5.92.28.23.64.34 1.07.34.51 0 .93-.17 1.25-.52l.43.5c-.2.24-.44.41-.74.53-.29.12-.6.18-.97.18-.46 0-.86-.1-1.22-.28-.35-.19-.62-.45-.82-.8-.2-.33-.29-.7-.29-1.13 0-.42.1-.8.28-1.14.2-.34.45-.6.78-.78.33-.2.7-.29 1.12-.29.41 0 .78.1 1.1.29.33.18.58.44.76.78.18.34.28.72.28 1.16Zm-2.14-1.57c-.38 0-.7.12-.95.35-.25.22-.4.52-.44.9h2.77a1.37 1.37 0 0 0-1.38-1.25Zm3.23-2.35h.78v6.06h-.78v-6.06Z" fill="#3B4859"/></g><defs><clipPath id="a"><path fill="#fff" d="M0 0h190.42v170H0z"/></clipPath><clipPath id="b"><path fill="#fff" transform="translate(10.21 32.67)" d="M0 0h170v127.12H0z"/></clipPath></defs></svg>